<svg width="35" height="17" viewBox="0 0 35 17" fill="none" xmlns="http://www.w3.org/2000/svg">
<path d="M7.58344 10.1856C5.97521 10.1856 4.66675 11.494 4.66675 13.1023C4.66675 14.7105 5.97515 16.019 7.58344 16.019C9.19166 16.019 10.5001 14.7106 10.5001 13.1023C10.5001 11.4941 9.19173 10.1856 7.58344 10.1856ZM7.58344 14.8523C6.61861 14.8523 5.83344 14.0672 5.83344 13.1023C5.83344 12.1375 6.61861 11.3523 7.58344 11.3523C8.54826 11.3523 9.33344 12.1375 9.33344 13.1023C9.33344 14.0672 8.54826 14.8523 7.58344 14.8523Z" fill="#0B3F8D"/>
<path d="M34.4167 10.1856V6.68562C34.4167 6.43481 34.2562 6.21134 34.0177 6.13204L30.7265 5.03481C29.487 2.93542 27.783 0.937484 24.0176 0.277748C24.0106 0.276586 24.0036 0.275424 23.9966 0.274262C17.0427 -0.687076 11.8219 0.881498 8.47 4.93801C5.97509 4.97417 3.42822 5.49569 1.93026 6.4547C1.15445 6.95167 0.694189 7.81676 0.650986 8.73729L0.583311 10.1857C0.261338 10.1857 0 10.447 0 10.769V13.1023C0 13.4243 0.261338 13.6856 0.583311 13.6856H2.91662C3.24037 13.6856 3.49938 13.4196 3.49993 13.0959C3.49993 13.0929 3.50055 13.0901 3.50055 13.0865C3.5093 10.8389 5.3334 9.01893 7.58331 9.01893C9.83849 9.01893 11.6666 10.8471 11.6666 13.1022C11.6246 13.4563 11.904 13.6855 12.2499 13.6855H22.7499C23.0737 13.6855 23.3327 13.4196 23.3332 13.0958C23.3332 13.0929 23.3338 13.09 23.3338 13.0864C23.3425 10.8389 25.1666 9.01886 27.4166 9.01886C29.6717 9.01886 31.4999 10.847 31.4999 13.1022C31.4579 13.4563 31.7373 13.6855 32.0832 13.6855H34.4165C34.7385 13.6855 34.9998 13.4241 34.9998 13.1022V10.7689C35 10.447 34.7387 10.1856 34.4167 10.1856ZM18.6667 4.644C18.6667 4.80498 18.5361 4.93569 18.375 4.93569H10.7678C10.4983 4.93569 10.3758 4.60435 10.5746 4.42292C12.5988 2.57784 15.173 1.52257 18.3453 1.24203C18.5162 1.22685 18.6667 1.36452 18.6667 1.53604V4.644ZM25.6748 4.64687C25.673 4.80669 25.543 4.93562 25.3831 4.93562H20.125C19.964 4.93562 19.8333 4.80498 19.8333 4.64393V1.45893C19.8333 1.29733 19.9622 1.16437 20.1232 1.16437C21.2864 1.16321 22.5172 1.24777 23.8256 1.42865C24.4487 1.53829 25.0039 1.68882 25.5091 1.87373C25.6252 1.91632 25.6993 2.02891 25.6981 2.15257L25.6748 4.64687ZM28.7193 4.93562H27.1332C26.9711 4.93562 26.8398 4.80321 26.8415 4.64106L26.8567 3.06025C26.859 2.81935 27.1337 2.68865 27.328 2.83097C27.9586 3.29178 28.483 3.84071 28.9503 4.46373C29.0961 4.65794 28.9619 4.93562 28.7193 4.93562Z" fill="#0B3F8D"/>
<path d="M27.4167 10.1856C25.8085 10.1856 24.5 11.494 24.5 13.1023C24.5 14.7105 25.8084 16.019 27.4167 16.019C29.0249 16.019 30.3334 14.7106 30.3334 13.1023C30.3333 11.4941 29.0249 10.1856 27.4167 10.1856ZM27.4167 14.8523C26.4519 14.8523 25.6667 14.0672 25.6667 13.1023C25.6667 12.1375 26.4519 11.3523 27.4167 11.3523C28.3815 11.3523 29.1667 12.1375 29.1667 13.1023C29.1667 14.0672 28.3815 14.8523 27.4167 14.8523Z" fill="#0B3F8D"/>
</svg>
