<svg width="36" height="35" viewBox="0 0 36 35" fill="none" xmlns="http://www.w3.org/2000/svg">
<path d="M19.1503 4.63342H7.24414V13.1767H19.1503V4.63342Z" fill="#0B3F8D"/>
<path d="M26.3242 22.1887C26.3242 22.1974 26.3242 22.2062 26.3241 22.2149V24.5551C26.3241 26.9376 28.0127 28.869 30.0956 28.869C32.1786 28.869 33.8672 26.9376 33.8672 24.5551V11.176C33.87 9.8293 33.428 8.53098 32.6297 7.54115L26.8451 0L25.9549 0.892389L30.6236 6.9806C29.0667 7.10367 27.8919 8.64712 27.9995 10.4278C28.102 12.1235 29.3352 13.4386 30.8212 13.437C31.506 13.4335 32.1669 13.149 32.6839 12.6352V24.5551C32.6839 26.1901 31.5251 27.5156 30.0956 27.5156C28.6662 27.5156 27.5074 26.1901 27.5074 24.5551V22.2149C27.5152 20.1286 26.0429 18.4299 24.2188 18.4209C24.2121 18.4209 24.2054 18.4209 24.1986 18.4209H22.2568V19.7743H24.1986C25.3685 19.7697 26.3202 20.8506 26.3242 22.1887ZM32.4614 10.2045C32.4604 11.2418 31.7254 12.0824 30.8185 12.0836C29.9111 12.0836 29.1756 11.2423 29.1756 10.2044C29.1756 9.16657 29.9111 8.32527 30.8185 8.32527C31.7259 8.32527 32.4614 9.16657 32.4614 10.2044V10.2045Z" fill="#0B3F8D"/>
<path d="M35.3933 33.6467H21.6648V2.47751C21.6702 1.38803 20.9042 0.49869 19.9518 0.488708H6.20899C5.25805 0.488708 4.50811 1.38973 4.50811 2.47751V33.6467H1.57647C1.24976 33.6467 0.984863 33.9496 0.984863 34.3234C0.984863 34.6971 1.24976 35 1.57647 35H35.3933C35.72 35 35.9849 34.6971 35.9849 34.3234C35.9849 33.9496 35.72 33.6467 35.3933 33.6467ZM20.3336 13.8534C20.3336 14.2271 20.0687 14.5301 19.742 14.5301H6.65269C6.32598 14.5301 6.06109 14.2271 6.06109 13.8534V3.95676C6.06109 3.58306 6.32598 3.28007 6.65269 3.28007H19.742C20.0687 3.28007 20.3336 3.58306 20.3336 3.95676V13.8534Z" fill="#0B3F8D"/>
</svg>
