<svg width="31" height="30" viewBox="0 0 31 30" fill="none" xmlns="http://www.w3.org/2000/svg">
<path d="M29.1467 2.78204H25.4101V7.24079C25.4101 8.23867 24.4846 9.05143 23.346 9.05143H21.9377C20.7991 9.05143 19.8736 8.24043 19.8736 7.24079V2.78204H10.677V7.24079C10.677 8.23867 9.74973 9.05143 8.61291 9.05143H7.20282C6.06417 9.05143 5.13869 8.24043 5.13869 7.24079V2.78204H1.4003C0.77906 2.78204 0.274414 3.27041 0.274414 3.87161V28.9086C0.274414 29.5081 0.77906 29.9999 1.4003 29.9999H29.1467C29.7698 29.9999 30.2744 29.5081 30.2744 28.9086V3.87161C30.2762 3.27041 29.7698 2.78204 29.1467 2.78204ZM28.7532 28.4679C28.7532 28.653 28.5929 28.8081 28.3979 28.8081H2.15272C1.95778 28.8081 1.79746 28.653 1.79746 28.4679V13.0342C1.79746 12.8455 1.95596 12.6904 2.15272 12.6904H28.3961C28.591 12.6904 28.7514 12.8455 28.7514 13.0342L28.7532 28.4679Z" fill="#0B3F8D"/>
<path d="M7.20276 7.26551H8.61103C9.12843 7.26551 9.54927 6.94288 9.54927 6.54619V0.719323C9.54927 0.320874 9.12843 0 8.61103 0H7.20276C6.68354 0 6.2627 0.320874 6.2627 0.719323V6.54795C6.2627 6.94288 6.68354 7.26551 7.20276 7.26551Z" fill="#0B3F8D"/>
<path d="M21.9376 7.26551H23.3459C23.8651 7.26551 24.286 6.94288 24.286 6.54619V0.719323C24.286 0.320874 23.8669 0 23.3459 0H21.9376C21.4184 0 20.9976 0.320874 20.9976 0.719323V6.54795C21.0012 6.94288 21.4184 7.26551 21.9376 7.26551Z" fill="#0B3F8D"/>
<path d="M21.723 14.8201C21.477 14.5839 21.0817 14.5839 20.8376 14.8201L13.4956 21.9287L9.71351 18.2404C9.46939 18.006 9.07587 18.006 8.83175 18.2404L7.50546 19.5222C7.26315 19.7567 7.26315 20.1428 7.50546 20.3755L13.0493 25.7775C13.2916 26.012 13.6887 26.012 13.9329 25.7775L23.0475 16.9552C23.2934 16.7207 23.2934 16.3346 23.0475 16.0983L21.723 14.8201Z" fill="#0B3F8D"/>
</svg>
