<svg width="12" height="12" viewBox="0 0 12 12" fill="none" xmlns="http://www.w3.org/2000/svg">
<circle cx="6" cy="6" r="6" fill="#0B3F8D"/>
<g clip-path="url(#clip0)">
<path d="M6.54969 6.00707L8.88597 3.67072C9.03801 3.51875 9.03801 3.27303 8.88597 3.12106C8.734 2.96909 8.48829 2.96909 8.33632 3.12106L5.99997 5.45741L3.66369 3.12106C3.51164 2.96909 3.266 2.96909 3.11403 3.12106C2.96199 3.27303 2.96199 3.51875 3.11403 3.67072L5.45031 6.00707L3.11403 8.34342C2.96199 8.49539 2.96199 8.7411 3.11403 8.89307C3.18977 8.96888 3.28935 9.00696 3.38886 9.00696C3.48837 9.00696 3.58788 8.96888 3.66369 8.89307L5.99997 6.55672L8.33632 8.89307C8.41213 8.96888 8.51164 9.00696 8.61115 9.00696C8.71066 9.00696 8.81017 8.96888 8.88597 8.89307C9.03801 8.7411 9.03801 8.49539 8.88597 8.34342L6.54969 6.00707Z" fill="white"/>
</g>
<defs>
<clipPath id="clip0">
<rect width="6" height="6" fill="white" transform="translate(3 3)"/>
</clipPath>
</defs>
</svg>
