<svg width="33" height="32" viewBox="0 0 33 32" fill="none" xmlns="http://www.w3.org/2000/svg">
<path d="M19.0119 22.6527C18.9228 23.1984 18.7812 23.7256 18.5903 24.2298L20.3026 25.7813C20.0625 26.2866 19.789 26.7723 19.4735 27.2284L17.2751 26.5196C16.9283 26.9434 16.5401 27.3312 16.1162 27.6779L16.825 29.8763C16.3689 30.1919 15.8833 30.4648 15.3779 30.7054L13.8265 28.9931C13.3222 29.184 12.7956 29.3256 12.2493 29.4148L11.7609 31.6766C11.4847 31.6985 11.2075 31.7188 10.9253 31.7188C10.6431 31.7188 10.3658 31.6985 10.0891 31.6766L9.60076 29.4148C9.05498 29.3256 8.52779 29.184 8.02357 28.9931L6.47209 30.7054C5.96678 30.4653 5.48115 30.1919 5.02506 29.8763L5.73381 27.6779C5.30998 27.3312 4.92225 26.9429 4.57553 26.5196L2.37709 27.2284C2.06154 26.7723 1.78865 26.2866 1.54803 25.7813L3.26029 24.2298C3.06943 23.7256 2.92779 23.199 2.83865 22.6527L0.576777 22.1643C0.554902 21.8876 0.534668 21.6103 0.534668 21.3281C0.534668 21.0459 0.554902 20.7687 0.576777 20.492L2.83865 20.0036C2.92779 19.4578 3.06943 18.9306 3.26029 18.4264L1.54803 16.8749C1.78811 16.3696 2.06154 15.884 2.37709 15.4279L4.57553 16.1366C4.92225 15.7128 5.31053 15.3251 5.73436 14.9784L5.02561 12.7799C5.4817 12.4644 5.96732 12.1915 6.47264 11.9509L8.02412 13.6631C8.52834 13.4723 9.05498 13.3306 9.60131 13.2415L10.0897 10.9796C10.3658 10.9577 10.6431 10.9375 10.9253 10.9375C11.2075 10.9375 11.4847 10.9577 11.7615 10.9796L12.2498 13.2415C12.7956 13.3306 13.3228 13.4723 13.827 13.6631L15.3785 11.9509C15.8838 12.1909 16.3694 12.4644 16.8255 12.7799L16.1168 14.9784C16.5406 15.3251 16.9283 15.7134 17.2751 16.1372L19.4735 15.4284C19.789 15.8845 20.0619 16.3702 20.3026 16.8755L18.5903 18.427C18.7812 18.9312 18.9228 19.4578 19.0119 20.0041L21.2738 20.4925C21.2957 20.7687 21.3159 21.0459 21.3159 21.3281C21.3159 21.6103 21.2957 21.8876 21.2738 22.1643L19.0119 22.6527ZM10.9253 15.8594C7.9049 15.8594 5.45654 18.3077 5.45654 21.3281C5.45654 24.3485 7.9049 26.7969 10.9253 26.7969C13.9457 26.7969 16.394 24.3485 16.394 21.3281C16.394 18.3077 13.9457 15.8594 10.9253 15.8594Z" fill="#0B3F8D"/>
<path d="M26.5982 7.27617C26.5129 7.55891 26.4013 7.83016 26.264 8.08555L27.1276 9.74039C26.8361 10.109 26.5036 10.4415 26.135 10.733L24.4801 9.86945C24.2247 10.0073 23.9535 10.1188 23.6708 10.2036L23.1108 11.9864C22.88 12.0138 22.647 12.0312 22.4097 12.0312C22.1723 12.0312 21.9394 12.0138 21.7091 11.987L21.1491 10.2041C20.8664 10.1194 20.5951 10.0073 20.3397 9.87L18.6849 10.7335C18.3163 10.442 17.9838 10.1095 17.6923 9.74094L18.5558 8.08609C18.418 7.8307 18.3065 7.55945 18.2217 7.27672L16.4389 6.71672C16.4115 6.48594 16.394 6.25297 16.394 6.01562C16.394 5.77828 16.4115 5.54531 16.4383 5.31508L18.2212 4.75508C18.3059 4.47234 18.418 4.20109 18.5553 3.9457L17.6918 2.29086C17.9833 1.92227 18.3158 1.58977 18.6844 1.29828L20.3392 2.1618C20.5946 2.02398 20.8658 1.91242 21.1486 1.82766L21.7086 0.0448438C21.9394 0.0175 22.1723 0 22.4097 0C22.647 0 22.88 0.0175001 23.1102 0.0442969L23.6702 1.82711C23.9529 1.91188 24.2242 2.02398 24.4796 2.16125L26.1344 1.29773C26.503 1.58922 26.8355 1.92172 27.127 2.29031L26.2635 3.94516C26.4013 4.20055 26.5129 4.4718 26.5976 4.75453L28.3804 5.31453C28.4078 5.54531 28.4253 5.77828 28.4253 6.01562C28.4253 6.25297 28.4078 6.48594 28.381 6.71617L26.5982 7.27617ZM22.4097 3.82812C21.2016 3.82812 20.2222 4.80758 20.2222 6.01562C20.2222 7.22367 21.2016 8.20312 22.4097 8.20312C23.6177 8.20312 24.5972 7.22367 24.5972 6.01562C24.5972 4.80758 23.6177 3.82812 22.4097 3.82812Z" fill="#0B3F8D"/>
<path d="M31.0169 19.617C30.9327 19.9205 30.814 20.2081 30.662 20.4766L31.2062 21.6218C30.959 21.9373 30.6751 22.2212 30.3596 22.4684L29.2144 21.9242C28.9465 22.0763 28.6583 22.1949 28.3547 22.2791L27.9293 23.4757C27.7329 23.4998 27.5344 23.5156 27.3315 23.5156C27.1287 23.5156 26.9301 23.4998 26.7338 23.4757L26.3083 22.2791C26.0048 22.1949 25.7172 22.0763 25.4487 21.9242L24.3035 22.4684C23.9879 22.2212 23.7041 21.9373 23.4569 21.6218L24.0011 20.4766C23.849 20.2087 23.7304 19.9205 23.6462 19.6175L22.4496 19.192C22.4255 18.9952 22.4097 18.7966 22.4097 18.5938C22.4097 18.3909 22.4255 18.1923 22.4496 17.996L23.6462 17.5705C23.7304 17.267 23.849 16.9794 24.0011 16.7114L23.4569 15.5663C23.7041 15.2507 23.9879 14.9669 24.3035 14.7197L25.4487 15.2638C25.7166 15.1118 26.0048 14.9931 26.3083 14.9089L26.7338 13.7123C26.9301 13.6877 27.1287 13.6719 27.3315 13.6719C27.5344 13.6719 27.7329 13.6877 27.9293 13.7118L28.3547 14.9084C28.6583 14.9926 28.9459 15.1112 29.2144 15.2633L30.3596 14.7191C30.6751 14.9663 30.959 15.2502 31.2062 15.5657L30.662 16.7109C30.814 16.9788 30.9327 17.267 31.0169 17.5705L32.2135 17.996C32.2376 18.1923 32.2534 18.3909 32.2534 18.5938C32.2534 18.7966 32.2376 18.9952 32.2135 19.1915L31.0169 19.617ZM27.3315 16.9531C26.4254 16.9531 25.6909 17.6876 25.6909 18.5938C25.6909 19.4999 26.4254 20.2344 27.3315 20.2344C28.2377 20.2344 28.9722 19.4999 28.9722 18.5938C28.9722 17.6876 28.2377 16.9531 27.3315 16.9531Z" fill="#0B3F8D"/>
<path d="M32.3605 1.10469L29.0896 0.450623L28.4355 3.72093L29.508 3.93586L29.8027 2.46367C30.3327 3.56617 30.6127 4.78133 30.6127 6.01562C30.6127 7.90125 29.9903 9.67422 28.8134 11.1426L29.6671 11.8267C30.9823 10.1855 31.7064 8.12218 31.7064 6.01562C31.7064 4.58336 31.3755 3.17133 30.7461 1.89711L32.1461 2.17711L32.3605 1.10469Z" fill="#0B3F8D"/>
<path d="M11.859 5.62897L11.0857 6.40225L11.8289 7.14545C11.5281 7.12631 11.2268 7.10936 10.9255 7.10936C6.69484 7.10936 2.7125 8.97475 0 12.2276L0.84 12.9281C3.34414 9.92521 7.01969 8.20311 10.9255 8.20311C11.2038 8.20311 11.4816 8.21897 11.7595 8.23647L11.0857 8.91021L11.859 9.6835L13.8863 7.65623L11.859 5.62897Z" fill="#0B3F8D"/>
</svg>
