<svg width="26" height="35" viewBox="0 0 26 35" fill="none" xmlns="http://www.w3.org/2000/svg">
<path d="M15.9868 0H4.03032C3.43113 0 2.94336 0.541595 2.94336 1.2069V6.0651C2.94336 6.5413 3.19655 6.97442 3.58874 7.16768L6.5439 8.62561C7.3278 9.0128 7.83466 9.87844 7.83466 10.8314V23.5345C7.83466 24.1998 8.32243 24.7414 8.92162 24.7414H11.0955C11.6947 24.7414 12.1825 24.1998 12.1825 23.5345V10.8314C12.1825 9.87852 12.6893 9.01287 13.4732 8.62568L16.4284 7.16775C16.8206 6.97442 17.0738 6.5413 17.0738 6.06518V1.2069C17.0738 0.541595 16.586 0 15.9868 0Z" fill="#0B3F8D"/>
<path d="M18.7041 1.8103H18.1606V4.22409H18.7041C19.004 4.22409 19.2476 3.9536 19.2476 3.62065V2.41375C19.2476 2.0808 19.004 1.8103 18.7041 1.8103Z" fill="#0B3F8D"/>
<path d="M20.8784 15.6896V35H23.0523V15.6896H20.8784ZM22.5089 32.5862H21.4219V31.3793H22.5089V32.5862ZM22.5089 28.9655H21.4219V27.7586H22.5089V28.9655ZM22.5089 25.3448H21.4219V24.1379H22.5089V25.3448ZM22.5089 21.7241H21.4219V20.5172H22.5089V21.7241ZM22.5089 18.1034H21.4219V16.8965H22.5089V18.1034Z" fill="#0B3F8D"/>
<path d="M23.0521 12.6724H13.2695V23.5345C13.2695 24.8657 12.2945 25.9483 11.0956 25.9483H8.92171C7.72279 25.9483 6.74779 24.8657 6.74779 23.5345V12.6724H3.48692C1.98862 12.6724 0.769531 14.026 0.769531 15.6897V35H2.39997V15.6897C2.39997 15.3561 2.64304 15.0862 2.94344 15.0862H5.66084V16.2931H3.48692V35H17.6174V31.9828H14.9C14.5996 31.9828 14.3565 31.7129 14.3565 31.3793V27.1552C14.3565 26.8216 14.5996 26.5517 14.9 26.5517H17.6174V23.5345H14.3565C14.0561 23.5345 13.813 23.2646 13.813 22.931V19.3104C13.813 18.9768 14.0561 18.7069 14.3565 18.7069H15.9869V16.2931H14.3565V15.0862H16.5304C16.8308 15.0862 17.0739 15.3561 17.0739 15.6897V19.3104C17.0739 19.6439 16.8308 19.9138 16.5304 19.9138H14.9V22.3276H18.1608C18.4612 22.3276 18.7043 22.5975 18.7043 22.931V27.1552C18.7043 27.4887 18.4612 27.7586 18.1608 27.7586H15.4434V30.7759H18.1608C18.4612 30.7759 18.7043 31.0458 18.7043 31.3793V35H19.7913V15.0862C19.7913 14.7527 20.0343 14.4828 20.3347 14.4828H23.5956C23.896 14.4828 24.1391 14.7527 24.1391 15.0862V35H25.7695V15.6897C25.7695 14.026 24.5504 12.6724 23.0521 12.6724Z" fill="#0B3F8D"/>
</svg>
