<svg width="58" height="58" viewBox="0 0 58 58" fill="none" xmlns="http://www.w3.org/2000/svg">
<path d="M28.9998 0C12.9831 0 -0.000244141 12.9833 -0.000244141 29C-0.000244141 45.0167 12.9831 58 28.9998 58C29.4112 58 29.819 57.9897 30.2263 57.9727V36.8042H25.8517V29.5088H30.2263V25.1297C30.2263 19.1778 32.6913 15.6356 39.7021 15.6356H45.5394V22.9356H41.8917C39.162 22.9356 38.9799 23.9534 38.9799 25.8565L38.9708 29.5088H45.5803L44.808 36.8042H38.9708V56.242C50.0752 52.1761 57.9998 41.513 57.9998 29C57.9998 12.9833 45.0164 0 28.9998 0Z" fill="#3B5998"/>
<path d="M39.7031 15.6385C32.6922 15.6385 30.2272 19.1806 30.2272 25.1325V29.5116H25.8527V36.807H30.2272V57.9756C33.288 57.848 36.2276 57.2496 38.9717 56.2448V36.807H44.809L45.5812 29.5116H38.9717L38.9808 25.8594C38.9808 23.9563 39.163 22.9385 41.8926 22.9385H45.5403V15.6385H39.7031Z" fill="white"/>
</svg>
