<svg width="34" height="31" viewBox="0 0 34 31" fill="none" xmlns="http://www.w3.org/2000/svg">
<path d="M16.985 30.7313C16.5082 30.7313 16.0485 30.5548 15.6903 30.2342C14.3373 29.0253 13.0328 27.8892 11.8819 26.8871L11.876 26.8819C8.50177 23.9437 5.58799 21.4063 3.56063 18.9068C1.29435 16.1124 0.23877 13.463 0.23877 10.5687C0.23877 7.7566 1.18243 5.16228 2.89575 3.26328C4.6295 1.34182 7.00847 0.283569 9.59517 0.283569C11.5285 0.283569 13.2991 0.908128 14.8575 2.13975C15.644 2.76144 16.357 3.52229 16.985 4.40978C17.6134 3.52229 18.326 2.76144 19.1128 2.13975C20.6713 0.908128 22.4418 0.283569 24.3752 0.283569C26.9616 0.283569 29.3408 1.34182 31.0746 3.26328C32.7879 5.16228 33.7313 7.7566 33.7313 10.5687C33.7313 13.463 32.676 16.1124 30.4097 18.9065C28.3824 21.4062 25.4691 23.9432 22.0956 26.8809L22.0951 26.8814C20.9421 27.885 19.6356 29.0229 18.2795 30.2347C17.9215 30.5548 17.4616 30.7313 16.985 30.7313ZM9.59517 2.28832C7.56296 2.28832 5.69608 3.11706 4.33795 4.62206C2.95963 6.14977 2.20046 8.26158 2.20046 10.5687C2.20046 13.0029 3.08586 15.18 5.07106 17.6276C6.98944 19.993 9.84268 22.4777 13.1463 25.3546L13.1483 25.3563L13.1544 25.3615C14.3097 26.3675 15.6192 27.508 16.9822 28.7258C18.3534 27.5057 19.665 26.3633 20.8226 25.3557L20.8315 25.3479C24.1319 22.4736 26.9823 19.9913 28.8993 17.6276C30.8842 15.18 31.7696 13.0029 31.7696 10.5687C31.7696 8.26158 31.0104 6.14977 29.6321 4.62206C28.2743 3.11706 26.4071 2.28832 24.3752 2.28832C22.8865 2.28832 21.5196 2.77188 20.3128 3.72543C19.2373 4.57558 18.4881 5.65028 18.0488 6.40226C17.8229 6.78896 17.4253 7.01977 16.985 7.01977C16.5448 7.01977 16.1472 6.78896 15.9213 6.40226C15.4823 5.65028 14.7331 4.57558 13.6573 3.72543C12.4504 2.77188 11.0836 2.28832 9.59517 2.28832Z" fill="#222222" fill-opacity="0.53"/>
<path d="M16.985 30.7313C16.5082 30.7313 16.0485 30.5548 15.6903 30.2342C14.3373 29.0253 13.0328 27.8892 11.8819 26.8871L11.876 26.8819C8.50177 23.9437 5.58799 21.4063 3.56063 18.9068C1.29435 16.1124 0.23877 13.463 0.23877 10.5687C0.23877 7.7566 1.18243 5.16228 2.89575 3.26328C4.6295 1.34182 7.00847 0.283569 9.59517 0.283569C11.5285 0.283569 13.2991 0.908128 14.8575 2.13975C15.644 2.76144 16.357 3.52229 16.985 4.40978C17.6134 3.52229 18.326 2.76144 19.1128 2.13975C20.6713 0.908128 22.4418 0.283569 24.3752 0.283569C26.9616 0.283569 29.3408 1.34182 31.0746 3.26328C32.7879 5.16228 33.7313 7.7566 33.7313 10.5687C33.7313 13.463 32.676 16.1124 30.4097 18.9065C28.3824 21.4062 25.4691 23.9432 22.0956 26.8809L22.0951 26.8814C20.9421 27.885 19.6356 29.0229 18.2795 30.2347C17.9215 30.5548 17.4616 30.7313 16.985 30.7313ZM9.59517 2.28832C7.56296 2.28832 5.69608 3.11706 4.33795 4.62206C2.95963 6.14977 2.20046 8.26158 2.20046 10.5687C2.20046 13.0029 3.08586 15.18 5.07106 17.6276C6.98944 19.993 9.84268 22.4777 13.1463 25.3546L13.1483 25.3563L13.1544 25.3615C14.3097 26.3675 15.6192 27.508 16.9822 28.7258C18.3534 27.5057 19.665 26.3633 20.8226 25.3557L20.8315 25.3479C24.1319 22.4736 26.9823 19.9913 28.8993 17.6276C30.8842 15.18 31.7696 13.0029 31.7696 10.5687C31.7696 8.26158 31.0104 6.14977 29.6321 4.62206C28.2743 3.11706 26.4071 2.28832 24.3752 2.28832C22.8865 2.28832 21.5196 2.77188 20.3128 3.72543C19.2373 4.57558 18.4881 5.65028 18.0488 6.40226C17.8229 6.78896 17.4253 7.01977 16.985 7.01977C16.5448 7.01977 16.1472 6.78896 15.9213 6.40226C15.4823 5.65028 14.7331 4.57558 13.6573 3.72543C12.4504 2.77188 11.0836 2.28832 9.59517 2.28832Z" stroke="white"/>
</svg>
