<svg width="34" height="32" viewBox="0 0 34 32" fill="none" xmlns="http://www.w3.org/2000/svg">
<path d="M31.3028 3.81964C29.5427 1.91072 27.1277 0.859375 24.5021 0.859375C22.5395 0.859375 20.7421 1.47986 19.1598 2.70345C18.3613 3.32108 17.6379 4.07671 17 4.95866C16.3624 4.07697 15.6387 3.32108 14.84 2.70345C13.2579 1.47986 11.4605 0.859375 9.49791 0.859375C6.87227 0.859375 4.457 1.91072 2.69698 3.81964C0.957962 5.70625 0 8.28365 0 11.0774C0 13.9528 1.07158 16.5849 3.37219 19.361C5.43027 21.8443 8.3882 24.3651 11.8136 27.2841C12.9832 28.281 14.309 29.4109 15.6856 30.6146C16.0493 30.9331 16.516 31.1085 17 31.1085C17.4838 31.1085 17.9507 30.9331 18.3139 30.6151C19.6905 29.4112 21.0171 28.2807 22.1872 27.2834C25.6121 24.3649 28.57 21.8443 30.6281 19.3608C32.9287 16.5849 34 13.9528 34 11.0771C34 8.28365 33.042 5.70625 31.3028 3.81964Z" fill="#DC211D"/>
</svg>
