<svg width="61" height="62" viewBox="0 0 61 62" fill="none" xmlns="http://www.w3.org/2000/svg">
<path d="M4.75001 5.08298C0.0350099 9.98048 1.00001 15.183 1.00001 30.988C1.00001 44.113 -1.28999 57.2705 10.695 60.368C14.4375 61.3305 47.5975 61.3305 51.335 60.363C56.325 59.0755 60.385 55.028 60.94 47.9705C61.0175 46.9855 61.0175 15.008 60.9375 14.003C60.3475 6.48548 55.72 2.15298 49.6225 1.27548C48.225 1.07298 47.945 1.01298 40.775 1.00048C15.3425 1.01298 9.76751 -0.119518 4.75001 5.08298Z" fill="url(#paint0_linear)"/>
<path d="M30.995 8.84804C21.9175 8.84804 13.2975 8.04054 10.005 16.4905C8.64502 19.9805 8.84252 24.513 8.84252 31.003C8.84252 36.698 8.66002 42.0505 10.005 45.513C13.29 53.968 21.98 53.158 30.99 53.158C39.6825 53.158 48.645 54.063 51.9775 45.513C53.34 41.988 53.14 37.523 53.14 31.003C53.14 22.348 53.6175 16.7605 49.42 12.5655C45.17 8.31554 39.4225 8.84804 30.985 8.84804H30.995ZM29.01 12.8405C47.945 12.8105 50.355 10.7055 49.025 39.948C48.5525 50.2905 40.6775 49.1555 30.9975 49.1555C13.3475 49.1555 12.84 48.6505 12.84 30.993C12.84 13.1305 14.24 12.8505 29.01 12.8355V12.8405ZM42.82 16.518C41.3525 16.518 40.1625 17.708 40.1625 19.1755C40.1625 20.643 41.3525 21.833 42.82 21.833C44.2875 21.833 45.4775 20.643 45.4775 19.1755C45.4775 17.708 44.2875 16.518 42.82 16.518ZM30.995 19.6255C24.7125 19.6255 19.62 24.7205 19.62 31.003C19.62 37.2855 24.7125 42.378 30.995 42.378C37.2775 42.378 42.3675 37.2855 42.3675 31.003C42.3675 24.7205 37.2775 19.6255 30.995 19.6255ZM30.995 23.618C40.7575 23.618 40.77 38.388 30.995 38.388C21.235 38.388 21.22 23.618 30.995 23.618Z" fill="white"/>
<defs>
<linearGradient id="paint0_linear" x1="4.86506" y1="57.1682" x2="60.6287" y2="8.90542" gradientUnits="userSpaceOnUse">
<stop stop-color="#FFDD55"/>
<stop offset="0.5" stop-color="#FF543E"/>
<stop offset="1" stop-color="#C837AB"/>
</linearGradient>
</defs>
</svg>
