<svg width="60" height="60" viewBox="0 0 60 60" fill="none" xmlns="http://www.w3.org/2000/svg">
<path d="M10.5 60L49.5 60C55.299 60 60 55.299 60 49.5L60 10.5C60 4.70101 55.299 0 49.5 0L10.5 0C4.70101 0 0 4.70101 0 10.5L0 49.5C0 55.299 4.70101 60 10.5 60Z" fill="url(#paint0_radial)"/>
<path d="M41.25 52.5H18.75C15.7663 52.5 12.9048 51.3147 10.795 49.205C8.68526 47.0952 7.5 44.2337 7.5 41.25V18.75C7.5 15.7663 8.68526 12.9048 10.795 10.795C12.9048 8.68526 15.7663 7.5 18.75 7.5H41.25C44.2337 7.5 47.0952 8.68526 49.205 10.795C51.3147 12.9048 52.5 15.7663 52.5 18.75V41.25C52.5 44.2337 51.3147 47.0952 49.205 49.205C47.0952 51.3147 44.2337 52.5 41.25 52.5V52.5ZM18.75 12C16.9606 12.0025 15.2451 12.7144 13.9798 13.9798C12.7144 15.2451 12.0025 16.9606 12 18.75V41.25C12.0025 43.0394 12.7144 44.7549 13.9798 46.0202C15.2451 47.2856 16.9606 47.9975 18.75 48H41.25C43.0394 47.9975 44.7549 47.2856 46.0202 46.0202C47.2856 44.7549 47.9975 43.0394 48 41.25V18.75C47.9975 16.9606 47.2856 15.2451 46.0202 13.9798C44.7549 12.7144 43.0394 12.0025 41.25 12H18.75Z" fill="white"/>
<path d="M30 42.75C27.4783 42.75 25.0132 42.0022 22.9165 40.6012C20.8198 39.2003 19.1856 37.209 18.2205 34.8792C17.2555 32.5495 17.003 29.9859 17.495 27.5126C17.987 25.0393 19.2013 22.7675 20.9844 20.9844C22.7675 19.2013 25.0393 17.987 27.5126 17.495C29.9859 17.003 32.5495 17.2555 34.8792 18.2205C37.209 19.1856 39.2003 20.8198 40.6012 22.9165C42.0022 25.0132 42.75 27.4783 42.75 30C42.7475 33.3808 41.4034 36.6223 39.0129 39.0129C36.6223 41.4034 33.3808 42.7475 30 42.75V42.75ZM30 21.75C28.3683 21.75 26.7733 22.2339 25.4166 23.1404C24.0598 24.0469 23.0024 25.3354 22.378 26.8429C21.7536 28.3504 21.5902 30.0092 21.9085 31.6095C22.2269 33.2098 23.0126 34.6799 24.1664 35.8336C25.3202 36.9874 26.7902 37.7732 28.3905 38.0915C29.9909 38.4098 31.6497 38.2464 33.1571 37.622C34.6646 36.9976 35.9531 35.9402 36.8596 34.5835C37.7662 33.2268 38.25 31.6317 38.25 30C38.2475 27.8127 37.3775 25.7158 35.8309 24.1691C34.2843 22.6225 32.1873 21.7525 30 21.75V21.75Z" fill="white"/>
<path d="M42.75 20.25C43.9926 20.25 45 19.2426 45 18C45 16.7574 43.9926 15.75 42.75 15.75C41.5074 15.75 40.5 16.7574 40.5 18C40.5 19.2426 41.5074 20.25 42.75 20.25Z" fill="white"/>
<defs>
<radialGradient id="paint0_radial" cx="0" cy="0" r="1" gradientUnits="userSpaceOnUse" gradientTransform="translate(-1.20703 58.7812) rotate(180) scale(138.558)">
<stop stop-color="#F9ED32"/>
<stop offset="0.36" stop-color="#EE2A7B"/>
<stop offset="0.44" stop-color="#D22A8A"/>
<stop offset="0.6" stop-color="#8B2AB2"/>
<stop offset="0.83" stop-color="#1B2AF0"/>
<stop offset="0.88" stop-color="#002AFF"/>
</radialGradient>
</defs>
</svg>
