<svg width="26" height="36" viewBox="0 0 26 36" fill="none" xmlns="http://www.w3.org/2000/svg">
<path d="M23.4061 5.99632C21.1997 2.33062 17.2805 0.091101 12.9223 0.00551513C12.7362 0.00182373 12.549 0.00182373 12.3629 0.00551513C8.00472 0.091101 4.08556 2.33062 1.879 5.99632C-0.376402 9.74323 -0.438109 14.244 1.71391 18.036L10.7295 33.9218C10.7335 33.9288 10.7376 33.9359 10.7418 33.9428C11.1384 34.6065 11.849 35.0027 12.6427 35.0027C13.4363 35.0027 14.1469 34.6065 14.5435 33.9428C14.5477 33.9359 14.5517 33.9288 14.5558 33.9218L23.5714 18.036C25.7232 14.244 25.6615 9.74323 23.4061 5.99632ZM12.6426 15.8621C9.82342 15.8621 7.52988 13.6542 7.52988 10.9403C7.52988 8.22634 9.82342 6.0184 12.6426 6.0184C15.4617 6.0184 17.7553 8.22634 17.7553 10.9403C17.7553 13.6542 15.4618 15.8621 12.6426 15.8621Z" fill="#0B3F8D"/>
</svg>
