<svg width="33" height="33" viewBox="0 0 33 33" fill="none" xmlns="http://www.w3.org/2000/svg">
<path d="M23.7987 20.1903L21.4193 21.5308C21.1338 21.6915 20.8035 21.7544 20.4788 21.7098C20.1542 21.6652 19.853 21.5156 19.6214 21.2838L11.6798 13.3422C11.4482 13.1105 11.2987 12.8094 11.2541 12.4848C11.2095 12.1602 11.2723 11.8299 11.4328 11.5443L12.7733 9.16488C13.0146 8.73663 13.1091 8.24117 13.0423 7.75419C12.9755 7.2672 12.7512 6.81546 12.4035 6.46798L8.83722 2.90171C8.6282 2.69258 8.38002 2.52669 8.10686 2.4135C7.83371 2.30032 7.54093 2.24207 7.24525 2.24207C6.94958 2.24207 6.6568 2.30032 6.38365 2.4135C6.11049 2.52669 5.86231 2.69258 5.65329 2.90171L4.03401 4.51985C3.08711 5.46673 2.48395 6.70301 2.32044 8.0321C2.15694 9.36119 2.44247 10.7068 3.13163 11.8549L3.94412 13.2091C8.09328 20.1242 13.9497 25.8572 20.9516 29.8582L21.1121 29.9503C23.504 31.317 26.4592 30.9187 28.3744 29.0047L30.0653 27.3137C30.2745 27.1047 30.4403 26.8565 30.5535 26.5834C30.6667 26.3102 30.725 26.0175 30.725 25.7218C30.725 25.4261 30.6667 25.1333 30.5535 24.8602C30.4403 24.587 30.2745 24.3388 30.0653 24.1298L26.4968 20.5613C26.1493 20.2131 25.6975 19.9884 25.2102 19.9214C24.723 19.8544 24.2272 19.9489 23.7987 20.1903Z" fill="white"/>
</svg>
