<svg width="15" height="18" viewBox="0 0 15 18" fill="none" xmlns="http://www.w3.org/2000/svg">
<path d="M5.49719 1.08655H8.50552V1.59274H9.59193V1.01569C9.59207 0.455658 9.13669 0 8.57694 0H5.42578C4.86603 0 4.41064 0.455658 4.41064 1.01569V1.59274H5.49719V1.08655Z" fill="#0B3F8D"/>
<path d="M12.1005 5.89746H1.90138C1.62192 5.89746 1.40192 6.13586 1.42444 6.41451L2.27712 16.9581C2.32463 17.5467 2.81558 18 3.40541 18H10.5964C11.1862 18 11.6772 17.5467 11.7247 16.9579L12.5773 6.41451C12.6 6.13586 12.38 5.89746 12.1005 5.89746ZM4.37097 16.8754C4.35957 16.8761 4.34818 16.8765 4.33691 16.8765C4.05209 16.8765 3.813 16.6547 3.79529 16.3666L3.26094 7.71089C3.24254 7.41138 3.47037 7.15361 3.76975 7.13521C4.06816 7.11708 4.32703 7.34436 4.34543 7.64401L4.87964 16.2997C4.89818 16.5992 4.67035 16.8569 4.37097 16.8754ZM7.55028 16.3332C7.55028 16.6332 7.30707 16.8764 7.007 16.8764C6.70694 16.8764 6.46373 16.6332 6.46373 16.3332V7.67738C6.46373 7.37732 6.70694 7.13411 7.007 7.13411C7.30693 7.13411 7.55028 7.37732 7.55028 7.67738V16.3332ZM10.741 7.70938L10.2308 16.3651C10.2139 16.6538 9.97441 16.8764 9.68904 16.8764C9.67833 16.8764 9.66748 16.8761 9.65663 16.8755C9.35712 16.8578 9.1286 16.6008 9.14632 16.3012L9.65636 7.64539C9.67393 7.34587 9.93019 7.11736 10.2305 7.13507C10.53 7.15265 10.7586 7.40987 10.741 7.70938Z" fill="#0B3F8D"/>
<path d="M13.9798 4.22098L13.623 3.15146C13.529 2.86952 13.265 2.67932 12.9677 2.67932H1.03531C0.738125 2.67932 0.474042 2.86952 0.380108 3.15146L0.0233274 4.22098C-0.0454744 4.42725 0.0440641 4.63763 0.211194 4.74255C0.279309 4.78526 0.359921 4.81094 0.448498 4.81094H13.5546C13.6432 4.81094 13.724 4.78526 13.7919 4.74242C13.9591 4.6375 14.0486 4.42711 13.9798 4.22098Z" fill="#0B3F8D"/>
</svg>
