<svg width="36" height="35" viewBox="0 0 36 35" fill="none" xmlns="http://www.w3.org/2000/svg">
<path d="M17.9037 24.4374C15.4796 24.4365 13.0865 24.9835 10.9036 26.0375C8.91112 26.995 7.12772 28.3372 5.65625 29.9869C12.4512 36.6692 23.3485 36.6714 30.1461 29.9917C27.0606 26.457 22.5957 24.4313 17.9037 24.4374Z" fill="#0B3F8D"/>
<path d="M17.9034 18.6423C18.5342 18.6423 19.0456 18.1309 19.0456 17.5001C19.0456 16.8693 18.5342 16.3579 17.9034 16.3579C17.2726 16.3579 16.7612 16.8693 16.7612 17.5001C16.7612 18.1309 17.2726 18.6423 17.9034 18.6423Z" fill="#0B3F8D"/>
<path d="M17.9038 0C8.25429 0 0.403814 7.85048 0.403814 17.5C0.400357 21.7431 1.9451 25.8417 4.74833 29.027C6.3218 27.2852 8.21922 25.8663 10.3348 24.8495C17.3999 21.4548 25.8599 23.1626 31.0549 29.0322C33.8609 25.8461 35.4073 21.7455 35.4038 17.5C35.4038 7.85048 27.5533 0 17.9038 0ZM17.2452 3.61356C17.2452 3.24985 17.5401 2.95496 17.9038 2.95496C18.2675 2.95496 18.5624 3.24985 18.5624 3.61356V8.57016C18.5624 8.93387 18.2675 9.22875 17.9038 9.22875C17.5401 9.22875 17.2452 8.93387 17.2452 8.57016V3.61356ZM8.97406 18.1586H4.01737C3.65366 18.1586 3.35877 17.8637 3.35877 17.5C3.35877 17.1363 3.65366 16.8414 4.01737 16.8414H8.97406C9.33777 16.8414 9.63265 17.1363 9.63265 17.5C9.63265 17.8637 9.33777 18.1586 8.97406 18.1586ZM12.0752 11.6714C11.818 11.9286 11.4011 11.9286 11.1438 11.6714L7.60352 8.13145C7.34625 7.87419 7.34625 7.45696 7.60352 7.1997C7.86078 6.94244 8.278 6.94244 8.53526 7.1997L12.0752 10.7402C12.3323 10.9973 12.3323 11.4142 12.0752 11.6714ZM19.1163 19.6404C18.7465 19.8498 18.3288 19.9597 17.9038 19.9594C16.5455 19.9606 15.4435 18.8604 15.4423 17.5021C15.4411 16.1439 16.5413 15.0418 17.8995 15.0406C18.3247 15.0402 18.7428 15.1501 19.1129 15.3596L27.2724 7.1997C27.5297 6.94244 27.9469 6.94244 28.2042 7.1997C28.4614 7.45696 28.4614 7.87419 28.2042 8.13145L20.0443 16.291C20.713 17.4722 20.2975 18.9718 19.1163 19.6404ZM31.7902 18.1586H26.8336C26.4699 18.1586 26.175 17.8637 26.175 17.5C26.175 17.1363 26.4699 16.8414 26.8336 16.8414H31.7902C32.154 16.8414 32.4488 17.1363 32.4488 17.5C32.4488 17.8637 32.154 18.1586 31.7902 18.1586Z" fill="#0B3F8D"/>
</svg>
