<svg width="60" height="43" viewBox="0 0 60 43" fill="none" xmlns="http://www.w3.org/2000/svg">
<path d="M58.7638 6.59751C58.0721 4.02717 56.0456 2.00112 53.4757 1.30899C48.7805 0.0240479 29.9994 0.0240479 29.9994 0.0240479C29.9994 0.0240479 11.2188 0.0240479 6.52356 1.26C4.00313 1.95168 1.92718 4.02763 1.2355 6.59751C0 11.2923 0 21.0289 0 21.0289C0 21.0289 0 30.8145 1.2355 35.4603C1.92763 38.0302 3.95369 40.0567 6.52402 40.7488C11.2683 42.0338 29.9999 42.0338 29.9999 42.0338C29.9999 42.0338 48.7805 42.0338 53.4757 40.7978C56.0461 40.1061 58.0721 38.0796 58.7642 35.5097C59.9997 30.8145 59.9997 21.0783 59.9997 21.0783C59.9997 21.0783 60.0492 11.2923 58.7638 6.59751Z" fill="#FF0000"/>
<path d="M24.0197 30.0239L39.6372 21.0289L24.0197 12.0338V30.0239Z" fill="white"/>
</svg>
