<svg width="1375" height="1431" viewBox="0 0 1375 1431" fill="none" xmlns="http://www.w3.org/2000/svg">
<g filter="url(#filter0_ddddii)">
<path d="M1004.96 564.564C1033.86 585.849 1030.64 614.78 997.759 629.183L-33.7015 1080.96L-498.072 739.037L463.774 317.747C535.104 286.505 643.762 298.608 706.469 344.78L1004.96 564.564Z" fill="url(#paint0_radial)"/>
</g>
<g clip-path="url(#clip0)">
<path d="M658.891 667.718C684.065 667.718 704.473 647.278 704.473 622.063C704.473 596.848 684.065 576.407 658.891 576.407C633.717 576.407 613.31 596.848 613.31 622.063C613.31 647.278 633.717 667.718 658.891 667.718Z" fill="#0A72E1"/>
<path d="M406.473 691.44C443.935 691.44 474.303 661.022 474.303 623.5C474.303 585.978 443.935 555.56 406.473 555.56C369.012 555.56 338.643 585.978 338.643 623.5C338.643 661.022 369.012 691.44 406.473 691.44Z" fill="#0F2E5C"/>
<path d="M763.218 682.532C758.904 682.588 754.716 681.08 751.424 678.286C749.641 676.686 748.232 674.712 747.295 672.505C746.359 670.298 745.918 667.912 746.006 665.515V648.211H749.193V665.515C749.119 667.447 749.469 669.372 750.218 671.154C750.967 672.936 752.097 674.531 753.528 675.828C756.203 678.082 759.595 679.305 763.091 679.276C764.938 679.378 766.786 679.095 768.519 678.445C770.251 677.794 771.829 676.79 773.154 675.497C774.479 674.203 775.52 672.648 776.213 670.93C776.906 669.211 777.235 667.368 777.18 665.515V595.5H780.367V665.579C780.416 667.838 780.004 670.083 779.157 672.177C778.31 674.271 777.045 676.169 775.439 677.757C773.834 679.344 771.922 680.586 769.821 681.407C767.719 682.228 765.473 682.611 763.218 682.532Z" fill="#C8CEDA"/>
<path d="M750.851 639.016H744.444V653.16H750.851V639.016Z" fill="#BBD9F9"/>
<path d="M759.648 515.172H687.196C684.837 515.172 682.925 517.088 682.925 519.45V641.794C682.925 644.157 684.837 646.072 687.196 646.072H759.648C762.007 646.072 763.919 644.157 763.919 641.794V519.45C763.919 517.088 762.007 515.172 759.648 515.172Z" fill="#BBD9F9"/>
<path d="M705.046 590.392C707.845 590.401 710.553 591.389 712.703 593.185C714.852 594.98 716.309 597.471 716.82 600.227C717.332 602.984 716.867 605.832 715.506 608.282C714.145 610.732 711.972 612.629 709.364 613.645C706.755 614.662 703.874 614.734 701.218 613.851C698.562 612.967 696.297 611.182 694.814 608.804C693.331 606.426 692.724 603.605 693.096 600.826C693.469 598.047 694.798 595.486 696.855 593.584C699.079 591.514 702.009 590.372 705.046 590.392ZM705.046 588.253C702.734 588.234 700.452 588.783 698.4 589.853C696.349 590.922 694.59 592.478 693.278 594.386C691.966 596.294 691.141 598.494 690.874 600.795C690.608 603.096 690.909 605.428 691.75 607.585C692.592 609.743 693.948 611.661 695.701 613.172C697.454 614.683 699.55 615.741 701.806 616.253C704.061 616.765 706.408 616.715 708.64 616.108C710.872 615.501 712.921 614.356 714.609 612.772C715.536 611.907 716.34 610.919 717 609.835C718.329 607.694 719.064 605.235 719.126 602.714C719.188 600.193 718.577 597.702 717.354 595.497C716.132 593.293 714.343 591.455 712.173 590.176C710.004 588.897 707.532 588.222 705.015 588.221L705.046 588.253Z" fill="#0B3F8D"/>
<path d="M763.887 519.45C763.887 518.316 763.437 517.227 762.636 516.425C761.835 515.623 760.749 515.172 759.616 515.172H723.406V646.072H759.648C760.209 646.072 760.764 645.961 761.283 645.746C761.801 645.531 762.272 645.216 762.668 644.819C763.065 644.422 763.38 643.95 763.594 643.431C763.809 642.912 763.919 642.356 763.919 641.794L763.887 519.45Z" fill="#BBD9F9"/>
<path d="M755.919 534.999H690.894V555.559H755.919V534.999Z" fill="white"/>
<path d="M716.49 561.115H690.894V572.162H716.49V561.115Z" fill="#0B3F8D"/>
<path d="M755.919 561.115H730.323V572.162H755.919V561.115Z" fill="#0B3F8D"/>
<path d="M711.326 592.179C714.026 593.86 715.952 596.544 716.681 599.644C717.41 602.744 716.883 606.006 715.215 608.718C714.651 609.637 713.965 610.475 713.175 611.208C711.529 612.705 709.5 613.714 707.314 614.122C705.129 614.53 702.873 614.321 700.8 613.519C698.726 612.716 696.916 611.352 695.572 609.578C694.228 607.805 693.403 605.692 693.189 603.475C692.975 601.259 693.381 599.027 694.361 597.028C695.341 595.03 696.856 593.343 698.738 592.158C700.62 590.973 702.794 590.335 705.017 590.316C707.24 590.298 709.424 590.898 711.326 592.052V592.179Z" fill="#BBD9F9"/>
<path d="M750.277 610.889C748.415 612.753 745.994 613.953 743.386 614.304C740.777 614.656 738.125 614.14 735.838 612.836C733.974 611.764 732.433 610.209 731.375 608.335C730.268 606.392 729.726 604.178 729.808 601.942C729.891 599.707 730.595 597.539 731.842 595.683C733.089 593.827 734.829 592.358 736.865 591.439C738.902 590.521 741.154 590.191 743.368 590.486C745.581 590.782 747.669 591.691 749.394 593.111C751.12 594.531 752.415 596.406 753.133 598.524C753.851 600.642 753.965 602.919 753.46 605.098C752.955 607.277 751.853 609.272 750.277 610.857V610.889Z" fill="#BBD9F9"/>
<path d="M753.082 637.707C754.649 637.707 755.919 636.435 755.919 634.866C755.919 633.296 754.649 632.024 753.082 632.024C751.515 632.024 750.245 633.296 750.245 634.866C750.245 636.435 751.515 637.707 753.082 637.707Z" fill="#DC3200"/>
<path d="M743.934 637.707C745.501 637.707 746.771 636.435 746.771 634.866C746.771 633.296 745.501 632.024 743.934 632.024C742.367 632.024 741.097 633.296 741.097 634.866C741.097 636.435 742.367 637.707 743.934 637.707Z" fill="#BBD9F9"/>
<path d="M690.894 639.144C690.615 639.144 690.347 639.033 690.15 638.835C689.953 638.638 689.842 638.37 689.842 638.09V625.32C689.842 625.036 689.955 624.764 690.155 624.563C690.355 624.363 690.627 624.25 690.91 624.25C691.193 624.25 691.465 624.363 691.665 624.563C691.865 624.764 691.978 625.036 691.978 625.32V638.09C691.978 638.231 691.95 638.371 691.895 638.501C691.84 638.631 691.759 638.748 691.658 638.847C691.557 638.945 691.438 639.022 691.306 639.073C691.175 639.124 691.035 639.148 690.894 639.144Z" fill="#BBD9F9"/>
<path d="M695.165 639.144C694.886 639.144 694.619 639.033 694.421 638.835C694.224 638.638 694.113 638.37 694.113 638.09V625.32C694.113 625.036 694.226 624.764 694.426 624.563C694.626 624.363 694.898 624.25 695.181 624.25C695.464 624.25 695.736 624.363 695.936 624.563C696.136 624.764 696.249 625.036 696.249 625.32V638.09C696.249 638.231 696.221 638.371 696.166 638.501C696.111 638.631 696.031 638.748 695.93 638.847C695.829 638.945 695.709 639.022 695.577 639.073C695.446 639.124 695.306 639.148 695.165 639.144Z" fill="#BBD9F9"/>
<path d="M699.468 639.144C699.189 639.144 698.922 639.033 698.724 638.835C698.527 638.638 698.416 638.37 698.416 638.09V625.32C698.416 625.036 698.529 624.764 698.729 624.563C698.929 624.363 699.201 624.25 699.484 624.25C699.767 624.25 700.039 624.363 700.239 624.563C700.44 624.764 700.552 625.036 700.552 625.32V638.09C700.552 638.231 700.524 638.371 700.469 638.501C700.414 638.631 700.334 638.748 700.233 638.847C700.132 638.945 700.012 639.022 699.881 639.073C699.749 639.124 699.609 639.148 699.468 639.144Z" fill="#BBD9F9"/>
<path d="M703.708 639.144C703.569 639.144 703.433 639.117 703.305 639.064C703.177 639.011 703.061 638.933 702.964 638.835C702.866 638.737 702.789 638.621 702.736 638.493C702.683 638.366 702.656 638.229 702.656 638.09V625.32C702.656 625.036 702.768 624.764 702.968 624.563C703.169 624.363 703.44 624.25 703.724 624.25C704.007 624.25 704.278 624.363 704.479 624.563C704.679 624.764 704.791 625.036 704.791 625.32V638.09C704.791 638.231 704.763 638.371 704.708 638.501C704.653 638.631 704.573 638.748 704.472 638.847C704.371 638.945 704.251 639.022 704.12 639.073C703.989 639.124 703.848 639.148 703.708 639.144Z" fill="#BBD9F9"/>
<path opacity="0.2" d="M709.7 534.999L690.894 553.803V542.501L698.385 534.999H709.7Z" fill="white"/>
<path d="M727.71 547.642C727.71 545.982 727.71 544.673 725.925 544.673C725.524 544.697 725.14 544.84 724.822 545.085C724.504 545.33 724.266 545.664 724.14 546.046H722.1V537.01H729.526V539.405H724.267V543.491C724.993 543.073 725.82 542.863 726.658 542.885C729.431 542.885 730.26 545.024 730.26 547.833C730.26 551.218 729.431 553.995 726.02 553.995C722.61 553.995 721.876 552.112 721.876 549.015H724.267V549.398C724.267 550.803 724.458 552.08 725.893 552.08C727.805 552.08 727.71 549.781 727.71 547.642Z" fill="#0B3F8D"/>
<path d="M733.096 544.928C732.544 544.487 732.111 543.913 731.838 543.261C731.565 542.608 731.461 541.896 731.535 541.193C731.535 538.479 732.81 536.819 735.487 536.819C738.164 536.819 739.439 538.511 739.439 541.193C739.516 541.897 739.413 542.609 739.14 543.262C738.867 543.916 738.432 544.489 737.878 544.928C738.525 545.377 739.036 545.996 739.357 546.717C739.677 547.437 739.794 548.232 739.694 549.015C739.694 552.207 738.547 553.963 735.519 553.963C732.491 553.963 731.311 552.048 731.311 549.015C731.197 548.234 731.304 547.438 731.62 546.715C731.935 545.993 732.447 545.374 733.096 544.928ZM735.487 552.016C737.113 552.016 737.272 550.611 737.272 549.015C737.272 547.418 736.953 546.141 735.487 546.141C734.021 546.141 733.67 547.546 733.67 549.015C733.67 550.483 733.861 552.016 735.487 552.016ZM735.487 538.798C734.244 538.798 733.957 539.947 733.957 541.193C733.957 542.438 734.148 543.842 735.487 543.842C736.826 543.842 736.985 542.502 736.985 541.193C736.985 539.884 736.698 538.798 735.487 538.798Z" fill="#0B3F8D"/>
<path d="M743.265 551.409V553.804H740.906V551.409H743.265Z" fill="#0B3F8D"/>
<path d="M744.667 549.493V546.811L748.875 536.978H751.871V547.258H753.656V549.525H751.807V553.835H749.416V549.493H744.667ZM749.448 539.915L747.058 547.258H749.448V539.915Z" fill="#0B3F8D"/>
<path d="M696.854 593.616L716.521 605.812C715.955 607.862 714.855 609.724 713.334 611.208L693.667 599.012C694.23 596.951 695.33 595.078 696.854 593.584V593.616Z" fill="white"/>
<path d="M741.83 590.392C744.49 590.393 747.075 591.278 749.179 592.909C751.282 594.54 752.787 596.823 753.455 599.402C754.124 601.981 753.919 604.71 752.874 607.16C751.828 609.61 750 611.643 747.677 612.94C745.353 614.238 742.666 614.727 740.035 614.33C737.405 613.934 734.98 612.674 733.141 610.749C731.302 608.823 730.153 606.341 729.874 603.691C729.595 601.042 730.201 598.374 731.598 596.107C732.675 594.359 734.181 592.916 735.972 591.916C737.763 590.915 739.779 590.391 741.83 590.392ZM741.83 588.253C739.517 588.234 737.235 588.783 735.184 589.853C733.132 590.922 731.374 592.478 730.062 594.386C728.75 596.294 727.924 598.494 727.658 600.795C727.392 603.096 727.693 605.428 728.534 607.585C729.375 609.743 730.732 611.661 732.485 613.172C734.238 614.683 736.334 615.741 738.589 616.253C740.845 616.765 743.191 616.715 745.423 616.108C747.655 615.501 749.705 614.356 751.392 612.772C752.32 611.907 753.124 610.919 753.783 609.835C755.113 607.694 755.847 605.235 755.909 602.714C755.972 600.193 755.36 597.702 754.138 595.497C752.915 593.293 751.127 591.455 748.957 590.176C746.787 588.897 744.316 588.222 741.798 588.221L741.83 588.253Z" fill="#BBD9F9"/>
<path d="M752.221 596.458L735.869 612.836C734.006 611.764 732.465 610.209 731.407 608.335L747.759 591.956C749.617 593.021 751.158 594.564 752.221 596.426V596.458Z" fill="#BBD9F9"/>
<path d="M778.22 545.19L771.496 547.293L779.295 572.313L786.02 570.21L778.22 545.19Z" fill="#BBD9F9"/>
<path d="M772.781 542.022C771.908 542.29 771.173 542.884 770.728 543.681C770.282 544.478 770.161 545.416 770.39 546.301C774.105 563.197 775.393 580.538 774.215 597.799L783.299 597.575C783.299 597.575 783.459 575.993 772.781 542.022Z" fill="#BBD9F9"/>
<path d="M774.183 541.608C775.051 541.337 775.988 541.407 776.806 541.804C777.623 542.202 778.258 542.896 778.582 543.747C785.119 559.747 793.898 574.733 804.656 588.253L797.07 593.233C797.07 593.233 784.798 575.705 774.183 541.608Z" fill="#BBD9F9"/>
<path d="M396.975 597.096H295.293V741.054H396.975V597.096Z" fill="white"/>
<path d="M391.62 602.46H300.648V735.659H391.62V602.46Z" fill="#E6E6E6"/>
<path d="M366.374 592.148H325.893V607.824H366.374V592.148Z" fill="#0B3F8D"/>
<path d="M326.531 615.901V628.448H314.068V615.901H326.531ZM330.101 612.326H310.593V632.024H330.26V612.294L330.101 612.326Z" fill="#C8C8C8"/>
<path d="M326.531 646.934V659.481H314.068V646.934H326.531ZM330.101 643.358H310.593V663.057H330.26V643.358H330.101Z" fill="#C8C8C8"/>
<path d="M326.531 677.967V690.514H314.068V677.967H326.531ZM330.101 674.391H310.593V694.122H330.26V674.423L330.101 674.391Z" fill="#C8C8C8"/>
<path d="M326.531 709.032V721.579H314.068V709.032H326.531ZM330.101 705.456H310.593V725.155H330.26V705.456H330.101Z" fill="#C8C8C8"/>
<path d="M381.929 612.294H338.866V617.593H381.929V612.294Z" fill="#C8C8C8"/>
<path d="M381.929 626.724H338.866V632.024H381.929V626.724Z" fill="#C8C8C8"/>
<path d="M381.929 643.358H338.866V648.658H381.929V643.358Z" fill="#C8C8C8"/>
<path d="M381.929 657.757H338.866V663.057H381.929V657.757Z" fill="#C8C8C8"/>
<path d="M381.929 674.391H338.866V679.691H381.929V674.391Z" fill="#C8C8C8"/>
<path d="M381.929 688.79H338.866V694.09H381.929V688.79Z" fill="#C8C8C8"/>
<path d="M381.929 705.456H338.866V710.756H381.929V705.456Z" fill="#C8C8C8"/>
<path d="M381.929 719.855H338.866V725.155H381.929V719.855Z" fill="#C8C8C8"/>
<g style="mix-blend-mode:screen" opacity="0.1">
<path d="M396.974 597.096H346.134V741.054H396.974V597.096Z" fill="white"/>
</g>
<path d="M366.374 592.148H346.134V607.824H366.374V592.148Z" fill="#0B3F8D"/>
<path d="M319.486 627.746L312.761 615.007L314.737 613.985L319.55 623.085L325.893 611.75L327.838 612.868L319.486 627.746Z" fill="#BBD9F9"/>
<path d="M319.486 658.811L312.761 646.072L314.737 645.018L319.55 654.117L325.893 642.815L327.838 643.901L319.486 658.811Z" fill="#BBD9F9"/>
<path d="M319.486 689.843L312.761 677.105L314.737 676.083L319.55 685.182L325.893 673.848L327.838 674.934L319.486 689.843Z" fill="#BBD9F9"/>
<path d="M517.781 755.517C511.788 755.517 506.083 755.772 500.058 755.772C495.215 756.08 490.352 755.769 485.587 754.846C480.2 753.058 478.861 745.939 477.363 740.831C487.978 738.5 514.593 737.638 518.355 739.202C522.116 740.767 521.542 744.406 522.849 748.301C524.156 753.697 523.263 755.485 517.781 755.517Z" fill="#032049"/>
<path d="M391.11 706.158C383.332 720.11 374.758 717.652 364.845 717.652C359.458 717.652 351.17 717.652 349.8 711.266C349.39 709.158 349.39 706.99 349.8 704.881C350.469 701.688 351.17 702.167 354.517 702.167C359.636 702.172 364.744 702.621 369.785 703.508C376.543 704.37 384.384 704.147 391.11 706.158Z" fill="white"/>
<path d="M393.468 740.926C391.97 746.035 390.631 753.154 385.244 754.942C380.48 755.869 375.618 756.191 370.773 755.9C364.781 755.9 359.075 755.677 353.051 755.677C347.664 755.677 346.676 753.889 347.951 748.493C349.162 744.598 348.397 740.895 352.413 739.394C356.429 737.893 382.694 738.628 393.468 740.926Z" fill="#032049"/>
<path d="M360.924 679.053C360.414 679.924 359.966 680.831 359.585 681.766C359.107 683.267 358.916 684.001 358.756 684.416C357.94 684.079 357.051 683.958 356.174 684.065C355.409 684.352 355.282 685.119 354.389 685.342C353.149 685.351 351.914 685.179 350.724 684.831C348.492 684.448 346.166 684.161 343.902 683.65C342.326 683.187 340.978 682.152 340.124 680.746C339.269 679.341 338.968 677.667 339.281 676.051C339.504 672.859 342.723 671.869 345.273 671.486C347.823 671.103 351.266 669.89 353.656 671.486C357.067 673.497 355.696 680.01 360.924 679.053Z" fill="#043783"/>
<path d="M530.849 704.083C530.69 700.89 523.327 694.185 521.287 692.078C518.778 689.738 516.139 687.543 513.382 685.501C512.394 684.895 512.203 684.895 511.979 684.288C511.756 683.682 511.629 683.107 511.119 681.606C510.74 680.67 510.293 679.763 509.78 678.893C505.573 671.262 493.269 652.234 492.249 651.18C490.165 649.01 487.477 647.519 484.535 646.902C480.742 646.231 442.556 644.252 435.384 644.252C428.212 644.252 390.026 646.327 386.233 646.998C383.29 647.615 380.602 649.105 378.519 651.276C377.499 652.329 365.227 671.358 361.019 679.02C360.509 679.892 360.062 680.799 359.681 681.734C359.203 683.235 359.011 683.969 358.852 684.384C358.444 684.927 357.922 685.374 357.322 685.693C354.606 687.482 352.056 689.512 349.704 691.759C346.229 695.431 340.141 700.986 340.141 704.147C339.355 708.003 338.96 711.928 338.962 715.864C338.962 719.056 339.95 728.187 340.779 736.999C341.608 745.811 342.5 755.006 342.596 755.708C342.596 757.049 342.309 758.55 342.883 759.763C343.456 760.976 344.986 761.264 347.377 761.264L366.98 761.487L435.703 762.349L505.636 761.327L524.028 761.072C526.419 761.072 527.917 760.785 528.523 759.571C529.128 758.358 528.523 756.858 528.809 755.517C529.096 754.176 530.435 738.755 531.455 727.038C531.933 721.898 532.252 717.46 532.348 715.64C532.235 711.747 531.733 707.875 530.849 704.083ZM516.187 701.752C519.566 701.752 520.235 701.305 520.904 704.434C521.314 706.543 521.314 708.711 520.904 710.819C519.534 717.205 511.342 717.205 505.859 717.205C495.978 717.205 487.404 719.695 479.594 705.743C486.288 703.732 494.161 703.923 500.919 702.806C505.956 702.001 511.055 701.649 516.155 701.752H516.187ZM380.399 652.202L435.32 649.68L490.241 652.074C490.241 652.074 510.035 682.947 508.537 682.947C507.039 682.947 457.537 680.17 435.224 680.68C412.912 680.233 363.474 683.107 361.912 683.107C360.35 683.107 380.368 652.202 380.368 652.202H380.399ZM349.799 704.625C350.469 701.433 351.17 701.912 354.517 701.912C359.635 701.917 364.744 702.365 369.785 703.253C376.543 704.37 384.384 704.147 391.109 706.158C383.332 720.11 374.758 717.652 364.844 717.652C359.458 717.652 351.17 717.652 349.799 711.266C349.356 709.075 349.356 706.817 349.799 704.625ZM385.117 754.974C380.352 755.901 375.49 756.222 370.646 755.932H366.693L357.131 755.74H352.923C347.536 755.74 346.548 753.952 347.823 748.557C349.034 744.662 348.269 740.958 352.286 739.458C356.379 738.754 360.539 738.518 364.685 738.755H366.629L373.004 738.947L376.829 739.138H378.2H380.272L382.28 739.298L384.256 739.49L387.061 739.777L388.814 740L390.185 740.192H390.823H391.651H391.97H392.512L393.341 740.383C391.843 746.035 390.504 753.154 385.117 754.942V754.974ZM461.298 752.739H409.501C408.768 752.739 401.278 753.473 399.333 748.078C397.389 742.682 394.361 733.966 393.309 729.656C392.257 725.346 388.528 717.269 410.521 717.747C421.869 718.003 430.093 717.971 435.352 717.747C440.611 717.524 448.835 717.747 460.183 717.556C482.176 717.045 478.511 724.867 477.427 729.433C476.343 733.998 473.379 742.491 471.434 747.886C469.49 753.282 462.031 752.707 461.298 752.707V752.739ZM517.876 755.517C513.605 755.517 509.493 755.517 505.318 755.708H500.154C495.31 756.016 490.448 755.705 485.683 754.782C480.296 752.995 478.957 745.875 477.459 740.767L478.638 740.543L480.359 740.224L481.571 740.032H481.985L483.674 739.809L485.428 739.617L490.049 739.202H491.388C493.843 739.011 496.361 738.883 498.847 738.787H500.791H505.158C509.558 738.515 513.973 738.74 518.323 739.458C522.339 740.958 521.51 744.662 522.817 748.557C524.156 753.697 523.263 755.485 517.781 755.517H517.876Z" fill="#043783"/>
<path d="M508.505 682.947L490.623 682.085L476.343 681.351C461.84 680.744 445.616 680.266 435.32 680.521C422.156 680.266 399.333 681.159 382.694 681.958L362.932 682.915H362.135C360.637 682.915 380.367 652.01 380.367 652.01L394.392 651.372L414.123 650.478L435.288 649.52L490.241 651.883C490.241 651.883 492.918 656.065 496.233 661.461C498.082 664.398 500.09 667.623 501.939 670.687C505.891 677.296 509.142 682.947 508.505 682.947Z" fill="#78C5F0"/>
<path d="M520.968 710.979C519.598 717.364 511.406 717.364 505.923 717.364C496.042 717.364 487.468 719.855 479.658 705.903C486.352 703.891 494.225 704.083 500.983 702.965C506.021 702.052 511.131 701.593 516.251 701.593C519.63 701.593 520.299 701.146 520.968 704.274C521.42 706.486 521.42 708.767 520.968 710.979Z" fill="white"/>
<path d="M477.427 729.592C476.375 733.903 473.379 742.65 471.435 748.046C469.49 753.442 461.872 752.707 461.267 752.707H409.47C408.737 752.707 401.246 753.442 399.302 748.046C397.357 742.65 394.329 733.934 393.277 729.624C392.225 725.314 388.496 717.237 410.49 717.716C421.837 717.971 430.061 717.939 435.32 717.716C440.58 717.492 448.803 717.716 460.151 717.524C482.208 717.205 478.543 725.027 477.427 729.592Z" fill="#021634"/>
<g style="mix-blend-mode:screen" opacity="0.2">
<path d="M521.223 692.078C518.714 689.738 516.075 687.543 513.318 685.501C512.33 684.895 512.139 684.895 511.916 684.288C511.693 683.682 511.565 683.107 511.055 681.606C510.677 680.67 510.229 679.763 509.716 678.893C505.509 671.262 493.205 652.234 492.185 651.18C490.102 649.01 487.414 647.519 484.471 646.902C480.678 646.231 442.715 644.284 435.384 644.252V649.68L490.241 652.074C490.241 652.074 510.035 682.947 508.537 682.947C507.039 682.947 457.537 680.17 435.225 680.68V762.477L505.158 761.455L523.55 761.2C525.941 761.2 527.439 760.912 528.045 759.699C528.65 758.486 528.045 756.985 528.331 755.644C528.618 754.304 529.957 738.883 530.977 727.166C531.455 722.026 531.774 717.588 531.87 715.768C531.86 711.842 531.454 707.927 530.658 704.083C530.531 700.922 523.327 694.122 521.223 692.078ZM500.919 703.125C505.957 702.212 511.067 701.752 516.187 701.752C519.566 701.752 520.235 701.305 520.905 704.434C521.314 706.543 521.314 708.711 520.905 710.819C519.534 717.205 511.342 717.205 505.86 717.205C495.978 717.205 487.404 719.695 479.595 705.743C486.288 704.051 494.161 704.242 500.919 703.125ZM517.781 755.517C513.51 755.517 509.398 755.517 505.222 755.708H500.058C495.215 756.016 490.352 755.705 485.587 754.782C480.2 752.995 478.861 745.875 477.363 740.767L478.543 740.543L480.264 740.224L481.475 740.032H481.89L483.579 739.809L485.332 739.617L489.954 739.202H491.293C493.747 739.011 496.265 738.883 498.751 738.787H500.696H505.063C509.462 738.515 513.878 738.74 518.227 739.458C522.243 740.958 521.415 744.662 522.722 748.557C524.156 753.697 523.263 755.485 517.781 755.517Z" fill="#043783"/>
</g>
<path d="M366.693 761.615V775.759C366.685 776.23 366.494 776.68 366.161 777.014C365.828 777.347 365.379 777.538 364.908 777.546H342.468C341.997 777.538 341.548 777.347 341.215 777.014C340.882 776.68 340.691 776.23 340.683 775.759V737.095C341.544 746.354 342.404 755.102 342.5 755.804C342.5 757.145 342.213 758.646 342.787 759.859C343.361 761.072 344.891 761.36 347.281 761.36L366.693 761.615Z" fill="#001C47"/>
<path d="M531.487 728.188V775.567C531.491 775.803 531.448 776.038 531.36 776.256C531.272 776.475 531.141 776.674 530.974 776.841C530.807 777.008 530.609 777.14 530.39 777.228C530.172 777.316 529.938 777.359 529.702 777.355H507.135C506.664 777.347 506.214 777.156 505.881 776.822C505.548 776.489 505.358 776.039 505.35 775.567V761.424L523.741 761.168C526.132 761.168 527.63 760.881 528.236 759.668C528.841 758.454 528.236 756.954 528.523 755.613C528.81 754.272 530.148 738.851 531.168 727.134C531.391 727.439 531.504 727.811 531.487 728.188Z" fill="#001F4E"/>
<path d="M357.832 754.144C361.617 754.144 364.685 751.071 364.685 747.28C364.685 743.489 361.617 740.416 357.832 740.416C354.047 740.416 350.979 743.489 350.979 747.28C350.979 751.071 354.047 754.144 357.832 754.144Z" fill="#BBD9F9"/>
<path d="M526.801 683.458C524.57 683.969 522.211 684.288 519.98 684.671C518.79 685.019 517.555 685.191 516.315 685.182C515.422 684.959 515.263 684.224 514.53 683.905C513.653 683.798 512.764 683.919 511.948 684.256C511.948 683.841 511.597 683.075 511.087 681.574C510.709 680.638 510.261 679.731 509.748 678.861C514.976 679.818 513.573 673.305 517.08 671.166C519.47 669.73 522.913 670.879 525.463 671.166C528.013 671.454 531.2 672.571 531.455 675.732C531.801 677.371 531.514 679.08 530.65 680.514C529.786 681.949 528.41 683.001 526.801 683.458Z" fill="#043783"/>
<path d="M371.57 752.165C374.264 752.165 376.447 749.978 376.447 747.28C376.447 744.582 374.264 742.395 371.57 742.395C368.877 742.395 366.693 744.582 366.693 747.28C366.693 749.978 368.877 752.165 371.57 752.165Z" fill="#BBD9F9"/>
<path d="M519.375 747.12C519.375 748.478 518.973 749.805 518.22 750.934C517.467 752.063 516.396 752.942 515.144 753.462C513.892 753.981 512.514 754.117 511.184 753.853C509.855 753.588 508.634 752.934 507.675 751.974C506.717 751.014 506.064 749.791 505.8 748.459C505.535 747.128 505.671 745.748 506.19 744.493C506.709 743.239 507.587 742.167 508.714 741.413C509.841 740.659 511.166 740.256 512.521 740.256C513.423 740.252 514.316 740.426 515.149 740.77C515.982 741.113 516.739 741.619 517.377 742.257C518.014 742.895 518.519 743.654 518.861 744.488C519.204 745.323 519.379 746.218 519.375 747.12Z" fill="#BBD9F9"/>
<path d="M498.082 752.037C500.776 752.037 502.959 749.85 502.959 747.152C502.959 744.454 500.776 742.267 498.082 742.267C495.389 742.267 493.205 744.454 493.205 747.152C493.205 749.85 495.389 752.037 498.082 752.037Z" fill="#BBD9F9"/>
<g style="mix-blend-mode:multiply" opacity="0.45">
<path d="M507.931 682.915C503.979 682.756 491.516 682.085 477.459 681.511C471.084 681.255 464.39 681.032 457.983 680.872C449.696 680.648 442.046 680.553 436.021 680.68C413.709 680.233 364.239 683.107 362.709 683.107C362.709 683.107 362.709 682.883 362.709 682.468C370.231 676.37 399.843 671.773 435.065 671.773C443.48 671.773 451.608 671.996 459.163 672.475C458.806 671.821 458.508 671.138 458.27 670.432C457.537 670.432 456.708 669.346 456.294 667.974C455.88 666.601 456.071 664.781 456.804 664.781C456.943 664.754 457.086 664.757 457.223 664.79C457.361 664.823 457.489 664.885 457.601 664.972C457.125 663.76 456.793 662.495 456.613 661.205C456.425 660.01 456.425 658.793 456.613 657.597C456.931 656.065 457.792 655.618 459.163 654.947C462.35 653.447 467.068 651.372 470.574 652.968C471.753 653.511 471.817 655.139 471.817 656.384C472.37 656.123 472.974 655.987 473.586 655.987C474.198 655.987 474.802 656.123 475.355 656.384C475.56 656.539 475.742 656.722 475.897 656.927C476.385 657.579 476.722 658.331 476.885 659.13C477.22 661.175 476.908 663.274 475.993 665.132C476.248 665.132 476.535 664.781 476.758 664.813C477.491 665.036 477.714 666.505 477.268 668.005C476.821 669.506 476.025 670.368 475.323 670.464C474.932 671.605 474.374 672.681 473.666 673.656C491.293 675.668 504.17 678.988 507.931 682.915Z" fill="#0B3F8D"/>
</g>
<path opacity="0.2" d="M414.123 650.637L382.695 682.085L362.932 683.043L394.393 651.531L414.123 650.637Z" fill="white"/>
<path opacity="0.2" d="M501.843 670.783L490.528 682.085L476.343 681.351L496.201 661.397C498.05 664.494 500.09 667.718 501.843 670.783Z" fill="white"/>
<path d="M652.038 482.16C633.574 480.756 616.211 472.819 603.054 459.767C589.897 446.716 581.806 429.402 580.226 410.922C578.647 392.442 583.683 374.003 594.434 358.901C605.185 343.8 620.948 333.022 638.906 328.496L641.328 338.074C625.68 342.055 611.953 351.475 602.597 364.655C593.242 377.835 588.867 393.916 590.253 410.028C591.639 426.14 598.697 441.234 610.166 452.616C621.635 463.998 636.769 470.927 652.867 472.167L652.038 482.16Z" fill="#C8CEDA"/>
<path d="M657.84 331.114C649.195 335.654 641.347 341.574 634.603 348.642L637.79 333.892L630.746 320.578C639.146 325.541 648.297 329.1 657.84 331.114Z" fill="#C8CEDA"/>
<path d="M676.869 480.021L674.447 470.443C690.113 466.425 703.841 456.953 713.171 443.722C722.501 430.491 726.825 414.366 725.368 398.233C723.911 382.101 716.768 367.014 705.218 355.676C693.668 344.337 678.466 337.486 662.334 336.35L662.971 326.453C681.499 327.701 698.974 335.528 712.255 348.528C725.535 361.528 733.749 378.847 735.421 397.371C737.092 415.895 732.11 434.409 721.371 449.582C710.632 464.756 694.841 475.595 676.837 480.149L676.869 480.021Z" fill="#C8CEDA"/>
<path d="M657.84 477.403C666.484 472.862 674.332 466.942 681.076 459.875L677.889 474.593L684.901 487.906C676.511 482.955 667.37 479.408 657.84 477.403Z" fill="#C8CEDA"/>
<path d="M633.678 400.076C629.789 407.068 625.454 405.855 620.514 405.855C617.804 405.855 613.661 405.855 612.959 402.662C612.755 401.608 612.755 400.524 612.959 399.47C613.31 397.905 613.629 398.129 615.318 398.097C617.883 398.098 620.442 398.322 622.968 398.767C626.562 398.982 630.139 399.419 633.678 400.076Z" fill="white"/>
<path d="M634.794 417.54C634.061 420.094 633.392 423.67 630.682 424.596C628.29 425.064 625.848 425.225 623.415 425.075C620.418 425.075 617.55 425.075 614.521 425.075C611.493 425.075 611.334 424.181 611.972 421.467C612.577 419.519 612.195 417.636 614.203 416.901C621.065 416.23 627.986 416.444 634.794 417.54Z" fill="#828282"/>
<path d="M618.538 386.443C618.284 386.885 618.06 387.344 617.868 387.816C617.613 388.55 617.518 388.933 617.454 389.157C617.039 388.991 616.589 388.936 616.147 388.997C615.765 388.997 615.701 389.508 615.255 389.636C614.629 389.645 614.006 389.559 613.406 389.38C612.29 389.189 611.111 389.029 609.995 388.774C609.189 388.569 608.495 388.058 608.06 387.348C607.626 386.638 607.485 385.787 607.668 384.974C607.668 383.378 609.39 382.867 610.665 382.676C611.94 382.484 613.693 381.878 614.872 382.676C616.593 383.665 615.892 386.954 618.538 386.443Z" fill="#D2D2D2"/>
<path d="M703.803 399.022C703.803 397.426 700.01 394.042 698.958 392.988C697.7 391.852 696.381 390.786 695.006 389.795C694.528 389.476 694.432 389.476 694.305 389.189C694.177 388.901 694.113 388.614 693.89 387.848C693.703 387.374 693.479 386.915 693.221 386.475C691.117 382.644 684.933 373.098 684.423 372.555C683.371 371.467 682.016 370.721 680.535 370.416C678.622 370.065 659.465 369.075 655.863 369.075C652.261 369.075 633.105 370.129 631.192 370.448C629.723 370.761 628.38 371.506 627.335 372.587C626.825 373.098 620.673 382.676 618.57 386.507C618.316 386.949 618.092 387.408 617.9 387.88C617.645 388.614 617.55 388.997 617.486 389.221C617.279 389.486 617.018 389.703 616.721 389.859C615.351 390.805 614.071 391.873 612.896 393.052C611.143 394.904 608.146 397.681 608.083 399.278C607.683 401.21 607.48 403.179 607.477 405.152C607.477 406.685 607.987 411.346 608.401 415.784C608.816 420.222 609.262 424.819 609.294 425.17C609.326 425.521 609.294 426.607 609.294 427.214C609.294 427.82 610.346 427.98 611.557 427.98H621.406L655.895 428.395L690.958 427.884H700.201C701.413 427.884 702.146 427.884 702.465 427.15C702.783 426.415 702.465 425.777 702.465 425.106C702.465 424.436 703.293 416.678 703.803 410.803C704.026 408.217 704.218 406.046 704.25 405.088C704.314 403.056 704.164 401.023 703.803 399.022ZM696.44 397.841C698.13 397.841 698.48 397.617 698.799 399.182C699.005 400.236 699.005 401.32 698.799 402.375C698.13 405.567 693.954 405.567 691.245 405.567C686.272 405.567 681.969 406.812 678.048 399.82C681.585 399.111 685.162 398.621 688.758 398.352C691.3 397.966 693.871 397.805 696.44 397.873V397.841ZM628.291 372.97L655.863 371.725L683.435 372.938C683.435 372.938 693.38 388.423 692.615 388.423C691.85 388.423 667.115 387.018 655.863 387.273C644.611 387.529 619.845 388.486 619.143 388.486C618.442 388.486 628.291 373.002 628.291 373.002V372.97ZM612.96 399.278C613.31 397.713 613.629 397.937 615.318 397.905C617.883 397.906 620.443 398.13 622.968 398.575C626.565 398.832 630.141 399.312 633.678 400.012C629.79 407.004 625.455 405.791 620.514 405.791C617.805 405.791 613.661 405.791 612.96 402.598C612.742 401.513 612.742 400.395 612.96 399.31V399.278ZM630.682 424.564C628.29 425.032 625.848 425.193 623.415 425.043H621.438H616.657H614.521C611.812 425.043 611.334 424.149 611.971 421.435C612.577 419.487 612.195 417.604 614.203 416.869C616.307 416.503 618.446 416.385 620.578 416.518H621.566H624.753H626.666H627.367H628.419H629.439H630.427H631.83H632.722H633.423H633.742H634.156H634.571H634.985C634.029 420.094 633.36 423.67 630.65 424.564H630.682ZM668.932 423.446H642.922C642.54 423.446 638.778 423.829 637.822 421.116C636.866 418.402 635.336 414.028 634.794 411.857C634.252 409.686 632.371 405.631 643.432 405.887C649.138 405.887 653.25 405.887 655.895 405.887C658.541 405.887 662.653 405.887 668.358 405.887C679.387 405.631 677.57 409.558 676.996 411.857C676.423 414.156 674.956 418.242 674 421.116C673.044 423.989 669.283 423.446 668.9 423.446H668.932ZM697.333 424.851H690.958H688.376C685.944 425.009 683.502 424.859 681.108 424.404C678.399 423.51 677.73 419.934 676.965 417.38H677.538H678.399H679.005H679.196H680.056H680.949L683.276 417.157H683.945C685.156 417.157 686.463 416.997 687.675 416.965H688.663H690.862C693.068 416.836 695.281 416.953 697.46 417.316C699.468 418.051 699.118 419.934 699.723 421.882C700.456 423.925 700.01 424.851 697.301 424.851H697.333Z" fill="url(#paint1_linear)"/>
<path d="M692.615 388.423L683.531 388.008L676.455 387.625C669.155 387.337 661.027 387.082 655.863 387.209C649.265 387.209 637.822 387.529 629.439 387.944L619.526 388.423H619.111C618.378 388.423 628.26 372.906 628.26 372.906L635.304 372.587L645.217 372.14L655.831 371.661L683.403 372.874L686.4 377.631C687.324 379.1 688.344 380.824 689.268 382.261C690.641 384.164 691.766 386.234 692.615 388.423Z" fill="#BBD9F9"/>
<path d="M698.831 402.503C698.161 405.695 693.986 405.695 691.276 405.695C686.304 405.695 682.001 406.94 678.08 399.948C681.617 399.239 685.193 398.748 688.79 398.48C691.315 398.021 693.875 397.785 696.44 397.777C698.13 397.777 698.48 397.554 698.799 399.118C699.041 400.232 699.052 401.384 698.831 402.503Z" fill="white"/>
<path d="M697.301 424.851C694.273 424.851 691.436 424.851 688.408 424.851C685.976 425.009 683.534 424.859 681.14 424.404C678.431 423.51 677.761 419.934 676.996 417.38C683.796 416.221 690.717 415.942 697.588 416.55C699.596 417.284 699.245 419.168 699.851 421.116C700.456 423.925 700.01 424.851 697.301 424.851Z" fill="#828282"/>
<path d="M677.156 411.857C676.614 414.028 675.116 418.242 674.16 421.116C673.203 423.989 669.442 423.478 669.06 423.478H643.05C642.667 423.478 638.906 423.862 637.95 421.148C636.993 418.434 635.463 414.06 634.922 411.889C634.38 409.718 632.499 405.663 643.56 405.919C649.265 405.919 653.377 405.919 656.023 405.919C658.668 405.919 662.78 405.919 668.486 405.919C679.387 405.631 677.57 409.558 677.156 411.857Z" fill="#B4B4B4"/>
<g style="mix-blend-mode:screen" opacity="0.2">
<path d="M698.99 393.02C697.732 391.884 696.413 390.818 695.038 389.827C694.559 389.508 694.464 389.508 694.336 389.221C694.209 388.933 694.145 388.646 693.922 387.88C693.734 387.406 693.511 386.947 693.253 386.507C691.149 382.676 684.965 373.13 684.455 372.587C683.403 371.499 682.048 370.753 680.566 370.448C678.654 370.129 659.624 369.107 655.927 369.107V371.661L683.467 372.874C683.467 372.874 693.412 388.359 692.647 388.359C691.882 388.359 667.147 386.986 655.927 387.209V428.331L690.989 427.82H700.233C701.444 427.82 702.178 427.82 702.496 427.086C702.815 426.352 702.496 425.713 702.496 425.043C702.496 424.372 703.325 416.614 703.835 410.739C704.058 408.153 704.249 405.982 704.281 405.025C704.277 403.062 704.075 401.104 703.676 399.182C703.739 397.458 700.042 394.01 698.99 393.02ZM688.79 398.575C691.314 398.116 693.874 397.881 696.44 397.873C698.129 397.873 698.48 397.649 698.799 399.214C699.005 400.268 699.005 401.352 698.799 402.407C698.129 405.599 693.954 405.599 691.244 405.599C686.272 405.599 681.969 406.844 678.048 399.852C681.599 399.195 685.186 398.758 688.79 398.543V398.575ZM697.301 424.851H690.926H688.344C685.912 425.009 683.47 424.859 681.076 424.404C678.367 423.51 677.698 419.934 676.933 417.38H677.506H678.367H678.973H679.164H680.024H680.917L683.244 417.157H683.913C685.124 417.157 686.431 416.997 687.643 416.965H688.631H690.83C693.036 416.836 695.249 416.953 697.428 417.316C699.436 418.051 699.086 419.934 699.691 421.882C700.456 423.925 700.01 424.851 697.301 424.851Z" fill="#0B3F8D"/>
</g>
<path d="M621.407 427.916V435.004C621.407 435.241 621.312 435.469 621.145 435.636C620.978 435.804 620.751 435.898 620.514 435.898H609.198C608.964 435.89 608.742 435.793 608.576 435.627C608.41 435.461 608.314 435.239 608.306 435.004V415.625C608.72 420.254 609.167 424.66 609.198 425.011C609.23 425.362 609.198 426.448 609.198 427.054C609.198 427.661 610.25 427.821 611.462 427.821L621.407 427.916Z" fill="white"/>
<path d="M704.122 411.123V434.908C704.122 435.145 704.028 435.373 703.861 435.54C703.693 435.708 703.466 435.802 703.229 435.802H691.882C691.645 435.802 691.418 435.708 691.251 435.54C691.084 435.373 690.99 435.145 690.99 434.908V427.82H700.233C701.444 427.82 702.178 427.82 702.496 427.086C702.815 426.352 702.496 425.713 702.496 425.043C702.496 424.372 703.325 416.614 703.835 410.74C703.968 410.835 704.068 410.969 704.122 411.123Z" fill="white"/>
<path d="M616.976 424.181C618.877 424.181 620.418 422.637 620.418 420.733C620.418 418.828 618.877 417.285 616.976 417.285C615.074 417.285 613.533 418.828 613.533 420.733C613.533 422.637 615.074 424.181 616.976 424.181Z" fill="#BBD9F9"/>
<path d="M701.795 388.678C700.68 388.934 699.5 389.093 698.353 389.285C697.752 389.46 697.129 389.546 696.504 389.54C696.058 389.54 695.962 389.061 695.611 388.902C695.169 388.844 694.72 388.899 694.304 389.061C694.304 388.87 694.113 388.487 693.89 387.72C693.703 387.246 693.479 386.787 693.221 386.347C695.834 386.826 695.133 383.57 696.886 382.484C698.098 381.75 699.819 382.484 701.094 382.484C702.369 382.484 703.995 383.187 704.09 384.783C704.196 385.19 704.22 385.613 704.161 386.029C704.103 386.445 703.963 386.846 703.75 387.208C703.537 387.57 703.254 387.886 702.919 388.138C702.583 388.39 702.202 388.574 701.795 388.678Z" fill="#D2D2D2"/>
<path d="M623.858 423.171C625.214 423.17 626.311 422.068 626.31 420.71C626.308 419.352 625.208 418.253 623.852 418.255C622.497 418.256 621.399 419.358 621.401 420.716C621.403 422.074 622.503 423.173 623.858 423.171Z" fill="#BBD9F9"/>
<path d="M694.64 424.068C696.541 424.066 698.08 422.52 698.077 420.615C698.075 418.711 696.531 417.17 694.63 417.172C692.729 417.175 691.19 418.721 691.192 420.625C691.195 422.529 692.738 424.071 694.64 424.068Z" fill="#BBD9F9"/>
<path d="M687.387 423.095C688.743 423.095 689.842 421.995 689.842 420.637C689.842 419.279 688.743 418.179 687.387 418.179C686.032 418.179 684.933 419.279 684.933 420.637C684.933 421.995 686.032 423.095 687.387 423.095Z" fill="#BBD9F9"/>
<g style="mix-blend-mode:multiply" opacity="0.45">
<path d="M692.296 388.391C690.32 388.391 684.073 387.976 676.996 387.688C673.809 387.688 670.43 387.433 667.211 387.369C663.035 387.369 659.146 387.21 656.182 387.369C644.994 387.146 620.163 388.582 619.43 388.582C619.43 388.582 619.43 388.582 619.43 388.263C623.128 385.07 637.918 382.931 655.672 382.931C659.911 382.931 663.991 382.931 667.753 383.283C667.574 382.956 667.424 382.614 667.306 382.261C666.956 382.261 666.51 381.718 666.318 381.048C666.127 380.377 666.318 379.515 666.573 379.388C666.638 379.356 666.709 379.34 666.781 379.34C666.852 379.34 666.923 379.356 666.988 379.388C666.744 378.782 666.573 378.15 666.478 377.504C666.382 376.901 666.382 376.287 666.478 375.684C666.637 374.918 667.083 374.694 667.753 374.343C668.596 373.806 669.538 373.442 670.522 373.272C671.507 373.102 672.516 373.13 673.49 373.353C674.096 373.641 674.096 374.439 674.128 375.045C674.402 374.917 674.701 374.851 675.004 374.851C675.307 374.851 675.606 374.917 675.881 375.045C675.993 375.123 676.09 375.221 676.168 375.333C676.415 375.653 676.589 376.024 676.678 376.418C676.851 377.451 676.695 378.513 676.231 379.451C676.231 379.451 676.486 379.292 676.614 379.451C676.741 379.611 677.092 380.313 676.869 381.112C676.646 381.91 676.231 382.293 675.881 382.325C675.686 382.906 675.407 383.454 675.052 383.953C683.977 384.783 690.416 386.443 692.296 388.391Z" fill="#BBD9F9"/>
</g>
<path opacity="0.15" d="M645.281 372.204L629.343 388.008L619.43 388.487L635.368 372.523L645.281 372.204Z" fill="white"/>
<path opacity="0.15" d="M689.3 382.325L683.531 388.008L676.455 387.625L686.432 377.6C687.356 379.164 688.376 380.76 689.3 382.325Z" fill="white"/>
<path d="M693.476 444.135C703.334 444.135 711.326 436.13 711.326 426.256C711.326 416.382 703.334 408.377 693.476 408.377C683.617 408.377 675.626 416.382 675.626 426.256C675.626 436.13 683.617 444.135 693.476 444.135Z" fill="#BBD9F9"/>
<path d="M692.296 438.835L682.925 421.02L685.666 419.551L692.392 432.322L701.317 416.455L704.026 417.987L692.296 438.835Z" fill="white"/>
<path d="M349.736 390.817C349.273 391.595 348.868 392.406 348.525 393.244C348.078 394.585 347.919 395.255 347.791 395.606C347.063 395.317 346.273 395.218 345.496 395.319C344.827 395.574 344.7 396.245 343.903 396.468C342.823 396.458 341.75 396.296 340.715 395.989C338.707 395.67 336.635 395.383 334.627 394.904C333.223 394.5 332.019 393.585 331.253 392.339C330.487 391.093 330.212 389.606 330.483 388.167C330.675 385.358 333.671 384.432 335.806 384.081C337.942 383.73 341.13 382.676 343.265 384.081C346.293 386.028 345.082 391.839 349.736 390.817Z" fill="#0F2E5C"/>
<path d="M501.206 413.166C501.206 410.357 494.48 404.322 492.631 402.471C490.395 400.382 488.043 398.42 485.587 396.596C484.726 396.053 484.535 396.053 484.344 395.511C484.153 394.968 484.025 394.457 483.579 393.116C483.238 392.277 482.833 391.466 482.368 390.69C478.606 383.889 467.641 366.936 466.749 366.01C464.892 364.067 462.492 362.732 459.864 362.179C456.485 361.604 422.443 359.816 416.036 359.816C409.629 359.816 375.618 361.668 372.208 362.275C369.583 362.819 367.184 364.143 365.323 366.074C364.398 367 353.465 383.985 349.736 390.817C349.273 391.595 348.868 392.406 348.525 393.244C348.078 394.585 347.919 395.255 347.791 395.606C347.433 396.081 346.976 396.473 346.453 396.756C344.031 398.345 341.759 400.151 339.663 402.151C336.476 405.344 331.216 410.388 331.089 413.198C330.389 416.634 330.037 420.131 330.037 423.638C330.037 426.384 330.898 434.621 331.663 442.507C332.428 450.393 333.193 458.47 333.288 459.173C333.288 460.386 333.033 461.727 333.543 462.78C334.053 463.834 335.424 464.121 337.528 464.121L354.995 464.345L416.227 465.111L478.543 464.185L494.863 464.249C496.998 464.249 498.337 463.994 498.879 462.908C499.421 461.823 498.879 460.514 499.134 459.3C499.389 458.087 500.6 444.359 501.493 433.918C501.907 429.353 502.226 425.458 502.29 423.766C502.293 420.205 501.93 416.653 501.206 413.166ZM488.105 411.091C491.101 411.091 491.707 410.708 492.313 413.485C492.718 415.488 492.707 417.553 492.281 419.551C491.07 425.394 483.675 425.394 478.861 425.394C470.064 425.394 462.382 427.597 455.433 415.177C461.426 413.39 468.438 413.581 474.558 412.559C479.036 411.714 483.58 411.265 488.137 411.219L488.105 411.091ZM366.98 366.904L415.94 364.669L464.9 366.808C464.9 366.808 482.559 394.329 481.22 394.329C479.881 394.329 435.798 391.871 415.972 392.286C396.146 391.903 351.999 394.425 350.724 394.457C349.449 394.489 367.076 367.032 367.076 367.032L366.98 366.904ZM339.823 413.773C340.428 410.995 341.034 411.378 344.03 411.378C348.594 411.388 353.148 411.794 357.641 412.591C363.665 413.581 370.646 413.39 376.766 415.177C369.817 427.597 362.167 425.426 353.37 425.426C348.588 425.426 341.193 425.426 339.95 419.615C339.519 417.696 339.476 415.709 339.823 413.773ZM371.156 458.662C366.957 459.466 362.674 459.745 358.406 459.492H354.9H346.421H342.468C337.655 459.492 336.858 457.896 337.942 453.106C338.994 449.626 338.356 446.338 341.926 444.997C345.578 444.369 349.288 444.155 352.987 444.359H354.74L360.318 444.518L363.729 444.678H364.972H366.821H368.606H370.391L372.877 444.933L374.439 445.125L375.65 445.284H376.224H376.957H377.531H378.009L378.742 445.444C377.276 450.712 376.096 457.033 371.156 458.662ZM439.081 456.682H393.022C392.353 456.682 385.691 457.353 383.97 452.532C382.248 447.711 379.539 439.953 378.615 436.09C377.69 432.226 374.343 425.075 393.946 425.49C404.083 425.713 411.382 425.713 416.1 425.49C420.817 425.266 428.116 425.49 438.253 425.298C457.856 424.819 454.605 431.684 453.616 435.898C452.628 440.112 450.015 447.519 448.293 452.34C446.572 457.161 439.878 456.65 439.209 456.65L439.081 456.682ZM489.508 459.173C485.715 459.173 482.049 459.173 478.32 459.364H473.73C469.462 459.62 465.179 459.341 460.98 458.534C456.166 456.938 454.955 450.616 453.648 446.051L454.7 445.827L456.23 445.54L457.218 445.412H457.569L459.067 445.221L460.629 445.061L464.741 444.678H465.92C468.088 444.518 470.383 444.39 472.55 444.327H474.271H478.16C482.081 444.087 486.015 444.291 489.89 444.933C493.46 446.274 492.823 449.563 493.906 453.043C495.245 457.544 494.448 459.141 489.667 459.141L489.508 459.173Z" fill="#0F2E5C"/>
<path d="M391.874 453.394C390.344 453.394 387.73 453.138 387.125 451.414C385.149 445.955 382.694 438.643 381.865 435.451L381.61 434.525C381.196 432.929 380.877 431.683 381.324 431.109C381.77 430.534 383.395 428.97 392.225 428.97H393.85C400.226 428.97 405.262 429.161 409.405 429.161H421.582C425.917 429.161 431.463 429.161 438.284 428.938H440.005C448.771 428.938 450.556 430.726 450.843 431.077C451.13 431.428 450.843 432.929 450.588 434.493L450.365 435.419C449.536 438.803 447.177 446.082 445.137 451.382C444.532 453.106 441.95 453.362 440.324 453.362H391.874V453.394Z" fill="#0F2E5C"/>
<path d="M354.868 464.568V477.179C354.859 477.6 354.689 478.001 354.392 478.299C354.095 478.597 353.694 478.767 353.274 478.776H333.161C332.741 478.767 332.34 478.597 332.043 478.299C331.746 478.001 331.575 477.6 331.567 477.179V442.73C332.332 450.967 333.097 458.694 333.193 459.396C333.193 460.609 332.938 461.95 333.448 463.004C333.958 464.057 335.328 464.345 337.432 464.345L354.868 464.568Z" fill="#0F2E5C"/>
<path d="M501.843 434.78V477.02C501.848 477.23 501.809 477.44 501.731 477.636C501.652 477.831 501.535 478.009 501.386 478.158C501.237 478.307 501.06 478.425 500.864 478.503C500.669 478.582 500.46 478.62 500.249 478.616H480.073C479.652 478.608 479.252 478.437 478.955 478.139C478.657 477.842 478.487 477.44 478.479 477.02V464.249H494.863C496.998 464.249 498.337 463.994 498.879 462.908C499.421 461.822 498.879 460.513 499.134 459.3C499.389 458.087 500.6 444.359 501.493 433.918C501.7 434.16 501.823 434.463 501.843 434.78Z" fill="#0F2E5C"/>
<path d="M346.979 457.904C350.341 457.901 353.064 455.168 353.061 451.8C353.057 448.432 350.328 445.705 346.966 445.708C343.604 445.712 340.881 448.445 340.884 451.813C340.888 455.181 343.616 457.908 346.979 457.904Z" fill="#0F2E5C"/>
<path d="M497.604 394.904C495.596 395.383 493.524 395.638 491.516 395.989C490.482 396.302 489.408 396.464 488.328 396.468C487.531 396.277 487.404 395.606 486.734 395.319C485.955 395.224 485.164 395.334 484.439 395.638C484.439 395.255 484.121 394.585 483.674 393.244C483.333 392.405 482.928 391.594 482.463 390.817C487.117 391.647 485.874 385.869 488.838 383.953C490.974 382.676 494.034 383.666 496.297 383.953C498.56 384.24 501.429 385.23 501.62 388.04C501.932 389.48 501.693 390.985 500.949 392.256C500.205 393.528 499.011 394.473 497.604 394.904Z" fill="#0F2E5C"/>
<path d="M359.235 456.171C361.646 456.171 363.601 454.213 363.601 451.797C363.601 449.382 361.646 447.423 359.235 447.423C356.823 447.423 354.868 449.382 354.868 451.797C354.868 454.213 356.823 456.171 359.235 456.171Z" fill="#0F2E5C"/>
<path d="M484.854 457.768C488.216 457.768 490.942 455.038 490.942 451.67C490.942 448.302 488.216 445.572 484.854 445.572C481.491 445.572 478.766 448.302 478.766 451.67C478.766 455.038 481.491 457.768 484.854 457.768Z" fill="#0F2E5C"/>
<path d="M472.022 456.049C474.416 456.047 476.355 454.101 476.353 451.703C476.35 449.305 474.407 447.363 472.013 447.365C469.619 447.368 467.68 449.314 467.683 451.712C467.685 454.11 469.628 456.052 472.022 456.049Z" fill="#0F2E5C"/>
<path d="M507.868 523.441H324.268V529.38H507.868V523.441Z" fill="#0F2E5C"/>
<path d="M384.225 485.448H312.028V478.68H376.097L384.225 485.448Z" fill="#0F2E5C"/>
<path d="M318.116 397.618H305.812V421.18H318.116V397.618Z" fill="#0F2E5C"/>
<path d="M318.116 326.964C317.308 326.964 316.509 327.125 315.764 327.437C315.019 327.749 314.343 328.207 313.777 328.784C313.21 329.36 312.764 330.044 312.463 330.795C312.163 331.546 312.015 332.349 312.028 333.158V524.91H324.204V333.158C324.217 332.349 324.068 331.546 323.768 330.795C323.468 330.044 323.021 329.36 322.455 328.784C321.888 328.207 321.213 327.749 320.468 327.437C319.723 327.125 318.923 326.964 318.116 326.964Z" fill="#0F2E5C"/>
<path d="M324.204 529.603H294.656L302.115 518.588H324.204V529.603Z" fill="#0F2E5C"/>
<path d="M447.847 485.448H520.044V478.68H455.975L447.847 485.448Z" fill="#0F2E5C"/>
<path d="M526.26 397.618H513.956V421.18H526.26V397.618Z" fill="#0F2E5C"/>
<path d="M513.956 326.964C515.57 326.964 517.119 327.606 518.261 328.75C519.403 329.894 520.044 331.445 520.044 333.062V524.91H507.868V333.158C507.855 332.349 508.003 331.546 508.303 330.795C508.604 330.044 509.05 329.36 509.617 328.784C510.183 328.207 510.859 327.749 511.604 327.437C512.349 327.125 513.148 326.964 513.956 326.964Z" fill="#0F2E5C"/>
<path d="M507.868 529.603H537.416L529.957 518.588H507.868V529.603Z" fill="#0F2E5C"/>
<path d="M648.118 445.795H429.073C425.569 445.795 422.729 448.64 422.729 452.149V594.702C422.729 598.211 425.569 601.055 429.073 601.055H648.118C651.621 601.055 654.461 598.211 654.461 594.702V452.149C654.461 448.64 651.621 445.795 648.118 445.795Z" fill="#BBD9F9"/>
<path d="M646.301 453.937H430.857V589.721H646.301V453.937Z" fill="white"/>
<path d="M646.301 453.937H430.857V462.078H646.301V453.937Z" fill="#043783"/>
<path d="M646.301 584.836H430.857V589.753H646.301V584.836Z" fill="#043783"/>
<path d="M657.457 604.727H419.701C416.797 604.727 414.442 607.085 414.442 609.995V615.295C414.442 618.204 416.797 620.562 419.701 620.562H657.457C660.362 620.562 662.716 618.204 662.716 615.295V609.995C662.716 607.085 660.362 604.727 657.457 604.727Z" fill="#BBD9F9"/>
<path d="M475.387 609.069H424.77V616.221H475.387V609.069Z" fill="white"/>
<path d="M651.592 615.486C653.159 615.486 654.429 614.214 654.429 612.645C654.429 611.075 653.159 609.803 651.592 609.803C650.025 609.803 648.755 611.075 648.755 612.645C648.755 614.214 650.025 615.486 651.592 615.486Z" fill="#FF6400"/>
<path d="M639.862 615.486C641.429 615.486 642.699 614.214 642.699 612.645C642.699 611.075 641.429 609.803 639.862 609.803C638.295 609.803 637.025 611.075 637.025 612.645C637.025 614.214 638.295 615.486 639.862 615.486Z" fill="#BBD9F9"/>
<path d="M621.438 543.778L447.241 544.8L454.445 568.49H621.438V543.778Z" fill="#031C41"/>
<path d="M436.34 560.764C436.376 561.039 436.451 561.308 436.563 561.562C436.608 561.721 436.696 561.865 436.818 561.977C437.39 562.174 437.92 562.477 438.38 562.871L439.177 563.446C439.337 563.586 439.507 563.714 439.687 563.829L440.165 564.148C440.441 564.355 440.728 564.547 441.026 564.723H441.217L443.193 565.808C444.443 566.392 445.76 566.82 447.114 567.085L448.07 567.277H448.58C450.142 567.596 451.767 567.851 452.851 568.043L453.999 568.203H454.381C454.129 566.952 454.011 565.679 454.031 564.403C453.927 561.909 454.328 559.419 455.21 557.084C456.092 554.749 457.435 552.617 459.161 550.815C460.886 549.014 462.958 547.58 465.25 546.601C467.543 545.622 470.01 545.117 472.502 545.117C474.995 545.117 477.461 545.622 479.754 546.601C482.047 547.58 484.118 549.014 485.843 550.815C487.569 552.617 488.913 554.749 489.794 557.084C490.676 559.419 491.077 561.909 490.974 564.403C490.965 565.779 490.804 567.149 490.496 568.49H583.379C583.067 567.15 582.907 565.779 582.901 564.403C582.798 561.909 583.199 559.419 584.081 557.084C584.962 554.749 586.306 552.617 588.032 550.815C589.757 549.014 591.828 547.58 594.121 546.601C596.414 545.622 598.88 545.117 601.373 545.117C603.865 545.117 606.332 545.622 608.625 546.601C610.917 547.58 612.989 549.014 614.714 550.815C616.439 552.617 617.783 554.749 618.665 557.084C619.547 559.419 619.948 561.909 619.844 564.403C619.832 565.777 619.683 567.146 619.398 568.49H628.451C630.682 568.49 630.841 568.49 632.977 568.49H635.049H636.005H636.961C637.58 568.406 638.176 568.2 638.714 567.883L638.969 567.724C639.221 567.551 639.428 567.321 639.575 567.053C639.676 566.88 639.761 566.699 639.83 566.51C639.982 565.957 639.982 565.372 639.83 564.818C639.84 564.766 639.84 564.711 639.83 564.659C639.848 564.596 639.848 564.53 639.83 564.467C639.83 564.467 639.83 564.212 639.83 564.116C639.757 563.95 639.672 563.79 639.575 563.637C639.51 563.526 639.456 563.408 639.416 563.286L639.161 562.775C639.161 562.552 639.161 562.392 638.969 562.232C638.936 561.978 638.936 561.72 638.969 561.466C638.969 560.029 638.969 558.72 638.969 557.571C638.969 557.188 638.969 556.805 638.969 556.422C638.96 556.294 638.96 556.166 638.969 556.039V555.272C638.969 554.953 638.969 554.666 638.969 554.378C638.969 554.091 638.969 553.74 638.969 553.452C638.969 553.165 638.969 552.878 638.969 552.59C638.969 552.303 638.969 552.048 638.969 551.792C638.969 551.537 638.969 551.281 638.969 551.09C638.969 550.898 638.969 550.356 638.969 550.004C638.84 548.569 638.44 547.172 637.79 545.886C637.736 545.721 637.649 545.569 637.535 545.439L637.28 545.024C636.993 544.545 636.674 544.13 636.324 543.651L635.686 542.757L633.806 540.873C629.981 535.414 588.83 534.488 582.806 531.902C579.618 530.593 555.202 517.567 547.743 515.236C543.854 514.055 542.771 513.767 525.431 513.863H520.777C514.791 514.052 508.82 514.585 502.895 515.46C487.863 517.688 473.211 521.985 459.354 528.23C453.361 530.497 441.886 530.88 441.536 531.678L441.217 532.572C440.962 533.371 440.611 534.552 440.229 535.765L439.942 536.691L439.591 537.968V538.607C439.591 539.245 439.241 539.852 439.145 540.426C439.049 541.001 439.145 540.682 439.145 540.841C439.145 541.001 438.986 541.64 438.954 541.991C438.922 542.342 438.954 542.182 438.954 542.31C438.954 542.438 438.954 542.885 438.954 543.108C438.998 543.469 438.998 543.833 438.954 544.194V544.449C438.749 544.836 438.503 545.2 438.221 545.535C438.221 545.535 437.997 545.854 437.87 546.077V546.301C437.87 546.524 437.647 546.748 437.519 547.035V547.291C437.415 547.561 437.33 547.838 437.264 548.121C436.248 552.253 435.935 556.527 436.34 560.764ZM550.134 533.945L544.619 533.754L533.049 533.179H530.084L521.287 532.668C521.269 527.148 521.631 521.633 522.371 516.162C529.64 515.893 536.919 516.032 544.173 516.577C551.098 518.871 557.851 521.656 564.382 524.91L568.271 526.889C569.928 527.751 571.458 528.645 572.797 529.444C574.169 530.242 575.461 531.172 576.654 532.221C576.801 532.361 576.94 532.511 577.068 532.668C577.108 532.698 577.14 532.736 577.162 532.781C577.184 532.825 577.196 532.874 577.196 532.924C577.196 532.973 577.184 533.022 577.162 533.066C577.14 533.111 577.108 533.149 577.068 533.179C576.962 533.292 576.831 533.379 576.686 533.434C574.274 534.004 571.799 534.262 569.322 534.201H565.019C560.78 534.264 555.712 534.169 550.134 533.977V533.945ZM498.974 518.684L500.154 518.365C501.62 517.982 503.341 517.663 504.807 517.407C507.102 516.992 509.429 516.641 511.533 516.449C513.637 516.258 515.964 516.066 517.398 516.066H520.586C519.897 521.242 519.535 526.457 519.502 531.678V532.477C513.127 532.093 507.23 531.71 501.907 531.295H500.313L495.851 530.944C491.101 530.561 487.212 530.274 484.599 529.986H483.196H482.591H481.698H480.997C478.766 528.677 492.854 520.44 498.974 518.684Z" fill="#043783"/>
<path d="M521.287 532.54C530.85 533.115 540.954 533.626 549.975 533.945C555.648 534.136 560.844 534.232 565.115 534.232H569.386C571.864 534.296 574.338 534.039 576.75 533.466C577.291 533.274 577.483 532.987 577.196 532.7C573.211 527.943 547.233 516.96 544.301 516.481C540.203 516.061 536.083 515.901 531.965 516.002H522.403C521.65 521.482 521.278 527.008 521.287 532.54Z" fill="#3F91E4"/>
<path d="M480.901 529.411C481.411 529.571 487.276 530.146 495.628 530.784L508.378 531.678L519.566 532.413C519.565 526.935 519.927 521.464 520.65 516.034H517.462C511.25 516.208 505.079 517.098 499.07 518.684C498.273 518.908 497.349 519.259 496.329 519.674C493.656 520.826 491.049 522.127 488.52 523.569C483.611 526.219 479.69 528.996 480.901 529.411Z" fill="#3F8FE3"/>
<g style="mix-blend-mode:screen" opacity="0.2">
<path d="M531.838 515.939L549.847 533.977C555.521 534.169 560.716 534.265 564.988 534.265H569.259C571.736 534.329 574.211 534.071 576.622 533.498C577.164 533.307 577.355 533.019 577.068 532.732C573.084 527.975 547.106 516.992 544.173 516.513C540.078 516.061 535.958 515.869 531.838 515.939Z" fill="white"/>
</g>
<path d="M563.33 527.623C563.33 528.869 563.489 530.465 563.617 531.678C563.936 534.615 566.518 531.838 567.059 532.253C567.601 532.668 565.338 533.69 564.956 534.296C567.454 534.567 569.965 534.695 572.478 534.679C576.144 534.679 576.718 534.073 576.622 533.466C574.376 531.464 571.954 529.669 569.386 528.102C568.781 527.751 568.271 527.464 567.729 527.208C566.993 526.834 566.192 526.606 565.37 526.538C564.637 526.314 563.33 526.57 563.33 527.623Z" fill="#043783"/>
<path d="M624.562 542.406C625.391 545.599 626.379 548.376 629.885 549.206C632.596 549.614 635.344 549.71 638.077 549.494C637.798 546.784 636.684 544.229 634.889 542.182C631.415 542.182 627.941 542.118 624.562 542.406Z" fill="#EBEBEB"/>
<path d="M436.882 561.977C437.905 562.483 438.868 563.104 439.751 563.828C443.576 566.446 444.947 567.021 454.063 568.426H454.445C453.816 565.711 453.808 562.888 454.42 560.169C455.032 557.45 456.249 554.904 457.98 552.722C459.712 550.54 461.912 548.777 464.419 547.565C466.925 546.354 469.672 545.724 472.455 545.724C475.238 545.724 477.985 546.354 480.491 547.565C482.997 548.777 485.198 550.54 486.929 552.722C488.66 554.904 489.877 557.45 490.489 560.169C491.102 562.888 491.093 565.711 490.464 568.426H583.38C583.064 567.076 582.903 565.694 582.902 564.307C582.888 561.694 583.427 559.107 584.483 556.717C585.539 554.327 587.088 552.188 589.028 550.441C590.968 548.694 593.256 547.377 595.74 546.579C598.225 545.78 600.85 545.518 603.443 545.808C606.036 546.098 608.538 546.935 610.785 548.264C613.032 549.592 614.973 551.382 616.48 553.515C617.987 555.648 619.027 558.077 619.53 560.642C620.033 563.206 619.988 565.848 619.398 568.394C634.922 568.394 641.105 569.256 639.703 564.148C639.6 563.753 639.439 563.377 639.225 563.03C638.434 558.529 638.04 553.968 638.045 549.398C629.343 549.685 626.507 549.749 624.594 542.31L441.281 532.796C439.864 536.652 438.891 540.659 438.38 544.736C438.168 545.126 437.911 545.49 437.615 545.822C437.245 546.338 436.935 546.895 436.691 547.482C435.926 550.068 435.129 561.977 436.882 561.977Z" fill="#002863"/>
<path d="M472.487 579.409C480.761 579.409 487.468 572.69 487.468 564.403C487.468 556.116 480.761 549.397 472.487 549.397C464.213 549.397 457.505 556.116 457.505 564.403C457.505 572.69 464.213 579.409 472.487 579.409Z" fill="white"/>
<g style="mix-blend-mode:screen" opacity="0.1">
<path d="M472.486 576.088C478.947 576.088 484.184 570.842 484.184 564.371C484.184 557.9 478.947 552.654 472.486 552.654C466.026 552.654 460.788 557.9 460.788 564.371C460.788 570.842 466.026 576.088 472.486 576.088Z" fill="white"/>
</g>
<path d="M460.406 564.403C460.434 565.976 460.773 567.527 461.402 568.968C462.031 570.409 462.938 571.711 464.071 572.8L464.964 573.598L465.761 574.173L466.876 574.843C468.597 575.748 470.511 576.22 472.454 576.216C474.388 576.222 476.293 575.751 478.001 574.843L479.084 574.205L479.913 573.598L480.869 572.736C482.003 571.62 482.902 570.288 483.515 568.818C484.128 567.349 484.442 565.772 484.439 564.18C484.439 563.505 484.375 562.832 484.248 562.169C484.191 561.746 484.095 561.329 483.961 560.923C483.877 560.597 483.77 560.277 483.643 559.966C483.643 559.582 483.324 559.167 483.133 558.784C482.254 557.083 480.984 555.616 479.426 554.505C477.868 553.395 476.068 552.673 474.176 552.399H472.933H471.881H470.637C468.75 552.675 466.955 553.398 465.403 554.509C463.851 555.62 462.585 557.085 461.712 558.784C461.502 559.164 461.321 559.559 461.171 559.966C461.171 560.285 460.947 560.604 460.852 560.923C460.756 561.243 460.661 561.753 460.565 562.169C460.44 562.907 460.387 563.655 460.406 564.403ZM462.127 560.476L469.012 562.711L470.287 563.126C470.136 563.392 470.038 563.685 470 563.988L468.725 563.573L461.84 561.338C461.92 561.046 462.016 560.758 462.127 560.476ZM470.606 561.881L469.968 561.626L467.896 560.955L462.828 559.295C463.623 557.814 464.745 556.534 466.11 555.555C467.475 554.575 469.045 553.922 470.701 553.644L470.606 561.881ZM472.901 561.881H472.391H471.913V553.261H472.964L472.901 561.881ZM473.474 564.244C473.474 564.458 473.411 564.668 473.292 564.847C473.173 565.025 473.003 565.164 472.805 565.247C472.607 565.329 472.389 565.35 472.179 565.308C471.969 565.267 471.776 565.163 471.624 565.011C471.473 564.86 471.37 564.666 471.328 564.456C471.286 564.245 471.307 564.027 471.389 563.828C471.471 563.63 471.61 563.46 471.789 563.341C471.967 563.222 472.176 563.158 472.391 563.158C472.552 563.143 472.715 563.164 472.867 563.22C473.02 563.276 473.158 563.365 473.271 563.482C473.384 563.598 473.47 563.738 473.521 563.892C473.573 564.046 473.59 564.21 473.57 564.371L473.474 564.244ZM482.144 559.167L477.044 560.828L475.004 561.498L474.176 561.753V553.644C475.861 553.896 477.464 554.538 478.858 555.519C480.253 556.5 481.4 557.793 482.208 559.295L482.144 559.167ZM482.973 561.307L476.056 563.541L474.749 563.956C474.709 563.629 474.6 563.314 474.431 563.031L475.769 562.616L482.654 560.381C482.768 560.662 482.864 560.95 482.941 561.243L482.973 561.307ZM477.013 567.692L475.738 565.968L475.228 565.265L476.024 564.978L478.064 564.308L483.196 562.616C483.249 563.189 483.249 563.766 483.196 564.34C483.199 565.774 482.919 567.195 482.372 568.521C481.825 569.847 481.022 571.052 480.009 572.066L477.013 567.692ZM474.144 567.692L473.379 566.606C473.649 566.478 473.888 566.293 474.08 566.064L474.877 567.149L479.18 573.056L478.415 573.63L474.144 567.692ZM467.45 574.077L470.637 569.703L471.881 567.979L472.391 567.277L472.901 567.979L474.144 569.735L477.331 574.141C475.798 574.931 474.099 575.343 472.375 575.343C470.651 575.343 468.951 574.931 467.418 574.141L467.45 574.077ZM465.537 572.832L469.968 567.053L470.733 566C470.932 566.214 471.17 566.387 471.434 566.511L470.669 567.564L466.366 573.471L465.633 572.96L465.537 572.832ZM461.426 564.244C461.379 563.67 461.379 563.093 461.426 562.52L466.526 564.18L468.566 564.85L469.394 565.138L468.884 565.84L467.609 567.564L464.422 571.938C462.518 569.895 461.468 567.198 461.489 564.403L461.426 564.244Z" fill="#B4B4B4"/>
<path d="M601.325 579.409C609.599 579.409 616.306 572.69 616.306 564.403C616.306 556.116 609.599 549.397 601.325 549.397C593.051 549.397 586.344 556.116 586.344 564.403C586.344 572.69 593.051 579.409 601.325 579.409Z" fill="white"/>
<g style="mix-blend-mode:screen" opacity="0.1">
<path d="M601.325 576.088C607.786 576.088 613.023 570.842 613.023 564.371C613.023 557.9 607.786 552.654 601.325 552.654C594.864 552.654 589.627 557.9 589.627 564.371C589.627 570.842 594.864 576.088 601.325 576.088Z" fill="white"/>
</g>
<path d="M589.34 564.403C589.373 567.565 590.657 570.585 592.91 572.8L593.803 573.598L594.6 574.173L595.715 574.843C597.425 575.744 599.329 576.215 601.261 576.216C603.195 576.223 605.1 575.752 606.808 574.843L607.923 574.205L608.752 573.598L609.676 572.736C610.815 571.661 611.73 570.372 612.37 568.942C613.01 567.512 613.362 565.969 613.406 564.403C613.401 563.728 613.337 563.055 613.215 562.392C613.153 561.969 613.057 561.553 612.928 561.147C612.843 560.82 612.737 560.5 612.609 560.189C612.463 559.785 612.293 559.39 612.099 559.007C611.226 557.308 609.961 555.843 608.408 554.732C606.856 553.622 605.062 552.898 603.174 552.622H601.931H600.656H599.413C597.525 552.898 595.73 553.622 594.178 554.732C592.626 555.843 591.361 557.308 590.488 559.007C590.291 559.389 590.121 559.784 589.978 560.189C589.978 560.508 589.755 560.827 589.659 561.147C589.369 562.186 589.219 563.26 589.213 564.339L589.34 564.403ZM591.093 560.476L597.978 562.711L599.253 563.126C599.104 563.392 599.006 563.685 598.966 563.988L597.691 563.573L590.806 561.338C590.806 561.051 590.998 560.763 591.093 560.476ZM599.604 561.881L598.775 561.625L596.703 560.955L591.635 559.295C592.433 557.81 593.561 556.528 594.931 555.548C596.302 554.568 597.879 553.917 599.54 553.644L599.604 561.881ZM601.867 561.881H601.357H600.656V553.261H601.708L601.867 561.881ZM602.441 564.243C602.441 564.458 602.377 564.668 602.258 564.846C602.139 565.025 601.97 565.164 601.772 565.246C601.574 565.328 601.356 565.35 601.146 565.308C600.935 565.266 600.742 565.163 600.591 565.011C600.439 564.859 600.336 564.666 600.294 564.455C600.252 564.245 600.274 564.026 600.356 563.828C600.438 563.63 600.577 563.46 600.755 563.341C600.933 563.222 601.143 563.158 601.357 563.158C601.508 563.161 601.657 563.196 601.793 563.261C601.93 563.325 602.052 563.417 602.151 563.531C602.25 563.646 602.324 563.779 602.369 563.924C602.413 564.069 602.427 564.221 602.409 564.371L602.441 564.243ZM611.111 559.167L605.979 560.827L603.843 561.625L603.015 561.881V553.644C604.705 553.894 606.313 554.534 607.713 555.515C609.113 556.496 610.265 557.79 611.079 559.295L611.111 559.167ZM611.94 561.306L605.023 563.541L603.716 563.956C603.679 563.628 603.57 563.311 603.397 563.03L604.736 562.615L611.621 560.38C611.732 560.662 611.828 560.95 611.908 561.242L611.94 561.306ZM605.979 567.692L604.736 565.967L604.226 565.265L605.023 564.978L607.063 564.307L612.195 562.615C612.467 564.351 612.319 566.126 611.765 567.793C611.21 569.459 610.264 570.968 609.007 572.193L605.979 567.692ZM603.11 567.692L602.345 566.606C602.612 566.472 602.85 566.288 603.046 566.063L603.843 567.149L608.146 573.055L607.381 573.63L603.11 567.692ZM596.385 574.077L599.572 569.703L600.815 567.979L601.325 567.276L601.835 567.979L603.078 569.735L606.266 574.141C604.732 574.928 603.033 575.339 601.309 575.339C599.586 575.339 597.887 574.928 596.353 574.141L596.385 574.077ZM594.472 572.832L598.743 566.925L599.508 565.872C599.708 566.084 599.946 566.257 600.21 566.383L599.476 567.436L595.237 573.566L594.504 573.055L594.472 572.832ZM590.36 564.243C590.315 563.67 590.315 563.093 590.36 562.519L595.46 564.18L597.5 564.85L598.329 565.137L597.819 565.84L596.544 567.564L593.356 571.938C591.414 569.911 590.329 567.212 590.328 564.403L590.36 564.243Z" fill="#B4B4B4"/>
<g style="mix-blend-mode:screen" opacity="0.2">
<path d="M488.392 523.537L495.468 530.784L508.218 531.678L496.233 519.674C493.55 520.815 490.932 522.104 488.392 523.537Z" fill="white"/>
</g>
<g style="mix-blend-mode:screen" opacity="0.1">
<path d="M502.895 515.523L555.808 568.522H583.379C583.067 567.182 582.907 565.811 582.901 564.435C582.798 561.941 583.199 559.451 584.081 557.116C584.962 554.781 586.306 552.649 588.032 550.847C589.757 549.046 591.828 547.612 594.121 546.633C596.414 545.654 598.88 545.149 601.373 545.149C603.865 545.149 606.332 545.654 608.625 546.633C610.917 547.612 612.989 549.046 614.714 550.847C616.44 552.649 617.783 554.781 618.665 557.116C619.547 559.451 619.948 561.941 619.844 564.435C619.833 565.809 619.683 567.178 619.398 568.522H628.451C630.682 568.522 630.841 568.522 632.977 568.522H635.049H636.005H636.961C637.58 568.438 638.176 568.232 638.714 567.915L638.969 567.756C639.221 567.583 639.428 567.353 639.575 567.085C639.676 566.912 639.761 566.731 639.83 566.542C639.982 565.989 639.982 565.404 639.83 564.85C639.84 564.798 639.84 564.743 639.83 564.691C639.848 564.628 639.848 564.562 639.83 564.499C639.83 564.499 639.83 564.244 639.83 564.148C639.757 563.982 639.672 563.822 639.575 563.669C639.51 563.558 639.456 563.44 639.416 563.318L639.161 562.807C639.161 562.583 639.161 562.424 638.969 562.264C638.936 562.01 638.936 561.752 638.969 561.498C638.969 560.061 638.969 558.752 638.969 557.603C638.969 557.22 638.969 556.837 638.969 556.454C638.96 556.326 638.96 556.198 638.969 556.07V555.304C638.969 554.985 638.969 554.698 638.969 554.41C638.969 554.123 638.969 553.772 638.969 553.484C638.969 553.197 638.969 552.91 638.969 552.622C638.969 552.335 638.969 552.08 638.969 551.824C638.969 551.569 638.969 551.313 638.969 551.122C638.969 550.93 638.969 550.387 638.969 550.036C638.84 548.601 638.44 547.204 637.79 545.918C637.736 545.753 637.649 545.601 637.535 545.471L637.28 545.056C636.993 544.577 636.674 544.162 636.324 543.683L635.686 542.789L633.806 540.873C629.981 535.414 588.83 534.488 582.806 531.902C579.618 530.593 555.202 517.567 547.743 515.236C543.854 514.055 542.771 513.767 525.431 513.863H520.777C514.789 514.073 508.819 514.627 502.895 515.523Z" fill="#043783"/>
</g>
<path d="M514.083 514.597L512.585 514.214C512.585 514.023 512.585 513.863 512.585 513.703C512.585 512.554 512.585 511.788 512.585 511.788C512.585 511.788 512.585 511.021 512.585 509.904C512.585 509.744 512.585 509.553 512.585 509.393L514.083 509.042C516.028 508.563 517.94 507.988 517.94 507.988L517.781 506.839L517.589 505.753C517.589 505.338 517.398 504.923 517.271 504.476C517.088 503.678 516.865 502.889 516.601 502.114L516.219 501.06C516.219 501.06 514.243 501.443 512.298 501.922L510.832 502.273L510.641 501.795L509.812 500.071C509.741 499.914 509.655 499.765 509.557 499.624L508.856 498.442L508.569 497.995L509.716 496.974C511.214 495.633 512.649 494.228 512.649 494.228L511.979 493.334C511.51 492.674 510.999 492.045 510.449 491.45C509.682 490.552 508.851 489.709 507.963 488.928C507.963 488.928 506.401 490.173 504.776 491.514L503.628 492.536L503.214 492.185L501.843 491.067C501.704 490.957 501.555 490.861 501.397 490.78L500.218 490.046L499.771 489.79L500.313 488.353C501.014 486.47 501.62 484.554 501.62 484.554L500.632 484.075L499.612 483.596L498.401 483.149C497.303 482.711 496.174 482.359 495.022 482.096C495.022 482.096 494.225 483.948 493.492 485.799L492.95 487.236H492.44L490.559 486.949H490.049H488.679H488.137C488.137 486.47 488.137 485.959 487.946 485.416C487.754 484.873 487.691 483.405 487.563 482.67L487.372 481.425H486.256C485.587 481.425 484.726 481.425 483.834 481.617L481.411 482L480.328 482.255C480.328 482.255 480.328 484.267 480.71 486.246C480.71 486.789 480.71 487.3 480.901 487.747H480.391C479.948 487.872 479.512 488.021 479.085 488.194L478.575 488.385L478.096 488.545C477.67 488.71 477.255 488.902 476.853 489.12L476.375 489.343L475.515 488.098C474.367 486.438 473.124 484.905 473.124 484.905H472.869L472.168 485.32C471.594 485.672 470.829 486.119 470.096 486.629L468.151 488.098C467.641 488.513 467.323 488.832 467.323 488.832C467.323 488.832 468.375 490.556 469.522 492.217L470.383 493.462L470 493.813C469.661 494.123 469.342 494.453 469.044 494.803L468.693 495.186L468.343 495.569C468.035 495.914 467.748 496.276 467.482 496.654L467.163 497.069L465.856 496.175C464.071 495.25 462.223 494.388 462.223 494.388L462.031 494.643L461.617 495.313C461.266 495.888 460.788 496.622 460.374 497.421L459.322 499.624C459.067 500.23 458.94 500.677 458.94 500.677C458.94 500.677 460.661 501.699 462.446 502.657L463.785 503.359L463.593 503.87C463.441 504.309 463.314 504.757 463.211 505.211V505.722V506.232C463.094 506.673 463.009 507.121 462.956 507.573C462.956 507.733 462.956 507.925 462.956 508.084H461.426C459.418 508.084 457.378 508.084 457.378 508.084C457.358 508.446 457.358 508.808 457.378 509.17C457.378 509.84 457.378 510.734 457.378 511.596C457.378 512.458 457.378 513.384 457.378 514.023C457.292 514.454 457.239 514.892 457.218 515.332C457.218 515.332 459.226 515.332 461.235 515.332H462.765V515.842C462.818 516.295 462.903 516.743 463.02 517.183V517.694V518.205C463.12 518.659 463.247 519.107 463.402 519.546L463.593 520.025L462.255 520.727C460.47 521.653 458.748 522.707 458.748 522.707C458.748 522.707 458.748 523.122 459.131 523.76L460.183 525.963C460.565 526.761 461.075 527.496 461.426 528.07L461.84 528.773C461.894 528.865 461.958 528.951 462.031 529.028C462.031 529.028 463.88 528.166 465.665 527.24L467.004 526.538L467.323 526.953C467.591 527.329 467.878 527.692 468.183 528.038L468.534 528.421L468.885 528.805C469.182 529.154 469.501 529.485 469.841 529.794L470.223 530.146L469.363 531.391C468.247 533.051 467.163 534.775 467.163 534.775C467.163 534.775 467.482 535.094 467.992 535.509L469.936 536.978C470.67 537.489 471.435 537.936 472.008 538.287L472.71 538.702H472.996C472.996 538.702 474.24 537.074 475.387 535.509L476.343 534.488L476.821 534.711C477.223 534.93 477.638 535.122 478.065 535.286L478.543 535.477L479.053 535.669C479.479 535.843 479.916 535.992 480.359 536.116H480.869C480.869 536.595 480.87 537.106 480.678 537.616C480.455 539.596 480.296 541.607 480.296 541.607L481.38 541.863L483.802 542.246C484.663 542.246 485.555 542.246 486.224 542.437H487.34L487.531 541.192C487.531 540.426 487.786 539.436 487.914 538.446C487.914 537.936 487.914 537.425 488.105 536.914H488.647H490.018H490.528L492.408 536.627H492.918L493.46 538.063C494.161 539.915 494.99 541.767 494.99 541.767C496.141 541.5 497.27 541.148 498.369 540.713L499.58 540.266L500.6 539.787L501.588 539.309C501.588 539.309 500.983 537.393 500.281 535.509L499.739 534.073L500.186 533.785L501.365 533.083C501.524 533.003 501.673 532.907 501.811 532.795L503.309 531.646L503.724 531.295L504.871 532.317C506.369 533.626 508.059 534.903 508.059 534.903C508.947 534.134 509.778 533.302 510.545 532.412C511.098 531.82 511.609 531.191 512.075 530.529L512.744 529.635C512.744 529.635 511.31 528.23 509.812 526.889L508.664 525.867L508.951 525.42L509.653 524.239C509.751 524.098 509.836 523.948 509.908 523.792L510.736 522.068L510.928 521.557L512.394 521.94C514.338 522.419 516.314 522.802 516.314 522.802L516.697 521.749C516.962 520.974 517.185 520.185 517.366 519.386C517.366 518.971 517.589 518.524 517.685 518.109L517.844 516.992L517.781 515.651C517.781 515.651 515.996 515.076 514.083 514.597ZM505.828 521.876L505.222 522.866L504.84 523.537L504.329 524.207C503.973 524.715 503.579 525.196 503.15 525.644C502.384 526.505 501.553 527.306 500.664 528.038L499.389 528.996C499.282 529.086 499.165 529.161 499.038 529.22L498.05 529.826L497.381 530.209L496.616 530.593C496.073 530.882 495.508 531.128 494.926 531.327C493.89 531.736 492.825 532.067 491.739 532.317L490.177 532.54H489.763H488.615C488.074 532.583 487.531 532.583 486.99 532.54C486.374 532.571 485.757 532.571 485.141 532.54L483.324 532.253L481.762 531.87C481.394 531.774 481.032 531.657 480.678 531.518H480.264H479.849C479.489 531.382 479.137 531.222 478.798 531.039C477.755 530.544 476.754 529.968 475.801 529.315L474.303 528.198L473.156 526.793C472.873 526.533 472.607 526.256 472.359 525.963L472.072 525.644L471.785 525.325C471.533 525.041 471.299 524.743 471.084 524.431C470.38 523.514 469.751 522.543 469.203 521.525C468.948 520.951 468.661 520.376 468.406 519.865L467.865 518.365C467.737 518.009 467.631 517.647 467.546 517.279V516.864V516.449C467.441 516.083 467.366 515.71 467.323 515.332C467.323 514.853 467.131 514.31 467.1 513.735V511.883V510.032C467.1 509.425 467.259 508.914 467.323 508.435C467.365 508.057 467.44 507.683 467.546 507.318V506.903V506.488C467.628 506.109 467.735 505.736 467.865 505.37L468.406 503.87C468.63 503.327 468.948 502.784 469.203 502.21C469.753 501.193 470.382 500.222 471.084 499.304C471.298 498.991 471.532 498.693 471.785 498.41L472.072 498.091L472.359 497.772C472.55 497.58 472.805 497.261 473.156 496.942L474.335 495.856L475.833 494.739C476.784 494.084 477.786 493.508 478.83 493.015C479.166 492.826 479.518 492.666 479.881 492.536H480.296H480.71C481.064 492.398 481.426 492.28 481.794 492.185L483.356 491.77L485.173 491.482C485.788 491.451 486.406 491.451 487.021 491.482C487.562 491.437 488.106 491.437 488.647 491.482H489.795H490.209L491.771 491.738C492.856 491.977 493.921 492.297 494.958 492.695C495.539 492.898 496.103 493.144 496.648 493.43L497.413 493.813L498.082 494.196L499.07 494.803C499.198 494.871 499.316 494.957 499.421 495.058L500.664 496.016C501.556 496.746 502.387 497.547 503.15 498.41C503.581 498.857 503.976 499.337 504.329 499.847L504.84 500.517L505.222 501.188L505.828 502.178C505.91 502.295 505.975 502.424 506.019 502.561L506.688 503.966C507.132 505 507.495 506.067 507.772 507.158C507.772 507.478 507.931 507.765 507.995 508.084V508.978C508.1 509.504 508.164 510.038 508.186 510.574V512.139V513.735C508.164 514.271 508.1 514.805 507.995 515.332V516.225C507.995 516.513 507.995 516.832 507.772 517.119C507.495 518.211 507.133 519.278 506.688 520.312L506.019 521.749C505.958 521.796 505.894 521.839 505.828 521.876Z" fill="#BBD9F9"/>
<path d="M487.404 494.803C484.05 494.803 480.772 495.799 477.983 497.665C475.194 499.532 473.021 502.184 471.737 505.288C470.454 508.392 470.118 511.807 470.772 515.101C471.427 518.396 473.042 521.423 475.413 523.798C477.785 526.173 480.806 527.791 484.096 528.446C487.385 529.102 490.795 528.765 493.893 527.48C496.992 526.194 499.64 524.017 501.504 521.224C503.367 518.431 504.362 515.147 504.362 511.788C504.362 507.283 502.575 502.963 499.395 499.778C496.215 496.592 491.901 494.803 487.404 494.803ZM487.404 518.652C486.056 518.652 484.739 518.252 483.618 517.503C482.497 516.753 481.622 515.688 481.105 514.442C480.588 513.195 480.451 511.823 480.712 510.498C480.972 509.174 481.619 507.957 482.57 507C483.52 506.043 484.733 505.39 486.054 505.123C487.375 504.855 488.745 504.986 489.992 505.498C491.239 506.011 492.307 506.881 493.06 508.001C493.814 509.12 494.219 510.438 494.225 511.788C494.2 513.583 493.47 515.297 492.194 516.557C490.917 517.818 489.197 518.525 487.404 518.524V518.652Z" fill="#BBD9F9"/>
<path d="M531.742 479.606V479.255C531.742 478.871 531.742 478.552 531.742 478.329C531.742 478.105 531.742 477.978 531.742 477.978C531.742 477.978 531.742 477.978 531.742 477.626C531.742 477.275 531.742 477.084 531.742 476.732V476.381L532.73 476.062C534.037 475.647 535.312 475.136 535.312 475.136L535.121 474.338C534.967 473.752 534.775 473.176 534.547 472.614C534.199 471.803 533.783 471.024 533.304 470.283C533.304 470.283 532.029 470.826 530.818 471.433L529.893 471.911L529.702 471.624C529.514 471.379 529.311 471.144 529.097 470.922L528.905 470.634H528.65C528.427 470.42 528.193 470.218 527.949 470.028L527.662 469.804L528.14 468.878C528.778 467.633 529.288 466.388 529.288 466.388C528.55 465.906 527.771 465.49 526.961 465.143C526.399 464.918 525.824 464.726 525.24 464.568L524.475 464.249C524.475 464.249 523.965 465.526 523.55 466.835L523.232 467.825H522.881C522.498 467.825 522.18 467.825 521.957 467.825H521.287C521.064 467.825 520.745 467.825 520.395 467.825H520.044L519.725 466.835C519.311 465.526 518.801 464.249 518.801 464.249L518.004 464.441C517.42 464.599 516.845 464.791 516.283 465.015C515.472 465.36 514.693 465.777 513.956 466.26C513.956 466.26 514.498 467.506 515.103 468.751L515.582 469.677L515.295 469.9C515.047 470.131 514.813 470.376 514.593 470.634L514.338 470.858L514.115 471.113C513.901 471.336 513.698 471.57 513.51 471.816L513.318 472.103L512.394 471.624C511.183 470.986 509.908 470.475 509.908 470.475C509.427 471.214 509.011 471.994 508.665 472.805C508.437 473.367 508.245 473.943 508.091 474.529L507.9 475.328C507.9 475.328 509.175 475.838 510.482 476.253L511.47 476.573V476.924C511.452 477.222 511.452 477.52 511.47 477.818V478.52C511.451 478.829 511.451 479.138 511.47 479.446V479.797L510.482 480.085C509.175 480.5 507.9 481.011 507.9 481.011L508.091 481.809C508.245 482.395 508.437 482.971 508.665 483.533C509.013 484.343 509.429 485.123 509.908 485.863C509.908 485.863 511.183 485.321 512.394 484.682L513.318 484.203L513.51 484.491C513.733 484.81 513.956 485.001 514.115 485.193L514.338 485.448L514.593 485.672C514.816 485.886 515.05 486.089 515.295 486.279L515.582 486.47L515.103 487.396C514.466 488.609 513.956 489.886 513.956 489.886C514.696 490.365 515.474 490.781 516.283 491.131C516.844 491.359 517.419 491.551 518.004 491.706L518.801 491.898C518.801 491.898 519.311 490.621 519.725 489.312L520.044 488.322H520.395C520.777 488.322 521.096 488.322 521.287 488.322H521.988C522.212 488.322 522.53 488.322 522.913 488.322H523.263L523.582 489.312C523.997 490.621 524.507 491.898 524.507 491.898L525.303 491.706C525.889 491.551 526.464 491.359 527.025 491.131C527.832 490.778 528.61 490.362 529.352 489.886C529.352 489.886 528.81 488.609 528.204 487.396L527.726 486.47L528.013 486.279C528.257 486.089 528.491 485.886 528.714 485.672L528.969 485.448L529.192 485.193C529.406 484.969 529.608 484.735 529.798 484.491L529.989 484.203L530.913 484.682C532.125 485.321 533.4 485.863 533.4 485.863C533.878 485.122 534.293 484.343 534.643 483.533C534.87 482.971 535.062 482.395 535.217 481.809L535.408 481.011C535.408 481.011 534.133 480.5 532.826 480.085L531.742 479.606ZM526.61 483.405C526.46 483.554 526.301 483.693 526.132 483.82C525.613 484.221 525.046 484.553 524.443 484.81C523.829 485.06 523.187 485.232 522.53 485.321C522.318 485.335 522.105 485.335 521.893 485.321H521.415C521.192 485.336 520.968 485.336 520.745 485.321C520.1 485.229 519.468 485.058 518.865 484.81C518.262 484.554 517.694 484.221 517.175 483.82C517.007 483.693 516.847 483.554 516.697 483.405L516.506 483.245L516.347 483.054C516.197 482.893 516.059 482.723 515.932 482.543C515.529 482.026 515.197 481.457 514.944 480.851C514.695 480.236 514.524 479.593 514.434 478.935C514.422 478.723 514.422 478.509 514.434 478.297V477.786C514.421 477.563 514.421 477.339 514.434 477.116C514.525 476.469 514.696 475.836 514.944 475.232C515.199 474.627 515.531 474.058 515.932 473.54C516.061 473.372 516.199 473.212 516.347 473.061L516.506 472.869L516.697 472.71C516.848 472.562 517.008 472.424 517.175 472.295C517.697 471.899 518.264 471.567 518.865 471.305C519.469 471.06 520.1 470.888 520.745 470.794H522.53C523.186 470.886 523.828 471.058 524.443 471.305C525.043 471.568 525.61 471.9 526.132 472.295C526.299 472.423 526.459 472.562 526.61 472.71L526.802 472.869L526.961 473.061C527.109 473.211 527.248 473.371 527.375 473.54C527.774 474.06 528.106 474.629 528.363 475.232C528.609 475.837 528.78 476.469 528.873 477.116C528.873 477.371 528.873 477.626 528.873 477.786V478.297C528.873 478.297 528.873 478.68 528.873 478.935C528.781 479.592 528.61 480.235 528.363 480.851C528.108 481.455 527.776 482.024 527.375 482.543C527.25 482.723 527.112 482.894 526.961 483.054L526.802 483.245L526.61 483.405Z" fill="#043783"/>
<path d="M598.743 472.231H589.914V523.409H598.743V472.231Z" fill="#FF6400"/>
<path d="M610.76 477.658H601.931V523.409H610.76V477.658Z" fill="#BBD9F9"/>
<path d="M622.745 491.929H613.916V523.409H622.745V491.929Z" fill="#00A0B4"/>
<g style="mix-blend-mode:screen" opacity="0.1">
<g style="mix-blend-mode:screen" opacity="0.1">
<path d="M510.003 453.937L430.857 533.179V489.279L466.143 453.937H510.003Z" fill="white"/>
</g>
</g>
<g style="mix-blend-mode:screen" opacity="0.1">
<g style="mix-blend-mode:screen" opacity="0.1">
<path d="M646.301 502.401V559.263L615.892 589.753H559.091L646.301 502.401Z" fill="white"/>
</g>
</g>
</g>
<defs>
<filter id="filter0_ddddii" x="-798.072" y="0.396729" width="2172.77" height="1430.57" filterUnits="userSpaceOnUse" color-interpolation-filters="sRGB">
<feFlood flood-opacity="0" result="BackgroundImageFix"/>
<feColorMatrix in="SourceAlpha" type="matrix" values="0 0 0 0 0 0 0 0 0 0 0 0 0 0 0 0 0 0 127 0"/>
<feOffset dx="100" dy="100"/>
<feGaussianBlur stdDeviation="125"/>
<feColorMatrix type="matrix" values="0 0 0 0 0.901961 0 0 0 0 0.901961 0 0 0 0 0.905882 0 0 0 0.9 0"/>
<feBlend mode="normal" in2="BackgroundImageFix" result="effect1_dropShadow"/>
<feColorMatrix in="SourceAlpha" type="matrix" values="0 0 0 0 0 0 0 0 0 0 0 0 0 0 0 0 0 0 127 0"/>
<feOffset dx="-100" dy="-100"/>
<feGaussianBlur stdDeviation="100"/>
<feColorMatrix type="matrix" values="0 0 0 0 0.908333 0 0 0 0 0.908333 0 0 0 0 0.908333 0 0 0 0.4 0"/>
<feBlend mode="normal" in2="effect1_dropShadow" result="effect2_dropShadow"/>
<feColorMatrix in="SourceAlpha" type="matrix" values="0 0 0 0 0 0 0 0 0 0 0 0 0 0 0 0 0 0 127 0"/>
<feOffset dx="100" dy="-100"/>
<feGaussianBlur stdDeviation="100"/>
<feColorMatrix type="matrix" values="0 0 0 0 0.901961 0 0 0 0 0.901961 0 0 0 0 0.905882 0 0 0 0.2 0"/>
<feBlend mode="normal" in2="effect2_dropShadow" result="effect3_dropShadow"/>
<feColorMatrix in="SourceAlpha" type="matrix" values="0 0 0 0 0 0 0 0 0 0 0 0 0 0 0 0 0 0 127 0"/>
<feOffset dx="-100" dy="100"/>
<feGaussianBlur stdDeviation="100"/>
<feColorMatrix type="matrix" values="0 0 0 0 0.278611 0 0 0 0 0.278611 0 0 0 0 0.283333 0 0 0 0.2 0"/>
<feBlend mode="normal" in2="effect3_dropShadow" result="effect4_dropShadow"/>
<feBlend mode="normal" in="SourceGraphic" in2="effect4_dropShadow" result="shape"/>
<feColorMatrix in="SourceAlpha" type="matrix" values="0 0 0 0 0 0 0 0 0 0 0 0 0 0 0 0 0 0 127 0" result="hardAlpha"/>
<feOffset dx="-4" dy="-4"/>
<feGaussianBlur stdDeviation="2.5"/>
<feComposite in2="hardAlpha" operator="arithmetic" k2="-1" k3="1"/>
<feColorMatrix type="matrix" values="0 0 0 0 0.901961 0 0 0 0 0.901961 0 0 0 0 0.905882 0 0 0 0.5 0"/>
<feBlend mode="normal" in2="shape" result="effect5_innerShadow"/>
<feColorMatrix in="SourceAlpha" type="matrix" values="0 0 0 0 0 0 0 0 0 0 0 0 0 0 0 0 0 0 127 0" result="hardAlpha"/>
<feOffset dx="4" dy="4"/>
<feGaussianBlur stdDeviation="2.5"/>
<feComposite in2="hardAlpha" operator="arithmetic" k2="-1" k3="1"/>
<feColorMatrix type="matrix" values="0 0 0 0 1 0 0 0 0 1 0 0 0 0 1 0 0 0 0.3 0"/>
<feBlend mode="normal" in2="effect5_innerShadow" result="effect6_innerShadow"/>
</filter>
<radialGradient id="paint0_radial" cx="0" cy="0" r="1" gradientUnits="userSpaceOnUse" gradientTransform="translate(1040.7 702.525) rotate(178.641) scale(1539.21 731.346)">
<stop stop-color="#EAEBED"/>
<stop offset="0.375" stop-color="white"/>
<stop offset="0.859375" stop-color="#E8F3FF" stop-opacity="0.81"/>
</radialGradient>
<linearGradient id="paint1_linear" x1="617.116" y1="351.676" x2="669.91" y2="450.96" gradientUnits="userSpaceOnUse">
<stop stop-color="#0B3F8D"/>
<stop offset="1" stop-color="#0B3F8D"/>
</linearGradient>
<clipPath id="clip0">
<rect width="510" height="457" fill="white" transform="translate(294.656 320.578)"/>
</clipPath>
</defs>
</svg>
