<svg width="1271" height="1339" viewBox="0 0 1271 1339" fill="none" xmlns="http://www.w3.org/2000/svg">
<g filter="url(#filter0_ddddii)">
<path d="M324.692 814.948C292.83 798.411 292.83 771.598 324.692 755.061L1201.45 300L1666.26 541.251L856.962 961.301C787.845 997.174 675.784 997.174 606.667 961.301L324.692 814.948Z" fill="url(#paint0_radial)"/>
</g>
<g clip-path="url(#clip0)">
<path d="M1060.2 435.112C1060.2 435.112 1054.41 434.591 1051.65 444.935C1050.43 449.499 1047.32 457.309 1046.68 462.464C1043.55 466.222 1040.82 470.293 1038.53 474.612C1036.66 477.424 1033.55 480.253 1031.59 483.29C1030 485.671 1028.75 488.258 1027.87 490.979C1026.13 496.654 1027.97 497.452 1030.06 497.452C1032.14 497.452 1032.85 493.721 1033.93 491.274C1037.25 488.705 1037.27 485.477 1037.94 484.106C1038.62 482.735 1045.67 478.361 1049.01 473.502C1051.09 470.447 1051.01 467.965 1051.75 466.716C1054.24 462.603 1060.44 449.534 1060.44 449.534L1064.56 438.739L1060.2 435.112Z" fill="#FFB9A4"/>
<path d="M1053 547.349C1050.49 548.152 1047.85 548.521 1045.2 548.442C1045.34 550.004 1044.6 551.757 1044.63 553.163C1044.82 562.257 1044.63 564.982 1039.92 568.557C1037.07 570.389 1034.74 572.938 1033.18 575.95C1031.78 578.276 1034.61 579.196 1036.66 578.727C1041.28 577.703 1045.12 572.618 1047.6 571.629C1050.09 570.64 1053.47 569.39 1052.81 566.683C1052.15 563.975 1051.3 564.808 1051.08 562.188C1050.82 558.526 1052.36 552.347 1053 547.349Z" fill="#FFC9B6"/>
<path d="M1052.26 564.617C1051.66 565.592 1051.16 566.628 1050.78 567.707C1048.82 569.164 1046.47 570.206 1043.95 572.34C1041.44 574.475 1039.84 575.812 1037.68 574.614C1035.53 573.416 1035.23 572.618 1035.23 572.618C1033.86 573.645 1032.66 574.874 1031.66 576.263C1031 577.651 1033.9 580.706 1038.19 579.734C1042.48 578.762 1043.95 575.933 1046.2 573.833C1048.44 571.733 1050.56 571.056 1052.62 569.39C1054.69 567.724 1052.26 564.617 1052.26 564.617Z" fill="#002D56"/>
<path d="M1096.97 534.714C1096.79 537.754 1096.43 540.779 1095.88 543.774C1095.21 546.238 1091.29 549.362 1095.88 551.323C1100.46 553.284 1102.22 549.709 1103.52 546.255C1104.82 542.802 1107.1 535.252 1105.78 532.666C1105.17 531.486 1104.87 531.347 1103.74 531.226C1102.14 531.084 1100.65 530.318 1099.61 529.091C1098.53 530.948 1096.97 534.714 1096.97 534.714Z" fill="#FFC9B6"/>
<path d="M1055.28 471.298C1055.28 471.298 1049.11 478.569 1045.24 497.678C1043.61 505.731 1041.09 521.576 1040.79 524.162C1040.45 527.13 1041.78 531.937 1042.17 536.797C1042.6 542.298 1043.68 553.944 1043.43 562.465C1048.12 565.589 1050.87 563.524 1052.12 562.465C1052.87 556.755 1056.93 543.183 1057.33 539.261C1057.9 534.631 1057.02 529.938 1054.81 525.828C1054.81 525.828 1065.23 511.77 1068.81 503.093C1072.39 494.415 1074.02 480.531 1074.02 480.531L1055.28 471.298Z" fill="#1B1F44"/>
<path d="M1057.92 474.543C1057.92 474.543 1056.69 483.689 1058.82 490.562C1059.14 492.009 1059.78 493.369 1060.68 494.547C1061.58 495.725 1062.72 496.693 1064.03 497.383C1064.03 502.589 1066.17 510.122 1069.11 516.352C1070.5 519.676 1072.07 522.926 1073.8 526.088C1074.63 527.442 1076.89 527.72 1078.45 528.362C1083.91 530.584 1093.5 534.193 1095.82 535.651C1098.83 536.797 1101.26 533.76 1101.17 531.104C1101.17 529.803 1099.63 527.789 1095.25 523.051C1093.44 521.041 1091.31 519.345 1088.94 518.036C1086.9 517.316 1084.78 516.838 1082.62 516.612C1082.62 516.612 1083.54 509.983 1084.25 504.342C1085.05 499.758 1085.22 495.088 1084.78 490.458C1084.17 485.809 1082.69 481.316 1080.42 477.216L1057.92 474.543Z" fill="#1B1F44"/>
<path d="M1061.88 436.882C1061.88 436.882 1060.47 437.333 1057.43 441.741C1054.39 446.15 1050.07 449.673 1049.58 454.463C1049.1 459.253 1051.22 459.964 1052.47 462.464C1053.72 464.963 1052.81 467.67 1051.65 474.161C1051.09 477.216 1049.04 484.002 1049.04 484.002C1049.04 484.002 1057.61 490.111 1067.44 487.316C1072.2 485.949 1076.64 483.661 1080.52 480.583C1080.52 480.583 1077.22 471.141 1076.3 468.746C1075.19 465.848 1080.78 454.671 1081.51 450.471C1082.24 446.271 1074.06 442.019 1069.18 439.867C1064.3 437.715 1061.88 436.882 1061.88 436.882Z" fill="#BBD9F9"/>
<path d="M1072.03 434.99C1071.94 433.834 1071.94 432.675 1072.03 431.519C1069.88 433.136 1067.34 434.164 1064.68 434.504C1064.13 435.906 1063.18 437.115 1061.95 437.975C1061.64 439.234 1061.23 440.465 1060.72 441.655C1059.52 444.57 1059.97 449.621 1060.04 451.009C1061.84 449.275 1063.76 447.663 1065.77 446.184C1068.06 444.478 1070.52 443.023 1073.12 441.845C1071.49 439.277 1072.32 436.413 1072.03 434.99Z" fill="#FFB9A4"/>
<path d="M1076.32 422.876C1075.4 421.141 1068.99 417.461 1067.63 417.01C1066.28 416.546 1064.82 416.524 1063.46 416.949C1062.1 417.374 1060.92 418.222 1060.07 419.37C1057.64 422.182 1057.71 428.916 1058.75 433.498C1059.26 435.893 1060.61 438.808 1062.4 438.808C1065.06 438.711 1067.64 437.927 1069.9 436.534C1072.17 435.141 1074.03 433.186 1075.31 430.86C1076.15 429.729 1076.69 428.4 1076.87 427.001C1077.04 425.601 1076.85 424.18 1076.32 422.876Z" fill="#FFC9B6"/>
<path d="M1090.56 435.979C1090.58 434.93 1090.38 433.887 1089.99 432.913C1089.6 431.938 1089.02 431.051 1088.28 430.304C1088.84 428.501 1088.84 426.571 1088.28 424.768C1089.17 423.704 1089.62 422.345 1089.54 420.963C1089.47 419.581 1088.87 418.28 1087.87 417.322C1088.02 417.045 1088.75 415.014 1087.05 414.164C1088.48 411.109 1084.86 408.28 1082.99 409.426C1082.34 408.36 1081.32 407.564 1080.13 407.181C1078.94 406.799 1077.66 406.857 1076.51 407.343C1074.67 407.933 1071.8 410.814 1072.93 413.487C1073.6 414.908 1074.79 416.018 1076.26 416.592C1077.72 417.166 1079.35 417.16 1080.81 416.576C1081.15 417.137 1081.6 417.619 1082.13 417.988C1082.67 418.356 1083.28 418.603 1083.92 418.711C1082.41 420.568 1082.19 423.657 1083.92 425.08C1083.25 425.839 1082.88 426.817 1082.88 427.831C1082.88 428.845 1083.25 429.823 1083.92 430.582C1082.2 432.345 1081.13 434.639 1080.88 437.09C1080.74 437.619 1080.73 438.177 1080.85 438.711C1080.98 439.246 1081.24 439.739 1081.61 440.145C1083.09 441.131 1084.81 441.674 1086.58 441.707C1090.02 441.932 1090.56 438.791 1090.56 435.979Z" fill="#1B1F44"/>
<path d="M1074.67 413.105C1073.76 413.111 1072.86 413.303 1072.03 413.67C1071.2 414.038 1070.45 414.572 1069.84 415.24C1069.66 415.256 1069.49 415.335 1069.37 415.462C1069.25 415.589 1069.17 415.757 1069.16 415.934C1069.14 415.975 1069.13 416.02 1069.12 416.065C1069.12 416.111 1069.12 416.157 1069.14 416.201C1069.15 416.244 1069.18 416.285 1069.21 416.319C1069.24 416.354 1069.27 416.382 1069.32 416.402C1069.94 417.185 1070.76 417.785 1071.7 418.138C1072.75 418.922 1073.93 419.543 1075.17 419.978C1076.91 420.29 1077.32 417.513 1077.32 416.281C1077.35 415.517 1077.1 414.769 1076.61 414.182C1076.11 413.596 1075.42 413.212 1074.67 413.105Z" fill="#BBD9F9"/>
<path d="M1078.42 421.106C1076.85 417.635 1074.94 415.587 1071.47 416.281C1071.07 414.545 1068.5 413.73 1066.26 413.973C1062.96 414.555 1059.89 416.087 1057.45 418.381C1057.22 417.904 1056.83 417.519 1056.35 417.289C1055.87 417.059 1055.33 416.998 1054.81 417.114C1054.04 417.297 1053.36 417.766 1052.93 418.427C1052.49 419.087 1052.32 419.89 1052.45 420.672C1052.56 421.593 1052.9 422.471 1053.44 423.226C1053.98 423.981 1054.7 424.588 1055.54 424.993C1056.72 425.565 1058.06 425.735 1059.34 425.479C1061.29 427.805 1064.99 426.59 1067.37 424.681C1067.62 426.255 1068.27 427.739 1069.26 428.985C1070.16 430.028 1071.33 430.788 1072.65 431.172C1072 432.917 1071.8 434.796 1072.06 436.639C1074.39 434.608 1081.63 428.083 1078.42 421.106Z" fill="#1B1F44"/>
<path d="M1095.23 544.988C1095.91 545.863 1096.87 546.476 1097.94 546.724C1098.57 546.902 1099.23 546.945 1099.88 546.853C1100.53 546.76 1101.16 546.533 1101.71 546.186C1102.39 545.735 1104.14 539.244 1104.49 537.387C1104.53 535.778 1104.27 534.176 1103.71 532.666C1103.61 532.203 1103.61 531.723 1103.71 531.26C1103.71 531.26 1106.54 531 1106.82 533.43C1107.1 535.859 1105.41 542.107 1104.84 543.843C1104.27 545.578 1102.67 550.785 1099.92 552C1098.59 552.483 1097.14 552.506 1095.79 552.065C1094.45 551.625 1093.29 550.746 1092.51 549.57C1091.53 547.47 1095.23 544.988 1095.23 544.988Z" fill="#002D56"/>
<path d="M1055.66 462.464C1055.66 462.464 1061.5 469.683 1065.22 469.232C1066.36 469.044 1067.44 468.609 1068.4 467.959C1069.36 467.309 1070.16 466.458 1070.76 465.466C1070.76 465.466 1065.93 466.785 1063.22 465.848C1060.64 464.85 1058.12 463.72 1055.66 462.464Z" fill="#F46138"/>
<path d="M1066.29 474.994C1066.29 474.994 1064.09 490.059 1064.56 493.946C1065.02 497.834 1065.22 498.823 1066.29 500.055C1067.68 501.791 1071.5 504.203 1074.4 503.648C1077.31 503.093 1087.47 496.706 1091.36 493.374C1095.25 490.041 1093.91 481.416 1091.36 475.012C1088.81 468.607 1087.48 465.293 1087.48 465.293L1066.29 474.994Z" fill="#CDCDCD"/>
<path d="M1066.29 474.994C1067.51 475.669 1068.84 476.105 1070.22 476.278C1072.67 476.278 1075.83 474.769 1079.25 472.964C1086.7 469.024 1087.55 465.275 1087.55 465.275C1083.68 466.149 1079.9 467.41 1076.28 469.041C1074.54 469.874 1071.31 471.957 1070.17 472.512C1068.79 473.202 1067.49 474.034 1066.29 474.994Z" fill="#AFAFAF"/>
<path d="M1069.18 478.517C1068.39 478.398 1067.62 478.171 1066.9 477.84C1066.76 479.576 1065.89 486.188 1065.89 491.031C1065.89 496.619 1066.52 498.823 1067.82 499.934C1069.12 501.045 1071.5 502.346 1071.42 500.906C1070.56 497.941 1069.93 494.911 1069.56 491.846C1069.02 487.425 1068.89 482.962 1069.18 478.517Z" fill="#AFAFAF"/>
<path d="M1077.57 443.581C1078.6 443.922 1079.57 444.445 1080.42 445.126C1082.8 448.375 1084.65 451.976 1085.92 455.799C1087.57 460.815 1090.04 467.722 1091.38 471.297C1092.04 473.033 1089.64 475.758 1088.28 477.84C1086.93 479.923 1080.05 484.383 1075.43 485.702C1071.28 490.284 1067.94 493.426 1066.61 492.645C1064.69 491.43 1065.13 488.219 1066.8 487.004C1068.86 485.481 1071.09 484.189 1073.43 483.151C1075.5 480.808 1078.52 476.973 1080.95 474.595C1083 472.599 1084.43 471.35 1084.43 471.35C1084.43 471.35 1081.51 466.473 1079.48 463.349C1077.44 460.225 1075.81 460.277 1074.27 457.656C1072.22 453.994 1070.11 445.959 1077.57 443.581Z" fill="#FFC9B6"/>
<path d="M1075.6 443.164C1072.84 445.82 1070.74 452.311 1070.79 457.934C1071.02 463.181 1071.66 468.403 1072.69 473.554C1073.33 476.556 1073.57 478.222 1074.96 477.841C1076.92 477.285 1074.18 471.124 1073.68 465.345C1073.05 460.424 1073.29 455.43 1074.39 450.593C1075.01 448.049 1076.2 445.677 1077.86 443.65C1077.82 443.408 1077.7 443.183 1077.53 443.006C1077.36 442.829 1077.14 442.707 1076.9 442.655C1076.65 442.603 1076.4 442.623 1076.17 442.714C1075.94 442.805 1075.74 442.962 1075.6 443.164Z" fill="#572D60"/>
<path d="M1068.41 473.554C1068.41 473.554 1067.3 461.075 1069.33 453.474C1071.37 445.872 1073.35 443.182 1074.39 442.47C1075.43 441.759 1076.33 443.026 1076.33 443.026C1074.6 446.061 1073.14 449.243 1071.97 452.536C1071.22 456.083 1070.72 459.679 1070.48 463.297C1070.29 465.744 1070.48 472.391 1070.48 472.391L1068.41 473.554Z" fill="#572D60"/>
<path d="M1147.88 551.288C1146.71 553.49 1145.4 555.617 1143.96 557.658C1143.11 558.95 1142.72 560.493 1142.87 562.033C1143.01 563.572 1143.68 565.016 1144.76 566.127C1146.77 568.14 1151.43 565.902 1153.04 563.507C1155.58 559.758 1155.25 555.905 1155.96 554.603C1156.38 553.84 1156.95 552.121 1157.7 550.611C1158.25 549.705 1158.59 548.684 1158.69 547.626C1158.67 547.163 1158.56 546.707 1158.37 546.286C1158.17 545.865 1157.9 545.487 1157.55 545.175C1157.21 544.862 1156.81 544.622 1156.37 544.468C1155.93 544.314 1155.47 544.249 1155 544.277C1152.38 544.173 1152.69 544.676 1151.83 545.301C1149.74 546.811 1147.88 551.288 1147.88 551.288Z" fill="#1B1F44"/>
<path d="M1146.01 554.516C1146.96 555.502 1148.09 556.302 1149.34 556.877C1151.18 557.797 1151.27 558.404 1151.08 558.873C1150.89 559.341 1149.62 559.341 1147.48 557.901C1146.55 557.374 1145.81 556.574 1145.35 555.61L1146.01 554.516Z" fill="white"/>
<path d="M1143.24 563.75C1144.26 564.31 1145.17 565.044 1145.94 565.919C1147.12 567.255 1150.04 565.728 1152.03 563.75C1154.03 561.771 1154.5 556.165 1155.61 554.135C1156.72 552.104 1158.62 548.772 1158.06 547.626C1157.51 546.481 1155.4 544.919 1156.06 544.433C1156.72 543.947 1158.69 544.971 1158.97 546.793C1159.24 548.616 1157.23 552 1156.46 553.736C1155.7 555.471 1155.96 561.858 1152.02 565.155C1149.65 567.134 1147.07 567.811 1145.31 566.891C1143.56 565.971 1142.6 564.756 1143.24 563.75Z" fill="#070A4F"/>
<path d="M1101.03 572.861C1096.24 575.655 1094.22 574.979 1091.46 579.508C1091.08 580.051 1090.81 580.672 1090.69 581.328C1090.57 581.984 1090.59 582.658 1090.75 583.305C1090.92 583.951 1091.22 584.553 1091.65 585.07C1092.07 585.586 1092.6 586.004 1093.2 586.294C1096.33 588.255 1098.05 586.936 1101.89 584.663C1105.72 582.389 1107.95 577.148 1109.42 576.523C1110.9 575.898 1113.71 573.278 1110.38 570.345C1107.04 567.412 1101.03 572.861 1101.03 572.861Z" fill="#1B1F44"/>
<path d="M1111.53 571.646C1111.29 571.893 1111.11 572.185 1110.99 572.504C1110.88 572.824 1110.83 573.164 1110.85 573.503C1110.91 574.083 1110.79 574.668 1110.5 575.173C1110.21 575.679 1109.77 576.079 1109.23 576.315C1107.86 577.359 1106.69 578.633 1105.76 580.081C1104.63 581.608 1100.3 585.531 1097.82 585.791C1095.34 586.051 1094.99 585.444 1093.01 583.812C1091.03 582.181 1090.56 582.077 1090.56 582.077C1090.14 582.818 1090 583.689 1090.18 584.524C1091.38 586.206 1093.2 587.356 1095.23 587.735C1098.01 587.747 1100.71 586.81 1102.88 585.079C1104.59 583.724 1106.01 582.028 1107.04 580.098C1107.84 578.467 1112.5 575.586 1112.26 573.798C1112.01 572.011 1111.53 571.646 1111.53 571.646Z" fill="#070A4F"/>
<path d="M1095.82 575.36L1099.77 578.345C1101.31 579.526 1102.48 577.964 1101.03 576.922L1097.7 574.51L1095.82 575.36Z" fill="white"/>
<path d="M1096.73 504.516C1096.06 507.481 1095.56 510.483 1095.23 513.506C1095.23 515.64 1098.71 519.788 1101.33 520.934C1103.95 522.079 1105.38 506.65 1105.38 506.65L1096.73 504.516Z" fill="#FFC9B6"/>
<path d="M1110.66 441.793C1107.18 443.575 1104.31 446.355 1102.42 449.777C1099.64 455.209 1099.44 463.488 1099.23 468.66C1098.87 477.234 1097.98 485.779 1096.55 494.241C1095.08 501.184 1094.71 503.37 1096.55 505.783C1098.39 508.195 1105.65 507.223 1105.65 507.223C1105.65 507.223 1113.66 483.95 1114.24 477.303C1114.81 470.655 1114.24 443.546 1114.24 443.546L1110.66 441.793Z" fill="#BBD9F9"/>
<path d="M1108.1 481.78C1108.1 481.78 1102.6 498.684 1102.01 505.488C1101.42 512.291 1099.99 522.461 1099.28 530.948C1098.57 539.435 1099.7 550.264 1099.52 556.703C1099.44 559.983 1100.81 567.446 1100.46 572.115C1101.35 575.083 1105.05 575.221 1107.32 573.573C1108.4 572.561 1109.04 571.176 1109.13 569.702C1109.02 567.464 1115.12 549.778 1115.31 543.669C1115.47 540.135 1114.97 536.603 1113.82 533.256C1113.82 533.256 1121.51 513.853 1124.24 506.251C1126.97 498.65 1124.24 489.573 1124.24 489.573L1108.1 481.78Z" fill="#1B1F44"/>
<path d="M1132.51 485.72C1134.98 490.103 1136.85 494.804 1138.05 499.691C1140.01 507.674 1139.54 522.721 1139.54 522.721C1139.54 522.721 1145.29 524.11 1148 531.937C1150.18 538.168 1152.49 541.326 1154.55 547.678C1154.55 554.621 1148 553.249 1148 553.249C1148 553.249 1140.19 545.578 1135.65 540.788C1132.28 537.23 1128.98 534.731 1127.7 532.336C1124.64 526.748 1121.29 507.726 1121.29 507.726C1121.29 507.726 1112.27 506.65 1113.66 492.783C1114.55 483.394 1132.51 485.72 1132.51 485.72Z" fill="#1B1F44"/>
<path d="M1123.37 443.616C1121.64 443.078 1114.93 440.908 1114.27 441.238C1109.46 443.616 1104.02 452.953 1103.31 459.288C1103.11 463.902 1103.73 468.516 1105.15 472.912C1104.69 473.721 1104.43 474.631 1104.4 475.563C1104.37 476.495 1104.57 477.42 1104.98 478.257C1105.02 479.719 1104.74 481.172 1104.14 482.509C1103.61 483.534 1103.39 484.696 1103.52 485.845C1103.64 486.995 1104.11 488.081 1104.86 488.965C1107.25 491.551 1110.34 492.731 1117.21 493.669C1125.13 494.762 1130.18 491.412 1132.65 488.132C1133.22 487.351 1134.06 484.991 1132.32 483.898C1133.64 479.888 1134.99 474.873 1136.28 470.013C1138.22 462.776 1141.49 455.226 1137.27 449.76C1135.45 447.364 1127.11 444.831 1123.37 443.616Z" fill="#BBD9F9"/>
<path d="M1121.29 441.793C1117.81 444.779 1109.72 450.766 1109.95 456.268C1110.17 461.77 1114.86 464.512 1120.84 460.815C1123.41 459.19 1125.58 456.99 1127.17 454.389C1128.75 451.787 1129.71 448.854 1129.97 445.82L1121.29 441.793Z" fill="white"/>
<path d="M1123.84 436.5C1123.84 436.5 1117.88 444.397 1115.8 447.677C1113.71 450.957 1110.41 455.799 1113.71 458.663C1115.71 460.398 1119.69 458.923 1122.94 455.452C1124.94 452.865 1126.69 450.086 1128.15 447.156C1126.07 446.028 1123.84 436.5 1123.84 436.5Z" fill="#FFB9A4"/>
<path d="M1108.1 435.563C1108.23 432.769 1108.83 429.263 1110.97 427.267C1113.11 425.271 1116.75 425.098 1119.52 425.288C1123.79 425.584 1126.81 430.322 1126.05 435.702C1125.35 440.752 1121.97 448.545 1116.34 449.586C1110.07 450.853 1107.93 439.815 1108.1 435.563Z" fill="#FFC9B6"/>
<path d="M1129.28 425.236C1129.03 424.19 1128.51 423.23 1127.76 422.46C1127.01 421.689 1126.06 421.137 1125.02 420.863C1123.35 420.749 1121.69 421.236 1120.35 422.234C1120.16 421.467 1119.71 420.789 1119.08 420.312C1118.44 419.836 1117.67 419.589 1116.88 419.613C1115.52 419.872 1114.25 420.435 1113.15 421.258C1112.05 422.082 1111.15 423.146 1110.52 424.369C1110.45 423.933 1110.25 423.53 1109.93 423.218C1109.62 422.906 1109.22 422.701 1108.78 422.633C1106.92 422.286 1105.46 424.056 1105.01 425.635C1104.51 428.749 1105.13 431.939 1106.75 434.643C1109.62 438.305 1118.02 436.76 1122.05 435.302C1122.23 436.483 1123.79 441.602 1125.2 441.498C1128.93 435.754 1130.22 430.859 1129.28 425.236Z" fill="#1B1F44"/>
<path d="M1121.74 437.507C1121.74 437.507 1122.78 435.285 1124.54 436.5C1126.29 437.715 1123.13 441.429 1123.13 441.429L1121.74 437.507Z" fill="#FFC9B6"/>
<path d="M1134.39 447.729C1132.86 451.198 1131.85 454.869 1131.38 458.628C1130.93 461.96 1132.28 467.792 1133.97 469.284C1135.49 470.665 1136.84 472.227 1137.98 473.935C1139.35 475.931 1141.07 478.014 1141.07 478.014C1141.07 478.014 1140.03 477.719 1139.67 478.5C1139.58 478.794 1139.56 479.103 1139.62 479.405C1139.67 479.706 1139.79 479.991 1139.98 480.236C1139.98 480.236 1138.94 480.721 1135.97 484.783C1135.11 486.15 1134.34 487.571 1133.66 489.035C1134.12 489.207 1134.55 489.477 1134.9 489.827C1135.26 490.178 1135.53 490.6 1135.71 491.065C1136.05 491.945 1136.49 492.783 1137.03 493.564C1137.03 493.564 1137.62 494.155 1141.42 492.193C1144.77 490.458 1149.17 486.726 1150.56 483.95C1151.95 481.173 1151.67 481.398 1151.15 477.528C1150.63 473.658 1145.49 460.624 1144.39 457.118C1142.88 452.363 1138.83 447.937 1134.39 447.729Z" fill="#BBD9F9"/>
<path d="M1099.16 573.659C1099.16 573.659 1099.45 570.952 1102.28 572.462C1105.12 573.972 1106.31 574.041 1107.5 572.462C1108.68 570.883 1108.99 568.123 1109.48 568.366C1109.96 568.609 1110.43 570.327 1110.43 570.327C1110.12 571.463 1109.54 572.507 1108.73 573.368C1107.93 574.23 1106.92 574.884 1105.81 575.274C1104.65 575.528 1103.45 575.515 1102.3 575.235C1101.15 574.955 1100.07 574.416 1099.16 573.659Z" fill="white"/>
<path d="M1147.99 553.25C1148.51 552.759 1149.18 552.47 1149.9 552.434C1151.25 552.278 1151.13 552.833 1151.96 552.434C1154.26 551.323 1154.24 546.95 1153.3 544.259C1154 544.608 1154.6 545.128 1155.04 545.769C1155.64 546.481 1156.03 547.349 1156.15 548.271C1156.27 549.194 1156.13 550.132 1155.73 550.976C1155.41 551.959 1154.8 552.823 1153.98 553.457C1153.16 554.091 1152.17 554.466 1151.13 554.534C1150.55 554.537 1149.97 554.425 1149.43 554.205C1148.89 553.984 1148.4 553.66 1147.99 553.25Z" fill="white"/>
<path d="M1133.97 488.427C1133.55 488.913 1131.8 488.896 1130.49 488.583C1129.26 488.366 1128.04 488.059 1126.85 487.664C1124.97 486.935 1125.35 488.583 1126.53 489.677C1127.72 490.77 1128.57 491.152 1127.54 491.916C1126.1 492.974 1124.07 492.749 1120.59 491.638C1117.69 490.701 1116.29 492.454 1119.41 496.046C1122.54 499.639 1128.76 497.973 1132.32 496.046C1135.88 494.12 1137.01 493.616 1137.01 493.616C1137.01 493.616 1137.22 488.445 1133.97 488.427Z" fill="#FFC9B6"/>
<path d="M944.959 468.833C942.367 468.691 939.769 468.691 937.177 468.833C935.38 468.908 933.598 469.181 931.861 469.649C930.854 469.944 930.576 471.228 932 471.384C934.276 471.679 934.745 471.384 935.596 472.113C936.152 472.582 933.998 473.502 931.566 474.352C929.134 475.202 926.077 475.654 925.208 476.261C924.34 476.869 926.077 480.097 930.819 480.097C934.504 480.208 938.146 479.282 941.328 477.424C943.547 476.046 945.87 474.845 948.277 473.831L944.959 468.833Z" fill="#FFC9B6"/>
<path d="M941.763 468.156C946.331 464.807 956.979 461.092 959.133 459.565C960.21 457.465 961.53 452.814 962.781 450.002C963.737 447.85 964.744 442.106 966.742 438.548C968.965 434.573 971.484 433.48 975.08 432.317C975.537 432.114 976.046 432.06 976.536 432.163C977.025 432.266 977.47 432.52 977.807 432.89C978.832 434.07 978.623 436.101 978.623 437.489C978.623 439.832 978.623 442.192 978.623 444.535C978.623 447.382 974.194 454.133 973.412 455.331C972.63 456.528 969.66 464.286 968.948 465.865C967.053 468.244 964.592 470.111 961.791 471.297C960.471 471.835 950.222 476.504 944.42 477.337C944.108 476.209 942.249 470.777 941.763 468.156Z" fill="#0B3F8D"/>
<path d="M971.901 480.357C971.901 480.357 966.273 497.712 965.665 504.533C965.057 511.354 963.598 521.888 962.868 530.566C962.138 539.244 963.302 550.334 963.111 556.912C963.007 560.261 964.848 570.31 964.414 575.083C965.317 578.12 972.665 577.53 973.308 573.903C973.707 571.646 979.11 549.883 979.318 543.652C979.471 540.065 978.953 536.48 977.789 533.083C977.789 533.083 985.589 513.263 988.316 505.488C991.043 497.712 988.316 488.41 988.316 488.41L971.901 480.357Z" fill="#1B1F44"/>
<path d="M973.256 573.937C973.652 575.304 974.151 576.638 974.75 577.929C975.338 579.549 975.552 581.282 975.375 582.997C975.219 583.492 974.939 583.94 974.562 584.298C974.186 584.656 973.724 584.913 973.221 585.045C972.165 585.423 971.038 585.565 969.921 585.461C968.937 587.07 967.771 588.561 966.447 589.904C963.976 591.958 961.033 593.366 957.883 594C957.02 594.1 956.152 593.875 955.448 593.367C954.743 592.86 954.255 592.107 954.079 591.258C954.854 588.777 956.296 586.556 958.248 584.836C960.033 583.043 961.666 581.104 963.129 579.04C963.927 577.887 964.357 576.519 964.362 575.117L973.256 573.937Z" fill="#1B1F44"/>
<path d="M1019.32 548.477C1020.22 550.709 1020.84 553.039 1021.18 555.419C1021.31 556.171 1021.28 556.944 1021.09 557.683C1020.9 558.423 1020.55 559.113 1020.07 559.706C1019.89 559.991 1019.63 560.212 1019.31 560.337C1019 560.462 1018.66 560.484 1018.33 560.4C1018.33 560.4 1018.58 565.832 1016.25 568.297C1015.02 569.394 1013.56 570.201 1011.97 570.658C1010.39 571.114 1008.72 571.209 1007.09 570.935C1004.87 570.379 1005.84 566.37 1007.51 562.344C1009.18 558.317 1011.47 554.083 1011.75 550.612C1016.79 549.275 1019.32 548.477 1019.32 548.477Z" fill="#1B1F44"/>
<path d="M996.81 484.366C999.34 488.853 1001.25 493.665 1002.47 498.667C1004.47 506.841 1004 522.235 1004 522.235C1004 522.235 1009.87 523.659 1012.69 531.659C1014.91 538.029 1017.41 542.385 1019.51 548.893C1019.51 555.974 1011.28 553.197 1011.28 553.197C1011.28 553.197 1004.68 545.648 1000.04 540.736C996.567 537.092 993.214 534.54 991.894 532.059C988.785 526.331 985.293 506.859 985.293 506.859C985.293 506.859 976.035 505.8 977.459 491.603C978.432 482.006 996.81 484.366 996.81 484.366Z" fill="#1B1F44"/>
<path d="M987.534 436.726C985.797 436.17 978.849 433.949 978.224 434.296C973.308 436.743 970.198 445.941 969.538 452.397C969.262 457.241 969.85 462.095 971.275 466.733C970.778 467.541 970.47 468.451 970.374 469.394C970.277 470.338 970.396 471.291 970.72 472.183C970.876 473.502 968.513 475.254 968.01 476.504C967.462 477.552 967.24 478.738 967.37 479.913C967.499 481.087 967.976 482.196 968.739 483.099C971.189 485.737 973.603 490.197 981.733 491.048C989.862 491.898 996.081 489.087 998.599 485.72C999.19 484.921 998.599 479.038 996.862 477.893C997.957 473.814 999.364 468.694 1000.68 463.835C1002.68 456.424 1004.47 449.291 1000.18 443.685C998.287 441.169 991.286 437.993 987.534 436.726Z" fill="#BBD9F9"/>
<path d="M988.281 427.874C988.281 427.874 981.698 432.821 979.596 436.188C977.494 439.555 976.712 441.863 977.859 449.621C983.886 447.521 991.269 442.956 992.711 438.774C990.574 437.611 988.281 427.874 988.281 427.874Z" fill="#FFB9A4"/>
<path d="M978.172 458.923C978.594 456.613 979.174 454.334 979.909 452.102C979.706 450.922 979.404 449.761 979.005 448.631L981.924 447.469L983.661 449.516C983.211 450.637 982.488 451.627 981.559 452.397C981.559 455.383 981.733 460.849 981.785 465.813C981.889 473.727 981.785 479.42 981.785 479.42C980.738 480.898 979.473 482.209 978.033 483.307C977.168 481.624 976.553 479.823 976.209 477.962C976.209 477.962 977.32 463.453 978.172 458.923Z" fill="white"/>
<path d="M994.708 439.121C992.269 440.149 989.941 441.423 987.76 442.921C985.016 445.195 983.713 445.802 982.34 447.121C982.219 446.792 981.837 440.631 981.837 440.631C981.837 440.631 979.544 440.926 979.561 440.96C978.638 442.042 978.015 443.346 977.755 444.744C977.494 446.556 977.63 448.404 978.154 450.159L981.958 447.833L984.564 452.467C987.15 450.284 989.62 447.966 991.964 445.525C993.443 443.678 994.392 441.465 994.708 439.121Z" fill="white"/>
<path d="M979.996 435.702C979.996 435.702 978.38 431.71 974.663 435.407C970.945 439.103 966.846 448.788 968.027 457.465C968.757 462.845 967.558 470.777 966.759 476.938C965.441 484.047 963.765 491.084 961.739 498.025C962.317 500.586 963.509 502.968 965.213 504.967C967.148 506.48 969.461 507.434 971.901 507.726C971.901 507.726 973.725 484.869 974.003 482.474C974.281 480.079 975.184 467.445 974.923 463.696C974.663 459.947 976.834 447.451 977.668 444.605C978.502 441.759 983.626 436.135 983.626 436.135L979.996 435.702Z" fill="#0B3F8D"/>
<path d="M980.864 439.659C979.768 441.151 978.858 442.771 978.154 444.483C976.956 447.382 976.556 453.769 976.226 457.483C975.973 459.988 975.59 462.479 975.08 464.945C974.287 462.738 973.705 460.46 973.343 458.142C973.082 455.4 972.735 453.283 972.735 453.283L974.715 451.686L972.978 447.382C972.978 447.382 977.685 437.159 979.666 436.569C981.646 435.979 980.864 439.659 980.864 439.659Z" fill="#0B3F8D"/>
<path d="M992.641 437.802C988.963 443.039 986.489 449.025 985.398 455.331C983.747 465.501 984.79 475.983 985.398 483.255C986.162 492.419 983.661 509.028 983.661 509.028C989.205 510.901 995.177 511.112 1000.84 509.636C1006.23 508.143 1010.24 502.121 1010.24 502.121C1008.9 492.833 1006.75 483.681 1003.81 474.769C1002.28 470.326 1003.25 460.676 1005.06 455.14C1006.14 451.842 1002.32 444.536 999.555 441.533C997.661 439.537 995.282 439.312 992.641 437.802Z" fill="#0B3F8D"/>
<path d="M990.678 435.65C992.582 436.173 994.23 437.37 995.316 439.017C994.135 440.882 993.267 442.928 992.746 445.074C992.399 447.26 992.288 449.476 992.416 451.686L988.802 453.3L990.904 457.014L984.651 465.102C984.651 465.102 983.713 454.445 986.18 446.757C987.31 442.916 988.817 439.195 990.678 435.65Z" fill="#0B3F8D"/>
<path d="M999.694 441.95C1004 442.644 1006.64 443.407 1009.65 450.332C1012.48 456.823 1010.32 459.6 1011.7 463.991C1013.07 468.382 1012.5 469.423 1012.9 472.964C1013.3 476.504 1012.32 476.99 1011 478.049C1009.68 479.107 1011.42 479.975 1002.92 483.88C1000.12 485.333 996.949 485.936 993.805 485.616L990.887 478.674C990.887 478.674 989.793 478.674 993.632 475.202C995.704 473.046 998.311 471.477 1001.19 470.655C1000.14 467.28 998.883 463.971 997.436 460.745C995.334 456.077 996.706 443.269 999.694 441.95Z" fill="#0B3F8D"/>
<path d="M991.009 478.708C991.009 478.708 993.215 478.031 994.396 480.878C994.765 481.636 994.917 482.482 994.834 483.322C994.751 484.161 994.437 484.961 993.927 485.633C992.469 485.649 991.046 486.082 989.827 486.883C987.135 488.826 983.956 492.593 981.594 493.825C978.12 495.56 977.268 493.287 976.973 491.256C976.678 489.226 978.397 487.646 979.926 486.466C981.455 485.286 982.601 484.106 982.011 483.759C981.42 483.412 979.7 484.349 978.38 483.759C977.06 483.169 977.581 482.162 979.857 482.023C981.003 482.023 981.594 481.155 983.713 480.878C985.45 480.652 985.919 481.503 986.457 481.225C988.022 480.475 989.542 479.635 991.009 478.708Z" fill="#FFC9B6"/>
<path d="M990.288 457.908L992.334 459.088L993.515 457.044L991.47 455.864L990.288 457.908Z" fill="#BBD9F9"/>
<path d="M986.244 459.824L992.668 463.53L995.117 459.291L988.693 455.586L986.244 459.824Z" fill="white"/>
<path d="M972.196 426.92C972.318 424.056 972.943 420.464 975.132 418.416C977.32 416.368 981.038 416.194 983.817 416.402C988.195 416.715 991.286 421.609 990.505 427.145C989.793 432.352 986.336 440.283 980.569 441.359C977.633 441.915 975.358 439.624 974.02 436.882C972.686 433.735 972.064 430.334 972.196 426.92Z" fill="#FFC9B6"/>
<path d="M986.145 428.898C986.145 428.898 987.204 426.625 989.011 427.874C990.817 429.124 987.587 432.907 987.587 432.907L986.145 428.898Z" fill="#FFC9B6"/>
<path d="M994.118 417.791C993.527 413.99 988.212 410.849 983.695 412.983C982.254 409.721 977.998 407.013 974.576 408.193C973.752 408.436 973.009 408.897 972.426 409.526C971.842 410.155 971.438 410.93 971.258 411.769C971.206 412.314 971.315 412.863 971.571 413.348C970.585 413.536 969.627 413.851 968.722 414.285C965.439 415.83 964.97 418.433 966.863 421.54C969.59 425.965 978.206 429.072 982.497 425.618C982.497 429.645 985.971 434.817 990.088 434.192C989.897 430.86 995.664 427.805 994.118 417.791Z" fill="#421E47"/>
<path d="M982.931 431.467C982.931 431.467 985.624 426.694 987.847 429.384C990.071 432.074 986.11 434.331 986.11 434.331L982.931 431.467Z" fill="#FFC9B6"/>
<path d="M1048.68 413.782C1048.68 405.104 1040.36 393.285 1029.94 387.35C1023.44 383.636 1017.67 383.098 1014.3 385.302L1010.24 388.009C1010.51 388.873 1010.7 389.763 1010.79 390.664C1010.79 390.664 1010.88 390.664 1011.07 390.526C1010.98 391.1 1010.94 391.68 1010.93 392.261C1010.93 400.939 1019.25 412.758 1029.68 418.693C1032.7 420.544 1036.11 421.673 1039.65 421.991L1040.31 422.702L1043.49 431.38L1046.59 429.454L1045.19 420.776C1046.34 420.022 1047.26 418.978 1047.88 417.749C1048.49 416.521 1048.77 415.152 1048.68 413.782Z" fill="#95BFE5"/>
<path d="M1045.55 415.795C1045.55 424.473 1036.97 426.642 1026.55 420.689C1016.13 414.736 1007.74 402.9 1007.82 394.24C1007.91 385.579 1016.4 383.41 1026.81 389.363C1037.21 395.316 1045.62 407.152 1045.55 415.795Z" fill="#BBD9F9"/>
<path d="M1039.65 415.24C1039.59 412.793 1038.99 410.388 1037.91 408.193C1036.85 405.613 1035.38 403.218 1033.57 401.095C1031.71 399.296 1029.6 397.787 1027.3 396.617C1024.97 395.281 1024.46 396.045 1023.56 396.617C1023.16 396.938 1022.7 397.173 1022.2 397.307C1021.7 397.441 1021.19 397.472 1020.68 397.398C1016.53 396.826 1012.77 394.101 1012.57 399.134C1012.3 399.134 1012.11 399.134 1012.11 399.481C1012.12 399.85 1012.23 400.21 1012.43 400.518C1012.63 400.826 1012.92 401.069 1013.26 401.217L1016.73 403.247C1016.8 404.031 1017.04 404.79 1017.43 405.474C1017.82 406.157 1018.35 406.747 1018.99 407.204C1020.16 407.881 1021.11 407.204 1021.25 405.85L1033.22 412.793C1033.29 413.576 1033.52 414.336 1033.91 415.019C1034.3 415.702 1034.84 416.293 1035.48 416.75C1036.64 417.426 1037.6 416.75 1037.74 415.396L1039.89 416.628C1039.89 416.628 1040.13 415.674 1039.65 415.24Z" fill="white"/>
<path d="M1033.18 405.017C1032.82 403.314 1032.06 401.721 1030.96 400.366C1029.23 398.933 1027.26 397.822 1025.14 397.086C1024.19 396.999 1023.2 398.943 1023.02 399.186L1033.18 405.017Z" fill="#BBD9F9"/>
<path d="M1035.27 422.598L1043.52 431.38L1041.68 420.099L1035.27 422.598Z" fill="#BBD9F9"/>
</g>
<g clip-path="url(#clip1)">
<path d="M718.268 683.842C722.716 685.035 731.498 692.47 734.158 694.81C731.567 698.917 727.279 705.525 725.88 705.525C724 705.525 717.19 697.999 714.576 691.414C713.992 690.283 713.696 689.025 713.716 687.751C713.736 686.478 714.071 685.23 714.691 684.118C715.813 683.607 717.08 683.509 718.268 683.842Z" fill="#0B3F8D"/>
<path d="M723.954 681.869C728.838 684.347 738.308 691.047 738.308 691.047C736.731 692.061 735.336 693.333 734.181 694.81C731.521 692.515 722.716 685.035 718.291 683.842C717.101 683.516 715.834 683.622 714.714 684.141C715.838 682.862 717.326 681.959 718.978 681.553C720.63 681.147 722.367 681.257 723.954 681.869Z" fill="#0B3F8D"/>
<path d="M996.126 751.025L987.367 745.059L968.909 721.013C968.909 721.013 984.799 716.768 993.053 723.904C1001.31 731.04 996.126 751.025 996.126 751.025Z" fill="#0B3F8D"/>
<path d="M829.957 846.521L801.41 826.995L802.625 816.555C802.625 816.555 818.515 812.31 826.77 819.446C835.024 826.582 829.957 846.521 829.957 846.521Z" fill="#0B3F8D"/>
<path d="M770.386 868.043C770.386 851.248 780.59 831.745 793.178 824.448C796.211 822.704 799.632 821.749 803.129 821.672C808.283 821.649 813.34 823.064 817.735 825.756C824.912 830.184 825.875 840.257 825.875 840.257L800.263 892.961C797.609 894.118 794.73 894.664 791.838 894.561C788.945 894.458 786.112 893.707 783.548 892.365C779.357 889.914 775.928 886.348 773.642 882.063C772.919 880.645 772.291 879.181 771.762 877.68C770.8 874.56 770.336 871.308 770.386 868.043Z" fill="#1B1F44"/>
<path d="M826.632 847.714C826.632 864.51 816.428 884.013 803.84 891.309C791.252 898.606 781.002 890.828 781.002 874.055C781.002 857.282 791.206 837.756 803.794 830.46C816.382 823.163 826.632 830.919 826.632 847.714Z" fill="#C8CEDA"/>
<path d="M822.275 850.468C822.275 863.753 814.204 879.172 804.253 884.885C794.302 890.598 786.23 884.541 786.23 871.256C786.23 857.971 794.302 842.552 804.253 836.838C814.204 831.125 822.275 837.183 822.275 850.468Z" fill="#496177"/>
<path d="M804.826 839.592C795.884 844.754 788.638 858.613 788.638 870.544C788.638 882.476 795.884 887.959 804.826 882.797C813.769 877.634 821.014 863.776 821.014 851.844C821.014 839.913 813.769 834.429 804.826 839.592ZM801.318 843.584C802.313 842.526 803.465 841.628 804.734 840.923C806.477 839.693 808.593 839.108 810.719 839.271C811.359 839.34 811.956 839.623 812.416 840.074C812.92 840.601 812.828 841.29 812.255 842.368C811.639 843.612 810.958 844.822 810.214 845.993C809.848 846.544 809.618 846.292 808.862 846.361C808.121 846.385 807.387 846.517 806.683 846.751C805.387 847.296 804.175 848.022 803.083 848.907C802.556 849.32 802.304 849.183 802.097 848.907C801.512 847.994 801.071 846.996 800.791 845.948C800.682 845.54 800.673 845.113 800.764 844.701C800.856 844.29 801.046 843.906 801.318 843.584ZM813.448 856.204C813.448 862.56 809.595 869.971 804.826 872.678C800.057 875.386 796.205 872.518 796.205 866.162C796.205 859.806 800.057 852.395 804.826 849.688C809.595 846.98 813.448 849.848 813.448 856.204ZM791 861.16C791.649 858.063 792.787 855.089 794.37 852.349C795.145 850.81 796.092 849.363 797.191 848.035C797.97 847.393 798.383 847.645 798.635 848.219C799.111 849.271 799.442 850.382 799.621 851.523C799.662 851.798 799.646 852.078 799.575 852.346C799.504 852.614 799.38 852.865 799.208 853.083C798.196 854.605 797.314 856.209 796.572 857.879C796.133 858.95 795.758 860.045 795.448 861.16C795.104 862.33 795.127 862.789 794.691 863.133C793.826 863.786 792.906 864.362 791.94 864.854C791.137 865.29 790.747 865.175 790.679 864.143C790.658 863.139 790.766 862.136 791 861.16ZM794.6 881.673C794.164 881.673 792.972 880.617 792.307 879.539C790.922 877.666 790.174 875.398 790.174 873.068C790.111 872.069 790.18 871.066 790.381 870.085C790.633 868.915 791.068 868.456 791.871 868.204C792.73 867.902 793.624 867.71 794.531 867.63C794.944 867.63 794.829 868.135 795.012 869.099C795.138 869.968 795.353 870.821 795.654 871.646C796.12 872.718 796.808 873.68 797.672 874.468C798.039 874.789 797.993 875.248 797.833 875.799C797.405 877.304 796.868 878.776 796.228 880.204C795.815 881.099 795.333 881.81 794.6 881.81V881.673ZM809.504 877.084C807.604 879.952 804.728 882.032 801.41 882.934C800.375 883.29 799.26 883.337 798.199 883.072C797.649 882.636 797.741 881.856 798.062 880.984C798.591 879.502 799.227 878.061 799.965 876.671C800.24 876.166 800.538 875.799 801.02 875.799C802.226 875.748 803.41 875.459 804.505 874.95C805.316 874.528 806.083 874.028 806.798 873.458C807.601 872.862 807.876 872.403 808.174 872.678C808.792 873.3 809.324 874.003 809.756 874.766C810.146 875.386 810.146 876.028 809.504 877.038V877.084ZM818.675 862.445C817.832 865.495 816.508 868.392 814.755 871.026C814.197 871.872 813.535 872.643 812.783 873.321C812.003 874.009 811.636 873.802 811.384 872.931C811.054 871.906 810.816 870.854 810.673 869.787C810.673 869.236 810.971 868.938 811.567 867.86C812.147 866.858 812.667 865.824 813.127 864.762C813.8 863.066 814.329 861.316 814.709 859.531C814.744 859.254 814.836 858.987 814.978 858.746C815.12 858.506 815.309 858.296 815.534 858.131C816.481 857.447 817.514 856.891 818.607 856.479C819.203 856.25 819.684 856.364 819.753 857.351C819.558 859.073 819.165 860.767 818.584 862.399L818.675 862.445ZM818.675 854.254C817.728 854.702 816.713 854.989 815.672 855.102C815.328 855.102 815.053 855.102 815.03 854.322C814.976 852.866 814.729 851.423 814.296 850.032C814.013 849.319 813.635 848.647 813.172 848.035C812.737 847.37 812.416 847.37 812.576 846.705C812.958 845.359 813.409 844.034 813.929 842.735C814.365 841.565 814.8 841.06 815.511 841.129C816.149 841.216 816.738 841.515 817.185 841.978C818.686 843.602 819.612 845.673 819.822 847.875C820.124 849.346 820.209 850.853 820.074 852.349C820.006 852.776 819.829 853.178 819.56 853.515C819.291 853.853 818.939 854.115 818.538 854.276L818.675 854.254Z" fill="white"/>
<path d="M805.743 852.969C803.606 854.501 801.858 856.514 800.64 858.845C799.421 861.176 798.766 863.761 798.727 866.391C798.727 871.554 801.868 873.94 805.743 871.692C807.881 870.159 809.629 868.147 810.847 865.815C812.066 863.484 812.721 860.899 812.76 858.269C812.783 853.106 809.619 850.72 805.743 852.969Z" fill="#0B3F8D"/>
<path d="M791.986 864.946C792.951 864.454 793.872 863.878 794.737 863.225C795.173 862.881 795.15 862.422 795.494 861.252C795.804 860.137 796.179 859.041 796.617 857.971C797.36 856.301 798.242 854.697 799.254 853.175C799.425 852.957 799.55 852.706 799.621 852.437C799.692 852.169 799.708 851.889 799.667 851.615C799.488 850.474 799.156 849.363 798.681 848.311C798.429 847.714 798.016 847.485 797.236 848.127C796.137 849.454 795.191 850.901 794.416 852.441C792.833 855.18 791.695 858.154 791.045 861.252C790.815 862.244 790.715 863.262 790.747 864.28C790.77 865.244 791.16 865.382 791.986 864.946Z" fill="#C8CEDA"/>
<path d="M802.12 848.907C802.327 849.206 802.579 849.343 803.106 848.907C804.198 848.022 805.41 847.296 806.706 846.751C807.41 846.517 808.144 846.385 808.885 846.361C809.641 846.361 809.871 846.544 810.237 845.993C810.981 844.822 811.662 843.612 812.278 842.368C812.851 841.267 812.943 840.601 812.439 840.074C811.979 839.623 811.381 839.34 810.742 839.271C808.616 839.108 806.5 839.693 804.757 840.923C803.488 841.628 802.336 842.526 801.341 843.584C801.084 843.901 800.904 844.273 800.817 844.672C800.729 845.07 800.736 845.483 800.836 845.879C801.103 846.949 801.536 847.972 802.12 848.907Z" fill="#C8CEDA"/>
<path d="M819.684 847.829C819.475 845.627 818.548 843.556 817.048 841.932C816.601 841.469 816.011 841.17 815.374 841.083C814.663 841.083 814.227 841.542 813.792 842.689C813.272 843.988 812.82 845.313 812.439 846.659C812.278 847.301 812.599 847.324 813.035 847.99C813.497 848.602 813.875 849.273 814.158 849.986C814.592 851.377 814.838 852.82 814.892 854.276C814.892 854.965 815.19 855.08 815.534 855.057C816.576 854.943 817.591 854.656 818.538 854.208C818.913 854.028 819.237 853.758 819.481 853.421C819.726 853.085 819.882 852.693 819.937 852.28C820.069 850.792 819.984 849.293 819.684 847.829Z" fill="#C8CEDA"/>
<path d="M818.515 856.571C817.422 856.983 816.389 857.539 815.442 858.223C815.217 858.388 815.028 858.598 814.886 858.838C814.744 859.079 814.653 859.346 814.617 859.623C814.238 861.408 813.709 863.158 813.035 864.854C812.576 865.916 812.055 866.95 811.476 867.952C810.88 869.03 810.536 869.328 810.581 869.879C810.724 870.946 810.962 871.998 811.292 873.022C811.544 873.894 811.911 874.078 812.691 873.412C813.443 872.734 814.106 871.963 814.663 871.118C816.417 868.484 817.74 865.587 818.584 862.537C819.14 860.909 819.509 859.223 819.684 857.512C819.57 856.387 819.111 856.273 818.515 856.571Z" fill="#C8CEDA"/>
<path d="M808.151 872.632C807.853 872.38 807.578 872.839 806.775 873.412C806.06 873.982 805.293 874.482 804.482 874.904C803.387 875.414 802.203 875.702 800.997 875.753C800.515 875.753 800.217 876.143 799.942 876.625C799.204 878.015 798.568 879.456 798.039 880.938C797.718 881.81 797.626 882.59 798.177 883.026C799.237 883.291 800.352 883.244 801.387 882.889C804.705 881.986 807.581 879.906 809.481 877.038C810.123 876.005 810.123 875.386 809.71 874.743C809.287 873.973 808.763 873.263 808.151 872.632Z" fill="#C8CEDA"/>
<path d="M797.626 874.491C796.762 873.703 796.074 872.741 795.608 871.669C795.307 870.844 795.092 869.991 794.966 869.122C794.783 868.181 794.966 867.653 794.485 867.653C793.578 867.733 792.684 867.925 791.825 868.227C791.023 868.479 790.587 868.938 790.335 870.108C790.134 871.089 790.065 872.092 790.128 873.091C790.128 875.421 790.876 877.689 792.261 879.562C792.926 880.617 794.141 881.673 794.554 881.695C794.966 881.718 795.769 881.076 796.136 880.227C796.777 878.799 797.313 877.327 797.741 875.822C797.947 875.271 797.993 874.927 797.626 874.491Z" fill="#C8CEDA"/>
<path d="M938.504 770.253C938.504 753.457 948.708 733.954 961.296 726.657C964.351 724.91 967.798 723.963 971.316 723.904C976.455 723.922 981.488 725.368 985.853 728.08C993.03 732.508 993.993 742.581 993.993 742.581L968.381 795.148C965.727 796.304 962.849 796.851 959.956 796.747C957.063 796.644 954.231 795.894 951.666 794.551C947.475 792.1 944.046 788.534 941.76 784.249C941.037 782.831 940.409 781.367 939.88 779.866C938.921 776.754 938.456 773.51 938.504 770.253Z" fill="#1B1F44"/>
<path d="M994.75 749.878C994.75 766.673 984.547 786.176 971.958 793.473C959.37 800.769 949.167 793.037 949.167 776.241C949.167 759.446 959.37 739.942 971.958 732.646C984.547 725.35 994.75 733.082 994.75 749.878Z" fill="#C8CEDA"/>
<path d="M990.348 752.631C990.348 765.916 982.277 781.335 972.325 787.048C962.374 792.761 954.303 786.704 954.303 773.419C954.303 760.134 962.374 744.715 972.325 739.002C982.277 733.288 990.348 739.346 990.348 752.631Z" fill="#496177"/>
<path d="M972.944 741.847C964.002 747.009 956.756 760.868 956.756 772.799C956.756 784.731 964.002 790.215 972.944 785.052C981.887 779.889 989.132 766.031 989.132 754.099C989.132 742.168 981.887 736.592 972.944 741.847ZM969.436 745.839C970.431 744.781 971.583 743.883 972.853 743.178C974.595 741.948 976.711 741.363 978.837 741.526C979.477 741.595 980.074 741.878 980.534 742.329C981.038 742.856 980.947 743.545 980.373 744.623C979.757 745.867 979.076 747.077 978.333 748.248C977.966 748.799 977.737 748.547 976.98 748.616C976.239 748.64 975.505 748.772 974.802 749.006C973.554 749.518 972.381 750.197 971.316 751.025C970.789 751.438 970.537 751.3 970.33 751.025C969.745 750.112 969.304 749.113 969.023 748.065C968.91 747.677 968.888 747.267 968.96 746.869C969.032 746.471 969.195 746.095 969.436 745.77V745.839ZM981.566 758.459C981.566 764.815 977.714 772.226 972.944 774.933C968.175 777.641 964.323 774.773 964.323 768.417C964.323 762.061 968.175 754.65 972.944 751.943C977.714 749.235 981.566 752.011 981.566 758.367V758.459ZM959.118 763.461C959.767 760.364 960.905 757.389 962.488 754.65C963.264 753.111 964.21 751.664 965.309 750.336C966.088 749.694 966.501 749.946 966.753 750.52C967.229 751.572 967.561 752.683 967.739 753.824C967.78 754.099 967.764 754.378 967.693 754.647C967.623 754.915 967.498 755.166 967.327 755.384C966.321 756.914 965.447 758.526 964.713 760.203C964.274 761.274 963.899 762.369 963.589 763.484C963.245 764.654 963.268 765.113 962.832 765.457C961.967 766.11 961.047 766.686 960.081 767.178C959.278 767.614 958.889 767.499 958.82 766.467C958.781 765.425 958.882 764.384 959.118 763.369V763.461ZM962.718 783.974C962.282 783.974 961.09 782.918 960.425 781.84C959.04 779.967 958.292 777.699 958.292 775.369C958.229 774.37 958.298 773.367 958.499 772.386C958.751 771.216 959.187 770.757 959.989 770.505C960.848 770.204 961.742 770.011 962.649 769.931C963.062 769.931 962.947 770.436 963.13 771.4C963.256 772.269 963.471 773.122 963.773 773.947C964.238 775.019 964.926 775.981 965.79 776.769C966.157 777.09 966.111 777.549 965.951 778.1C965.523 779.605 964.987 781.077 964.346 782.505C963.91 783.148 963.429 783.882 962.718 783.882V783.974ZM977.622 779.385C975.724 782.254 972.847 784.334 969.528 785.236C968.494 785.592 967.378 785.64 966.318 785.373C965.767 784.937 965.859 784.157 966.18 783.285C966.71 781.803 967.346 780.362 968.083 778.972C968.358 778.467 968.656 778.1 969.138 778.1C970.344 778.049 971.529 777.76 972.623 777.251C973.434 776.828 974.202 776.329 974.916 775.759C975.719 775.163 975.994 774.704 976.292 774.979C976.91 775.601 977.442 776.304 977.874 777.067C978.195 777.549 978.195 778.191 977.622 779.201V779.385ZM986.794 764.746C985.903 767.738 984.549 770.572 982.781 773.144C982.224 773.989 981.561 774.76 980.809 775.438C980.029 776.126 979.663 775.92 979.41 775.048C979.08 774.024 978.842 772.971 978.7 771.905C978.7 771.354 978.998 771.056 979.594 769.977C980.173 768.976 980.694 767.942 981.153 766.88C981.827 765.184 982.356 763.434 982.735 761.648C982.774 761.369 982.869 761.101 983.015 760.861C983.161 760.62 983.354 760.412 983.584 760.249C984.53 759.564 985.563 759.008 986.656 758.597C987.252 758.367 987.734 758.482 987.803 759.468C987.625 761.204 987.248 762.913 986.679 764.562L986.794 764.746ZM986.794 756.554C985.846 757.003 984.831 757.289 983.79 757.403C983.446 757.403 983.171 757.403 983.148 756.623C983.094 755.167 982.847 753.724 982.414 752.333C982.13 751.62 981.753 750.949 981.291 750.336C980.855 749.671 980.534 749.671 980.694 749.006C981.076 747.66 981.528 746.335 982.047 745.036C982.483 743.866 982.919 743.361 983.629 743.43C984.169 743.524 984.67 743.771 985.074 744.141C986.575 745.765 987.501 747.837 987.711 750.038C988.012 751.509 988.097 753.017 987.963 754.512C987.908 754.91 987.759 755.288 987.528 755.616C987.296 755.943 986.989 756.21 986.633 756.394L986.794 756.554Z" fill="white"/>
<path d="M973.861 755.132C971.703 756.652 969.933 758.659 968.694 760.991C967.455 763.323 966.782 765.914 966.73 768.555C966.73 773.717 969.872 776.103 973.747 773.855C975.884 772.323 977.632 770.31 978.851 767.979C980.069 765.647 980.724 763.063 980.763 760.432C980.878 755.27 977.737 752.883 973.861 755.132Z" fill="#0B3F8D"/>
<path d="M960.081 767.086C961.046 766.594 961.967 766.018 962.832 765.365C963.268 765.021 963.245 764.562 963.589 763.392C963.899 762.277 964.274 761.182 964.713 760.111C965.455 758.441 966.337 756.837 967.349 755.315C967.521 755.097 967.645 754.846 967.716 754.578C967.787 754.31 967.803 754.03 967.762 753.755C967.584 752.614 967.252 751.503 966.776 750.451C966.524 749.855 966.111 749.625 965.332 750.268C964.233 751.595 963.286 753.042 962.511 754.581C960.928 757.321 959.79 760.295 959.141 763.392C958.91 764.384 958.81 765.402 958.843 766.421C958.888 767.43 959.278 767.545 960.081 767.086Z" fill="#C8CEDA"/>
<path d="M970.239 751.025C970.445 751.323 970.697 751.461 971.225 751.025C972.317 750.139 973.529 749.413 974.824 748.868C975.528 748.634 976.262 748.503 977.003 748.478C977.759 748.478 977.989 748.661 978.356 748.111C979.099 746.939 979.78 745.729 980.396 744.485C980.97 743.384 981.061 742.719 980.557 742.191C980.097 741.74 979.5 741.457 978.86 741.388C976.734 741.226 974.618 741.81 972.875 743.04C971.606 743.746 970.454 744.643 969.459 745.702C969.202 746.018 969.022 746.39 968.935 746.789C968.847 747.187 968.854 747.601 968.955 747.996C969.221 749.067 969.654 750.089 970.239 751.025Z" fill="#C8CEDA"/>
<path d="M987.803 749.992C987.558 747.796 986.599 745.74 985.074 744.141C984.627 743.678 984.037 743.379 983.4 743.292C982.689 743.292 982.254 743.751 981.818 744.899C981.31 746.153 980.867 747.431 980.488 748.73C980.328 749.373 980.649 749.396 981.084 750.061C981.546 750.673 981.924 751.345 982.208 752.057C982.641 753.449 982.887 754.892 982.942 756.348C982.942 757.036 983.24 757.151 983.584 757.128C984.625 757.014 985.64 756.727 986.587 756.279C986.962 756.1 987.286 755.829 987.531 755.493C987.775 755.156 987.931 754.764 987.986 754.352C988.132 752.897 988.07 751.429 987.803 749.992Z" fill="#C8CEDA"/>
<path d="M986.61 758.665C985.517 759.077 984.484 759.633 983.538 760.318C983.308 760.481 983.115 760.689 982.969 760.93C982.823 761.17 982.728 761.438 982.689 761.717C982.31 763.502 981.781 765.253 981.107 766.949C980.648 768.01 980.127 769.045 979.548 770.046C978.952 771.125 978.608 771.423 978.654 771.973C978.796 773.04 979.034 774.092 979.365 775.117C979.617 775.989 979.984 776.172 980.763 775.507C981.515 774.829 982.178 774.058 982.735 773.212C984.489 770.578 985.812 767.682 986.656 764.631C987.213 763.003 987.582 761.318 987.757 759.606C987.688 758.551 987.206 758.436 986.61 758.665Z" fill="#C8CEDA"/>
<path d="M976.246 774.796C975.948 774.543 975.673 775.002 974.87 775.576C974.156 776.146 973.388 776.645 972.577 777.067C971.483 777.577 970.298 777.865 969.092 777.916C968.611 777.916 968.312 778.306 968.037 778.788C967.3 780.178 966.664 781.62 966.134 783.102C965.813 783.974 965.721 784.754 966.272 785.19C967.332 785.456 968.448 785.408 969.482 785.052C972.801 784.151 975.678 782.071 977.576 779.201C978.218 778.169 978.218 777.549 977.805 776.907C977.382 776.136 976.858 775.426 976.246 774.796Z" fill="#C8CEDA"/>
<path d="M965.745 776.677C964.88 775.889 964.193 774.928 963.727 773.855C963.425 773.03 963.21 772.177 963.085 771.308C962.901 770.367 963.085 769.839 962.603 769.839C961.696 769.919 960.803 770.112 959.943 770.413C959.141 770.665 958.705 771.124 958.453 772.295C958.253 773.275 958.183 774.278 958.247 775.277C958.247 777.607 958.994 779.875 960.379 781.748C961.044 782.803 962.259 783.859 962.672 783.882C963.085 783.905 963.887 783.262 964.254 782.413C964.895 780.986 965.431 779.513 965.859 778.008C966.043 777.434 966.089 776.975 965.745 776.677Z" fill="#C8CEDA"/>
<path d="M910.164 617.211C907.641 615.834 900.992 613.264 900.075 612.897C891.339 609.111 884.024 604.27 877.489 601.241C867.698 596.652 860.659 594.702 859.146 595.046C857.171 595.546 855.226 596.158 853.322 596.881C856.578 598.35 859.788 599.933 862.86 601.31C871.314 605.134 879.645 609.218 887.853 613.562C904.271 622.327 928.622 637.861 939.1 644.676C921.835 647.108 907.366 638.825 891.086 636.071C874.806 633.318 854.399 631.092 837.982 632.033C821.685 633.143 805.697 637.023 790.702 643.505C783.158 646.603 772.702 649.93 764.379 647.245C761.352 650.157 758.604 653.345 756.17 656.767C744.315 673.012 734.479 691.735 725.445 702.841L721.707 705.663C713.109 712.156 699.236 722.665 687.932 731.476C671.217 744.531 658.789 755.453 649.182 770.872C650.099 772.226 651.154 773.717 652.3 775.232C650.874 773.864 649.52 772.424 648.241 770.918C645.23 775.89 642.505 781.031 640.079 786.314C635.011 798.429 637.533 809.121 637.533 815.201C637.533 819.974 640.767 823.003 645.605 825.205L654.272 830.184L743.398 881.443C743.398 881.443 733.814 856.732 775.224 827.959C816.635 799.186 882.236 755.614 925.457 726.29C968.679 696.967 1008.23 673.724 1008.23 673.724C1008.23 673.724 933.368 630.473 910.164 617.211Z" fill="#0B3F8D"/>
<path d="M887.899 613.562C904.317 622.327 928.668 637.861 939.146 644.676C921.881 647.108 907.412 638.825 891.132 636.071C874.852 633.318 854.445 631.092 838.028 632.033C821.731 633.144 805.743 637.023 790.747 643.505C783.204 646.603 772.748 649.93 764.425 647.245C767.359 644.459 770.615 642.033 774.124 640.018L822.275 612.484C832.242 606.539 842.625 601.325 853.345 596.882C856.601 598.35 859.811 599.933 862.883 601.31C871.352 605.134 879.69 609.218 887.899 613.562Z" fill="#0B3F8D"/>
<path d="M738.744 842.965C746.654 824.058 765.892 804.28 786.597 788.127C799.713 777.87 816.406 765.342 824.11 759.491C833.144 748.386 843.05 729.663 854.858 713.395C859.499 706.558 865.6 700.837 872.72 696.646L920.872 669.112C923.761 667.46 945.498 654.725 957.834 651.765C960.241 651.192 972.944 655.437 993.993 667.666C997.57 669.731 1005.3 671.682 1008.19 673.815C1012.08 676.706 1012.57 685.724 1012.38 701.533C1012.38 706.305 1013.02 729.709 1007.8 736.57C1005.92 740.393 1003.48 743.919 1000.57 747.032C1000.57 746.551 1000.57 746.046 1000.57 745.564C1000.57 721.288 985.831 710.137 967.625 720.646C950.68 730.374 936.555 756.073 934.996 779.316C928.117 783.262 913.213 791.889 891.224 804.257C863.181 820.02 839.908 833.007 833.396 836.632C831.401 815.982 817.552 807.217 800.722 816.922C782.539 827.431 767.772 855.63 767.772 879.906C767.772 880.342 767.772 880.755 767.772 881.191C762.82 883.302 756.537 885.78 754.382 885.206C744.43 882.659 736.038 879.493 736.038 871.852C736.176 865.749 733.676 855.08 738.744 842.965Z" fill="#0B3F8D"/>
<path d="M800.722 816.922C817.552 807.194 831.401 816.05 833.396 836.632C839.908 833.007 863.204 820.02 891.224 804.257C913.213 791.889 928.163 783.262 934.996 779.316C934.996 778.765 934.996 778.077 935.134 777.434C937.289 754.719 951.184 730.191 967.785 720.554C985.968 710.045 1000.73 721.196 1000.73 745.472C1000.73 745.954 1000.73 746.459 1000.73 746.941C999.403 748.356 997.945 749.646 996.378 750.795L996.218 750.91C996.218 750.268 996.218 749.625 996.218 749.006C996.218 728.355 983.675 718.879 968.198 727.805C952.721 736.73 940.178 760.73 940.178 781.358C940.178 782.161 940.178 782.918 940.178 783.652L937.335 785.281L934.859 786.681L833.465 844.41L829.842 846.475C829.842 845.764 829.842 845.053 829.842 844.364C829.842 823.714 817.3 814.238 801.822 823.163C786.345 832.089 773.803 856.089 773.803 876.716C773.803 877.313 773.803 877.887 773.803 878.46C772.954 878.759 770.501 879.883 767.566 881.122C767.566 880.686 767.566 880.273 767.566 879.837C767.795 855.63 782.539 827.454 800.722 816.922Z" fill="#0B3F8D"/>
<path d="M765.663 658.42C773.85 664.62 782.445 670.261 791.39 675.307C813.104 687.858 853.482 707.43 853.482 707.43L824.087 752.585C806.981 737.602 750.025 704.539 738.79 698.596C747.06 684.756 756.029 671.346 765.663 658.42Z" fill="#BBD9F9"/>
<path d="M761.65 729.067C732.163 712.019 727.875 705.617 727.875 705.617L761.971 655.368C761.971 655.368 763.118 656.446 765.663 658.42C756.02 671.353 747.043 684.77 738.767 698.619C750.025 704.562 806.959 737.625 824.064 752.608L820.441 758.298C800.243 749.816 780.606 740.052 761.65 729.067Z" fill="#95BFE5"/>
<path opacity="0.5" d="M851.831 710.068C851.831 710.068 806.752 703.598 782.057 692.814C753.487 680.309 747.961 676.018 747.961 676.018L761.971 655.368C772.954 663.545 784.383 671.106 796.205 678.014C808.288 685.081 853.528 707.521 853.528 707.521L851.831 710.068Z" fill="white"/>
<path d="M654.891 800.907C654.57 795.721 652.598 788.7 649.273 787.645C649.136 787.645 648.815 787.966 648.402 788.517C648.402 787.874 648.402 787.232 648.402 786.612C649.938 785.58 653.836 782.643 653.859 782.803C662.458 798.566 702.148 822.154 729.182 822.383C731.59 822.383 722.991 829.267 722.303 829.267C716.161 827.646 709.661 828.032 703.753 830.368C695.774 825.779 687.244 822.268 679.356 817.496C673.028 813.549 662.916 806.758 654.891 800.907Z" fill="#1B1F44"/>
<path d="M683.048 834.406C674.473 830.161 663.352 822.613 655.418 817.519C653.882 816.532 653.63 814.031 653.813 811.301C662.481 818.712 679.494 828.601 694.008 835.278C692.233 835.964 690.326 836.241 688.429 836.09C686.532 835.939 684.693 835.364 683.048 834.406Z" fill="#1B1F44"/>
<path d="M701.529 831.332L696.531 833.947C689.377 830.116 681.902 826.834 674.908 822.613C667.915 818.391 660.761 813.848 654.02 808.983C654.295 806.895 654.662 804.876 654.776 803.454C669.389 814.29 685.051 823.629 701.529 831.332Z" fill="#1B1F44"/>
<path d="M696.531 834.016L694.674 835.003L693.986 835.301C679.471 828.624 662.458 818.712 653.791 811.324C653.791 810.589 653.928 809.832 654.02 809.029C660.738 813.894 667.777 818.391 674.908 822.658C682.039 826.926 689.285 830.184 696.531 834.016Z" fill="#C8CEDA"/>
<path d="M654.891 802.926C654.891 802.307 654.891 801.618 654.891 800.907C663.031 806.735 673.235 813.527 679.563 817.427C687.451 822.2 695.981 825.779 703.96 830.299C703.216 830.596 702.489 830.933 701.782 831.309H701.644C685.17 823.635 669.507 814.327 654.891 803.523C654.891 803.316 654.891 803.11 654.891 802.926Z" fill="#C8CEDA"/>
<path d="M719.277 831.332C722.601 822.934 733.034 817.404 742.206 815.66C746.288 814.903 759.816 812.402 762.98 818.184C763.783 819.653 761.077 822.429 757.821 824.311C751.289 827.992 746.052 833.601 742.825 840.372C741.896 842.933 740.522 845.31 738.767 847.393C736.474 850.055 727.142 845.489 724.344 843.515C719.644 840.234 716.64 837.871 719.277 831.332Z" fill="#BBD9F9"/>
<path d="M659.087 757.518C660.692 768.256 653.08 784.937 649.182 792.807C647.049 797.098 641.638 797.121 638.153 792.234C641.773 778.94 649.022 766.919 659.087 757.518Z" fill="#BBD9F9"/>
<path d="M636.937 799.897C637.054 799.691 637.224 799.52 637.43 799.402C637.636 799.285 637.87 799.226 638.107 799.232C643.633 799.805 646.063 804.211 647.279 809.259C648.746 815.637 649.961 819.584 656.244 823.301C660.83 826.031 665.622 828.578 670.3 831.194L693.871 844.433C697.515 845.697 701.51 845.475 704.992 843.814C709.578 841.244 712.719 839.018 717.236 843.102C723.283 848.436 727.065 855.881 727.806 863.913C727.806 866.736 727.806 867.378 723.908 865.474C714.553 860.885 704.006 853.473 696.898 854.667C693.252 852.624 664.178 836.563 655.143 830.666C654.147 828.302 652.398 826.334 650.168 825.068C645.123 821.695 640.239 819.148 637.579 814.375C636.571 809.618 636.354 804.726 636.937 799.897Z" fill="#1B1F44"/>
<path d="M712.008 845.351C713.278 846.259 714.316 847.452 715.041 848.835C715.766 850.218 716.157 851.752 716.181 853.313C716.181 856.387 714.324 857.902 712.008 856.456C710.739 855.548 709.7 854.355 708.975 852.972C708.25 851.589 707.86 850.056 707.835 848.494C707.835 845.443 709.715 844.02 712.008 845.351Z" fill="#0B3F8D"/>
<path d="M642.44 805.84C643.573 806.662 644.503 807.732 645.159 808.969C645.814 810.206 646.179 811.576 646.224 812.976C646.224 815.775 644.527 817.037 642.44 815.844C641.295 815.013 640.358 813.928 639.702 812.674C639.046 811.42 638.688 810.031 638.657 808.616C638.657 805.909 640.354 804.624 642.44 805.84Z" fill="#0B3F8D"/>
<path d="M721.18 854.276C722.011 854.87 722.691 855.65 723.165 856.555C723.639 857.46 723.893 858.463 723.908 859.485C723.908 861.481 722.693 862.399 721.18 861.55C720.349 860.957 719.669 860.176 719.195 859.271C718.721 858.366 718.466 857.363 718.451 856.341C718.474 854.437 719.689 853.519 721.18 854.276Z" fill="#0B3F8D"/>
<path d="M936.922 675.743C946.644 670.58 956.504 669.318 964.827 678.037C967.055 680.631 969.123 683.359 971.018 686.206L835.506 764.539V752.792C840.756 744.233 847.131 734.023 852.84 725.441C872.307 713.372 889.527 705.181 907.458 694.007C917.18 687.927 926.764 681.112 936.922 675.743Z" fill="#95BFE5"/>
<path d="M866.139 707.82C874.692 701.12 905.67 682.19 930.685 668.423C944.833 660.553 951.597 656.515 958.063 657.525C963.704 658.397 966.111 661.265 970.124 666.335C975.581 673.219 980.534 680.814 980.534 680.814L971.018 686.32C969.123 683.474 967.055 680.746 964.827 678.152C956.504 669.433 946.667 670.695 936.922 675.858C926.788 681.227 917.203 688.041 907.458 694.213C889.527 705.411 872.33 713.602 852.84 725.648C858.596 716.791 863.548 709.724 866.139 707.82Z" fill="#74A9D1"/>
<path opacity="0.5" d="M728.563 721.197C735.923 726.244 750.69 736.225 765.044 745.22C765.315 745.397 765.523 745.655 765.639 745.958C765.754 746.261 765.771 746.592 765.687 746.905C765.604 747.218 765.423 747.497 765.171 747.701C764.92 747.905 764.61 748.024 764.287 748.042C750.328 748.798 736.557 744.551 725.445 736.065C715.218 728.447 728.54 721.197 728.563 721.197Z" fill="white"/>
<path d="M721.203 831.332C722.189 828.601 726.706 823.439 731.911 823.92C737.529 824.448 744.683 825.182 740.739 831.309C738.982 834.432 737.501 837.702 736.313 841.083C735.075 843.699 733.08 846.154 729.618 844.227C723.794 840.946 718.612 838.422 721.203 831.332Z" fill="white"/>
<path d="M651.291 774.13C653.103 775.713 650.214 783.79 648.15 788.953C646.086 794.115 644.825 794.161 642.074 792.716C639.322 791.27 640.79 785.144 643.541 780.624C646.293 776.103 648.861 772.019 651.291 774.13Z" fill="white"/>
<path d="M895.374 687.284C895.374 687.284 897.942 718.099 897.942 733.334C897.942 747.95 907.435 733.885 907.573 731.04C908.192 718.26 902.253 684.003 902.253 684.003L895.374 687.284Z" fill="#0B3F8D"/>
<path d="M742.779 868.548C744.054 870.285 745.498 871.891 747.09 873.344C748.69 874.5 750.221 875.749 751.676 877.084C751.752 877.166 751.8 877.271 751.812 877.383C751.824 877.495 751.8 877.608 751.744 877.705C751.688 877.802 751.602 877.879 751.499 877.924C751.396 877.969 751.281 877.98 751.171 877.955C749.077 877.384 747.196 876.211 745.76 874.583C744.11 873.006 742.752 871.149 741.747 869.099C741.675 868.962 741.659 868.801 741.704 868.653C741.749 868.505 741.851 868.38 741.988 868.307C742.125 868.234 742.285 868.218 742.434 868.264C742.582 868.309 742.706 868.411 742.779 868.548Z" fill="#0B3F8D"/>
<path d="M754.634 873.16C755.433 871.884 756.459 870.764 757.66 869.856C758.658 868.768 759.791 867.812 761.031 867.011C761.127 866.956 761.238 866.935 761.348 866.949C761.457 866.964 761.559 867.014 761.637 867.093C761.715 867.171 761.766 867.273 761.78 867.382C761.795 867.492 761.773 867.603 761.719 867.699C760.944 868.96 760.012 870.116 758.944 871.141C758.085 872.356 757.013 873.405 755.78 874.238C755.709 874.314 755.624 874.374 755.53 874.417C755.436 874.459 755.334 874.483 755.231 874.486C755.128 874.489 755.025 874.472 754.928 874.436C754.832 874.399 754.743 874.344 754.668 874.273C754.593 874.202 754.532 874.117 754.49 874.023C754.447 873.929 754.424 873.827 754.421 873.724C754.417 873.62 754.435 873.517 754.471 873.421C754.508 873.324 754.563 873.235 754.634 873.16Z" fill="#0B3F8D"/>
<path opacity="0.5" d="M938.504 748.065C938.504 748.065 927.292 748.616 894.251 765.962C858.32 784.845 851.052 789.503 825.875 812.677C834.267 817.266 836.835 827.27 836.835 827.27C836.835 827.27 905.945 786.704 930.846 772.708C931.353 763.991 933.982 755.532 938.504 748.065Z" fill="#0B3F8D"/>
<path d="M1011.19 679.299C1009.31 680.764 1007.33 682.105 1005.27 683.315C1004.04 684.026 1003.62 686.665 1003.92 689.831C1004.36 694.718 1005.16 700.844 1005.37 703.208C1005.69 706.856 1009.95 704.309 1012.41 703.047C1013.67 699.147 1012.82 684.072 1011.19 679.299Z" fill="#BBD9F9"/>
<path d="M952.698 655.528C952.698 655.528 964.644 682.879 966.845 692.699C967.877 697.288 962.259 701.877 961.869 699.835C958.501 685.261 954.384 670.871 949.533 656.722C949.235 655.941 952.698 655.528 952.698 655.528Z" fill="#0B3F8D"/>
<path d="M899.685 686.619C899.685 686.619 903.973 717.915 905.027 734.183C906.045 754.616 905.393 775.097 903.078 795.423C903.078 795.423 903.262 777.342 902.872 768.669C902.161 753.227 902.092 733.288 900.762 722.413C899.157 709.219 897.965 687.674 897.965 687.674L899.685 686.619Z" fill="#0B3F8D"/>
<path d="M891.064 737.556C894.067 736.386 896.039 736.042 896.567 737.809C897.346 740.31 893.769 742.145 892.485 742.834C889.573 744.371 885.904 747.078 884.46 744.073C883.015 741.067 888.633 738.497 891.064 737.556Z" fill="#C8CEDA"/>
<path d="M957.352 698.963C960.356 697.793 962.328 697.449 962.855 699.215C963.635 701.716 960.058 703.552 958.774 704.24C955.862 705.778 952.193 708.485 950.749 705.479C949.304 702.474 954.922 699.904 957.352 698.963Z" fill="#C8CEDA"/>
<path d="M838.555 818.414C840.154 819.279 841.686 820.261 843.141 821.351C844.311 822.177 845.984 822.911 846.626 824.219C846.69 824.324 846.72 824.446 846.714 824.569C846.707 824.692 846.665 824.81 846.591 824.909C846.517 825.007 846.415 825.082 846.299 825.122C846.183 825.163 846.058 825.168 845.939 825.137C844.517 824.861 843.325 823.439 842.224 822.544C840.795 821.465 839.447 820.284 838.188 819.01C838.137 818.951 838.106 818.877 838.1 818.8C838.093 818.722 838.112 818.644 838.153 818.577C838.194 818.511 838.255 818.459 838.327 818.43C838.4 818.4 838.48 818.395 838.555 818.414Z" fill="#0B3F8D"/>
<path d="M873.293 804.601C873.912 802.719 874.21 800.769 874.715 798.865C874.736 798.7 874.822 798.551 874.953 798.45C875.084 798.349 875.25 798.304 875.414 798.325C875.578 798.347 875.727 798.432 875.828 798.564C875.929 798.695 875.974 798.861 875.953 799.025C875.958 801.072 875.648 803.107 875.036 805.06C874.623 806.528 874.187 808.685 872.743 809.419C872.682 809.453 872.615 809.473 872.546 809.477C872.477 809.481 872.408 809.469 872.344 809.443C872.28 809.416 872.223 809.376 872.177 809.324C872.131 809.272 872.097 809.211 872.078 809.144C871.734 807.653 872.72 806.092 873.293 804.601Z" fill="#0B3F8D"/>
<path d="M868.639 799.002L869.487 802.513C869.815 803.439 869.932 804.427 869.831 805.404C869.716 805.978 869.005 805.932 868.73 805.542C868.22 804.672 867.907 803.701 867.813 802.697L867.102 799.415C866.85 798.429 868.386 797.993 868.639 799.002Z" fill="#0B3F8D"/>
<path d="M887.991 798.635C888.77 797.19 889.848 795.951 890.559 794.459C891.37 792.689 891.845 790.782 891.958 788.838C891.958 788.379 892.737 788.195 892.829 788.723C893.425 792.44 892.233 797.465 888.518 799.186C888.442 799.233 888.353 799.252 888.264 799.241C888.176 799.23 888.094 799.188 888.032 799.124C887.97 799.059 887.933 798.976 887.925 798.887C887.918 798.798 887.941 798.709 887.991 798.635Z" fill="#0B3F8D"/>
<path d="M919.427 773.235C920.505 774.061 921.376 775.071 922.408 775.966C923.44 776.861 924.701 777.32 925.297 778.398C925.344 778.484 925.368 778.58 925.368 778.678C925.367 778.776 925.341 778.872 925.293 778.957C925.245 779.042 925.175 779.113 925.092 779.164C925.008 779.215 924.913 779.243 924.815 779.247C923.509 779.247 922.202 777.893 921.376 776.953C920.326 775.966 919.579 774.7 919.221 773.304C919.228 773.284 919.239 773.266 919.254 773.252C919.269 773.237 919.287 773.226 919.307 773.219C919.327 773.213 919.348 773.211 919.369 773.213C919.39 773.216 919.41 773.224 919.427 773.235Z" fill="#0B3F8D"/>
<path d="M913.397 784.501C913.832 783.515 914.75 782.803 915.185 781.794C915.535 780.772 915.788 779.72 915.942 778.65C915.979 778.535 916.047 778.432 916.14 778.354C916.232 778.276 916.345 778.226 916.465 778.209C916.584 778.192 916.707 778.21 916.817 778.259C916.927 778.309 917.021 778.389 917.088 778.49C918.097 780.784 916.836 785.029 914.268 785.649C914.119 785.688 913.962 785.682 913.816 785.631C913.67 785.581 913.543 785.489 913.45 785.366C913.356 785.243 913.302 785.096 913.292 784.942C913.283 784.788 913.319 784.635 913.397 784.501Z" fill="#0B3F8D"/>
<path d="M1003.03 722.068C1002.97 721.938 1002.97 721.79 1003.03 721.659C1003.08 721.528 1003.18 721.423 1003.31 721.369C1003.44 721.314 1003.59 721.313 1003.72 721.367C1003.85 721.421 1003.96 721.525 1004.01 721.655C1004.95 723.041 1005.35 724.721 1005.14 726.38C1004.93 728.04 1004.12 729.566 1002.87 730.673C1002.5 730.948 1001.9 730.489 1002.06 730.053C1003.22 727.561 1003.56 724.765 1003.03 722.068Z" fill="#0B3F8D"/>
<path opacity="0.5" d="M853.092 610.35C853.092 609.341 855.385 607.39 855.821 607.275C860.774 605.302 865.681 607.275 869.923 609.845C874.366 612.24 878.393 615.34 881.846 619.023C883.268 620.767 884.139 622.534 880.287 622.534C876.435 622.534 858.183 616.362 854.835 614.274C852.863 613.058 852.519 611.589 853.092 610.35Z" fill="white"/>
<path d="M894.411 667.253C911.677 659.268 925.87 649.104 944.306 644.308C944.879 644.171 945.292 645.02 944.718 645.295C928.461 652.959 867.951 685.127 853.941 695.521C859.627 686.619 880.195 673.838 894.411 667.253Z" fill="#0B3F8D"/>
<path d="M813.104 620.79C830.369 612.805 844.563 602.641 862.998 597.845C863.571 597.708 863.984 598.556 863.411 598.832C847.177 606.472 786.643 638.595 772.633 649.012C778.32 640.155 798.887 627.375 813.104 620.79Z" fill="#0B3F8D"/>
<path d="M683.709 817.147C685.071 814.788 683.641 811.411 680.515 809.605C677.389 807.8 673.752 808.248 672.391 810.608C671.029 812.967 672.46 816.344 675.585 818.15C678.711 819.956 682.348 819.507 683.709 817.147Z" fill="white"/>
<path d="M839.174 767.591C839.174 767.591 830.002 769.427 828.076 768.256C827.607 767.922 827.237 767.466 827.006 766.937C826.775 766.409 826.692 765.828 826.765 765.256C826.838 764.684 827.064 764.142 827.42 763.689C827.777 763.235 828.249 762.887 828.787 762.681C831.418 762.302 834.09 762.302 836.721 762.681L839.174 767.591Z" fill="#C8CEDA"/>
<path d="M851.51 765.273C846.33 760.602 840.479 756.735 834.153 753.801C834.406 753.512 834.673 753.236 834.955 752.975C837.432 750.818 839.358 752.746 841.834 753.893C847.567 756.623 855.844 761.327 859.306 768.187C862.173 773.855 861.599 777.732 857.197 778.283C858.183 774.612 856.05 769.61 851.51 765.273Z" fill="#0B3F8D"/>
<path d="M840.848 773.809C832.318 769.771 830.324 764.034 831.287 759.331C831.732 757.285 832.723 755.398 834.153 753.87C840.479 756.804 846.33 760.671 851.51 765.342C856.096 769.702 858.183 774.704 857.151 778.444C853.918 778.765 848.598 777.457 840.848 773.809Z" fill="#0B3F8D"/>
<path d="M692.633 754.283C706.39 743.476 726.454 728.172 738.285 719.223C730.65 713.671 725.17 709.518 725.17 709.518C725.17 709.518 695.568 731.177 679.311 745.403C673.898 749.874 669.026 754.965 664.797 760.57C664.613 765.572 660.738 778.146 660.211 782.23C661.652 784.236 663.305 786.083 665.141 787.736C667.915 780.624 674.977 768.233 692.633 754.283Z" fill="#C8CEDA"/>
<path d="M712.008 757.243C716.594 760.042 763.76 787.369 772.885 792.647C790.06 779.912 811.865 762.107 811.865 762.107C811.865 762.107 784.511 750.635 767.038 739.323C757.867 733.334 746.746 725.418 738.285 719.269C726.454 728.08 706.322 743.499 692.633 754.283C674.977 768.233 667.915 780.624 665.14 787.736C668.692 790.875 672.479 793.736 676.467 796.295C678.05 791.224 682.956 777.572 692.151 768.532C703.616 757.197 706.918 754.122 712.008 757.243Z" fill="#1B1F44"/>
<path d="M727.783 816.165C731.2 813.871 738.308 811.324 750.552 809.052C753.029 807.125 754.588 805.61 764.86 798.429C767.314 796.708 770.042 794.735 772.886 792.624C763.714 787.346 716.594 760.042 712.008 757.22C706.918 754.099 703.616 757.22 692.151 768.44C682.979 777.48 678.05 791.132 676.468 796.203C680.595 798.911 684.928 801.412 688.964 803.5C701.153 809.75 714.255 814.025 727.783 816.165Z" fill="#C8CEDA"/>
<path d="M709.348 760.34C706.528 758.665 699.007 766.467 694.009 772.157C689.01 777.847 684.241 786.956 686.579 788.884C688.047 790.1 691.349 787.484 695.614 782.78C698.113 780.027 704.006 773.052 706.643 770.803C713.797 764.792 714.232 763.231 709.348 760.34Z" fill="#1B1F44"/>
<path d="M722.67 767.384C719.85 765.709 712.329 773.511 707.33 779.201C702.332 784.891 697.562 794 699.901 795.928C701.369 797.144 704.671 794.528 708.935 789.825C711.435 787.071 717.328 780.096 719.964 777.847C727.118 771.675 727.554 770.276 722.67 767.384Z" fill="#1B1F44"/>
<path d="M737.872 775.277C735.052 773.602 727.531 781.404 722.533 787.094C717.534 792.784 712.742 801.871 715.081 803.798C716.548 805.014 719.85 802.398 724.115 797.695C726.614 794.941 732.507 787.966 735.144 785.717C742.298 779.66 742.733 778.169 737.872 775.277Z" fill="#1B1F44"/>
<path d="M751.951 783.767C749.131 782.092 741.61 789.893 736.611 795.584C731.613 801.274 726.843 810.383 729.182 812.31C730.65 813.526 733.952 810.911 738.216 806.207C740.716 803.454 746.609 796.478 749.245 794.23C756.399 788.172 756.835 786.658 751.951 783.767Z" fill="#1B1F44"/>
<path d="M785.726 748.065C759.678 734.619 726.339 707.613 709.647 697.976C695.293 689.693 686.167 687.766 680.32 688.294C679.357 691.575 679.907 695.911 685.754 700.317C697.609 709.196 739.89 737.258 764.264 747.95C764.264 747.95 781.209 755.545 788.638 758.619C793.614 760.685 808.816 764.562 808.816 764.562L811.843 762.107C811.843 762.107 797.787 754.283 785.726 748.065Z" fill="#0B3F8D"/>
<path d="M680.32 688.294C678.589 688.371 676.894 688.809 675.342 689.58C673.791 690.35 672.417 691.436 671.308 692.768C665.14 700.317 664.269 702.29 676.674 712.019C692.472 724.202 728.265 746.872 739.386 748.065C747.646 749.099 756.004 749.099 764.264 748.065C739.89 737.258 697.608 709.196 685.754 700.317C679.907 695.957 679.38 691.575 680.32 688.294Z" fill="#0B3F8D"/>
<path d="M652.392 753.526C652.392 753.526 644.389 746.183 637.969 752.562C631.549 758.941 631.09 766.581 634.828 771.469C638.565 776.356 652.392 753.526 652.392 753.526Z" fill="#BBD9F9"/>
<path d="M658.514 884.472C657.618 886.944 656.505 889.332 655.189 891.608C653.194 894.981 655.51 896.839 658.055 898.491C660.6 900.143 664.934 898.812 671.423 895.302C677.912 891.791 680.893 888.418 681.122 886.124C681.351 883.829 678.05 880.571 672.34 882.361C669.423 883.231 666.559 884.273 663.765 885.481L658.514 884.472Z" fill="#BBD9F9"/>
<path d="M627.261 805.198C627.261 805.198 620.91 822.177 629.554 826.376C629.554 836.609 636.433 844.066 638.313 847.875C637.946 848.426 633.957 848.793 630.517 851.707C627.376 854.276 624.739 858.865 621.666 862.032C616.943 866.781 615.223 868.089 612.334 870.613C612.334 875.202 617.172 877.244 617.172 877.244C617.172 877.244 629.256 869.971 634.943 865.772C643.105 859.829 650.374 855.814 650.603 851.385C650.833 846.957 646.27 830.024 646.27 830.024C646.27 830.024 656.565 842.23 669.039 847.76C666.608 851.408 664.682 854.185 663.031 863.822C661.793 870.98 658.445 884.334 658.445 884.334C658.445 884.334 662.802 888.441 666.448 885.986C670.368 875.5 684.08 849.94 683.759 844.686C683.438 839.431 658.193 807.446 658.193 807.446L627.261 805.198Z" fill="#0B3F8D"/>
<path d="M665.53 757.633L659.156 762.864C655.716 761.648 653.08 757.564 651.612 753.686C652.873 752.677 657.344 750.13 657.642 748.776C656.313 745.059 658.33 741.893 661.77 738.589C663.718 736.938 666.17 736.003 668.722 735.936C671.273 735.869 673.771 736.675 675.803 738.222C676.834 738.805 677.675 739.674 678.224 740.724C678.773 741.774 679.007 742.961 678.898 744.141C678.462 748.088 676.215 757.587 672.845 759.308C670.506 760.432 667.777 758.482 665.53 757.633Z" fill="#FFC9B6"/>
<path d="M656.336 738.52C656.478 736.962 657.036 735.471 657.951 734.204C658.867 732.936 660.107 731.938 661.541 731.315C665.186 729.64 671.675 729.411 674.61 732.692C674.654 732.58 674.708 732.473 674.771 732.371C674.973 732.111 675.228 731.897 675.519 731.745C675.811 731.593 676.132 731.505 676.46 731.487C676.788 731.47 677.117 731.523 677.423 731.644C677.729 731.765 678.005 731.95 678.233 732.187C679.085 732.872 679.735 733.776 680.113 734.803C680.736 734.579 681.417 734.579 682.039 734.803C684.149 735.675 684.08 738.68 683.323 740.424C681.764 744.073 676.032 748.042 671.859 747.055C672.065 749.166 671.033 750.314 669.337 751.644C667.999 752.658 666.401 753.272 664.729 753.414C663.057 753.556 661.379 753.221 659.89 752.447C658.071 751.588 656.525 750.241 655.424 748.556C654.323 746.871 653.71 744.915 653.653 742.902C653.721 742.012 654 741.15 654.467 740.388C654.933 739.626 655.574 738.986 656.336 738.52Z" fill="#301333"/>
<path d="M673.234 748.042C673.154 747.727 672.993 747.438 672.767 747.203C672.542 746.968 672.259 746.797 671.947 746.704C671.635 746.612 671.304 746.602 670.988 746.675C670.671 746.749 670.378 746.904 670.139 747.124C667.846 748.684 670.598 753.296 670.598 753.296L673.234 748.042Z" fill="#FFC9B6"/>
<path d="M649.961 752.057C653.882 753.755 653.607 754.352 661.747 760.73C669.887 767.109 670.299 770.688 669.566 774.497C668.614 779.156 667.073 783.674 664.98 787.943C662.81 793.395 659.706 798.426 655.808 802.811C657.201 803.228 658.552 803.773 659.844 804.44C660.519 805.359 660.897 806.464 660.926 807.604C660.955 808.745 660.633 809.867 660.004 810.819C655.992 814.582 639.368 824.104 625.61 810.406C626.843 796.536 629.322 782.805 633.016 769.381C636.135 759.813 646.522 750.589 649.961 752.057Z" fill="#BBD9F9"/>
<path d="M660.578 767.224C664.751 764.929 668.488 766.123 671.033 771.377C672.547 774.52 672.638 778.26 674.404 781.128C676.169 783.997 679.311 787.163 681.283 790.467C685.731 791.064 695.659 799.645 698.136 800.93C700.612 802.215 706.482 802.834 709.073 804.876C710.793 806.23 711.962 812.678 711.962 812.678C710.247 813.119 708.449 813.119 706.734 812.678C703.822 811.76 702.148 809.328 699.58 808.089C695.696 806.568 691.661 805.468 687.542 804.807C683.183 803.524 679.18 801.246 675.848 798.153C675.229 797.327 668.695 793.381 664.728 790.123C654.547 781.794 652.804 771.331 660.578 767.224Z" fill="#FFB9A4"/>
<path d="M654.891 805.22C651.786 806.877 648.521 808.215 645.146 809.213C642.306 809.944 639.428 810.518 636.525 810.934C637.832 810.934 645.1 811.668 647.989 809.855C650.878 808.043 654.891 805.22 654.891 805.22Z" fill="#BBD9F9"/>
<path d="M639.047 802.972C640.985 804.389 643.376 805.042 645.765 804.808C649.778 804.417 652.323 803.936 652.323 803.936C650.18 803.297 647.955 802.972 645.719 802.972C643.498 803.118 641.269 803.118 639.047 802.972Z" fill="#BBD9F9"/>
<path d="M612.334 870.636C612.334 870.636 606.533 874.124 604.447 875.409C604.447 876.326 605.57 879.011 608.78 884.747C611.99 890.483 617.7 893.443 622.377 890.392C627.055 887.34 630.242 882.43 626.298 881.214C623.924 880.426 621.358 880.426 618.984 881.214L616.255 874.697C615.955 873.765 615.446 872.915 614.766 872.211C614.087 871.507 613.255 870.968 612.334 870.636Z" fill="#BBD9F9"/>
<path d="M604.446 875.409C606.001 875.593 607.467 876.235 608.658 877.251C609.85 878.268 610.714 879.615 611.142 881.122C612.196 885.001 614.197 888.557 616.966 891.47C612.38 890.919 610.912 889.313 608.023 883.898C605.57 879.309 603.139 876.28 604.446 875.409Z" fill="#301333"/>
<path d="M618.204 879.08C617.929 879.08 618.686 881.03 618.204 882.843C617.723 884.655 617.952 886.101 619.213 884.816C620.474 883.531 619.763 880.915 619.763 880.915C619.763 880.915 619.351 879.034 618.204 879.08Z" fill="#301333"/>
<path d="M667.8 883.715C669.64 884.639 671.308 885.873 672.73 887.363C674.358 889.428 676.147 887.73 675.023 885.642C673.993 884.215 672.516 883.173 670.827 882.682C669.762 882.834 668.736 883.184 667.8 883.715Z" fill="#301333"/>
<path d="M669.291 767.866C672.638 772.891 678.462 782.505 678.462 782.505C678.462 782.505 679.999 786.888 675.413 791.867C674.087 793.299 672.394 794.34 670.519 794.878C668.643 795.416 666.656 795.43 664.774 794.918C660.14 791.473 656.707 786.657 654.96 781.151C652.346 773.304 653.011 768.486 658.789 765.09C659.644 764.523 660.61 764.143 661.622 763.975C662.634 763.808 663.67 763.857 664.662 764.12C665.654 764.382 666.58 764.851 667.377 765.497C668.175 766.143 668.827 766.95 669.291 767.866Z" fill="#BBD9F9"/>
<path d="M624.441 715.896C627.015 715.755 629.594 715.755 632.168 715.896C633.954 715.937 635.731 716.176 637.465 716.608C638.474 716.906 638.749 718.168 637.327 718.351C635.034 718.627 634.598 718.351 633.75 719.086C632.902 719.82 635.355 720.485 637.763 721.38C640.17 722.275 643.197 722.665 644.068 723.262C644.94 723.858 643.22 727.07 638.474 727.093C634.808 727.206 631.184 726.283 628.018 724.432C625.822 723.06 623.522 721.863 621.139 720.852L624.441 715.896Z" fill="#FFC9B6"/>
<path d="M567.76 827.27C567.147 829.516 566.808 831.827 566.751 834.154C566.701 834.88 566.809 835.609 567.066 836.29C567.323 836.971 567.724 837.588 568.241 838.1C568.435 838.339 568.697 838.513 568.991 838.599C569.286 838.685 569.6 838.679 569.892 838.582C569.892 838.582 570.236 843.745 572.689 845.833C573.966 846.741 575.43 847.351 576.974 847.617C578.518 847.883 580.102 847.799 581.609 847.37C583.65 846.613 582.297 842.919 580.302 839.293C578.096 835.941 576.353 832.306 575.12 828.486C570.328 827.752 567.76 827.27 567.76 827.27Z" fill="#191919"/>
<path d="M604.309 793.587C605.639 785.694 607.221 786.222 607.175 778.88C607.175 775.277 605.868 767.04 603.254 749.923C601.901 741.044 599.792 739.552 596.994 733.862C596.696 733.288 587.823 737.9 583.604 740.08C581.274 745.448 580.48 751.358 581.311 757.151C581.907 759.996 591.216 779.201 594.403 782.757C586.355 790.719 588.396 797.993 590.689 817.565C592.729 820.318 596.444 820.043 600.136 817.886C600.181 813.894 603.415 798.888 604.309 793.587Z" fill="#1B1F44"/>
<path d="M588.556 756.899C593.578 750.749 592.546 746.069 590.139 738.749C583.099 737.406 575.986 736.487 568.837 735.996C560.904 749.901 565.398 772.708 571.13 786.314C568.424 792.899 566.315 793.473 564.251 802.192C562.509 809.695 567.53 818.116 567.966 827.431C570.832 829.381 574.845 830.276 576.335 826.743C581.265 814.995 585.025 803.178 581.678 790.605C585.093 779.628 587.398 768.336 588.556 756.899Z" fill="#1B1F44"/>
<path d="M627.949 715.782C624.67 711.904 615.246 707.085 612.632 706.328C612.632 706.328 609.605 701.303 608.298 698.366C607.312 696.072 606.258 690.152 604.194 686.458C603.317 684.797 602.086 683.348 600.589 682.214C599.091 681.08 597.363 680.289 595.527 679.896C595.053 679.688 594.527 679.634 594.021 679.741C593.515 679.848 593.056 680.111 592.706 680.492C591.907 681.947 591.609 683.624 591.858 685.265C591.858 687.697 591.858 690.152 591.858 692.584C591.858 695.544 596.444 702.565 597.292 703.804C598.141 705.043 600.548 710.871 601.282 712.523C601.811 713.516 602.531 714.395 603.4 715.108C604.27 715.82 605.272 716.354 606.349 716.676C607.702 717.227 619.213 723.193 625.266 724.156C625.518 723.055 627.376 718.558 627.949 715.782Z" fill="#1B1F44"/>
<path d="M592.684 683.751C587.616 681.617 581.563 684.37 581.792 684.118C582.022 683.865 574.753 688.11 574.638 688.133C569.617 690.06 564.343 691.368 561.316 698.252C559.849 701.625 565.146 708.806 567.347 718.558C568.333 722.94 568.447 729.204 566.819 732.118C565.696 734.252 563.174 737.258 570.534 739.552C572.666 740.218 582.572 744.141 588.35 742.971C591.01 742.535 603.873 735.422 599.861 732.669C599.272 732.338 598.828 731.8 598.616 731.159C598.404 730.518 598.439 729.821 598.714 729.204C599.779 727.656 600.236 725.769 599.998 723.904C598.829 718.535 599.769 716.401 600.571 712.202C604.286 708.302 601.007 702.428 598.737 696.141C597.27 691.919 597.889 685.93 592.684 683.751Z" fill="#BBD9F9"/>
<path d="M591.468 682.626C591.468 682.626 591.468 682.466 591.468 682.397C588.014 682.488 584.632 681.395 581.884 679.299C580.891 682.15 579.6 684.888 578.032 687.468C579.155 687.468 581.402 690.634 583.26 693.915C584.039 695.315 587.456 698.917 589.588 698.068C592.89 696.783 591.239 694.145 591.331 690.427C591.422 687.858 591.468 685.242 591.468 682.626Z" fill="#FFB9A4"/>
<path d="M593.876 709.564C593.378 706.989 592.704 704.451 591.858 701.969C592.086 700.658 592.423 699.368 592.867 698.114L589.611 696.829L587.708 699.124C588.195 700.368 588.983 701.471 590.001 702.336C590.001 705.663 589.818 711.743 589.749 717.25C589.634 726.061 589.749 732.394 589.749 732.394C590.914 734.034 592.321 735.489 593.922 736.707C594.879 734.835 595.559 732.833 595.94 730.765C595.94 730.765 594.816 714.611 593.876 709.564Z" fill="white"/>
<path d="M575.487 687.536C578.19 688.68 580.771 690.095 583.191 691.758C586.24 694.282 587.777 694.971 589.198 696.347C589.336 695.98 589.749 689.12 589.749 689.12C589.749 689.12 592.294 689.441 592.271 689.487C593.296 690.664 593.999 692.087 594.312 693.617C594.598 695.638 594.442 697.697 593.853 699.651L589.634 697.081L586.745 702.244C583.875 699.797 581.135 697.2 578.536 694.466C576.924 692.467 575.872 690.076 575.487 687.536Z" fill="white"/>
<path d="M591.835 683.728C593.409 683.732 594.945 684.216 596.239 685.113C597.533 686.01 598.524 687.279 599.081 688.753C601.849 695.284 603.269 702.308 603.254 709.403C603.254 715.437 601.993 723.33 603.002 727.644C603.873 731.338 608.78 744.967 608.78 744.967C608.78 744.967 608.413 750.566 606.487 752.769C605.941 753.558 605.215 754.206 604.371 754.661C603.526 755.115 602.585 755.363 601.626 755.384C601.626 755.384 598.599 738.497 598.278 735.835C597.957 733.174 596.971 719.109 597.247 714.933C596.951 707.765 595.968 700.642 594.312 693.663C593.372 690.565 587.685 684.255 587.685 684.255L591.835 683.728Z" fill="#1B1F44"/>
<path d="M590.872 688.133C592.087 689.794 593.096 691.597 593.876 693.502C595.206 696.737 595.642 703.827 596.031 707.957C596.308 710.746 596.729 713.518 597.293 716.263C598.149 713.804 598.771 711.269 599.15 708.692C599.448 705.64 599.838 703.277 599.838 703.277L597.705 701.602L599.677 696.829C599.677 696.829 594.449 685.357 592.248 684.783C590.047 684.209 590.872 688.133 590.872 688.133Z" fill="#1B1F44"/>
<path d="M577.802 686.137C581.892 691.963 584.641 698.624 585.851 705.64C587.685 716.952 586.516 728.585 585.851 736.707C585.002 746.918 584.246 761.419 584.246 761.419C584.246 761.419 574.111 763.094 568.424 761.878C566.583 761.407 564.879 760.507 563.453 759.25C562.026 757.994 560.917 756.418 560.216 754.65C560.588 745.292 562.358 736.042 565.466 727.208C567.163 722.275 566.085 711.537 564.068 705.365C563.623 702.854 563.716 700.277 564.34 697.805C564.965 695.333 566.107 693.022 567.691 691.024C569.708 688.73 574.845 687.743 577.802 686.137Z" fill="#1B1F44"/>
<path d="M579.706 684.485C578.714 684.553 577.753 684.854 576.9 685.365C576.048 685.875 575.328 686.58 574.799 687.422C576.091 689.503 577.036 691.782 577.596 694.168C578.006 696.607 578.152 699.084 578.032 701.556L582.045 703.345L579.752 707.476L586.63 716.47C587.209 709.587 586.643 702.655 584.957 695.957C583.86 691.866 582.085 687.988 579.706 684.485Z" fill="#1B1F44"/>
<path d="M597.568 669.892C595.963 668.229 593.853 667.145 591.567 666.808C589.281 666.472 586.949 666.903 584.934 668.033C584.032 668.277 583.194 668.715 582.48 669.318C579.981 671.613 580.187 675.513 581.013 678.496C582.136 682.925 588.419 693.066 594.22 689.28C597.316 687.261 599.31 682.236 599.815 678.726C600.077 677.178 600.013 675.592 599.626 674.071C599.239 672.549 598.538 671.126 597.568 669.892Z" fill="#FFC9B6"/>
<path d="M601.58 663.376C599.654 660.76 594.702 657.639 591.446 659.452C590.916 659.76 590.48 660.207 590.185 660.745C589.89 661.283 589.747 661.891 589.772 662.504C586.63 661.93 580.944 663.972 579.545 666.68C578.599 669.09 578.231 671.688 578.47 674.266C578.709 676.844 579.548 679.33 580.921 681.525C583.946 678.897 586.185 675.482 587.387 671.659C589.277 672.575 591.354 673.041 593.454 673.021C595.554 673.001 597.621 672.496 599.494 671.544C600.217 671.195 600.856 670.693 601.364 670.071C601.873 669.45 602.239 668.724 602.438 667.946C602.637 667.168 602.663 666.355 602.515 665.566C602.367 664.776 602.048 664.029 601.58 663.376Z" fill="#301333"/>
<path d="M586.355 676.271C586.355 676.271 584.59 673.334 582.962 675.49C582.619 675.847 582.371 676.285 582.241 676.762C582.111 677.24 582.102 677.742 582.216 678.224C582.33 678.705 582.563 679.151 582.894 679.519C583.224 679.887 583.642 680.167 584.108 680.332L586.355 676.271Z" fill="#FFC9B6"/>
<path d="M568.768 690.06C563.999 690.818 561.087 691.69 557.716 699.376C554.552 706.604 556.96 709.701 555.423 714.565C553.887 719.43 554.529 720.623 554.002 724.546C553.474 728.47 554.621 729.135 556.088 730.214C557.556 731.292 555.63 732.371 565.077 736.707C568.191 738.339 571.713 739.025 575.211 738.68L578.445 730.971C578.445 730.971 579.66 730.971 575.395 727.07C573.095 724.667 570.199 722.918 567.003 722C568.174 718.249 569.567 714.571 571.176 710.986C573.652 705.755 572.139 691.529 568.768 690.06Z" fill="#1B1F44"/>
<path d="M578.536 730.948C578.536 730.948 576.106 730.191 574.776 733.357C574.364 734.203 574.195 735.146 574.288 736.082C574.381 737.018 574.733 737.91 575.303 738.657C576.935 738.672 578.527 739.158 579.889 740.057C582.87 742.237 586.424 746.413 589.061 747.698C592.867 749.533 593.876 747.101 594.197 744.853C594.518 742.604 592.615 740.837 590.918 739.506C589.221 738.176 587.96 736.891 588.625 736.501C589.29 736.111 591.193 737.166 592.661 736.501C594.128 735.835 593.532 734.711 591.033 734.527C589.749 734.527 589.176 733.564 586.745 733.243C584.865 732.99 584.292 733.954 583.695 733.633C581.925 732.839 580.202 731.943 578.536 730.948Z" fill="#FFC9B6"/>
<path d="M591.4 815.913C591.26 817.198 591.022 818.472 590.689 819.722C590.392 821.242 590.439 822.81 590.826 824.311C591.043 824.743 591.368 825.112 591.77 825.382C592.172 825.651 592.637 825.812 593.119 825.848C594.116 826.073 595.15 826.073 596.146 825.848C597.246 827.156 598.493 828.334 599.861 829.358C602.347 830.865 605.167 831.732 608.069 831.882C610.156 831.561 611.279 829.932 611.119 828.877C610.092 826.756 608.506 824.955 606.533 823.668C604.68 822.286 602.947 820.751 601.351 819.079C600.402 818.037 599.543 816.917 598.783 815.729L591.4 815.913Z" fill="#191919"/>
<path d="M901.198 882.522L931.006 899.776L903.262 915.792L883.153 897.39L901.198 882.522Z" fill="#CDCDCD"/>
<path d="M870.427 903.768V901.153C870.427 900.579 871.023 844.135 878.108 804.188C881.089 786.705 887.697 770.041 897.507 755.27L927.315 772.501C918.536 790.824 912.074 810.17 908.077 830.093C906.059 840.188 904.019 864.12 902.528 884.885L902.666 885.114H902.505C901.129 904.411 900.212 920.908 900.212 920.908L870.427 903.768Z" fill="#CDCDCD"/>
<path d="M905.119 819.859C898.011 859.806 897.438 916.227 897.438 916.824V919.394L872.72 905.053V902.461C872.72 901.887 873.316 845.443 880.401 805.496C883.381 788.013 889.989 771.348 899.8 756.577L924.563 770.941C914.737 785.708 908.113 802.372 905.119 819.859Z" fill="#C8CEDA"/>
<path d="M931.006 899.776V903.195L900.235 921V918.384C900.235 917.811 900.831 861.366 907.916 821.42C910.897 803.937 917.505 787.272 927.315 772.501L929.608 774.268C920.128 788.704 913.706 804.931 910.737 821.947C904.546 856.732 903.331 904.227 903.124 915.792L930.869 899.73L931.006 899.776Z" fill="#AAAAAA"/>
<path d="M902.528 827.454L879.989 814.421C880.424 811.507 880.883 808.662 881.364 805.886C884.007 791.021 889.155 776.714 896.589 763.576L911.448 772.203L919.129 776.631C911.682 789.782 906.525 804.105 903.881 818.987C903.491 821.741 903.033 824.563 902.528 827.454Z" fill="#0B3F8D"/>
<path d="M887.968 782.253L910.508 795.285C907.607 802.969 905.419 810.903 903.973 818.987C903.491 821.741 903.033 824.563 902.597 827.454L880.057 814.421C880.493 811.507 880.952 808.662 881.433 805.886C882.884 797.825 885.071 789.914 887.968 782.253Z" fill="white"/>
<path d="M897.942 768.555C903.542 771.155 908.911 774.225 913.993 777.733C914.497 778.077 913.993 778.398 913.649 778.191C908.398 775.507 902.826 772.157 897.736 769.174C897.209 768.853 897.254 768.279 897.942 768.555Z" fill="#C8CEDA"/>
<path d="M887.464 795.928C893.063 798.528 898.433 801.598 903.514 805.106C904.019 805.45 903.514 805.771 903.17 805.565C897.919 802.88 892.348 799.53 887.257 796.547C886.753 796.249 886.799 795.652 887.464 795.928Z" fill="#C8CEDA"/>
<path d="M882.947 811.714C888.546 814.314 893.916 817.384 898.997 820.892C899.502 821.236 898.997 821.557 898.653 821.351C893.402 818.666 887.831 815.316 882.74 812.333C882.259 812.035 882.305 811.438 882.947 811.714Z" fill="#C8CEDA"/>
<path d="M893.976 773.763C897.707 775.231 901.23 777.183 904.454 779.568C904.959 779.912 904.454 780.234 904.11 780.027C898.86 777.342 898.814 777.342 893.723 774.337C893.357 774.084 893.357 773.511 893.976 773.763Z" fill="#C8CEDA"/>
<path d="M892.989 775.851C896.721 777.319 900.244 779.271 903.468 781.656C903.973 782 903.468 782.322 903.124 782.115C897.873 779.43 897.828 779.43 892.737 776.425C892.279 776.264 892.325 775.576 892.989 775.851Z" fill="#C8CEDA"/>
<path d="M892.026 778.008C895.766 779.474 899.297 781.426 902.528 783.813C903.032 784.157 902.528 784.478 902.184 784.272C896.933 781.587 896.887 781.587 891.797 778.581C891.316 778.329 891.361 777.733 892.026 778.008Z" fill="#C8CEDA"/>
<path d="M891.339 780.165C895.07 781.633 898.593 783.585 901.817 785.97C902.322 786.314 901.817 786.635 901.473 786.429C896.222 783.744 896.177 783.744 891.086 780.738C890.651 780.486 890.674 779.912 891.339 780.165Z" fill="#C8CEDA"/>
<path d="M888.77 791.247C889.137 790.169 889.344 789.87 890.811 790.031C892.279 790.192 893.998 791.431 895.099 791.545C895.931 791.311 896.807 791.281 897.653 791.456C898.499 791.632 899.29 792.009 899.96 792.555C901.602 793.595 902.827 795.178 903.422 797.029C903.904 798.475 904.775 798.865 903.789 800.333C903.663 800.496 903.486 800.612 903.287 800.662C903.087 800.711 902.876 800.693 902.689 800.609L900.831 799.461C899.914 800.723 897.713 799.461 898.401 797.855C897.163 797.121 894.961 795.928 893.815 795.194C892.806 796.8 890.811 795.446 891.522 793.679C891.063 793.45 888.404 792.325 888.77 791.247Z" fill="#0B3F8D"/>
<path d="M901.45 794.62C901.177 794.17 900.8 793.792 900.35 793.519C899.522 792.941 898.619 792.478 897.667 792.142C896.91 791.912 895.764 792.761 895.764 792.761L901.038 795.767C901.038 795.767 901.336 794.964 901.45 794.62Z" fill="white"/>
<path d="M886.684 802.008C888.037 801.297 890.215 802.697 891.453 803.362L891.728 803.5C893.127 804.188 898.607 807.561 900.144 808.41C901.084 808.961 901.084 809.97 900.763 811.094C900.442 812.219 900.212 812.999 899.777 814.215C899.112 816.096 897.805 815.982 896.108 815.087C894.411 814.192 888.564 810.498 886.73 809.511C884.895 808.525 884.552 808.226 884.552 806.643C884.565 805.765 884.761 804.898 885.129 804.1C885.496 803.302 886.026 802.59 886.684 802.008Z" fill="#0B3F8D"/>
<path d="M896.842 807.928L895.145 812.517C895.145 812.517 896.269 812.517 896.842 810.681C897.415 808.846 896.842 807.928 896.842 807.928Z" fill="white"/>
<path d="M892.393 805.473L890.467 810.199C890.467 810.199 888.885 809.488 888.793 808.892C888.702 808.295 889.917 805.197 890.582 805.106C891.204 805.104 891.821 805.229 892.393 805.473Z" fill="white"/>
<path d="M891.568 803.798C891.568 803.798 892.027 803.018 890.788 802.49C889.55 801.962 889.436 802.49 889.436 802.49L891.568 803.798Z" fill="#0B3F8D"/>
<path d="M898.149 807.263C898.149 807.263 898.607 806.482 897.369 805.955C896.131 805.427 896.016 805.955 896.016 805.955L898.149 807.263Z" fill="#0B3F8D"/>
<path d="M896.635 814.949C896.635 814.949 896.131 815.592 895.122 815.087C894.113 814.582 894.296 813.71 894.296 813.71L896.635 814.949Z" fill="#0B3F8D"/>
<path d="M889.94 811.14C889.94 811.14 889.39 811.737 888.404 811.14C887.418 810.544 887.693 809.695 887.693 809.695L889.94 811.14Z" fill="#0B3F8D"/>
</g>
<defs>
<filter id="filter0_ddddii" x="0.795166" y="0" width="2015.47" height="1338.21" filterUnits="userSpaceOnUse" color-interpolation-filters="sRGB">
<feFlood flood-opacity="0" result="BackgroundImageFix"/>
<feColorMatrix in="SourceAlpha" type="matrix" values="0 0 0 0 0 0 0 0 0 0 0 0 0 0 0 0 0 0 127 0"/>
<feOffset dx="100" dy="100"/>
<feGaussianBlur stdDeviation="125"/>
<feColorMatrix type="matrix" values="0 0 0 0 0.901961 0 0 0 0 0.901961 0 0 0 0 0.905882 0 0 0 0.9 0"/>
<feBlend mode="normal" in2="BackgroundImageFix" result="effect1_dropShadow"/>
<feColorMatrix in="SourceAlpha" type="matrix" values="0 0 0 0 0 0 0 0 0 0 0 0 0 0 0 0 0 0 127 0"/>
<feOffset dx="-100" dy="-100"/>
<feGaussianBlur stdDeviation="100"/>
<feColorMatrix type="matrix" values="0 0 0 0 0.908333 0 0 0 0 0.908333 0 0 0 0 0.908333 0 0 0 0.4 0"/>
<feBlend mode="normal" in2="effect1_dropShadow" result="effect2_dropShadow"/>
<feColorMatrix in="SourceAlpha" type="matrix" values="0 0 0 0 0 0 0 0 0 0 0 0 0 0 0 0 0 0 127 0"/>
<feOffset dx="100" dy="-100"/>
<feGaussianBlur stdDeviation="100"/>
<feColorMatrix type="matrix" values="0 0 0 0 0.901961 0 0 0 0 0.901961 0 0 0 0 0.905882 0 0 0 0.2 0"/>
<feBlend mode="normal" in2="effect2_dropShadow" result="effect3_dropShadow"/>
<feColorMatrix in="SourceAlpha" type="matrix" values="0 0 0 0 0 0 0 0 0 0 0 0 0 0 0 0 0 0 127 0"/>
<feOffset dx="-100" dy="100"/>
<feGaussianBlur stdDeviation="100"/>
<feColorMatrix type="matrix" values="0 0 0 0 0.278611 0 0 0 0 0.278611 0 0 0 0 0.283333 0 0 0 0.2 0"/>
<feBlend mode="normal" in2="effect3_dropShadow" result="effect4_dropShadow"/>
<feBlend mode="normal" in="SourceGraphic" in2="effect4_dropShadow" result="shape"/>
<feColorMatrix in="SourceAlpha" type="matrix" values="0 0 0 0 0 0 0 0 0 0 0 0 0 0 0 0 0 0 127 0" result="hardAlpha"/>
<feOffset dx="-4" dy="-4"/>
<feGaussianBlur stdDeviation="2.5"/>
<feComposite in2="hardAlpha" operator="arithmetic" k2="-1" k3="1"/>
<feColorMatrix type="matrix" values="0 0 0 0 0.901961 0 0 0 0 0.901961 0 0 0 0 0.905882 0 0 0 0.5 0"/>
<feBlend mode="normal" in2="shape" result="effect5_innerShadow"/>
<feColorMatrix in="SourceAlpha" type="matrix" values="0 0 0 0 0 0 0 0 0 0 0 0 0 0 0 0 0 0 127 0" result="hardAlpha"/>
<feOffset dx="4" dy="4"/>
<feGaussianBlur stdDeviation="2.5"/>
<feComposite in2="hardAlpha" operator="arithmetic" k2="-1" k3="1"/>
<feColorMatrix type="matrix" values="0 0 0 0 1 0 0 0 0 1 0 0 0 0 1 0 0 0 0.3 0"/>
<feBlend mode="normal" in2="effect5_innerShadow" result="effect6_innerShadow"/>
</filter>
<radialGradient id="paint0_radial" cx="0" cy="0" r="1" gradientUnits="userSpaceOnUse" gradientTransform="translate(269.88 701.974) rotate(-6.56579) scale(1405.6 606.925)">
<stop stop-color="#EAEBED"/>
<stop offset="0.375" stop-color="white"/>
<stop offset="0.859375" stop-color="#E8F3FF" stop-opacity="0.81"/>
</radialGradient>
<clipPath id="clip0">
<rect width="234" height="210" fill="white" transform="translate(925 384)"/>
</clipPath>
<clipPath id="clip1">
<rect width="459" height="326" fill="white" transform="translate(554.002 595)"/>
</clipPath>
</defs>
</svg>
