<svg width="1368" height="1475" viewBox="0 0 1368 1475" fill="none" xmlns="http://www.w3.org/2000/svg">
<g filter="url(#filter0_ddddii)">
<path d="M993.626 527.394C1025.31 544.266 1025.31 571.622 993.627 588.494L-12.208 1124.07L-568 828.129L370.752 328.269C439.487 291.67 550.929 291.67 619.664 328.269L993.626 527.394Z" fill="url(#paint0_radial)"/>
</g>
<g style="mix-blend-mode:multiply" clip-path="url(#clip0)">
<path d="M736.974 579.25C736.974 578.991 736.974 522.031 736.974 522.031L718.666 524.622C701.601 498.267 672.832 472.12 633.212 449.212C520.025 383.7 361.495 369.551 278.89 417.389C270.602 422.068 262.886 427.694 255.895 434.155L230 433.793C230 433.793 230 492.722 230 495.78C232.59 537.58 268.377 584.174 333.736 621.931C446.897 687.261 605.479 701.488 688.11 653.728C721.282 634.551 737.155 608.3 736.974 579.535V579.25Z" fill="#E0E0E0" fill-opacity="0.65"/>
<path d="M736.948 548.464C736.948 576.97 721.023 602.884 688.11 621.957C605.479 669.691 446.897 655.464 333.891 590.16C268.506 552.403 232.719 505.809 230.155 464.035C230.155 462.817 230.155 452.606 230.155 440.712C230.155 457.297 230.155 476.474 230.155 478.184C232.745 519.984 268.532 566.578 333.891 604.335C446.897 669.639 605.505 683.866 688.11 636.132C721.282 616.955 737.155 590.704 736.974 561.939V561.628C736.974 561.628 736.974 556.083 736.948 548.464Z" fill="#0B3F8D"/>
<path d="M278.89 362.969C196.336 410.677 220.885 502.31 333.891 567.692C446.897 633.074 605.479 647.12 688.11 599.385C770.741 551.651 746.115 460.018 633.109 394.662C520.102 329.306 361.495 315.183 278.89 362.969Z" fill="#E6E6E6"/>
<path d="M560.37 619.003C487.863 619.003 405.18 598.919 338.785 561.188C275.187 525.063 237.302 478.21 237.432 435.84C237.536 407.749 253.849 383.7 284.665 366.545C364.059 322.128 517.436 336.484 626.765 398.549C690.363 434.674 728.248 481.475 728.118 523.897C728.118 551.988 711.701 575.959 680.911 593.192C650.122 610.425 607.188 619.003 560.37 619.003ZM405.206 343.274C358.854 343.274 316.749 351.566 285.933 368.799C255.895 385.566 240.125 408.733 240.021 435.84C239.892 477.303 277.285 523.275 340.054 558.933C448.632 620.609 600.947 635.069 679.642 591.015C709.577 574.274 725.451 551.081 725.529 523.975C725.658 482.512 688.266 436.54 625.47 400.881C559.437 363.28 477.195 343.274 405.206 343.274Z" fill="white"/>
<path d="M490.686 552.48L501.044 546.546L532.714 523.638C532.714 523.638 527.975 512.235 511.661 513.764C495.347 515.293 487.138 531.023 486.362 536.595C485.585 542.166 490.686 552.48 490.686 552.48Z" fill="#0B3F8D"/>
<path d="M293.831 437.732L304.189 431.486L335.859 408.708C335.859 408.708 331.12 397.305 314.806 398.834C298.492 400.363 290.413 415.964 289.558 421.561C288.704 427.159 293.831 437.732 293.831 437.732Z" fill="#0B3F8D"/>
<path d="M581.448 371.754C576.269 373.153 565.911 381.912 562.778 384.711C565.833 389.557 570.987 397.305 572.514 397.305C574.741 397.305 582.717 388.468 585.824 380.72C586.51 379.389 586.855 377.909 586.828 376.412C586.801 374.914 586.402 373.447 585.669 372.142C584.353 371.515 582.857 371.377 581.448 371.754Z" fill="#004F83"/>
<path d="M574.767 369.447C569.044 372.376 557.909 380.202 557.909 380.202C559.77 381.394 561.416 382.892 562.778 384.633C565.911 381.886 576.217 373.153 581.448 371.676C582.842 371.29 584.328 371.409 585.643 372.013C584.311 370.523 582.553 369.478 580.608 369.019C578.663 368.56 576.624 368.71 574.767 369.447Z" fill="#0B3F8D"/>
<path d="M558.013 572.02C558.013 553.543 546.775 532.06 532.921 524.052C529.586 522.154 525.829 521.12 521.993 521.046C516.319 521.026 510.75 522.587 505.912 525.555C498.144 530.427 496.953 541.519 496.953 541.519L525.204 599.411C528.126 600.687 531.297 601.29 534.483 601.178C537.669 601.066 540.79 600.241 543.616 598.763C548.229 596.063 552.003 592.133 554.517 587.413C555.314 585.854 556.006 584.244 556.589 582.593C557.613 579.165 558.094 575.597 558.013 572.02Z" fill="#1B2444"/>
<path d="M496.124 549.552C496.124 568.029 507.362 589.512 521.216 597.52C535.07 605.527 546.309 597.027 546.309 578.55C546.309 560.073 535.07 538.59 521.216 530.583C507.362 522.575 496.124 531.101 496.124 549.552Z" fill="#070A4F"/>
<path d="M500.966 552.61C500.966 567.226 509.848 584.2 520.802 590.549C531.756 596.898 540.741 590.16 540.741 575.466C540.741 560.773 531.859 543.851 520.906 537.528C509.952 531.205 500.966 537.994 500.966 552.61Z" fill="#070A4F"/>
<path d="M499.853 551.055C499.853 566.604 509.227 584.407 520.776 591.093C532.325 597.779 541.725 590.678 541.725 575.259C541.725 559.84 532.351 541.778 520.802 535.195C509.253 528.613 499.853 535.61 499.853 551.055Z" fill="white"/>
<path d="M524.66 557.326C525.126 555.746 526.913 549.552 528.415 545.198C530.256 547.402 531.878 549.78 533.257 552.299L525.825 559.244C525.477 558.581 525.088 557.941 524.66 557.326Z" fill="#070A4F"/>
<path d="M527.405 563.494C527.25 562.898 527.068 562.328 526.861 561.758C527.379 561.395 531.704 558.259 535.122 556.16C536.31 558.834 537.254 561.61 537.944 564.453L527.586 563.779L527.405 563.494Z" fill="#070A4F"/>
<path d="M527.793 567.252C527.793 566.863 527.793 566.448 527.793 566.034C528.959 566.396 534.552 568.159 538.877 569.739C539.036 571.064 539.123 572.396 539.136 573.73C539.131 574.987 539.044 576.242 538.877 577.488L527.793 568.029C527.793 567.692 527.793 567.537 527.793 567.252Z" fill="#070A4F"/>
<path d="M527.353 570.62C528.7 571.864 534.112 576.918 538.203 580.986C537.707 582.914 536.826 584.721 535.614 586.299L526.732 571.994C527.002 571.567 527.211 571.105 527.353 570.62Z" fill="#070A4F"/>
<path d="M513.81 557.456C512.774 556.912 506.948 553.828 502.494 551.237C502.556 548.919 502.957 546.622 503.685 544.421L514.173 555.849C513.999 556.372 513.877 556.91 513.81 557.456Z" fill="#070A4F"/>
<path d="M515.079 554.243C514.043 552.921 508.968 546.468 505.187 541.285C506.105 539.752 507.397 538.477 508.942 537.58L516.063 553.336C515.685 553.579 515.352 553.886 515.079 554.243Z" fill="#070A4F"/>
<path d="M517.591 552.843C516.788 550.64 513.888 542.659 511.842 536.595C513.693 536.309 515.586 536.478 517.358 537.087L519.041 552.947C518.567 552.831 518.077 552.796 517.591 552.843Z" fill="#070A4F"/>
<path d="M521.242 553.958C521.087 551.884 520.543 544.136 520.284 538.409L520.776 538.668C522.664 539.815 524.403 541.19 525.955 542.763L522.615 555.176C522.193 554.731 521.733 554.324 521.242 553.958Z" fill="#070A4F"/>
<path d="M515.752 566.889C514.976 568.107 511.972 572.72 509.589 575.985C508.023 573.459 506.688 570.796 505.602 568.029L514.846 564.79C515.107 565.507 515.409 566.208 515.752 566.889Z" fill="#070A4F"/>
<path d="M513.784 560.255C513.845 560.935 513.948 561.61 514.095 562.276C513.266 562.458 508.191 563.494 504.229 563.986C503.424 561.281 502.886 558.504 502.624 555.694L513.784 560.255Z" fill="#070A4F"/>
<path d="M524.039 573.419C524.424 573.377 524.801 573.272 525.152 573.108C525.8 574.197 530.331 581.919 533.827 587.879C532.485 588.919 530.88 589.565 529.192 589.745L524.013 573.445L524.039 573.419Z" fill="#070A4F"/>
<path d="M522.614 573.316C523.029 575.207 524.764 583.37 525.903 589.564C524.151 589.19 522.472 588.534 520.931 587.62L520.128 587.102L521.138 572.719C521.604 572.979 522.1 573.179 522.614 573.316Z" fill="#070A4F"/>
<path d="M518.808 571.061C518.627 572.745 517.824 579.794 517.047 584.951C515.018 583.183 513.193 581.193 511.609 579.017L517.436 569.506C517.855 570.057 518.313 570.577 518.808 571.061Z" fill="#070A4F"/>
<path d="M515.416 559.918C515.44 561.947 515.94 563.942 516.875 565.743C517.811 567.543 519.156 569.099 520.802 570.284C523.78 571.994 526.188 570.284 526.188 566.215C526.164 564.186 525.664 562.191 524.729 560.39C523.793 558.59 522.448 557.034 520.802 555.849C517.824 554.217 515.416 556.057 515.416 559.918Z" fill="#070A4F"/>
<path d="M517.073 561.81C517.087 562.901 517.357 563.973 517.86 564.941C518.364 565.909 519.088 566.744 519.973 567.381C521.579 568.314 522.873 567.381 522.873 565.179C522.86 564.087 522.59 563.015 522.086 562.047C521.582 561.08 520.859 560.244 519.973 559.607C518.368 558.674 517.073 559.659 517.073 561.81Z" fill="white"/>
<path d="M361.211 455.846C361.211 437.369 349.972 415.886 336.118 407.878C332.78 405.957 329.014 404.906 325.165 404.82C319.49 404.8 313.922 406.361 309.084 409.329C301.315 414.201 300.124 425.293 300.124 425.293L328.401 483.237C331.324 484.513 334.495 485.116 337.681 485.004C340.867 484.892 343.987 484.067 346.813 482.589C351.427 479.889 355.201 475.959 357.715 471.239C358.511 469.68 359.203 468.07 359.786 466.419C360.811 462.991 361.291 459.423 361.211 455.846Z" fill="#1B2444"/>
<path d="M299.295 433.43C299.295 451.907 310.534 473.39 324.388 481.397C338.242 489.405 349.48 480.905 349.48 462.428C349.48 443.951 338.242 422.572 324.388 414.435C310.534 406.298 299.295 414.927 299.295 433.43Z" fill="#070A4F"/>
<path d="M304.138 436.462C304.138 451.078 313.02 468.051 323.999 474.4C334.979 480.749 343.938 474.012 343.938 459.37C343.938 444.729 334.953 427.755 323.999 421.457C313.046 415.16 304.138 421.846 304.138 436.462Z" fill="#070A4F"/>
<path d="M303.05 434.881C303.05 450.43 312.424 468.233 323.974 474.919C335.523 481.605 344.923 474.504 344.923 459.085C344.923 443.666 335.549 425.733 323.999 419.047C312.45 412.361 303.05 419.462 303.05 434.881Z" fill="white"/>
<path d="M327.857 441.256C328.324 439.675 330.11 433.482 331.612 429.128C333.453 431.332 335.075 433.71 336.455 436.229L329.023 443.303C328.679 442.596 328.29 441.912 327.857 441.256Z" fill="#070A4F"/>
<path d="M330.602 447.346C330.447 446.75 330.266 446.18 330.059 445.61C330.576 445.247 334.901 442.111 338.319 440.012C339.507 442.686 340.452 445.461 341.142 448.305L330.784 447.631L330.602 447.346Z" fill="#070A4F"/>
<path d="M330.991 451.078C330.991 450.689 330.991 450.274 330.991 449.86C332.156 450.222 337.749 451.985 342.074 453.565C342.233 454.89 342.32 456.222 342.333 457.556C342.328 458.813 342.241 460.068 342.074 461.314L330.991 451.881C330.991 451.622 330.991 451.389 330.991 451.078Z" fill="#070A4F"/>
<path d="M330.551 454.447C331.897 455.69 337.309 460.744 341.401 464.812C340.904 466.74 340.023 468.547 338.811 470.125L329.929 455.82C330.199 455.393 330.408 454.931 330.551 454.447Z" fill="#070A4F"/>
<path d="M316.982 441.308C315.946 440.764 310.119 437.68 305.666 435.088C305.727 432.771 306.129 430.474 306.857 428.273L317.344 439.701C317.17 440.223 317.049 440.762 316.982 441.308Z" fill="#070A4F"/>
<path d="M318.25 438.12C317.215 436.799 312.139 430.346 308.358 425.163C309.276 423.629 310.568 422.354 312.113 421.457L319.234 437.213C318.857 437.457 318.524 437.764 318.25 438.12Z" fill="#070A4F"/>
<path d="M320.788 436.695C319.986 434.492 317.085 426.511 315.04 420.447C316.891 420.161 318.784 420.33 320.555 420.939L322.238 436.799C321.764 436.683 321.274 436.648 320.788 436.695Z" fill="#070A4F"/>
<path d="M324.44 437.809C324.284 435.736 323.74 427.988 323.481 422.261L323.973 422.52C325.861 423.667 327.601 425.042 329.152 426.614L325.812 439.027C325.39 438.583 324.931 438.175 324.44 437.809Z" fill="#070A4F"/>
<path d="M318.924 450.741C318.147 451.959 315.143 456.571 312.761 459.837C311.194 457.311 309.86 454.648 308.773 451.881L318.043 448.616C318.294 449.341 318.588 450.051 318.924 450.741Z" fill="#070A4F"/>
<path d="M316.956 444.107C317.016 444.786 317.12 445.462 317.266 446.128C316.438 446.309 311.362 447.346 307.4 447.838C306.595 445.133 306.058 442.356 305.795 439.546L316.956 444.107Z" fill="#070A4F"/>
<path d="M327.236 457.271C327.622 457.229 327.998 457.124 328.349 456.96C328.997 458.049 333.528 465.771 337.024 471.731C335.682 472.771 334.077 473.417 332.389 473.597L327.21 457.297L327.236 457.271Z" fill="#070A4F"/>
<path d="M325.682 457.167C326.097 459.059 327.832 467.222 328.971 473.416C327.219 473.042 325.54 472.386 323.999 471.472L323.196 470.954L324.206 456.571C324.672 456.831 325.167 457.031 325.682 457.167Z" fill="#070A4F"/>
<path d="M322.005 454.913C321.824 456.597 321.021 463.646 320.244 468.803C318.215 467.035 316.39 465.045 314.806 462.869L320.633 453.358C321.052 453.909 321.51 454.429 322.005 454.913Z" fill="#070A4F"/>
<path d="M318.587 443.873C318.611 445.903 319.111 447.898 320.047 449.698C320.982 451.499 322.327 453.054 323.974 454.239C326.952 455.95 329.36 454.239 329.36 450.171C329.336 448.141 328.836 446.146 327.9 444.346C326.965 442.545 325.62 440.99 323.974 439.805C321.022 438.12 318.587 439.883 318.587 443.873Z" fill="#070A4F"/>
<path d="M320.271 445.661C320.294 446.753 320.574 447.823 321.087 448.786C321.599 449.749 322.331 450.579 323.223 451.207C324.828 452.14 326.123 451.207 326.123 449.004C326.105 447.918 325.833 446.85 325.33 445.888C324.826 444.925 324.104 444.093 323.223 443.459C321.565 442.526 320.271 443.511 320.271 445.661Z" fill="white"/>
<path d="M611.642 556.523C606.826 558.104 598.979 556.083 594.758 552.817C589.579 548.852 586.446 541.881 582.665 536.724C577.738 530.061 572.466 523.66 566.869 517.548C545.48 494.225 520.077 477.096 491.618 463.568C490.298 463.698 489.339 461.78 490.738 460.977C508.933 451.959 526.689 442.12 544.004 431.46C560.163 421.483 575.415 410.314 591.055 399.612L590.667 399.249C579.921 388.883 566.636 368.152 553.3 349.882C546.527 340.145 537.85 331.884 527.794 325.6C512.172 316.177 496.002 307.697 479.37 300.204C468.805 295.747 462.046 293 458.084 293C450.963 293 424.032 296.473 418.801 296.524C415.639 296.462 412.518 297.25 409.764 298.805L293.081 366.182L302.688 383.312C302.688 383.312 393.32 450.689 420.795 476.603C448.27 502.518 516.607 507.934 539.913 528.095C563.218 548.256 581.552 598.323 581.552 598.323L696.656 532.008C698.614 530.854 700.065 529.003 700.721 526.825C702.37 520.248 702.635 513.4 701.498 506.716C692.694 512.598 683.061 518.196 674.205 523.664C654.887 535.74 623.295 552.688 611.642 556.523Z" fill="#004F83"/>
<path d="M641.732 430.035C619.54 416.56 599.549 407.904 590.952 399.767C575.415 410.47 560.059 421.613 543.9 431.616C526.637 442.293 508.882 452.131 490.634 461.132C489.236 461.832 490.168 463.724 491.515 463.724C519.999 477.225 545.402 494.329 566.766 517.703C572.362 523.815 577.634 530.216 582.562 536.88C586.368 542.063 589.553 548.982 594.655 552.973C598.876 556.238 606.722 558.156 611.538 556.678C623.191 552.843 654.783 535.947 674.204 523.923C683.061 518.455 692.693 512.857 701.498 506.975C700.445 500.549 698.592 494.281 695.982 488.316C686.22 465.097 670.035 447.164 641.732 430.035Z" fill="#0B3F8D"/>
<path d="M580.283 554.942C570.443 531.878 554.259 513.946 526.085 496.816C503.556 483.133 483.28 474.4 474.89 466.211C464.118 455.664 450.704 434.803 437.498 416.663C430.709 406.921 422.014 398.66 411.939 392.381C396.318 382.958 380.148 374.478 363.515 366.985C353.002 362.554 346.243 359.755 342.281 359.781C335.16 359.781 308.229 363.254 303.024 363.306C293.417 363.306 289.3 368.488 284.898 376.263C281.7 382.826 279.434 389.804 278.165 396.994C276.707 403.921 275.995 410.984 276.042 418.063C278.32 422.39 286.4 430.605 292.537 436.203C292.537 435.788 292.537 435.347 292.537 434.907C292.537 406.971 309.498 394.144 330.447 406.246C351.396 418.348 368.176 451.077 368.176 478.935C368.176 480.102 368.176 481.216 368.047 482.356L489.262 551.677C489.262 550.796 489.262 549.941 489.262 549.086C489.262 521.15 506.223 508.322 527.172 520.424C548.121 532.526 565.083 564.971 565.083 592.984C565.083 593.866 565.083 594.695 565.083 595.576L573.887 600.759C575.726 601.847 583.753 599.411 585.229 593.84C588.129 581.893 586.291 569.04 580.283 554.942Z" fill="#0B3F8D"/>
<path d="M330.266 406.453C309.343 394.351 292.355 407.205 292.355 435.114C292.355 435.529 292.355 435.97 292.355 436.41L293.754 437.732C293.754 437.55 293.754 437.395 293.754 437.213C293.754 411.74 309.291 400.026 328.324 411.066C347.357 422.105 362.945 451.7 362.945 477.173C362.945 477.925 362.945 478.65 362.945 479.376L368.124 482.356C368.124 481.242 368.254 480.128 368.254 478.936C368.176 451.078 351.215 418.555 330.266 406.453Z" fill="#0B3F8D"/>
<path d="M527.069 520.372C506.145 508.27 489.158 521.124 489.158 549.034C489.158 549.889 489.158 550.77 489.158 551.625L490.582 552.429C490.582 551.91 490.582 551.392 490.582 550.9C490.582 525.426 506.119 513.712 525.152 524.752C544.185 535.792 559.722 565.386 559.722 590.86C559.722 591.378 559.722 591.844 559.722 592.337L564.901 595.395C564.901 594.539 564.901 593.71 564.901 592.803C564.979 564.919 547.992 532.474 527.069 520.372Z" fill="#0B3F8D"/>
<path d="M538.902 346.435C529.499 353.544 519.628 360.011 509.356 365.793C484.445 380.176 436.461 404.069 436.461 404.069C436.461 404.069 447.519 419.462 451.351 424.956C456.349 432.082 471.886 454.472 471.886 454.472C491.54 437.291 556.848 399.249 569.743 392.537C560.252 376.656 549.959 361.268 538.902 346.435Z" fill="#BBD9F9"/>
<path d="M543.512 427.496C577.357 407.904 582.355 400.596 582.355 400.596L543.124 342.937C543.124 342.937 541.803 344.155 538.903 346.435C549.96 361.277 560.253 376.673 569.744 392.563C556.796 399.378 491.515 437.291 471.886 454.498L476.858 460.692C499.761 451.061 522.025 439.973 543.512 427.496Z" fill="#95BFE5"/>
<path opacity="0.5" d="M439.103 407.749C439.103 407.749 491.747 398.264 520.103 385.877C552.912 371.546 559.23 366.623 559.23 366.623L543.149 342.911C530.544 352.27 517.43 360.921 503.866 368.825C490.012 376.937 436.539 403.965 436.539 403.965L439.103 407.749Z" fill="white"/>
<path d="M476.832 460.692C476.832 460.692 456.116 434.777 451.636 428.558C448.089 423.686 440.165 413.009 436.488 407.827C435.856 406.767 435.606 405.523 435.78 404.301C435.955 403.079 436.543 401.955 437.446 401.115C439.105 400.123 440.836 399.257 442.625 398.523C447.804 396.113 492.81 373.049 509.952 362.969C527.095 352.888 539.239 344.492 541.389 343.17C543.538 341.849 545.143 343.17 549.546 348.794C554.725 355.505 583.624 400 583.624 400L582.432 400.83C582.432 400.83 558.868 368.152 555.476 362.736C551.384 356.153 545.765 347.653 543.59 346.435C541.415 345.217 518.497 362.736 497.678 374.267C476.858 385.799 445.163 399.56 441.796 401.84C438.43 404.121 440.113 405.287 444.204 412.025C448.296 418.762 469.064 446.128 471.886 450.456C473.285 452.607 477.065 458.23 477.997 460.251C477.638 460.466 477.244 460.615 476.832 460.692Z" fill="#070A4F"/>
<path d="M427.269 416.223C412.198 407.516 397.593 398.083 381.978 390.308C372.594 385.174 362.869 380.689 352.872 376.885C338.734 372.091 337.335 387.898 336.792 398.497C345 403.214 357.715 410.366 365.276 414.538C381.461 423.557 416.73 443.873 428.124 450.145L440.734 457.116V436.721C435.607 428.714 430.661 421.017 427.269 416.223Z" fill="#95BFE5"/>
<path d="M352.872 376.781C362.869 380.585 372.594 385.07 381.978 390.205C397.515 397.979 412.172 407.49 427.269 416.119L425.845 414.175C416.471 401.711 406.501 396.035 398.473 391.112C391.223 386.758 375.841 379.036 368.591 375.252C356.161 368.774 348.185 365.975 344.197 365.923C338.554 366.659 333.32 369.269 329.334 373.334L329.152 393.885C329.852 394.377 332.778 396.087 336.791 398.394C337.206 387.795 338.759 371.987 352.872 376.781Z" fill="#74A9D1"/>
<path d="M447.079 463.905C447.079 463.905 457.851 466.056 460.026 464.709C460.576 464.314 461.009 463.778 461.28 463.158C461.55 462.537 461.648 461.855 461.563 461.183C461.478 460.512 461.214 459.875 460.797 459.342C460.381 458.808 459.828 458.397 459.198 458.152C456.106 457.707 452.967 457.707 449.875 458.152L447.079 463.905Z" fill="#070A4F"/>
<path d="M361.34 372.946C361.34 372.946 362.557 402.773 361.029 420.421C359.502 438.068 346.865 413.709 346.865 413.709L353.028 369.007L361.34 372.946Z" fill="#0B3F8D"/>
<path d="M356.575 370.899L352.743 419.929L355.513 422.546L358.155 371.261L356.575 370.899Z" fill="#0B3F8D"/>
<path d="M440.605 436.721C433.904 425.378 426.319 414.581 417.921 404.432C413.57 399.43 396.687 388.624 379.829 380.202C362.531 371.546 346.968 364.161 343.369 364.964C338.889 365.975 329.334 372.272 329.334 372.272L329.126 393.807L331.716 395.31L331.949 373.982C333.451 372.92 339.485 368.333 343.395 367.685C347.305 367.037 358.932 372.583 373.278 379.839C388.167 387.406 408.029 399.016 412.716 403.162C421.391 411.299 440.605 440.453 440.605 440.453V436.721Z" fill="#070A4F"/>
<path d="M676.069 518.144C676.236 519.058 676.297 519.989 676.25 520.917C676.017 528.561 675.447 533.874 671.071 536.958C666.695 540.042 648.232 550.926 632.358 559.84C621.352 566.034 615.889 566.008 612.859 564.168C615.086 567.718 619.747 570.957 634.896 562.458C650.769 553.543 669.155 542.737 673.609 539.575C678.063 536.414 678.607 531.179 678.788 523.534C678.917 519.491 677.778 518.144 676.069 518.144Z" fill="#070A4F"/>
<path d="M632.306 559.918C648.18 551.003 666.565 540.197 671.019 537.035C675.473 533.874 676.017 528.639 676.198 520.995C676.245 520.066 676.185 519.136 676.017 518.222C674.007 518.523 672.108 519.335 670.501 520.58C656.57 529.598 618.944 550.511 612.47 553.491C606.566 556.083 611.15 561.421 612.47 563.727L612.781 564.246C615.837 565.982 621.301 566.008 632.306 559.918Z" fill="#1B2444"/>
<path d="M677.26 520.036C667.808 525.711 659.133 531.904 647.921 538.176C636.061 544.913 622.026 551.833 609.674 558.078C609.811 558.624 609.984 559.161 610.192 559.685C623.598 554.298 636.581 547.913 649.034 540.586C659.677 534.159 668.352 529.183 677.519 522.731C677.286 521.85 677.234 521.046 677.26 520.036Z" fill="#070A4F"/>
<path d="M677.26 526.696C668.326 532.164 659.884 538.046 649.242 544.084C637.796 550.563 624.227 557.275 612.289 563.339C612.576 563.902 612.924 564.432 613.325 564.919C626.055 559.624 638.409 553.468 650.303 546.494C660.169 540.534 668.43 535.844 676.69 530.039C676.942 528.936 677.132 527.82 677.26 526.696Z" fill="#070A4F"/>
<path d="M584.504 538.15C574.69 521.098 557.262 506.379 541.958 494.406C525.688 481.792 508.291 470.705 489.987 461.288C489.792 461.191 489.568 461.172 489.36 461.235C489.152 461.298 488.976 461.437 488.867 461.625C488.759 461.813 488.725 462.036 488.775 462.248C488.824 462.459 488.952 462.644 489.132 462.765C505.498 475.152 523.702 484.948 539.912 497.672C547.344 503.502 556.382 509.566 563.063 516.252C570.406 523.202 576.859 531.036 582.277 539.575C582.846 540.612 585.048 539.186 584.504 538.15Z" fill="#0B3F8D"/>
<path d="M684.873 481.941C675.059 464.89 657.632 450.17 642.328 438.198C626.067 425.576 608.678 414.481 590.382 405.054C590.187 404.957 589.963 404.938 589.756 405.001C589.548 405.064 589.371 405.203 589.263 405.391C589.154 405.579 589.121 405.802 589.17 406.013C589.219 406.225 589.347 406.41 589.527 406.531C605.893 418.892 624.097 428.713 640.308 441.437C647.74 447.268 656.777 453.332 663.458 460.018C670.801 466.968 677.255 474.802 682.672 483.341C683.164 484.377 685.417 482.9 684.873 481.941Z" fill="#0B3F8D"/>
<path d="M578.367 541.596L593.023 533.356C597.584 538.806 601.39 544.847 604.339 551.314C607.027 558.384 608.175 565.947 607.706 573.497L592.531 582.645C592.572 574.868 591.23 567.146 588.569 559.84C583.442 545.976 578.367 541.596 578.367 541.596Z" fill="white"/>
<path d="M669.932 489.768L684.589 481.527C688.248 487.24 691.426 493.246 694.092 499.486C696.779 506.556 697.927 514.119 697.458 521.668L682.336 530.816C682.376 523.04 681.035 515.318 678.374 508.011C673.221 494.147 669.932 489.768 669.932 489.768Z" fill="white"/>
<path d="M540.741 473.364C540.741 473.364 570.288 489.405 585.747 501.04C595.598 508.582 604.672 517.09 612.833 526.437C618.221 524.035 623.328 521.046 628.059 517.522C624.512 511.458 610.503 501.04 591.521 490.571C575.259 481.579 540.741 473.364 540.741 473.364Z" fill="#004F83"/>
<path d="M608.768 434.44C618.256 446.834 626.244 460.308 632.565 474.582C637.505 485.244 641.761 496.211 645.306 507.415C651.417 504.383 658.926 499.874 658.926 499.874C651.114 483.6 641.564 468.221 630.442 454.006C624.295 446.379 616.98 439.775 608.768 434.44Z" fill="#004F83"/>
<path opacity="0.5" d="M588.026 413.58C579.118 419.669 561.25 431.72 544.004 442.655C543.676 442.872 543.425 443.187 543.286 443.554C543.148 443.922 543.129 444.324 543.232 444.704C543.336 445.083 543.556 445.42 543.862 445.666C544.168 445.913 544.544 446.056 544.936 446.076C561.825 446.993 578.489 441.857 591.936 431.59C604.184 422.572 588.052 413.58 588.026 413.58Z" fill="white"/>
<path d="M464.376 294.27L384.749 339.879C384.749 339.879 400.908 335.344 421.624 330.939C435.786 328.047 450.301 327.287 464.687 328.684C501.95 331.275 528.7 345.036 542.968 337.676C536.391 329.902 517.073 318.629 500.06 310.129C482.166 301.163 464.376 294.27 464.376 294.27Z" fill="#0B3F8D"/>
<path opacity="0.5" d="M474.035 305.309C474.035 304.325 471.731 302.459 471.446 302.355C466.655 300.463 461.942 302.355 457.825 304.947C453.527 307.232 449.627 310.199 446.276 313.731C444.903 315.416 444.126 317.126 447.778 317.126C451.429 317.126 469.115 311.14 472.352 309.119C474.268 307.927 474.605 306.501 474.035 305.309Z" fill="white"/>
<path opacity="0.5" d="M362.22 441.852C362.22 441.852 376.747 447.372 416.729 468.336C448.399 484.922 461.683 491.659 490.038 516.978C481.156 520.036 479.965 535.947 479.965 535.947C479.965 535.947 401.814 490.726 371.62 473.752C371.094 462.517 367.87 451.575 362.22 441.852Z" fill="#0B3F8D"/>
<path d="M437.601 460.381L433.769 509.385L436.591 510.914L439.155 460.744L437.601 460.381Z" fill="#0B3F8D"/>
<path d="M366.467 421.432C362.816 420.032 360.459 419.592 359.786 421.743C358.854 424.774 363.178 426.925 364.706 427.806C368.228 429.646 372.682 432.989 374.417 429.309C376.152 425.63 369.419 422.572 366.467 421.432Z" fill="#070A4F"/>
<path d="M432.603 461.158C438.698 455.698 445.576 451.182 453.008 447.761C452.714 447.425 452.403 447.105 452.076 446.802C449.176 444.21 446.897 446.517 444.049 447.89C437.316 451.103 427.579 456.623 423.514 464.683C420.148 471.343 420.717 475.904 426.103 476.551C424.757 472.146 427.269 466.263 432.603 461.158Z" fill="#0B3F8D"/>
<path d="M445.136 471.187C455.158 466.445 457.514 459.707 456.375 454.161C455.852 451.754 454.689 449.534 453.009 447.734C445.576 451.156 438.698 455.672 432.603 461.132C427.269 466.315 424.835 472.12 425.974 476.525C429.781 476.992 436.047 475.489 445.136 471.187Z" fill="#004F83"/>
<path d="M364.991 475.333L489.262 545.795L490.686 552.48L362.842 479.376L364.991 475.333Z" fill="#0B3F8D"/>
<path d="M449.72 297.146L346.864 356.335L322.264 358.641L423.514 300.36L449.72 297.146Z" fill="#74A9D1"/>
<path d="M578.211 577.876C577.49 581.433 577.134 585.054 577.15 588.683C577.15 589.719 578.574 589.564 578.936 588.864C580.49 585.988 582.225 579.95 579.428 577.358C578.962 576.918 578.289 577.384 578.211 577.876Z" fill="#0B3F8D"/>
<path d="M570.831 584.251C570.572 583.914 569.899 583.966 569.925 584.485C569.961 587.504 571.179 590.388 573.317 592.518C573.441 592.584 573.579 592.617 573.72 592.615C573.86 592.613 573.997 592.575 574.119 592.505C574.24 592.435 574.342 592.335 574.415 592.215C574.488 592.095 574.529 591.959 574.534 591.818C573.99 589.013 572.712 586.402 570.831 584.251Z" fill="#0B3F8D"/>
<path d="M382.004 462.609C381.203 463.745 380.338 464.835 379.415 465.875C378.56 466.73 377.809 467.119 377.421 468.285C377.39 468.405 377.386 468.531 377.41 468.653C377.434 468.775 377.486 468.89 377.56 468.99C377.635 469.089 377.731 469.171 377.841 469.228C377.952 469.286 378.073 469.317 378.198 469.321C380.787 469.321 382.937 465.667 383.377 463.387C383.403 462.687 382.522 461.936 382.004 462.609Z" fill="#0B3F8D"/>
<path d="M387.08 471.809C386.376 470.129 385.804 468.396 385.371 466.626C385.321 466.428 385.199 466.255 385.029 466.141C384.859 466.027 384.653 465.98 384.45 466.009C384.248 466.038 384.063 466.141 383.932 466.298C383.801 466.455 383.732 466.655 383.739 466.859C383.558 469.658 384.024 474.971 387.132 476.033C387.32 476.081 387.52 476.054 387.69 475.957C387.859 475.861 387.984 475.702 388.038 475.515C388.131 474.208 387.794 472.907 387.08 471.809Z" fill="#0B3F8D"/>
<path d="M487.76 526.462C485.815 526.603 483.921 527.141 482.192 528.043C480.276 528.691 478.334 529.157 476.495 529.987C476.389 530.049 476.303 530.141 476.249 530.252C476.194 530.362 476.174 530.487 476.191 530.609C476.208 530.731 476.26 530.846 476.342 530.938C476.424 531.03 476.531 531.096 476.651 531.127C479.991 531.775 486.724 530.375 487.967 526.67C487.971 526.641 487.969 526.613 487.96 526.585C487.951 526.558 487.936 526.534 487.916 526.513C487.896 526.493 487.871 526.478 487.844 526.469C487.817 526.46 487.788 526.458 487.76 526.462Z" fill="#0B3F8D"/>
<path d="M418.18 491.53C417.155 489.489 415.987 487.523 414.684 485.647C414.599 485.527 414.475 485.439 414.333 485.398C414.191 485.357 414.039 485.367 413.903 485.424C413.767 485.482 413.655 485.584 413.585 485.714C413.515 485.844 413.492 485.994 413.519 486.14C413.97 488.373 414.576 490.572 415.331 492.722C415.875 494.147 416.186 495.313 417.791 495.78C417.958 495.821 418.133 495.808 418.291 495.743C418.45 495.678 418.583 495.564 418.672 495.417C419.475 493.94 418.853 492.955 418.18 491.53Z" fill="#0B3F8D"/>
<path d="M446.068 512.391C445.369 510.94 444.463 509.618 443.867 508.115C443.272 506.612 443.09 505.342 442.573 504.02C442.573 503.709 441.951 503.528 441.744 504.02C441.11 505.739 441.079 507.623 441.658 509.361C442.237 511.1 443.391 512.589 444.929 513.583C445.654 514.075 446.431 513.142 446.068 512.391Z" fill="#0B3F8D"/>
<path d="M458.006 506.068C455.908 506.93 453.932 508.062 452.128 509.437C451.928 509.575 451.781 509.778 451.713 510.012C451.644 510.246 451.658 510.496 451.752 510.721C451.846 510.946 452.015 511.132 452.229 511.247C452.444 511.362 452.692 511.4 452.931 511.354C454.167 511.048 455.318 510.467 456.3 509.655C457.282 508.844 458.068 507.821 458.602 506.664C458.622 506.582 458.621 506.495 458.598 506.414C458.575 506.332 458.532 506.258 458.472 506.198C458.412 506.138 458.338 506.094 458.256 506.072C458.174 506.049 458.088 506.048 458.006 506.068Z" fill="#0B3F8D"/>
<path d="M285.053 418.011C284.778 416.407 284.778 414.768 285.053 413.165C285.053 412.491 284.224 412.413 283.888 412.854C281.79 415.678 281.816 421.924 285.545 423.427C286.348 423.738 286.892 422.857 286.788 422.183C286.477 420.732 285.416 419.488 285.053 418.011Z" fill="#0B3F8D"/>
<path d="M295.411 409.952C293.831 410.812 292.639 412.242 292.076 413.951C291.513 415.66 291.622 417.52 292.381 419.151C292.769 419.877 293.676 419.436 293.754 418.788C293.959 415.936 294.753 413.156 296.084 410.625C296.139 410.531 296.161 410.422 296.148 410.314C296.134 410.206 296.084 410.105 296.008 410.028C295.931 409.951 295.83 409.902 295.722 409.888C295.614 409.874 295.505 409.896 295.411 409.952Z" fill="#0B3F8D"/>
<path d="M288.29 370.899C288.29 370.899 291.734 375.434 293.054 376.963C295.281 379.554 293.054 383.7 290.594 389.92C288.523 395.44 286.71 403.447 283.603 401.84C281.488 400.571 279.605 398.95 278.035 397.046C279.185 391.784 280.637 386.592 282.386 381.498C283.668 377.624 285.671 374.028 288.29 370.899Z" fill="white"/>
<path d="M347.9 334.463C347.9 334.463 380.192 327.907 398.318 329.099C413.052 330.083 472.896 359.833 484.808 369.007C496.719 378.18 520.647 423.22 528.959 433.637C541.155 448.901 593.438 477.458 607.809 494.225C616.085 504.458 622.892 515.797 628.034 527.914C633.026 540.009 637.095 552.467 640.204 565.178L658.331 554.191C654.855 540.722 650.363 527.537 644.891 514.749C634.533 490.934 618.556 465.849 599.264 455.509C564.073 436.669 557.625 435.218 544.884 420.628C532.144 406.038 523.521 377.895 500.319 356.931C477.117 335.966 426.803 316.556 414.891 316.116C401.439 315.352 387.944 316.293 374.728 318.914L347.9 334.463Z" fill="white"/>
<path d="M565.108 466.911L565.471 497.749C569.995 497.598 574.456 496.651 578.652 494.951C585.928 492.074 594.914 495.858 594.914 495.858C594.914 495.858 587.145 465.823 580.49 460.148C573.835 454.472 565.108 466.911 565.108 466.911Z" fill="white"/>
<path opacity="0.7" d="M583.002 463.18C588.579 467.317 593.906 471.782 598.953 476.551C606.074 483.471 614.698 491.608 614.698 491.608C612.838 487.556 610.619 483.679 608.068 480.024C604.624 475.489 602.19 466.652 597.167 463.231C593.765 461.043 590.018 459.448 586.083 458.515L583.002 463.18Z" fill="white"/>
<path d="M581.681 455.872L612.755 480.024C614.356 471.59 618.956 464.023 625.703 458.722C617.132 454.006 598.565 451.466 598.565 451.466L581.681 455.872Z" fill="white"/>
<path opacity="0.5" d="M573.913 472.82C573.11 476.098 572.642 479.45 572.514 482.823C572.514 486.554 576.088 488.005 576.502 484.559C576.917 481.112 577.15 476.344 577.15 476.344C577.15 476.344 580.723 483.885 581.94 483.47C584.53 482.615 584.53 477.355 583.805 471.913C583.261 468.388 582.743 464.138 580.62 463.05C575.207 460.148 573.913 472.82 573.913 472.82Z" fill="#E4EAEF"/>
<path opacity="0.5" d="M592.091 459.811C595.65 462.585 599.559 464.877 603.718 466.626C609.208 468.57 611.15 464.89 609.7 463.283C608.25 461.677 607.628 461.469 607.628 461.469C607.628 461.469 612.341 462.039 613.429 460.614C614.516 459.189 608.586 456.856 608.586 456.856L592.091 459.811Z" fill="#E4EAEF"/>
<path opacity="0.7" d="M567.905 448.927C567.905 448.927 553.43 445.117 547.5 437.732C541.57 430.346 537.504 426.252 537.504 426.252C544.835 430.171 551.941 434.497 558.79 439.209C566.558 444.78 570.313 447.398 570.313 447.398L567.905 448.927Z" fill="white"/>
<path d="M559.049 444.21C554.948 444.512 550.924 445.484 547.137 447.087C542.114 448.693 536.935 450.067 532.066 452.27C518.109 458.282 507.673 467.818 515.027 480.775C522.2 484.999 531.652 489.897 539.084 494.199C542.739 494.862 546.494 494.744 550.1 493.85C553.707 492.957 557.083 491.309 560.007 489.016C566.342 483.829 571.618 477.467 575.544 470.28C577.098 467.689 582.277 456.753 578.807 451.181C575.078 444.988 562.493 444.314 559.049 444.21Z" fill="white"/>
<path d="M631.529 426.822C622.937 420.887 613.967 415.52 604.676 410.755C602.993 409.874 597.84 412.672 596.157 413.735C590.641 417.104 570.676 437.55 567.905 444.366C567.905 444.677 586.032 460.718 587.482 461.469C589.929 462.522 592.636 462.811 595.25 462.298C602.656 461.262 610.554 457.401 617.157 454.006C627.826 448.486 637.174 439.571 631.529 426.822Z" fill="white"/>
<path d="M574.69 470.228C571.711 474.233 568.025 477.658 563.814 480.335C562.105 481.397 558.091 484.611 556.045 482.071C552.109 485.725 546.309 488.187 541.259 486.736C540.599 486.569 539.979 486.274 539.433 485.868C538.887 485.461 538.426 484.951 538.078 484.366C537.729 483.781 537.499 483.133 537.4 482.459C537.302 481.785 537.337 481.099 537.504 480.438C533.568 486.036 533.232 493.603 541.829 494.873C551.85 496.376 564.357 486.269 570.546 479.324C573.706 475.826 579.144 469.166 580.516 463.024C580.358 462.545 580.167 462.078 579.946 461.625C578.506 464.672 576.744 467.556 574.69 470.228Z" fill="white"/>
<path d="M541.363 486.684C546.542 488.135 552.187 485.673 556.149 482.019C558.091 484.611 562.105 481.372 563.917 480.283C568.128 477.606 571.814 474.181 574.793 470.177C576.88 467.526 578.677 464.659 580.153 461.625C580.153 461.625 580.153 461.443 580.153 461.34C579.03 459.557 577.601 457.987 575.932 456.701C563.242 461.64 551.376 468.482 540.741 476.992C539.601 477.953 538.591 479.06 537.737 480.283C537.553 480.942 537.5 481.63 537.583 482.309C537.665 482.988 537.881 483.644 538.218 484.239C538.555 484.834 539.006 485.356 539.546 485.776C540.086 486.196 540.703 486.504 541.363 486.684Z" fill="white"/>
<path opacity="0.7" d="M541.363 486.684C546.542 488.135 552.187 485.673 556.149 482.019C558.091 484.611 562.105 481.372 563.917 480.283C568.128 477.606 571.814 474.181 574.793 470.177C576.88 467.526 578.677 464.659 580.153 461.625C580.153 461.625 580.153 461.443 580.153 461.34C579.03 459.557 577.601 457.987 575.932 456.701C563.242 461.64 551.376 468.482 540.741 476.992C539.601 477.953 538.591 479.06 537.737 480.283C537.553 480.942 537.5 481.63 537.583 482.309C537.665 482.988 537.881 483.644 538.218 484.239C538.555 484.834 539.006 485.356 539.546 485.776C540.086 486.196 540.703 486.504 541.363 486.684Z" fill="white"/>
<path opacity="0.5" d="M580.62 439.209C583.319 435.853 586.454 432.872 589.942 430.346C596.105 425.811 598.695 430.346 594.37 433.378C592.149 434.972 589.831 436.426 587.43 437.732C587.43 437.732 593.127 438.12 592.039 440.919C590.952 443.718 584.763 445.454 584.763 445.454L580.62 439.209Z" fill="white"/>
<path opacity="0.5" d="M567.905 445.195C562.395 446.605 557.093 448.731 552.135 451.518C546.101 455.405 551.488 457.997 555.812 455.846C560.137 453.695 564.228 451.518 564.228 451.518C564.228 451.518 561.638 454.343 564.409 455.431C567.18 456.52 573.939 450.43 573.939 450.43L567.905 445.195Z" fill="white"/>
<path d="M495.994 308.005C495.994 308.005 392.854 368.152 382.211 376.6C377.395 380.383 374.728 388.235 375.012 401.84C375.381 417.749 376.712 433.62 379 449.367C382.988 474.971 384.179 491.634 384.179 491.634L404.067 502.906C404.067 502.906 400.286 476.344 397.412 454.965C395.279 439.319 394.275 423.539 394.408 407.749C394.822 394.947 398.344 391.034 402.176 387.691C410.696 379.917 516.115 318.552 516.115 318.552L495.994 308.005Z" fill="white"/>
<path d="M621.612 428.973C622.986 429.335 624.172 430.204 624.931 431.406C625.69 432.609 625.966 434.054 625.703 435.451C625.237 440.997 620.317 444.236 615.345 446.465C615.601 447.065 615.686 447.724 615.59 448.369C615.494 449.014 615.221 449.62 614.801 450.119C613.04 452.425 594.085 457.142 588.906 458.541C588.388 459.5 587.43 460.77 587.456 461.469C593.697 464.579 608.716 458.878 613.066 457.09C623.813 452.633 634.015 446.335 633.601 433.249C633.342 424.23 629.251 425.163 621.612 428.973Z" fill="white"/>
<path d="M615.345 446.465C620.317 444.236 625.237 440.997 625.703 435.451C625.966 434.054 625.69 432.608 624.931 431.406C624.172 430.204 622.986 429.335 621.612 428.973L620.11 429.724C614.931 432.315 594.862 445.739 587.689 453.824C588.307 455.021 588.818 456.27 589.217 457.556C589.234 457.907 589.134 458.253 588.932 458.541C594.111 457.141 613.04 452.425 614.827 450.119C615.242 449.617 615.511 449.01 615.602 448.365C615.694 447.72 615.604 447.062 615.345 446.465Z" fill="white"/>
<path opacity="0.7" d="M615.345 446.465C620.317 444.236 625.237 440.997 625.703 435.451C625.966 434.054 625.69 432.608 624.931 431.406C624.172 430.204 622.986 429.335 621.612 428.973L620.11 429.724C614.931 432.315 594.862 445.739 587.689 453.824C588.307 455.021 588.818 456.27 589.217 457.556C589.234 457.907 589.134 458.253 588.932 458.541C594.111 457.141 613.04 452.425 614.827 450.119C615.242 449.617 615.511 449.01 615.602 448.365C615.694 447.72 615.604 447.062 615.345 446.465Z" fill="white"/>
<path d="M591.884 452.917C590.097 444.91 582.044 436.877 573.757 434.337C569.277 432.938 565.989 434.337 565.833 437.758C563.244 439.494 559.567 441.204 558.945 444.236C563.75 445.782 568.166 448.345 571.893 451.751C575.415 455.872 578.651 466.471 578.755 467.792C585.798 467.481 593.386 459.526 591.884 452.917Z" fill="#E4EAEF"/>
<path d="M590.175 455.276C590.14 455.198 590.084 455.133 590.012 455.087C589.941 455.04 589.858 455.016 589.773 455.016C589.689 455.016 589.606 455.04 589.534 455.087C589.463 455.133 589.407 455.198 589.372 455.276C588.725 456.183 588.647 457.426 588.026 458.385C587.404 459.344 586.472 459.862 586.083 460.821C586.063 460.892 586.059 460.967 586.073 461.04C586.087 461.112 586.118 461.18 586.164 461.239C586.21 461.297 586.268 461.343 586.335 461.375C586.402 461.406 586.476 461.42 586.55 461.417C588.569 461.21 590.9 457.167 590.175 455.276Z" fill="white"/>
<path d="M583.701 461.443C583.536 460.45 583.449 459.444 583.442 458.437C583.442 458.248 583.367 458.067 583.233 457.933C583.1 457.8 582.919 457.724 582.73 457.724C582.541 457.724 582.36 457.8 582.226 457.933C582.093 458.067 582.018 458.248 582.018 458.437C582.018 459.785 581.655 462.402 583.002 463.205C583.092 463.256 583.198 463.27 583.299 463.246C583.399 463.222 583.488 463.161 583.546 463.076C583.687 462.831 583.774 462.558 583.801 462.276C583.828 461.995 583.794 461.711 583.701 461.443Z" fill="white"/>
<path d="M629.147 436.073C628.688 437.107 628.105 438.082 627.412 438.976C626.739 439.831 625.936 440.504 625.315 441.386C625.004 441.826 625.522 442.37 625.988 442.267C627.182 441.794 628.2 440.962 628.901 439.885C629.602 438.808 629.95 437.539 629.898 436.255C629.924 435.892 629.328 435.71 629.147 436.073Z" fill="white"/>
<path d="M627.205 445.402C626.428 445.402 625.651 445.402 624.874 445.402C624.097 445.402 623.398 445.143 622.647 445.065C622.561 445.06 622.474 445.08 622.398 445.121C622.322 445.162 622.258 445.224 622.215 445.3C622.172 445.375 622.151 445.461 622.154 445.548C622.157 445.635 622.185 445.719 622.233 445.791C622.518 446.197 622.888 446.535 623.318 446.781C623.748 447.028 624.226 447.178 624.72 447.22C625.213 447.262 625.71 447.195 626.175 447.024C626.64 446.854 627.063 446.583 627.412 446.232C627.484 446.176 627.538 446.101 627.567 446.015C627.597 445.93 627.601 445.837 627.579 445.749C627.557 445.661 627.51 445.582 627.444 445.52C627.377 445.458 627.294 445.417 627.205 445.402Z" fill="white"/>
<path d="M547.189 489.768C546.033 490.21 544.8 490.413 543.564 490.364C542.367 490.137 541.195 489.789 540.068 489.327C540.018 489.319 539.967 489.324 539.919 489.342C539.872 489.36 539.83 489.391 539.798 489.43C539.767 489.47 539.746 489.517 539.739 489.568C539.732 489.618 539.738 489.669 539.757 489.716C541.13 492.307 545.584 491.971 547.526 490.182C547.581 490.138 547.616 490.073 547.623 490.003C547.63 489.932 547.609 489.862 547.565 489.807C547.52 489.752 547.455 489.717 547.385 489.709C547.314 489.702 547.244 489.723 547.189 489.768Z" fill="white"/>
<path d="M570.287 435.892C569.044 436.773 571.323 437.473 573.913 439.105C576.826 440.694 579.452 442.761 581.681 445.221C583.963 447.877 585.967 450.76 587.663 453.825C587.639 451.562 587.169 449.325 586.281 447.244C585.392 445.163 584.102 443.278 582.484 441.697C577.176 435.892 571.971 434.674 570.287 435.892Z" fill="white"/>
<path d="M332.7 516.433C332.683 515.179 332.372 513.947 331.792 512.835C331.211 511.723 330.378 510.763 329.36 510.033C329.052 509.82 328.694 509.692 328.322 509.66C327.95 509.628 327.575 509.694 327.236 509.851L325.967 510.473L326.252 511.095C326.092 511.571 326.013 512.07 326.019 512.572C326.036 513.826 326.347 515.059 326.927 516.171C327.508 517.283 328.341 518.243 329.36 518.973L329.826 519.18L330.136 519.854L331.483 519.154C331.915 518.855 332.257 518.444 332.471 517.964C332.686 517.484 332.765 516.955 332.7 516.433Z" fill="#070A4F"/>
<path d="M324.828 513.272C324.845 514.526 325.156 515.759 325.736 516.871C326.316 517.982 327.149 518.942 328.168 519.673C330.007 520.735 331.509 519.673 331.509 517.081C331.492 515.827 331.18 514.594 330.6 513.483C330.02 512.371 329.187 511.411 328.168 510.68C326.304 509.592 324.828 510.68 324.828 513.272Z" fill="#070A4F"/>
<path d="M330.784 517.289C330.755 516.097 330.453 514.928 329.9 513.872C329.348 512.816 328.561 511.902 327.599 511.199C327.328 511.017 327.019 510.899 326.696 510.854C326.373 510.809 326.044 510.839 325.734 510.94L315.765 515.863L321.332 522.212L329.411 519.984C330.24 519.699 330.784 518.74 330.784 517.289Z" fill="#070A4F"/>
<path d="M271.432 561.499C271.432 561.499 266.978 563.157 261.644 565.826C259.779 566.759 257.552 567.977 257.086 569.895C255.935 574.546 255.19 579.289 254.859 584.07C254.859 585.443 258.536 583.681 258.536 583.681L271.432 569.066V561.499Z" fill="#070A4F"/>
<path d="M273.374 562.328C271.769 562.535 263.016 567.511 259.805 568.858C258.511 569.454 257.009 576.296 256.154 585.444C255.455 592.751 254.808 597.105 259.262 600.552C260.027 601.283 260.999 601.763 262.045 601.925C263.092 602.087 264.163 601.924 265.114 601.459C268.819 599.343 272.383 596.988 275.783 594.41C284.38 588.424 286.969 576.788 286.969 576.788L273.374 562.328Z" fill="#070A4F"/>
<path d="M257.941 568.703C257.941 568.703 257.941 570.931 258.666 569.765C259.391 568.599 260.686 568.832 261.463 569.765C262.762 571.447 263.601 573.439 263.897 575.544L274.255 570.569L270.345 562.406C270.345 562.406 261.592 564.427 257.941 568.703Z" fill="#070A4F"/>
<path d="M313.123 521.435C313.123 521.435 310.715 532.19 307.633 534.962C306.334 536.418 304.583 537.395 302.662 537.735L303.05 541C304.83 540.56 306.489 539.729 307.909 538.568C309.328 537.408 310.473 535.946 311.259 534.289C312.814 531.247 313.83 527.959 314.263 524.571L313.123 521.435Z" fill="#070A4F"/>
<path d="M328.867 519.284C328.854 518.578 328.677 517.884 328.349 517.259C328.02 516.634 327.551 516.094 326.977 515.682L315.454 508.944C315.179 508.764 314.847 508.69 314.521 508.737H314.366C312.414 509.44 310.606 510.494 309.032 511.847L313.486 516.304V517.859C313.512 518.567 313.703 519.26 314.045 519.881C314.387 520.502 314.869 521.034 315.454 521.435L322.445 525.478C321.977 525.898 321.575 526.387 321.254 526.929C321.254 527.136 323.093 531.179 323.093 531.179C325.087 530.599 326.909 529.541 328.401 528.095C328.497 527.996 328.575 527.882 328.634 527.758C328.78 527.442 328.85 527.096 328.841 526.748L328.867 519.284Z" fill="#070A4F"/>
<path d="M310.275 511.769L321.927 518.507C322.501 518.918 322.971 519.458 323.299 520.084C323.627 520.709 323.805 521.403 323.818 522.109V529.546C323.818 530.946 322.963 531.568 321.927 530.972L310.275 524.26C309.701 523.848 309.231 523.308 308.903 522.683C308.575 522.057 308.397 521.364 308.384 520.658V513.272C308.514 511.821 309.342 511.173 310.275 511.769Z" fill="white"/>
<path d="M310.275 514.334L318.043 518.792C318.421 519.065 318.73 519.423 318.946 519.837C319.162 520.251 319.278 520.709 319.286 521.176V526.229C319.286 527.136 318.717 527.577 318.043 527.188L310.275 522.601C309.897 522.328 309.588 521.97 309.372 521.556C309.156 521.142 309.04 520.684 309.032 520.217V515.293C309.084 514.36 309.653 513.946 310.275 514.334Z" fill="#070A4F"/>
<path d="M325.147 516.748C325.222 516.152 324.443 515.562 323.408 515.431C322.372 515.3 321.471 515.677 321.396 516.273C321.32 516.87 322.099 517.459 323.135 517.59C324.17 517.722 325.071 517.344 325.147 516.748Z" fill="white"/>
<path d="M324.475 516.666C324.525 516.269 324.014 515.877 323.333 515.79C322.652 515.704 322.059 515.957 322.008 516.354C321.958 516.752 322.47 517.144 323.151 517.23C323.832 517.316 324.425 517.064 324.475 516.666Z" fill="white"/>
<path d="M324.413 529.157C324.413 529.157 322.005 539.912 318.924 542.685C317.624 544.141 315.873 545.117 313.952 545.458L314.34 548.723C316.12 548.282 317.779 547.451 319.199 546.291C320.618 545.13 321.763 543.668 322.549 542.011C324.105 538.97 325.121 535.682 325.553 532.293L324.413 529.157Z" fill="#070A4F"/>
<path d="M295.281 676.662C294.395 679.104 293.295 681.463 291.993 683.711C291.597 684.307 291.353 684.99 291.282 685.702C291.211 686.414 291.315 687.133 291.586 687.795C291.857 688.458 292.286 689.043 292.835 689.501C293.385 689.959 294.038 690.276 294.738 690.423C297.534 691.355 301.445 690.734 307.944 687.261C314.444 683.788 317.318 680.342 317.551 678.113C317.784 675.885 314.496 672.619 308.876 674.382C305.996 675.242 303.168 676.272 300.409 677.465L295.281 676.662Z" fill="#0A1620"/>
<path d="M257.009 645.668C257.009 645.668 251.26 649.115 249.24 650.385C249.24 651.292 250.354 653.961 253.513 659.61C256.672 665.26 262.343 668.214 266.952 665.208C271.562 662.202 274.721 657.434 270.837 656.034C268.491 655.257 265.958 655.257 263.612 656.034L261.023 649.582C260.699 648.664 260.169 647.834 259.473 647.155C258.777 646.477 257.933 645.968 257.009 645.668Z" fill="#0A1620"/>
<path d="M249.214 650.385C250.766 650.546 252.233 651.172 253.424 652.179C254.616 653.187 255.477 654.53 255.895 656.034C256.927 659.826 258.874 663.305 261.566 666.167C256.983 665.623 255.584 664.042 252.736 658.677C250.328 654.246 247.919 651.266 249.214 650.385Z" fill="#070A4F"/>
<path d="M262.757 654.013C262.498 654.013 263.223 655.93 262.757 657.719C262.291 659.507 262.498 660.932 263.767 659.688C265.036 658.444 264.311 655.827 264.311 655.827C264.311 655.827 263.948 653.961 262.757 654.013Z" fill="#070A4F"/>
<path d="M304.448 675.911C306.265 676.823 307.912 678.042 309.317 679.513C310.922 681.534 312.683 679.875 311.518 677.828C310.499 676.425 309.04 675.404 307.374 674.926C306.347 675.072 305.355 675.406 304.448 675.911Z" fill="#070A4F"/>
<path d="M274.022 576.27C274.022 576.27 268.843 578.628 266.9 588.657C266.072 593.166 267.574 599.774 269.49 605.683C270.957 610.245 272.686 614.718 274.669 619.08C270.329 621.344 266.638 624.68 263.948 628.772C260.404 634.792 257.18 640.994 254.29 647.353C254.955 648.746 255.929 649.969 257.138 650.929C258.635 652.052 260.446 652.677 262.317 652.717C262.317 652.717 274.695 637.92 280.444 630.638C286.192 623.356 288.626 623.9 288.393 618.718C288.212 614.26 288.626 592.233 288.626 592.233L274.022 576.27Z" fill="#1B2444"/>
<path d="M301.004 588.864C305.478 595.262 309.295 602.094 312.398 609.259C315.382 616.747 317.975 624.384 320.167 632.141C320.736 634.366 320.516 636.72 319.545 638.801C317.292 643.699 313.02 652.976 309.886 660.025C307.168 666.268 304.942 672.714 303.231 679.305C301.289 681.741 295.903 681.56 294.479 679.305C294.479 672.645 293.339 671.142 294.479 658.807C296.058 641.678 305.199 636.987 305.199 636.987C302.215 633.322 300.225 628.949 299.425 624.289C292.278 621.076 288.29 614.312 285.882 609.751C275.523 606.434 262.058 599.67 266.719 584.821C267.677 581.79 271.07 574.197 273.607 573.523C283.706 570.905 301.004 588.864 301.004 588.864Z" fill="#1B2444"/>
<path d="M315.04 504.72C313.692 503.277 311.949 502.262 310.03 501.801C308.11 501.34 306.097 501.454 304.241 502.129C302.738 502.48 301.349 503.213 300.211 504.257C299.072 505.301 298.222 506.621 297.742 508.089C297.245 510.021 296.967 512.003 296.913 513.998C297.787 517.627 299.164 521.116 301.005 524.363C301.644 525.918 302.79 527.21 304.258 528.029C305.725 528.848 307.426 529.145 309.084 528.873C314.263 528.121 315.35 521.746 316.852 517.548C318.328 512.961 318.613 508.685 315.04 504.72Z" fill="#FFC9B6"/>
<path d="M272.96 549.293C274.055 550.927 275.381 552.393 276.896 553.647C282.852 544.836 292.977 529.132 291.915 525.892C291.915 525.892 285.882 519.543 279.538 523.638C277.081 525.245 274.975 527.334 273.349 529.779C270.552 536.206 268.843 542.866 272.96 549.293Z" fill="white"/>
<path d="M300.487 529.235C291.113 523.638 288.549 521.046 280.91 525.581C276.171 528.38 272.908 539.782 272.313 545.95C271.717 552.118 268.066 564.816 268.998 567.744C269.775 570.18 272.701 570.932 268.817 573.523C265.735 575.596 268.118 577.073 268.998 579.639C270.618 583.148 273.026 586.236 276.036 588.659C279.046 591.082 282.575 592.775 286.348 593.607C294.867 595.187 301.626 594.643 303.49 592.648C305.355 590.652 305.614 588.761 303.49 585.599C302.092 583.474 304.604 580.649 306.08 578.058C310.845 568.846 314.804 559.24 317.914 549.345C320.245 539.938 311.181 535.688 300.487 529.235Z" fill="white"/>
<path d="M325.993 561.784C325.139 554.009 318.225 547.894 316.645 543.384C314.729 538.046 310.663 540.119 308.877 541.363C303.698 544.965 301.108 555.797 302.066 562.768C303.024 569.739 308.592 565.204 308.592 565.204C308.592 565.204 315.506 574.715 325.216 571.631C327.133 567.925 325.501 564.479 325.993 561.784Z" fill="#FFC9B6"/>
<path d="M299.399 511.743C298.727 514.394 297.862 516.993 296.809 519.517C295.644 521.712 293.942 523.575 291.863 524.933C291.341 525.442 290.946 526.066 290.71 526.755C290.473 527.445 290.403 528.18 290.504 528.902C290.605 529.624 290.874 530.312 291.29 530.91C291.706 531.508 292.258 532 292.899 532.345C297.871 535.429 304.888 531.697 304.888 531.697C305.54 528.984 306.643 526.4 308.151 524.052C310.275 520.58 299.399 511.743 299.399 511.743Z" fill="#FFC9B6"/>
<path d="M317.862 503.891C317.954 502.993 317.773 502.087 317.343 501.293C316.912 500.5 316.251 499.855 315.448 499.443C314.645 499.031 313.736 498.872 312.841 498.986C311.945 499.1 311.105 499.482 310.43 500.082C309.058 495.054 301.652 494.018 297.483 495.935C296.633 496.37 295.909 497.015 295.379 497.809C294.848 498.602 294.53 499.519 294.453 500.47C293.389 500.28 292.292 500.5 291.384 501.087C290.476 501.674 289.824 502.583 289.559 503.632C289.464 505.176 289.964 506.697 290.957 507.882C290.334 508.265 289.838 508.823 289.529 509.487C289.221 510.15 289.114 510.89 289.222 511.614C289.921 517.289 296.188 520.658 295.955 526.022C298.942 525.626 301.888 524.967 304.759 524.052C308.229 523.016 313.615 519.025 314.574 515.993C317.163 516.356 318.225 514.438 318.225 512.495C321.928 511.743 322.627 505.809 317.862 503.891Z" fill="#070A4F"/>
<path d="M306.805 518.455C306.511 518.962 306.322 519.524 306.25 520.107C306.178 520.689 306.224 521.28 306.386 521.844C306.548 522.408 306.823 522.933 307.193 523.389C307.563 523.844 308.021 524.219 308.54 524.493L312.036 520.632C312.036 520.632 309.291 514.101 306.805 518.455Z" fill="#FFC9B6"/>
<path d="M324.543 527.292C321.954 525.892 320.219 525.322 320.633 527.136C321.047 528.95 323.222 529.002 324.232 531.697C325.242 534.392 326.485 536.025 326.149 536.88C325.812 537.735 324.517 543.67 322.73 548.205C320.944 552.74 321.203 564.401 321.203 564.401L325.165 571.527C325.165 571.527 331.483 562.613 331.638 555.02C331.794 547.427 329.593 540.482 330.344 537.839C331.095 535.196 333.71 530.064 332.933 525.555C332.728 524.276 332.27 523.051 331.585 521.952C330.9 520.853 330.003 519.902 328.945 519.155L328.427 525.892C328.427 525.892 325.475 527.784 324.543 527.292Z" fill="#FFC9B6"/>
<path d="M294.013 523.249C292.724 523.38 291.496 523.864 290.465 524.648C289.281 525.761 288.436 527.186 288.029 528.759C287.621 530.332 287.666 531.989 288.16 533.537C289.895 537.45 295.929 536.128 299.709 534.911C302.298 534.108 304.978 533.638 307.685 533.511C307.089 532.545 306.261 531.743 305.277 531.179C304.086 530.738 300.227 532.345 296.939 533.071C295.748 533.465 294.467 533.495 293.259 533.158C292.05 532.822 290.97 532.132 290.154 531.179C289.792 530.458 289.655 529.645 289.762 528.845C289.868 528.046 290.212 527.297 290.75 526.696C291.722 525.443 292.815 524.288 294.013 523.249Z" fill="#070A4F"/>
<path d="M322.264 549.967C322.264 549.967 318.354 538.642 311.906 538.953C305.458 539.264 301.781 548.308 300.487 556.083C299.192 563.857 302.869 568.185 305.251 567.77L307.608 567.329C309.643 568.886 311.76 570.331 313.952 571.657C316.024 572.745 318.82 570.983 321.229 564.531C323.122 559.912 323.486 554.807 322.264 549.967Z" fill="white"/>
<path d="M276.611 576.27C278.926 579.861 282.117 582.804 285.882 584.822C289.319 586.266 293.033 586.93 296.758 586.765C296.758 586.765 293.003 584.614 287.513 582.023C282.023 579.431 276.611 576.27 276.611 576.27Z" fill="white"/>
<path d="M284.069 567.977C285.435 571.485 287.968 574.414 291.242 576.27C297.016 579.846 299.476 579.846 299.476 579.846C297.685 577.416 295.399 575.393 292.77 573.912C289.737 572.135 286.83 570.153 284.069 567.977Z" fill="white"/>
<path d="M310.404 535.818C301.704 538.202 287.306 549.397 280.185 555.461C273.064 561.525 268.791 573.601 268.791 573.601C268.791 573.601 269.309 574.715 271.381 573.342C273.452 571.968 275.006 562.509 285.364 554.735C295.722 546.961 306.08 538.875 313.848 537.891C314.832 537.839 313.331 535.014 310.404 535.818Z" fill="#070A4F"/>
<path opacity="0.5" d="M260.66 572.279C259.377 577.541 258.511 582.896 258.07 588.294C257.852 591.412 258.141 594.546 258.925 597.571L260.66 595.835L262.162 599.722C263.097 594.664 263.531 589.525 263.457 584.381C263.448 580.188 262.492 576.05 260.66 572.279Z" fill="#070A4F"/>
<path d="M392.828 672.542L426.492 692.003L395.159 710.117L372.449 689.334L392.828 672.542Z" fill="#E6E6E6"/>
<path d="M358.051 696.512V693.558C358.051 692.91 358.725 629.161 366.726 584.044C370.103 564.305 377.574 545.493 388.659 528.821L422.323 548.282C412.409 568.977 405.11 590.827 400.597 613.327C398.318 624.73 396.013 651.758 394.33 675.211L394.486 675.47H394.304C392.751 697.264 391.715 715.896 391.715 715.896L358.051 696.512Z" fill="#E6E6E6"/>
<path d="M397.256 601.744C389.229 646.861 388.581 710.584 388.581 711.258V714.16L360.615 697.99V695.035C360.615 694.388 361.288 630.638 369.29 585.521C372.655 565.776 380.118 546.955 391.197 530.272L419.164 546.494C408.084 563.177 400.621 581.998 397.256 601.744Z" fill="#070A4F"/>
<path d="M426.492 692.081V695.942L391.715 716.026V713.072C391.715 712.424 392.388 648.675 400.39 603.558C403.756 583.812 411.218 564.991 422.297 548.308L424.886 550.304C414.182 566.609 406.929 584.935 403.575 604.154C396.583 643.44 395.211 697.083 394.978 710.143L426.311 692.003L426.492 692.081Z" fill="#E0E0E0" fill-opacity="0.65"/>
<path d="M394.408 610.321L368.953 595.602C369.445 592.311 369.963 589.097 370.507 585.962C373.491 569.173 379.305 553.014 387.701 538.176L404.481 547.919L413.156 552.921C404.746 567.774 398.922 583.951 395.936 600.759C395.418 603.972 394.9 607.082 394.408 610.321Z" fill="white"/>
<path d="M377.887 559.296L403.342 574.015C400.066 582.693 397.596 591.654 395.962 600.785C395.418 603.894 394.9 607.082 394.408 610.347L368.953 595.628C369.445 592.337 369.963 589.123 370.507 585.988C372.145 576.883 374.616 567.948 377.887 559.296Z" fill="white"/>
<path d="M389.099 543.799C395.423 546.736 401.487 550.203 407.226 554.165C407.796 554.554 407.226 554.917 406.837 554.683C400.907 551.625 394.563 547.842 388.814 544.369C388.322 544.162 388.374 543.488 389.099 543.799Z" fill="#070A4F"/>
<path d="M377.317 574.741C383.641 577.677 389.705 581.145 395.444 585.107C396.014 585.495 395.444 585.858 395.055 585.625C389.125 582.593 382.833 578.809 377.084 575.441C376.515 575.078 376.566 574.43 377.317 574.741Z" fill="#070A4F"/>
<path d="M372.216 592.57C378.54 595.506 384.604 598.974 390.342 602.936C390.912 603.324 390.342 603.687 389.954 603.454C384.024 600.422 377.731 596.638 371.983 593.27C371.439 592.933 371.465 592.259 372.216 592.57Z" fill="#070A4F"/>
<path d="M384.672 549.708C388.886 551.366 392.864 553.57 396.506 556.264C397.075 556.653 396.506 557.016 396.117 556.782C390.187 553.75 390.135 553.75 384.387 550.356C383.895 550.07 383.921 549.397 384.672 549.708Z" fill="#070A4F"/>
<path d="M383.558 552.143C387.772 553.802 391.751 556.006 395.392 558.7C395.962 559.089 395.392 559.451 395.004 559.218C389.074 556.186 389.022 556.186 383.273 552.791C382.781 552.403 382.781 551.729 383.558 552.143Z" fill="#070A4F"/>
<path d="M382.47 554.502C386.685 556.16 390.663 558.364 394.304 561.058C394.874 561.447 394.304 561.81 393.916 561.576C387.986 558.544 387.934 558.544 382.186 555.15C381.668 554.735 381.719 554.191 382.47 554.502Z" fill="#070A4F"/>
<path d="M381.694 556.938C385.908 558.596 389.886 560.8 393.528 563.494C394.097 563.883 393.528 564.246 393.139 564.012C387.209 560.98 387.157 560.98 381.409 557.586C380.891 557.326 380.943 556.627 381.694 556.938Z" fill="#070A4F"/>
<path d="M378.793 569.454C379.207 568.236 379.44 567.899 381.098 568.081C382.755 568.262 384.697 569.662 385.94 569.791C386.879 569.527 387.869 569.492 388.824 569.691C389.779 569.889 390.673 570.315 391.43 570.931C393.284 572.106 394.668 573.894 395.34 575.985C395.884 577.617 396.868 578.058 395.754 579.716C395.612 579.9 395.412 580.031 395.187 580.087C394.961 580.144 394.723 580.123 394.511 580.027L392.414 578.732C391.378 580.157 388.892 578.732 389.669 576.918C388.271 576.088 385.785 574.741 384.49 573.912C383.351 575.726 381.098 574.197 381.9 572.201C381.383 571.916 378.379 570.646 378.793 569.454Z" fill="white"/>
<path d="M393.139 573.29C392.831 572.781 392.404 572.355 391.896 572.046C390.961 571.393 389.942 570.87 388.867 570.491C388.012 570.232 386.717 571.191 386.717 571.191L392.673 574.585C392.673 574.585 392.984 573.653 393.139 573.29Z" fill="white"/>
<path d="M376.437 581.608C377.965 580.805 380.425 582.386 381.823 583.137L382.134 583.293C383.714 584.07 389.902 587.879 391.637 588.838C392.699 589.46 392.699 590.6 392.337 591.87C391.974 593.14 391.715 594.021 391.249 595.395C390.498 597.52 389.022 597.39 387.106 596.379C385.19 595.369 378.586 591.197 376.515 590.082C374.443 588.968 374.055 588.631 374.055 586.843C374.067 585.853 374.284 584.876 374.695 583.974C375.105 583.073 375.698 582.267 376.437 581.608Z" fill="white"/>
<path d="M387.96 588.294L386.044 593.477C386.044 593.477 387.313 593.477 387.96 591.404C388.608 589.331 387.96 588.294 387.96 588.294Z" fill="white"/>
<path d="M382.781 585.521L380.606 590.86C380.606 590.86 378.819 590.056 378.716 589.382C378.612 588.709 379.984 585.21 380.735 585.107C381.438 585.104 382.134 585.245 382.781 585.521Z" fill="white"/>
<path d="M381.952 583.655C381.952 583.655 382.47 582.774 381.072 582.178C379.673 581.582 379.544 582.178 379.544 582.178L381.952 583.655Z" fill="white"/>
<path d="M389.384 587.517C389.384 587.517 389.902 586.636 388.504 586.04C387.106 585.444 386.976 586.04 386.976 586.04L389.384 587.517Z" fill="white"/>
<path d="M387.675 596.198C387.675 596.198 387.105 596.924 385.966 596.353C384.827 595.783 385.034 594.799 385.034 594.799L387.675 596.198Z" fill="white"/>
<path d="M380.191 591.896C380.191 591.896 379.57 592.57 378.456 591.896C377.343 591.222 377.654 590.264 377.654 590.264L380.191 591.896Z" fill="white"/>
</g>
<g clip-path="url(#clip1)">
<path d="M145.253 748.415C148.737 748.222 152.228 748.222 155.711 748.415C158.154 748.505 160.579 748.87 162.94 749.502C164.289 749.913 164.675 752.283 162.771 751.92C159.783 751.243 159.085 751.92 157.952 752.911C157.205 753.54 160.121 754.797 163.374 755.933C166.627 757.069 167.904 754.241 169.061 755.063C170.217 755.885 167.277 763.596 160.844 763.62C156.912 763.9 153.03 762.605 150.048 760.018C147.048 758.16 143.906 756.544 140.651 755.183L145.253 748.415Z" fill="#FFC9B6"/>
<path d="M139.976 744.764C137.728 744.361 135.46 744.087 133.181 743.942C132.999 743.082 132.999 742.192 133.181 741.331C133.494 739.857 130.048 740.195 130.048 740.195C130.048 740.195 127.109 725.86 127.109 725.352C126.354 717.648 123.884 710.213 119.88 703.595C113.783 693.539 108.265 698.349 108.265 698.349C108.265 698.349 112.41 731.783 115.88 744.015L116.94 743.048C118.362 747.496 119.88 755.377 120.145 755.377C123.735 759.97 129.783 759.462 133.735 759.97C139.133 760.695 146.795 761.227 146.795 761.227C147.621 758.868 148.242 756.441 148.651 753.975C148.763 751.817 148.763 749.654 148.651 747.496C145.828 746.378 142.929 745.465 139.976 744.764Z" fill="#0B3F8D"/>
<path d="M115.061 749.092C115.061 749.092 124.049 772.106 125.446 781.413C126.844 790.72 129.639 804.814 131.326 816.562C132.838 828.038 133.129 839.643 132.193 851.18C131.88 855.725 130.217 867.619 131.109 874.073C130.121 878.28 120.314 878.908 119.061 873.928C118.338 870.907 110.82 844.097 110.049 835.66C109.553 830.791 109.97 825.871 111.277 821.156C111.277 821.156 99.0365 794.854 94.7232 784.507C90.41 774.16 93.3497 761.324 93.3497 761.324L115.061 749.092Z" fill="#0B3F8D"/>
<path d="M119.374 872.792C119.117 874.714 118.714 876.613 118.169 878.473C117.71 880.771 117.776 883.143 118.362 885.411C118.659 886.065 119.118 886.63 119.697 887.054C120.275 887.477 120.952 887.744 121.663 887.829C123.147 888.159 124.685 888.159 126.169 887.829C127.89 889.72 129.823 891.408 131.928 892.857C135.581 895.07 139.716 896.356 143.976 896.604C147.085 896.12 148.795 893.703 148.506 892.132C146.961 888.954 144.578 886.261 141.615 884.347C138.86 882.302 136.281 880.03 133.904 877.554C132.488 875.998 131.206 874.324 130.072 872.55L119.374 872.792Z" fill="#002D56"/>
<path d="M73.2291 896.386C72.3653 899.54 71.8799 902.787 71.7833 906.056C71.7171 907.094 71.8744 908.135 72.2444 909.107C72.6145 910.079 73.1886 910.959 73.9279 911.689C74.2084 912.04 74.5918 912.295 75.0241 912.416C75.4564 912.538 75.9158 912.52 76.3375 912.366C76.3375 912.366 76.8435 919.739 80.3134 922.712C82.1327 924.006 84.2183 924.873 86.4162 925.249C88.6141 925.626 90.8682 925.502 93.0122 924.888C95.9038 923.8 94.0001 918.53 91.1568 913.357C88.3134 908.183 84.6267 902.72 83.7351 898.006C76.7712 897.087 73.2291 896.386 73.2291 896.386Z" fill="#002D56"/>
<path d="M82.9158 758.616C79.4977 763.966 76.8377 769.767 75.0121 775.853C72.6025 783.588 72.9399 802.106 72.9399 802.106C72.9399 802.106 72.3133 820.358 73.47 826.667C74.0583 829.16 74.4212 831.7 74.5543 834.258C71.3374 844.956 69.8964 856.113 70.2893 867.28C71.0603 885.169 72.5302 898.006 72.5302 898.006C72.9795 899.124 73.7468 900.085 74.7367 900.768C75.7265 901.452 76.895 901.828 78.0965 901.85C79.4006 901.943 80.7103 901.777 81.9507 901.363C83.1911 900.948 84.3378 900.292 85.3254 899.432C85.3254 899.432 92.964 861.478 95.7832 852.848C97.6406 846.784 98.9392 840.561 99.6628 834.258L105.422 791.638C105.422 791.638 116.868 784.144 111.012 765.216C107.349 753.467 82.9158 758.616 82.9158 758.616Z" fill="#0B3F8D"/>
<path d="M91.976 699.776C94.3857 699.026 103.663 696.005 104.603 696.464C111.253 699.776 118.795 712.854 119.88 721.533C120.16 727.953 119.295 734.371 117.325 740.486C117.987 741.644 118.347 742.951 118.372 744.287C118.397 745.622 118.087 746.942 117.47 748.125C117.253 749.914 120.024 757.794 120.699 759.39C122 762.653 122.241 767.464 120.217 770.148C116.337 775.273 112.145 776.771 102.675 778.101C91.6869 779.624 84.6266 771.767 81.2049 767.222C80.4098 766.135 77.1568 757.553 79.5664 755.981C77.7351 750.397 75.8555 743.435 74.0724 736.642C71.3736 726.561 68.9399 716.867 74.7712 709.252C77.3013 705.892 86.7953 701.565 91.976 699.776Z" fill="#DEEFFF"/>
<path d="M90.9638 687.688C90.9638 687.688 99.8795 694.409 102.771 698.978C105.663 703.547 106.843 705.408 105.325 715.9C97.1566 713.047 86.9879 708.116 85.0361 702.459C87.759 701.057 90.9638 687.688 90.9638 687.688Z" fill="white"/>
<path d="M110.988 733.306C110.309 729.822 109.391 726.389 108.241 723.031C108.544 721.256 108.996 719.509 109.591 717.81L105.205 716.069L102.651 719.115C103.325 720.807 104.41 722.303 105.808 723.467C105.808 727.963 105.542 736.207 105.446 743.676C105.301 755.594 105.446 764.176 105.446 764.176C107.019 766.402 108.921 768.374 111.085 770.027C112.386 767.491 113.311 764.78 113.832 761.976C113.832 761.976 112.265 740.147 110.988 733.306Z" fill="white"/>
<path d="M86.145 703.499C89.7991 705.05 93.2868 706.97 96.5547 709.228C100.675 712.637 102.627 713.555 104.675 715.538C104.868 715.054 105.422 705.868 105.422 705.868C105.422 705.868 108.844 706.303 108.82 706.351C110.198 707.921 111.152 709.818 111.591 711.863C111.98 714.59 111.774 717.37 110.988 720.01L105.278 716.504L101.374 723.491C97.4979 720.175 93.798 716.656 90.2896 712.951C88.092 710.228 86.6609 706.964 86.145 703.499Z" fill="white"/>
<path d="M108.265 698.325C110.291 698.787 112.167 699.757 113.717 701.144C115.268 702.53 116.443 704.289 117.133 706.254C120.289 713.507 121.35 721.702 121.446 732.846C121.338 741.204 121.983 749.554 123.374 757.794C124.554 762.798 131.181 781.244 131.181 781.244C131.181 781.244 130.675 788.81 128.241 791.808C127.501 792.876 126.519 793.754 125.376 794.367C124.232 794.981 122.96 795.313 121.663 795.337C121.663 795.337 117.47 772.299 117.109 768.818C116.747 765.337 115.35 746.166 115.711 740.51C116.073 734.853 112.868 716.021 111.591 711.863C110.314 707.705 102.651 699.123 102.651 699.123L108.265 698.325Z" fill="#212C51"/>
<path d="M106.94 704.296C108.585 706.539 109.953 708.974 111.012 711.549C112.819 715.924 113.422 725.521 113.928 731.13C114.304 734.904 114.875 738.656 115.638 742.371C116.761 739.038 117.568 735.606 118.048 732.121C118.434 727.987 118.964 724.869 118.964 724.869L116.072 722.596L118.747 716.118C118.747 716.118 111.783 700.67 108.819 699.776C105.855 698.881 106.94 704.296 106.94 704.296Z" fill="#2D3B60"/>
<path d="M112.868 684.159C112.289 680.098 110.892 675.069 107.47 672.458C104.049 669.848 98.7473 670.041 94.7714 670.839C88.6027 671.902 84.916 679.251 86.8196 687.132C88.5786 694.385 94.6509 705.263 102.988 705.964C107.229 706.327 110.217 702.846 111.663 698.712C113.133 694.01 113.545 689.04 112.868 684.159Z" fill="#FFC9B6"/>
<path d="M119.567 673.546C119.561 672.74 119.372 671.945 119.012 671.224C118.652 670.502 118.132 669.873 117.492 669.385C116.852 668.897 116.109 668.563 115.319 668.408C114.53 668.254 113.716 668.283 112.94 668.494C113.711 662.982 106.53 662.112 104.241 665.472C102.675 664.989 100.603 662.45 97.0124 662.523C92.4823 662.523 87.2052 664.094 85.904 670.138C81.0847 672.193 82.0486 679.445 83.4943 684.086C84.4582 687.229 88.3136 696.875 88.5787 696.875C90.4582 695.086 92.9642 687.785 93.2052 687.012C96.4519 686.964 99.6091 685.936 102.265 684.062C105.253 685.609 111.109 687.785 114.314 685.827C116.161 684.4 117.613 682.522 118.533 680.372C119.452 678.223 119.808 675.873 119.567 673.546Z" fill="#070A4F"/>
<path d="M93.3739 689.018C93.3739 689.018 91.5426 685.924 89.1571 687.979C86.7715 690.033 91.88 694.941 91.88 694.941L93.3739 689.018Z" fill="#FFC9B6"/>
<path d="M111.663 698.664C110.357 698.35 108.991 698.4 107.711 698.809C104.771 699.413 101.735 701.855 99.3496 701.226C98.3859 701.004 97.4985 700.529 96.7785 699.849C96.0586 699.17 95.5321 698.31 95.2532 697.358C94.5784 694.532 94.1511 691.653 93.9761 688.752C93.5581 688.989 93.2201 689.345 93.0055 689.776C92.7908 690.207 92.7093 690.692 92.7713 691.17C92.6078 694.342 92.9246 697.521 93.711 700.598C94.7323 702.726 96.2561 704.571 98.15 705.974C100.044 707.377 102.251 708.295 104.579 708.648C109.639 709.615 110.723 707.004 111.374 703.813C111.772 702.127 111.87 700.384 111.663 698.664Z" fill="#421E47"/>
<path d="M109.976 701.492C109.976 701.492 108.434 701.492 107.904 700.525C106.843 702.169 104.964 702.435 104.193 702.943C104.66 703.458 105.267 703.824 105.94 703.996C106.612 704.168 107.32 704.138 107.976 703.91C108.489 703.714 108.943 703.388 109.293 702.965C109.644 702.541 109.879 702.034 109.976 701.492Z" fill="#FFC9B6"/>
<path d="M84.9398 702.628C90.4518 710.517 94.1549 719.532 95.7831 729.027C98.1928 744.353 95.7831 760.115 95.7831 771.09C95.7831 782.066 97.0602 803.726 97.0602 803.726C91.2179 804.717 85.2553 804.766 79.3976 803.871C74.3965 802.756 69.8754 800.082 66.4819 796.232C66.4819 796.232 71.3012 771.09 74.7952 755.595C76.3855 748.705 72.3855 733.644 69.5663 725.28C67.9518 720.3 67.0121 713.676 71.1807 709.156C74.0964 706.134 80.9639 704.804 84.9398 702.628Z" fill="#212C51"/>
<path d="M54.7231 758.084L66.8436 779.962L98.0484 762.097L85.928 740.219L83.6388 741.452L54.7231 758.084Z" fill="#FF9C7D"/>
<path d="M52.4097 759.293L64.5542 781.195L95.8073 763.403L83.6386 741.452L52.4097 759.293Z" fill="#FF8E66"/>
<path d="M85.4461 740.485L97.3256 761.807L96.0244 762.508L84.0967 741.186L85.4461 740.485Z" fill="white"/>
<path d="M85.2773 741.428L89.1569 748.463L93.7352 745.997L90.0002 738.938L85.2773 741.428Z" fill="#BBD9F9"/>
<path d="M87.5181 746.577L98.506 747.109L93.9277 758.181L87.5181 746.577Z" fill="#DEEFFF"/>
<path d="M79.5182 768.262C81.4916 768.278 83.4446 768.664 85.2773 769.398C86.516 768.593 87.8036 767.866 89.1327 767.222C89.6132 768.712 89.7172 770.298 89.4354 771.839C89.1536 773.379 88.4948 774.825 87.5182 776.046C84.1447 779.672 79.9038 777.593 77.3014 775.393C74.699 773.193 79.5182 768.262 79.5182 768.262Z" fill="#FFC9B6"/>
<path d="M74.5303 707.028C69.26 708.827 64.8619 712.557 62.2171 717.471C57.6843 727.021 54.0539 736.976 51.3737 747.206C49.3737 755.788 49.7592 758.834 51.1809 761.155C53.956 765.262 57.6858 768.631 62.0484 770.969C66.5004 773.731 71.39 775.71 76.5062 776.82C76.5062 776.82 81.7351 775.925 81.7351 767.15C80.4098 765.844 77.9761 766.014 74.0725 762.46C69.1086 757.915 65.4219 753.999 65.4219 753.999C65.4219 753.999 71.3496 745.707 77.1327 736.521C84.94 718.172 74.5303 707.028 74.5303 707.028Z" fill="#0B3F8D"/>
<path d="M86.1446 700.404C86.1446 700.404 81.1808 702.822 80.8916 704.369C82.6311 707.19 83.9007 710.276 84.6506 713.507C85.2021 716.812 85.396 720.168 85.229 723.515L90.6506 725.932L87.494 731.517L96.8675 743.604C96.8675 743.604 98.2651 727.552 94.4579 715.973C90.6506 704.393 86.1446 700.404 86.1446 700.404Z" fill="#2D3B60"/>
<path d="M206.892 694.723C206.892 694.723 198.073 685.948 192.603 696.367C186.916 707.246 185.856 706.037 180.338 713.773C177.863 719.115 175.808 724.644 174.193 730.308C173.205 733.958 174.675 735.143 177.302 746.166C178.421 750.121 180.528 753.724 183.422 756.634C183.422 756.634 190.434 752.669 194.868 752.742C199.302 752.814 192.314 739.301 192.314 739.301L193.567 730.888C204.482 718.124 206.892 694.723 206.892 694.723Z" fill="white"/>
<path d="M183.446 756.634C183.105 759.153 183.105 761.706 183.446 764.225C183.629 765.455 184.117 766.619 184.867 767.609C184.867 767.609 181.687 766.546 180.241 768.528C178.795 770.51 182.651 772.42 187.614 771.961C192.578 771.501 196.843 758.544 196.843 758.544L191.542 752.742C191.542 752.742 185.663 753.298 183.446 756.634Z" fill="#FFC9B6"/>
<path d="M190.145 873.203C190.402 875.125 190.804 877.024 191.35 878.884C191.808 881.182 191.742 883.554 191.157 885.822C190.86 886.476 190.4 887.041 189.822 887.465C189.244 887.888 188.567 888.155 187.856 888.24C186.372 888.57 184.834 888.57 183.35 888.24C181.661 890.091 179.769 891.745 177.711 893.171C174.009 895.411 169.812 896.698 165.494 896.918C162.386 896.435 160.675 894.017 160.964 892.446C162.509 889.268 164.893 886.576 167.856 884.662C170.61 882.617 173.189 880.344 175.567 877.869C176.983 876.313 178.265 874.639 179.398 872.865L190.145 873.203Z" fill="#00233F"/>
<path d="M194.386 749.502C194.386 749.502 185.398 772.517 184 781.824C182.603 791.131 179.807 805.225 178.121 816.973C176.608 828.449 176.317 840.054 177.253 851.591C177.566 856.136 179.229 868.03 178.338 874.484C179.326 878.691 189.133 879.319 190.386 874.339C191.109 871.317 198.627 844.508 199.398 836.071C199.893 831.202 199.476 826.282 198.169 821.566C198.169 821.566 210.41 795.265 214.723 784.918C219.036 774.571 216.097 761.735 216.097 761.735L194.386 749.502Z" fill="#0B3F8D"/>
<path d="M236.289 896.797C237.153 899.951 237.638 903.198 237.735 906.467C237.801 907.505 237.644 908.546 237.274 909.518C236.904 910.49 236.33 911.37 235.59 912.1C235.31 912.451 234.927 912.706 234.494 912.827C234.062 912.949 233.603 912.931 233.181 912.777C233.181 912.777 232.675 920.15 229.205 923.123C227.386 924.417 225.3 925.284 223.102 925.66C220.904 926.037 218.65 925.913 216.506 925.299C213.615 924.211 215.518 918.941 218.362 913.768C221.205 908.594 224.819 903.01 225.735 898.345C232.747 897.498 236.289 896.797 236.289 896.797Z" fill="#00233F"/>
<path d="M226.603 759.027C230.02 764.378 232.68 770.179 234.506 776.264C236.916 784 236.578 802.517 236.578 802.517C236.578 802.517 237.205 820.769 236.048 827.078C235.468 829.572 235.113 832.112 234.988 834.669C238.205 845.367 239.646 856.524 239.253 867.691C238.482 885.581 237.012 898.417 237.012 898.417C236.563 899.535 235.796 900.496 234.806 901.18C233.816 901.863 232.647 902.239 231.446 902.261C230.142 902.354 228.832 902.189 227.592 901.774C226.351 901.359 225.205 900.703 224.217 899.843C224.217 899.843 216.578 861.986 213.735 853.332C211.878 847.267 210.579 841.044 209.856 834.742L204.072 792.219C204.072 792.219 192.627 784.725 198.482 765.796C202.169 753.878 226.603 759.027 226.603 759.027Z" fill="#0B3F8D"/>
<path d="M217.542 700.259C215.132 699.51 205.855 696.488 204.916 696.947C198.241 700.259 190.699 713.265 189.735 722.04C189.325 725.691 190.313 743.652 192.482 749.478C189.325 750.905 189.59 752.355 190.94 754.12C189.663 755.885 188.771 756.199 188.096 757.891C186.795 761.155 188.53 762.726 190.795 765.143C194.12 768.745 199.904 771.646 209.398 772.952C220.385 774.475 228.819 769.882 232.217 765.337C232.675 764.379 232.75 763.282 232.427 762.271C232.105 761.26 231.409 760.41 230.482 759.898C232.313 754.313 233.663 743.676 235.47 736.956C238.169 726.875 240.819 714.885 235.012 707.27C232.434 704.006 222.723 701.976 217.542 700.259Z" fill="#BBD9F9"/>
<path d="M203.639 701.516C202.09 703.871 201.253 706.625 201.229 709.445C201.338 713.169 201.733 716.879 202.41 720.542C202.41 720.542 213.325 717.302 218.771 713.168C226.41 707.342 227.711 703.378 227.711 703.378C224.393 702.074 220.977 701.04 217.494 700.283C212.848 700.274 208.211 700.686 203.639 701.516Z" fill="white"/>
<path d="M218.675 688.22C218.675 688.22 209.759 694.941 206.867 699.51C203.976 704.079 202.795 705.94 204.313 716.432C212.482 713.579 223.59 708.212 225.422 702.556C222.602 701.033 218.675 688.22 218.675 688.22Z" fill="#FEBCA5"/>
<path d="M196.988 684.038C197.157 680.146 198 675.263 200.964 672.483C203.928 669.703 208.964 669.461 212.796 669.727C218.723 670.138 222.892 676.713 221.856 684.231C220.892 691.266 216.217 702.096 208.386 703.571C204.41 704.32 201.326 701.323 199.518 697.479C197.707 693.238 196.843 688.65 196.988 684.038Z" fill="#FFC9B6"/>
<path d="M193.615 755.377C195.949 758.266 199.086 760.394 202.627 761.493C206.008 762.541 209.563 762.903 213.085 762.557L206.314 760.333C203.277 759.462 196.024 755.594 193.615 755.377Z" fill="#BBD9F9"/>
<path d="M199.398 751.122C201.23 754.107 204.029 756.369 207.326 757.528C210.102 758.562 213.094 758.878 216.024 758.447C216.024 758.447 210.145 756.561 207.832 755.377C205.518 754.192 199.398 751.122 199.398 751.122Z" fill="#BBD9F9"/>
<path d="M230.049 675.069C229.879 673.997 229.353 673.012 228.558 672.276C227.762 671.539 226.743 671.092 225.663 671.008C227.446 667.019 227.302 662.112 222.603 660.371C220.29 659.461 217.756 659.273 215.334 659.834C212.913 660.395 210.718 661.678 209.037 663.514C207.88 659.815 204.338 656.648 198.916 660.951C192.747 665.786 192.338 674.006 196.627 681.089C199.856 685.078 207.639 685.44 211.422 682.757C212.434 687.858 212.747 688.027 216.796 689.816C216.362 692.886 220.024 697.624 222.916 699.147C223.494 690.638 231.374 682.854 230.049 675.069Z" fill="#070A4F"/>
<path d="M213.855 690.976C213.855 687.302 217.976 684.836 218.964 688.559C219.203 689.668 219.143 690.821 218.792 691.9C218.44 692.979 217.81 693.945 216.964 694.699L213.855 690.976Z" fill="#FFC9B6"/>
<path d="M234.988 707.342C234.988 707.342 223.374 723.08 220.531 731.517C218.701 736.735 216.594 741.852 214.217 746.843C214.217 746.843 196.458 747.859 187.711 749.116C183.657 749.595 179.634 750.314 175.663 751.267C176.768 754.591 177.258 758.089 177.109 761.59C177.109 761.807 177.109 762.049 177.109 762.267C183.398 764.007 197.398 767.609 204.458 767.247C211.43 766.669 218.339 765.488 225.109 763.717C225.109 763.717 237.494 739.301 241.735 731.541C245.976 723.781 244.579 712.08 234.988 707.342Z" fill="white"/>
<path d="M175.663 751.219C175.663 751.219 164.916 746.384 160.072 747.423C155.229 748.463 152.843 754.241 151.807 756.634C150.771 759.027 152.506 762.871 157.614 762.508C160.219 762.496 162.752 761.649 164.843 760.091C164.843 760.091 172.289 764.128 177.084 762.242C179.952 758.64 177.904 752.162 175.663 751.219Z" fill="#FFC9B6"/>
<path d="M129.518 661.483C129.518 649.396 141.061 632.933 155.518 624.666C164.53 619.492 172.53 618.743 177.205 621.813L182.723 625.536C182.34 626.739 182.082 627.978 181.952 629.235C181.952 629.235 181.832 629.235 181.567 629.041C181.691 629.841 181.756 630.649 181.759 631.459C182.073 643.522 170.482 660.009 156.024 668.349C151.801 670.95 147.033 672.531 142.097 672.966L141.181 673.957L136.747 685.996L132.434 683.313L134.386 671.226C132.79 670.176 131.5 668.723 130.645 667.012C129.79 665.301 129.402 663.394 129.518 661.483Z" fill="#95BFE5"/>
<path d="M133.952 664.287C133.952 676.375 145.855 679.396 160.313 671.105C174.771 662.813 186.386 646.326 186.289 634.263C186.193 622.2 174.385 619.178 159.928 627.47C145.47 635.762 133.855 652.249 133.952 664.287Z" fill="#BBD9F9"/>
<path d="M142.072 663.514C142.155 660.106 142.977 656.756 144.482 653.699C145.958 650.105 147.991 646.768 150.506 643.812C153.077 641.306 156.009 639.203 159.205 637.575C162.434 635.713 163.133 636.777 164.386 637.575C164.943 638.021 165.585 638.348 166.273 638.535C166.961 638.723 167.68 638.766 168.386 638.663C174.145 637.865 179.349 634.07 179.639 641.08C180 641.08 180.265 641.08 180.265 641.564C180.261 642.078 180.109 642.58 179.827 643.009C179.545 643.438 179.144 643.775 178.675 643.981L173.855 646.81C173.762 647.901 173.434 648.959 172.893 649.911C172.352 650.862 171.612 651.685 170.723 652.321C169.108 653.264 167.783 652.321 167.59 650.436L150.988 660.105C150.895 661.197 150.566 662.255 150.025 663.207C149.485 664.158 148.744 664.981 147.855 665.617C146.241 666.56 144.916 665.617 144.723 663.732L141.735 665.448C141.735 665.448 141.566 664.118 142.072 663.514Z" fill="white"/>
<path d="M151.205 649.275C151.697 646.907 152.737 644.688 154.241 642.797C156.637 640.8 159.371 639.252 162.314 638.228C163.639 638.107 165.012 640.814 165.253 641.153L151.205 649.275Z" fill="#BBD9F9"/>
<path d="M148.217 673.764L136.771 685.996L139.326 670.283L148.217 673.764Z" fill="#BBD9F9"/>
</g>
<defs>
<filter id="filter0_ddddii" x="-868" y="0.819702" width="2235.39" height="1473.25" filterUnits="userSpaceOnUse" color-interpolation-filters="sRGB">
<feFlood flood-opacity="0" result="BackgroundImageFix"/>
<feColorMatrix in="SourceAlpha" type="matrix" values="0 0 0 0 0 0 0 0 0 0 0 0 0 0 0 0 0 0 127 0"/>
<feOffset dx="100" dy="100"/>
<feGaussianBlur stdDeviation="125"/>
<feColorMatrix type="matrix" values="0 0 0 0 0.901961 0 0 0 0 0.901961 0 0 0 0 0.905882 0 0 0 0.9 0"/>
<feBlend mode="normal" in2="BackgroundImageFix" result="effect1_dropShadow"/>
<feColorMatrix in="SourceAlpha" type="matrix" values="0 0 0 0 0 0 0 0 0 0 0 0 0 0 0 0 0 0 127 0"/>
<feOffset dx="-100" dy="-100"/>
<feGaussianBlur stdDeviation="100"/>
<feColorMatrix type="matrix" values="0 0 0 0 0.908333 0 0 0 0 0.908333 0 0 0 0 0.908333 0 0 0 0.4 0"/>
<feBlend mode="normal" in2="effect1_dropShadow" result="effect2_dropShadow"/>
<feColorMatrix in="SourceAlpha" type="matrix" values="0 0 0 0 0 0 0 0 0 0 0 0 0 0 0 0 0 0 127 0"/>
<feOffset dx="100" dy="-100"/>
<feGaussianBlur stdDeviation="100"/>
<feColorMatrix type="matrix" values="0 0 0 0 0.901961 0 0 0 0 0.901961 0 0 0 0 0.905882 0 0 0 0.2 0"/>
<feBlend mode="normal" in2="effect2_dropShadow" result="effect3_dropShadow"/>
<feColorMatrix in="SourceAlpha" type="matrix" values="0 0 0 0 0 0 0 0 0 0 0 0 0 0 0 0 0 0 127 0"/>
<feOffset dx="-100" dy="100"/>
<feGaussianBlur stdDeviation="100"/>
<feColorMatrix type="matrix" values="0 0 0 0 0.278611 0 0 0 0 0.278611 0 0 0 0 0.283333 0 0 0 0.2 0"/>
<feBlend mode="normal" in2="effect3_dropShadow" result="effect4_dropShadow"/>
<feBlend mode="normal" in="SourceGraphic" in2="effect4_dropShadow" result="shape"/>
<feColorMatrix in="SourceAlpha" type="matrix" values="0 0 0 0 0 0 0 0 0 0 0 0 0 0 0 0 0 0 127 0" result="hardAlpha"/>
<feOffset dx="-4" dy="-4"/>
<feGaussianBlur stdDeviation="2.5"/>
<feComposite in2="hardAlpha" operator="arithmetic" k2="-1" k3="1"/>
<feColorMatrix type="matrix" values="0 0 0 0 0.901961 0 0 0 0 0.901961 0 0 0 0 0.905882 0 0 0 0.5 0"/>
<feBlend mode="normal" in2="shape" result="effect5_innerShadow"/>
<feColorMatrix in="SourceAlpha" type="matrix" values="0 0 0 0 0 0 0 0 0 0 0 0 0 0 0 0 0 0 127 0" result="hardAlpha"/>
<feOffset dx="4" dy="4"/>
<feGaussianBlur stdDeviation="2.5"/>
<feComposite in2="hardAlpha" operator="arithmetic" k2="-1" k3="1"/>
<feColorMatrix type="matrix" values="0 0 0 0 1 0 0 0 0 1 0 0 0 0 1 0 0 0 0.3 0"/>
<feBlend mode="normal" in2="effect5_innerShadow" result="effect6_innerShadow"/>
</filter>
<radialGradient id="paint0_radial" cx="0" cy="0" r="1" gradientUnits="userSpaceOnUse" gradientTransform="translate(1052.27 657.286) rotate(173.981) scale(1629.26 730.821)">
<stop stop-color="#EAEBED"/>
<stop offset="0.375" stop-color="white"/>
<stop offset="0.859375" stop-color="#E8F3FF" stop-opacity="0.81"/>
</radialGradient>
<clipPath id="clip0">
<rect width="507" height="423" fill="white" transform="translate(230 293)"/>
</clipPath>
<clipPath id="clip1">
<rect width="194" height="306" fill="white" transform="translate(50 620)"/>
</clipPath>
</defs>
</svg>
