<svg width="381" height="421" viewBox="0 0 381 421" fill="none" xmlns="http://www.w3.org/2000/svg">
<g clip-path="url(#clip0)">
<path d="M153.85 419.06C180.133 419.06 201.44 406.506 201.44 391.02C201.44 375.534 180.133 362.98 153.85 362.98C127.567 362.98 106.26 375.534 106.26 391.02C106.26 406.506 127.567 419.06 153.85 419.06Z" fill="#E0E0E0"/>
<path d="M72.1701 420.27C93.074 420.27 110.02 410.286 110.02 397.97C110.02 385.654 93.074 375.67 72.1701 375.67C51.2661 375.67 34.3201 385.654 34.3201 397.97C34.3201 410.286 51.2661 420.27 72.1701 420.27Z" fill="#E0E0E0"/>
<path d="M378.07 284.91L280 341.49C277.863 342.724 275.438 343.374 272.97 343.374C270.502 343.374 268.077 342.724 265.94 341.49L257.28 338.32C256.433 337.831 255.729 337.128 255.24 336.281C254.751 335.434 254.493 334.473 254.493 333.495C254.493 332.517 254.751 331.556 255.24 330.709C255.729 329.862 256.433 329.159 257.28 328.67L355.39 272.09C357.527 270.856 359.952 270.206 362.42 270.206C364.888 270.206 367.313 270.856 369.45 272.09L378.11 275.26C378.955 275.752 379.656 276.458 380.142 277.307C380.628 278.156 380.881 279.118 380.877 280.097C380.873 281.075 380.612 282.035 380.119 282.88C379.626 283.724 378.919 284.425 378.07 284.91Z" fill="#E0E0E0"/>
<path d="M333.35 386.25L291.12 410.59C289.215 411.69 287.054 412.269 284.855 412.269C282.655 412.269 280.495 411.69 278.59 410.59L245.91 391.72C245.164 391.277 244.546 390.648 244.116 389.894C243.687 389.14 243.461 388.288 243.461 387.42C243.461 386.552 243.687 385.7 244.116 384.946C244.546 384.192 245.164 383.563 245.91 383.12L288.14 358.78C290.045 357.68 292.205 357.101 294.405 357.101C296.604 357.101 298.765 357.68 300.67 358.78L333.35 377.65C334.096 378.093 334.714 378.722 335.143 379.476C335.573 380.23 335.798 381.082 335.798 381.95C335.798 382.818 335.573 383.67 335.143 384.424C334.714 385.178 334.096 385.807 333.35 386.25Z" fill="#E0E0E0"/>
<path d="M259.72 328.31L215.5 351.64C213.595 352.74 211.435 353.319 209.235 353.319C207.036 353.319 204.875 352.74 202.97 351.64L170.29 332.77C169.544 332.327 168.926 331.698 168.497 330.944C168.067 330.19 167.842 329.338 167.842 328.47C167.842 327.602 168.067 326.75 168.497 325.996C168.926 325.242 169.544 324.613 170.29 324.17L214.52 300.83C216.425 299.73 218.586 299.151 220.785 299.151C222.985 299.151 225.145 299.73 227.05 300.83L259.73 319.7C260.478 320.143 261.097 320.773 261.527 321.529C261.957 322.284 262.183 323.139 262.182 324.008C262.181 324.877 261.953 325.731 261.522 326.485C261.09 327.24 260.469 327.869 259.72 328.31Z" fill="#E0E0E0"/>
<path d="M77.71 126.6C77.8364 124.811 78.599 123.126 79.86 121.85L86.75 114.85C87.2609 114.332 87.6367 113.696 87.8442 112.999C88.0517 112.301 88.0846 111.563 87.94 110.85L86.2 102.45C86.1479 102.202 86.041 101.97 85.8869 101.769C85.7329 101.568 85.5357 101.404 85.31 101.29L75.55 96.52L75.31 96.4C75.0258 96.2847 74.7155 96.2489 74.4125 96.2965C74.1095 96.344 73.8252 96.4732 73.59 96.67L70.77 99L73.67 90.18C73.8325 89.6774 73.8088 89.1331 73.6032 88.6466C73.3975 88.16 73.0237 87.7637 72.55 87.53L62.8 82.76C62.5583 82.6277 62.2935 82.5428 62.02 82.51L55.75 81.72C55.3212 81.6696 54.8866 81.7122 54.4759 81.8451C54.0651 81.978 53.6879 82.198 53.37 82.49C53.0662 82.768 52.8272 83.1094 52.67 83.49L48 94.07C47.5548 95.0838 46.812 95.9382 45.87 96.52L45.54 95.66C45.4637 95.4591 45.3484 95.2753 45.2008 95.1192C45.0532 94.963 44.8762 94.8375 44.68 94.75L35.1 90.07L34.79 89.92C34.4914 89.8001 34.1639 89.7712 33.849 89.8371C33.534 89.9029 33.2455 90.0605 33.02 90.29L24.8 98.59C24.2419 99.1465 23.8233 99.827 23.5783 100.576C23.3332 101.325 23.2687 102.121 23.39 102.9L24.57 110.46C24.7122 111.393 24.5096 112.346 24 113.14L19.33 120.43C19.0708 120.849 18.7309 121.213 18.33 121.5C17.6718 121.974 16.8812 122.23 16.07 122.23H10.76C10.4388 122.229 10.119 122.272 9.80997 122.36C9.24238 122.512 8.71978 122.799 8.28637 123.196C7.85296 123.593 7.52149 124.088 7.31997 124.64L2.61997 137.48C2.45901 137.924 2.46006 138.41 2.62293 138.853C2.78579 139.295 3.09999 139.666 3.50997 139.9L10.51 143.31C10.592 143.616 10.6157 143.935 10.58 144.25L9.79997 151.46C9.74654 151.918 9.62871 152.365 9.44997 152.79C9.22436 153.387 8.8847 153.933 8.44997 154.4L1.30997 161.76C0.797957 162.291 0.425078 162.941 0.224458 163.651C0.0238371 164.361 0.00168529 165.109 0.15997 165.83L2.15997 174.98C2.20431 175.185 2.29742 175.377 2.43144 175.539C2.56545 175.701 2.73644 175.828 2.92997 175.91L12.64 180.66C12.8723 180.792 13.1391 180.85 13.4052 180.826C13.6712 180.803 13.9239 180.7 14.13 180.53L17.28 177.93L14.64 187.06C14.5789 187.261 14.5518 187.47 14.56 187.68C14.5704 188.069 14.6892 188.447 14.903 188.772C15.1167 189.097 15.417 189.356 15.77 189.52L25.22 194.11C25.5119 194.33 25.8571 194.468 26.22 194.51L31.68 195.19C32.4092 195.281 33.1482 195.135 33.7888 194.775C34.4294 194.415 34.938 193.86 35.24 193.19L39.89 182.81C40.3638 181.769 41.1549 180.904 42.15 180.34L42.39 181.03C42.4695 181.262 42.601 181.472 42.7743 181.646C42.9476 181.819 43.1582 181.95 43.39 182.03L52.99 186.74C53.2828 186.879 53.6105 186.928 53.9312 186.88C54.2518 186.832 54.5508 186.689 54.79 186.47L63.15 178.82C63.6483 178.364 64.0281 177.793 64.2563 177.157C64.4846 176.521 64.5545 175.839 64.46 175.17L63.28 166.81C63.091 165.413 63.4066 163.995 64.17 162.81L68 156.92C68.4854 156.171 69.1506 155.555 69.9348 155.129C70.719 154.703 71.5974 154.48 72.49 154.48H77.6C78.224 154.484 78.834 154.294 79.3448 153.936C79.8556 153.577 80.242 153.068 80.45 152.48L85.06 140C85.2552 139.454 85.2564 138.858 85.0633 138.312C84.8702 137.765 84.4947 137.302 84 137H83.95L83.76 136.91L77.36 133.79C77.289 133.523 77.262 133.246 77.28 132.97L77.71 126.6ZM47.04 120.6C49.063 119.094 51.402 118.068 53.88 117.6C54.9357 119.691 55.5614 121.973 55.72 124.31C56.72 135.5 50.17 149.84 41 156.31C39.0017 157.809 36.7077 158.865 34.27 159.41C33.1343 157.312 32.4528 154.999 32.27 152.62C31.27 141.46 37.87 127.12 47 120.62L47.04 120.6Z" fill="#0B3F8D"/>
<path opacity="0.2" d="M20.5099 157.87L9.94994 168.61L0.189941 163.61C0.396526 162.927 0.763379 162.303 1.25994 161.79L8.39994 154.43C8.83467 153.963 9.17433 153.416 9.39994 152.82L20.5099 157.87Z" fill="white"/>
<path opacity="0.2" d="M28.1901 126.29L27.9801 127.49H18.8201L9.82007 122.35C10.1291 122.262 10.4489 122.219 10.7701 122.22H16.1001C16.9113 122.22 17.7019 121.964 18.3601 121.49L28.1901 126.29Z" fill="white"/>
<path opacity="0.2" d="M44.7201 94.75L40.5901 98.82L33.2701 106L23.5901 100.66C23.8362 99.8834 24.2649 99.177 24.8401 98.6L33.0001 90.28C33.2256 90.0505 33.5141 89.8929 33.8291 89.8271C34.1441 89.7612 34.4715 89.7901 34.7701 89.91L35.0801 90.06L44.7201 94.75Z" fill="white"/>
<path opacity="0.2" d="M72.5799 87.56H62.9999L53.4199 82.56C53.7379 82.2679 54.1151 82.048 54.5258 81.9151C54.9366 81.7822 55.3712 81.7395 55.7999 81.79L62.0699 82.58C62.3434 82.613 62.6081 82.6979 62.8499 82.83L72.5799 87.56Z" fill="white"/>
<path d="M79.87 121.85L86.76 114.85C87.2709 114.332 87.6467 113.696 87.8542 112.999C88.0617 112.301 88.0946 111.563 87.95 110.85L86.21 102.45C86.153 102.158 86.0211 101.885 85.8272 101.659C85.6334 101.433 85.3841 101.261 85.1039 101.161C84.8237 101.06 84.5221 101.033 84.2287 101.084C83.9353 101.135 83.6601 101.261 83.43 101.45L76.28 107.33C75.9087 107.636 75.4357 107.79 74.9556 107.762C74.4755 107.734 74.0235 107.526 73.69 107.18L71.63 105.04C70.9904 104.376 70.5444 103.55 70.3399 102.652C70.1355 101.753 70.1805 100.815 70.47 99.94L73.69 90.16C73.7913 89.8507 73.823 89.5228 73.7829 89.1998C73.7428 88.8768 73.6318 88.5667 73.458 88.2916C73.2841 88.0164 73.0516 87.7831 72.7771 87.6082C72.5026 87.4333 72.1928 87.3213 71.87 87.28L65.6 86.49C64.9657 86.4148 64.324 86.5439 63.7682 86.8587C63.2124 87.1734 62.7716 87.6574 62.51 88.24L57.86 98.88C57.2941 100.169 56.2564 101.192 54.96 101.74L50.79 103.5C50.2992 103.698 49.7501 103.693 49.2627 103.487C48.7754 103.281 48.3897 102.89 48.19 102.4L45.59 95.66C45.4917 95.4013 45.3299 95.1714 45.1195 94.9915C44.9091 94.8117 44.6568 94.6877 44.3859 94.6309C44.115 94.5742 43.8341 94.5865 43.5692 94.6667C43.3043 94.7469 43.0639 94.8925 42.87 95.09L34.65 103.39C34.0937 103.947 33.6769 104.628 33.4336 105.377C33.1904 106.126 33.1274 106.922 33.25 107.7L34.42 115.26C34.5647 116.196 34.362 117.153 33.85 117.95L29.18 125.24C28.8239 125.784 28.3371 126.23 27.7641 126.538C27.1911 126.845 26.5502 127.004 25.9 127H20.58C19.8271 126.999 19.0924 127.23 18.4752 127.661C17.8581 128.092 17.3884 128.703 17.13 129.41L12.43 142.25C12.3381 142.504 12.2988 142.775 12.3144 143.045C12.33 143.315 12.4002 143.579 12.5208 143.821C12.6414 144.063 12.8098 144.278 13.016 144.453C13.2221 144.629 13.4616 144.76 13.72 144.84L18.6 146.32C19.1668 146.493 19.6555 146.859 19.9822 147.353C20.3089 147.848 20.453 148.441 20.39 149.03L19.6 156.23C19.4793 157.341 18.99 158.38 18.21 159.18L11.07 166.54C10.5547 167.069 10.1789 167.718 9.97647 168.429C9.774 169.139 9.75115 169.889 9.90996 170.61L11.91 179.76C11.9585 179.983 12.0638 180.19 12.2156 180.361C12.3674 180.532 12.5607 180.661 12.7767 180.735C12.9928 180.809 13.2244 180.827 13.4491 180.786C13.6739 180.744 13.8843 180.646 14.06 180.5L21.06 174.71C21.3374 174.481 21.6572 174.31 22.0011 174.205C22.345 174.101 22.7062 174.065 23.0639 174.1C23.4216 174.136 23.7688 174.241 24.0856 174.411C24.4024 174.581 24.6826 174.812 24.91 175.09L26.69 177.27C27.1207 177.797 27.4168 178.422 27.5526 179.089C27.6885 179.756 27.6601 180.446 27.47 181.1L24.36 191.85C24.2751 192.141 24.2544 192.446 24.2993 192.746C24.3443 193.045 24.4537 193.331 24.6202 193.584C24.7866 193.837 25.0061 194.051 25.2633 194.211C25.5205 194.371 25.8094 194.473 26.11 194.51L31.57 195.19C32.2992 195.281 33.0382 195.135 33.6788 194.775C34.3194 194.415 34.828 193.86 35.13 193.19L39.78 182.81C40.3088 181.629 41.2413 180.675 42.41 180.12L46.48 178.18C46.8045 178.019 47.16 177.929 47.5223 177.917C47.8846 177.906 48.2451 177.973 48.5792 178.113C48.9133 178.254 49.2132 178.465 49.4584 178.732C49.7036 178.998 49.8883 179.315 50 179.66L52.16 185.86C52.2505 186.117 52.4033 186.348 52.6049 186.532C52.8064 186.715 53.0503 186.846 53.3148 186.913C53.5794 186.979 53.8562 186.979 54.1206 186.912C54.385 186.845 54.6287 186.714 54.83 186.53L63.19 178.88C63.6883 178.424 64.068 177.853 64.2963 177.217C64.5245 176.581 64.5944 175.899 64.5 175.23L63.32 166.87C63.131 165.473 63.4466 164.055 64.21 162.87L68 156.92C68.4854 156.171 69.1506 155.555 69.9348 155.129C70.719 154.703 71.5974 154.48 72.49 154.48H77.6C78.224 154.484 78.8339 154.294 79.3448 153.936C79.8556 153.577 80.242 153.068 80.45 152.48L85.06 140C85.1819 139.671 85.2339 139.319 85.2127 138.969C85.1914 138.618 85.0974 138.276 84.9365 137.963C84.7756 137.651 84.5515 137.375 84.2783 137.155C84.0052 136.934 83.689 136.772 83.35 136.68L79.15 135.55C78.5747 135.396 78.0712 135.046 77.7262 134.56C77.3813 134.075 77.2164 133.484 77.26 132.89L77.71 126.55C77.8507 124.777 78.6161 123.111 79.87 121.85ZM50.82 161.15C41.65 167.65 33.37 163.84 32.33 152.65C31.29 141.46 37.88 127.12 47.05 120.65C56.22 114.18 64.5 117.96 65.55 129.15C66.6 140.34 60 154.65 50.81 161.15H50.82Z" fill="#0B3F8D"/>
<path opacity="0.5" d="M79.87 121.85L86.76 114.85C87.2709 114.332 87.6467 113.696 87.8542 112.999C88.0617 112.301 88.0946 111.563 87.95 110.85L86.21 102.45C86.153 102.158 86.0211 101.885 85.8272 101.659C85.6334 101.433 85.3841 101.261 85.1039 101.161C84.8237 101.06 84.5221 101.033 84.2287 101.084C83.9353 101.135 83.6601 101.261 83.43 101.45L76.28 107.33C75.9087 107.636 75.4357 107.79 74.9556 107.762C74.4755 107.734 74.0235 107.526 73.69 107.18L71.63 105.04C70.9904 104.376 70.5444 103.55 70.3399 102.652C70.1355 101.753 70.1805 100.815 70.47 99.94L73.69 90.16C73.7913 89.8507 73.823 89.5228 73.7829 89.1998C73.7428 88.8768 73.6318 88.5667 73.458 88.2916C73.2841 88.0164 73.0516 87.7831 72.7771 87.6082C72.5026 87.4333 72.1928 87.3213 71.87 87.28L65.6 86.49C64.9657 86.4148 64.324 86.5439 63.7682 86.8587C63.2124 87.1734 62.7716 87.6574 62.51 88.24L57.86 98.88C57.2941 100.169 56.2564 101.192 54.96 101.74L50.79 103.5C50.2992 103.698 49.7501 103.693 49.2627 103.487C48.7754 103.281 48.3897 102.89 48.19 102.4L45.59 95.66C45.4917 95.4013 45.3299 95.1714 45.1195 94.9915C44.9091 94.8117 44.6568 94.6877 44.3859 94.6309C44.115 94.5742 43.8341 94.5865 43.5692 94.6667C43.3043 94.7469 43.0639 94.8925 42.87 95.09L34.65 103.39C34.0937 103.947 33.6769 104.628 33.4336 105.377C33.1904 106.126 33.1274 106.922 33.25 107.7L34.42 115.26C34.5647 116.196 34.362 117.153 33.85 117.95L29.18 125.24C28.8239 125.784 28.3371 126.23 27.7641 126.538C27.1911 126.845 26.5502 127.004 25.9 127H20.58C19.8271 126.999 19.0924 127.23 18.4752 127.661C17.8581 128.092 17.3884 128.703 17.13 129.41L12.43 142.25C12.3381 142.504 12.2988 142.775 12.3144 143.045C12.33 143.315 12.4002 143.579 12.5208 143.821C12.6414 144.063 12.8098 144.278 13.016 144.453C13.2221 144.629 13.4616 144.76 13.72 144.84L18.6 146.32C19.1668 146.493 19.6555 146.859 19.9822 147.353C20.3089 147.848 20.453 148.441 20.39 149.03L19.6 156.23C19.4793 157.341 18.99 158.38 18.21 159.18L11.07 166.54C10.5547 167.069 10.1789 167.718 9.97647 168.429C9.774 169.139 9.75115 169.889 9.90996 170.61L11.91 179.76C11.9585 179.983 12.0638 180.19 12.2156 180.361C12.3674 180.532 12.5607 180.661 12.7767 180.735C12.9928 180.809 13.2244 180.827 13.4491 180.786C13.6739 180.744 13.8843 180.646 14.06 180.5L21.06 174.71C21.3374 174.481 21.6572 174.31 22.0011 174.205C22.345 174.101 22.7062 174.065 23.0639 174.1C23.4216 174.136 23.7688 174.241 24.0856 174.411C24.4024 174.581 24.6826 174.812 24.91 175.09L26.69 177.27C27.1207 177.797 27.4168 178.422 27.5526 179.089C27.6885 179.756 27.6601 180.446 27.47 181.1L24.36 191.85C24.2751 192.141 24.2544 192.446 24.2993 192.746C24.3443 193.045 24.4537 193.331 24.6202 193.584C24.7866 193.837 25.0061 194.051 25.2633 194.211C25.5205 194.371 25.8094 194.473 26.11 194.51L31.57 195.19C32.2992 195.281 33.0382 195.135 33.6788 194.775C34.3194 194.415 34.828 193.86 35.13 193.19L39.78 182.81C40.3088 181.629 41.2413 180.675 42.41 180.12L46.48 178.18C46.8045 178.019 47.16 177.929 47.5223 177.917C47.8846 177.906 48.2451 177.973 48.5792 178.113C48.9133 178.254 49.2132 178.465 49.4584 178.732C49.7036 178.998 49.8883 179.315 50 179.66L52.16 185.86C52.2505 186.117 52.4033 186.348 52.6049 186.532C52.8064 186.715 53.0503 186.846 53.3148 186.913C53.5794 186.979 53.8562 186.979 54.1206 186.912C54.385 186.845 54.6287 186.714 54.83 186.53L63.19 178.88C63.6883 178.424 64.068 177.853 64.2963 177.217C64.5245 176.581 64.5944 175.899 64.5 175.23L63.32 166.87C63.131 165.473 63.4466 164.055 64.21 162.87L68 156.92C68.4854 156.171 69.1506 155.555 69.9348 155.129C70.719 154.703 71.5974 154.48 72.49 154.48H77.6C78.224 154.484 78.8339 154.294 79.3448 153.936C79.8556 153.577 80.242 153.068 80.45 152.48L85.06 140C85.1819 139.671 85.2339 139.319 85.2127 138.969C85.1914 138.618 85.0974 138.276 84.9365 137.963C84.7756 137.651 84.5515 137.375 84.2783 137.155C84.0052 136.934 83.689 136.772 83.35 136.68L79.15 135.55C78.5747 135.396 78.0712 135.046 77.7262 134.56C77.3813 134.075 77.2164 133.484 77.26 132.89L77.71 126.55C77.8507 124.777 78.6161 123.111 79.87 121.85ZM50.82 161.15C41.65 167.65 33.37 163.84 32.33 152.65C31.29 141.46 37.88 127.12 47.05 120.65C56.22 114.18 64.5 117.96 65.55 129.15C66.6 140.34 60 154.65 50.81 161.15H50.82Z" fill="white"/>
<path d="M131.26 39C131.355 37.6917 131.916 36.4608 132.84 35.53L137.84 30.45C138.217 30.0699 138.493 29.6025 138.645 29.0894C138.797 28.5764 138.819 28.0338 138.71 27.51L137.44 21.36C137.403 21.1785 137.325 21.0078 137.212 20.8606C137.1 20.7134 136.955 20.5936 136.79 20.51L129.69 17L129.52 16.91C129.312 16.8261 129.084 16.8003 128.862 16.8355C128.64 16.8708 128.432 16.9656 128.26 17.11L126.18 18.82L128.3 12.37C128.419 12.0021 128.402 11.6036 128.251 11.2473C128.101 10.8911 127.827 10.601 127.48 10.43L120.38 7.00002C120.203 6.90429 120.01 6.8432 119.81 6.82002L115.23 6.24002C114.917 6.20048 114.599 6.23013 114.298 6.32689C113.997 6.42364 113.722 6.58515 113.49 6.80002C113.271 6.99747 113.097 7.23959 112.98 7.51002L109.58 15.25C109.241 15.9788 108.691 16.5887 108 17L107.76 16.37C107.704 16.224 107.619 16.0905 107.511 15.9772C107.403 15.864 107.273 15.7732 107.13 15.71L100.13 12.29L99.9001 12.18C99.6824 12.0929 99.4438 12.0721 99.2143 12.1201C98.9848 12.1682 98.7746 12.2829 98.6101 12.45L92.6101 18.52C92.206 18.9285 91.9046 19.427 91.7308 19.9746C91.5569 20.5222 91.5156 21.1033 91.6101 21.67L92.4701 27.2C92.5831 27.8957 92.4334 28.6086 92.0501 29.2L88.6301 34.53C88.4377 34.8367 88.1862 35.1018 87.8901 35.31C87.409 35.6549 86.832 35.8402 86.2401 35.84H82.3401C82.107 35.8378 81.8748 35.8681 81.6501 35.93C81.235 36.042 80.853 36.2522 80.5362 36.5428C80.2194 36.8335 79.9772 37.1961 79.8301 37.6L76.3301 47C76.2213 47.3227 76.2288 47.6732 76.3511 47.9909C76.4735 48.3086 76.703 48.5736 77.0001 48.74L82.0901 51.23C82.1487 51.4516 82.1657 51.6822 82.1401 51.91L81.5701 57.18C81.4753 57.9852 81.1248 58.7388 80.5701 59.33L75.3401 64.71C74.9623 65.1012 74.6878 65.5802 74.5412 66.1039C74.3945 66.6276 74.3804 67.1795 74.5001 67.71L76.0001 74.41C76.0353 74.5586 76.1041 74.6971 76.2012 74.815C76.2982 74.9329 76.421 75.0269 76.5601 75.09L83.6601 78.57C83.8318 78.6611 84.0264 78.7001 84.22 78.6824C84.4135 78.6646 84.5978 78.5908 84.7501 78.47L87.0001 76.57L85.0701 83.25C85.0242 83.3989 85.004 83.5544 85.0101 83.71C85.0185 83.9929 85.1052 84.2679 85.2605 84.5045C85.4159 84.7411 85.6338 84.9299 85.8901 85.05L92.8001 88.41C93.0078 88.5662 93.2524 88.6661 93.5101 88.7L97.5101 89.2C98.0453 89.2681 98.5883 89.1618 99.0584 88.897C99.5285 88.6323 99.9008 88.223 100.12 87.73L103.52 80.14C103.867 79.379 104.444 78.746 105.17 78.33L105.34 78.83C105.398 78.9991 105.495 79.1526 105.621 79.2791C105.747 79.4055 105.901 79.5016 106.07 79.56L113.07 83C113.285 83.1012 113.525 83.1361 113.76 83.1005C113.995 83.0649 114.215 82.9603 114.39 82.8L120.5 77.21C120.875 76.8829 121.163 76.4675 121.338 76.0014C121.512 75.5353 121.568 75.0331 121.5 74.54L120.63 68.43C120.473 67.3842 120.704 66.3171 121.28 65.43L124.08 61.1C124.435 60.5502 124.922 60.0982 125.497 59.7854C126.072 59.4727 126.716 59.3092 127.37 59.31H131.09C131.542 59.3378 131.992 59.2273 132.379 58.9933C132.767 58.7593 133.074 58.4129 133.26 58L136.63 48.9C136.781 48.4936 136.783 48.0471 136.637 47.6391C136.49 47.2312 136.205 46.888 135.83 46.67L135.69 46.6L131 44.25C130.948 44.0546 130.927 43.8519 130.94 43.65L131.26 39ZM108.82 34.63C110.298 33.527 112.008 32.7747 113.82 32.43C114.594 33.9599 115.053 35.6295 115.17 37.34C115.93 45.53 111.11 56.01 104.4 60.77C102.939 61.8515 101.266 62.6115 99.4901 63C98.6667 61.4526 98.1794 59.7488 98.0601 58C97.3001 49.89 102.12 39.4 108.83 34.64L108.82 34.63Z" fill="#0B3F8D"/>
<path opacity="0.2" d="M89.4201 61.8899L81.7001 69.7499L74.5601 66.0699C74.7103 65.5708 74.9778 65.1148 75.3401 64.7399L80.5701 59.3599C80.8986 59.0204 81.1568 58.6194 81.3301 58.1799L89.4201 61.8899Z" fill="white"/>
<path opacity="0.2" d="M94.9999 38.79L94.8399 39.67H88.1399L81.5999 35.91C81.8246 35.8481 82.0568 35.8179 82.2899 35.82H86.1899C86.7817 35.8203 87.3588 35.6349 87.8399 35.29L94.9999 38.79Z" fill="white"/>
<path opacity="0.2" d="M107.13 15.72L104.13 18.72L98.7499 24L91.6699 20C91.8482 19.4311 92.1603 18.9133 92.5799 18.49L98.5799 12.42C98.7444 12.2529 98.9546 12.1381 99.1841 12.0901C99.4136 12.042 99.6522 12.0629 99.8699 12.15L100.1 12.26L107.13 15.72Z" fill="white"/>
<path opacity="0.2" d="M127.51 10.46H120.51L113.51 6.76999C113.741 6.55512 114.017 6.39361 114.318 6.29686C114.618 6.2001 114.937 6.17045 115.25 6.20999L119.83 6.78999C120.03 6.81317 120.223 6.87427 120.4 6.96999L127.51 10.46Z" fill="white"/>
<path d="M132.84 35.55L137.84 30.47C138.216 30.0899 138.493 29.6225 138.645 29.1095C138.797 28.5964 138.819 28.0538 138.71 27.53L137.44 21.38C137.393 21.1733 137.296 20.9816 137.155 20.8228C137.015 20.664 136.837 20.543 136.638 20.4713C136.438 20.3995 136.224 20.3792 136.015 20.4122C135.805 20.4451 135.608 20.5304 135.44 20.66L130.21 25C129.938 25.2245 129.591 25.3379 129.238 25.3175C128.886 25.2971 128.555 25.1445 128.31 24.89L126.8 23.32C126.332 22.8348 126.005 22.2308 125.856 21.5734C125.706 20.916 125.738 20.2302 125.95 19.59L128.3 12.43C128.379 12.2047 128.408 11.9645 128.383 11.727C128.358 11.4894 128.28 11.2603 128.156 11.0564C128.031 10.8525 127.863 10.6788 127.663 10.548C127.463 10.4172 127.237 10.3325 127 10.3L122.42 9.72004C121.951 9.6542 121.473 9.74368 121.06 9.97479C120.646 10.2059 120.32 10.566 120.13 11L116.74 18.74C116.329 19.6835 115.569 20.4321 114.62 20.83L111.62 22.12C111.442 22.1945 111.252 22.2325 111.059 22.2319C110.866 22.2313 110.676 22.1921 110.499 22.1165C110.322 22.041 110.161 21.9307 110.028 21.7922C109.894 21.6537 109.789 21.4897 109.72 21.31L107.81 16.38C107.739 16.1891 107.62 16.0193 107.465 15.8865C107.311 15.7536 107.125 15.662 106.925 15.6201C106.726 15.5782 106.519 15.5874 106.324 15.6468C106.129 15.7063 105.952 15.814 105.81 15.96L99.81 22.03C99.4078 22.4418 99.1078 22.9423 98.9341 23.4911C98.7604 24.0399 98.7179 24.6218 98.81 25.19L99.67 30.72C99.786 31.4145 99.6398 32.1272 99.26 32.72L95.76 38C95.5025 38.4027 95.1476 38.7339 94.728 38.9629C94.3085 39.1919 93.838 39.3113 93.36 39.31H89.47C88.9255 39.3232 88.3978 39.5015 87.9567 39.8211C87.5157 40.1407 87.1821 40.5867 87 41.1L83.56 50.49C83.493 50.6756 83.4643 50.8728 83.4757 51.0698C83.487 51.2667 83.5382 51.4593 83.626 51.636C83.7139 51.8126 83.8366 51.9696 83.9868 52.0975C84.137 52.2254 84.3116 52.3215 84.5 52.38L88 53.46C88.4186 53.5863 88.7793 53.8559 89.0189 54.2217C89.2585 54.5874 89.3615 55.0259 89.31 55.46L88.74 60.73C88.6559 61.5411 88.304 62.3011 87.74 62.89L82.52 68.27C82.139 68.6593 81.8616 69.1378 81.7131 69.6618C81.5646 70.1859 81.5498 70.7388 81.67 71.27L83.15 77.96C83.1922 78.1186 83.2727 78.2643 83.3845 78.3843C83.4963 78.5044 83.636 78.5951 83.7911 78.6484C83.9462 78.7018 84.1121 78.7161 84.2741 78.6903C84.4361 78.6644 84.5892 78.5991 84.72 78.5L89.86 74.27C90.0633 74.1028 90.2977 73.9773 90.5496 73.9008C90.8016 73.8244 91.0661 73.7984 91.3281 73.8244C91.5901 73.8504 91.8444 73.9279 92.0764 74.0524C92.3084 74.177 92.5135 74.3461 92.68 74.55L94 76.11C94.3149 76.4956 94.5313 76.9519 94.6306 77.4397C94.7299 77.9275 94.7091 78.4321 94.57 78.91L92.29 86.77C92.2291 86.9823 92.2149 87.2052 92.2483 87.4235C92.2817 87.6418 92.362 87.8503 92.4836 88.0346C92.6052 88.2189 92.7653 88.3747 92.9528 88.4913C93.1403 88.6079 93.3509 88.6825 93.57 88.71L97.57 89.21C98.1053 89.2781 98.6482 89.1719 99.1183 88.9071C99.5884 88.6423 99.9607 88.233 100.18 87.74L103.58 80.15C103.961 79.2758 104.642 78.5665 105.5 78.15L108.5 76.73C108.735 76.6246 108.989 76.5697 109.247 76.5687C109.504 76.5678 109.759 76.6209 109.994 76.7246C110.23 76.8282 110.441 76.9802 110.614 77.1706C110.788 77.361 110.919 77.5857 111 77.83L112.58 82.37C112.641 82.5682 112.753 82.7472 112.904 82.8895C113.054 83.0318 113.24 83.1325 113.441 83.1819C113.643 83.2312 113.853 83.2275 114.053 83.1711C114.253 83.1147 114.434 83.0075 114.58 82.86L120.69 77.27C121.065 76.9429 121.353 76.5275 121.527 76.0614C121.702 75.5953 121.758 75.0931 121.69 74.6L120.82 68.49C120.663 67.4442 120.894 66.3771 121.47 65.49L124.27 61.16C124.625 60.6102 125.112 60.1582 125.687 59.8455C126.262 59.5327 126.906 59.3693 127.56 59.37H131.28C131.707 59.3551 132.12 59.2181 132.471 58.9752C132.822 58.7324 133.096 58.3939 133.26 58L136.63 48.9C136.72 48.659 136.758 48.402 136.743 48.1453C136.727 47.8886 136.659 47.638 136.541 47.4093C136.423 47.1807 136.259 46.979 136.059 46.8173C135.86 46.6556 135.628 46.5373 135.38 46.47L132.31 45.64C131.89 45.5253 131.522 45.2681 131.27 44.9124C131.019 44.5567 130.898 44.1246 130.93 43.69L131.26 39.06C131.346 37.7377 131.907 36.491 132.84 35.55ZM111.59 64.29C104.88 69.04 98.82 66.29 98.06 58.07C97.3 49.85 102.12 39.39 108.83 34.64C115.54 29.89 121.6 32.64 122.36 40.86C123.12 49.08 118.29 59.54 111.59 64.29Z" fill="#0B3F8D"/>
<path opacity="0.5" d="M132.84 35.55L137.84 30.47C138.216 30.0899 138.493 29.6225 138.645 29.1095C138.797 28.5964 138.819 28.0538 138.71 27.53L137.44 21.38C137.393 21.1733 137.296 20.9816 137.155 20.8228C137.015 20.664 136.837 20.543 136.638 20.4713C136.438 20.3995 136.224 20.3792 136.015 20.4122C135.805 20.4451 135.608 20.5304 135.44 20.66L130.21 25C129.938 25.2245 129.591 25.3379 129.238 25.3175C128.886 25.2971 128.555 25.1445 128.31 24.89L126.8 23.32C126.332 22.8348 126.005 22.2308 125.856 21.5734C125.706 20.916 125.738 20.2302 125.95 19.59L128.3 12.43C128.379 12.2047 128.408 11.9645 128.383 11.727C128.358 11.4894 128.28 11.2603 128.156 11.0564C128.031 10.8525 127.863 10.6788 127.663 10.548C127.463 10.4172 127.237 10.3325 127 10.3L122.42 9.72004C121.951 9.6542 121.473 9.74368 121.06 9.97479C120.646 10.2059 120.32 10.566 120.13 11L116.74 18.74C116.329 19.6835 115.569 20.4321 114.62 20.83L111.62 22.12C111.442 22.1945 111.252 22.2325 111.059 22.2319C110.866 22.2313 110.676 22.1921 110.499 22.1165C110.322 22.041 110.161 21.9307 110.028 21.7922C109.894 21.6537 109.789 21.4897 109.72 21.31L107.81 16.38C107.739 16.1891 107.62 16.0193 107.465 15.8865C107.311 15.7536 107.125 15.662 106.925 15.6201C106.726 15.5782 106.519 15.5874 106.324 15.6468C106.129 15.7063 105.952 15.814 105.81 15.96L99.81 22.03C99.4078 22.4418 99.1078 22.9423 98.9341 23.4911C98.7604 24.0399 98.7179 24.6218 98.81 25.19L99.67 30.72C99.786 31.4145 99.6398 32.1272 99.26 32.72L95.76 38C95.5025 38.4027 95.1476 38.7339 94.728 38.9629C94.3085 39.1919 93.838 39.3113 93.36 39.31H89.47C88.9255 39.3232 88.3978 39.5015 87.9567 39.8211C87.5157 40.1407 87.1821 40.5867 87 41.1L83.56 50.49C83.493 50.6756 83.4643 50.8728 83.4757 51.0698C83.487 51.2667 83.5382 51.4593 83.626 51.636C83.7139 51.8126 83.8366 51.9696 83.9868 52.0975C84.137 52.2254 84.3116 52.3215 84.5 52.38L88 53.46C88.4186 53.5863 88.7793 53.8559 89.0189 54.2217C89.2585 54.5874 89.3615 55.0259 89.31 55.46L88.74 60.73C88.6559 61.5411 88.304 62.3011 87.74 62.89L82.52 68.27C82.139 68.6593 81.8616 69.1378 81.7131 69.6618C81.5646 70.1859 81.5498 70.7388 81.67 71.27L83.15 77.96C83.1922 78.1186 83.2727 78.2643 83.3845 78.3843C83.4963 78.5044 83.636 78.5951 83.7911 78.6484C83.9462 78.7018 84.1121 78.7161 84.2741 78.6903C84.4361 78.6644 84.5892 78.5991 84.72 78.5L89.86 74.27C90.0633 74.1028 90.2977 73.9773 90.5496 73.9008C90.8016 73.8244 91.0661 73.7984 91.3281 73.8244C91.5901 73.8504 91.8444 73.9279 92.0764 74.0524C92.3084 74.177 92.5135 74.3461 92.68 74.55L94 76.11C94.3149 76.4956 94.5313 76.9519 94.6306 77.4397C94.7299 77.9275 94.7091 78.4321 94.57 78.91L92.29 86.77C92.2291 86.9823 92.2149 87.2052 92.2483 87.4235C92.2817 87.6418 92.362 87.8503 92.4836 88.0346C92.6052 88.2189 92.7653 88.3747 92.9528 88.4913C93.1403 88.6079 93.3509 88.6825 93.57 88.71L97.57 89.21C98.1053 89.2781 98.6482 89.1719 99.1183 88.9071C99.5884 88.6423 99.9607 88.233 100.18 87.74L103.58 80.15C103.961 79.2758 104.642 78.5665 105.5 78.15L108.5 76.73C108.735 76.6246 108.989 76.5697 109.247 76.5687C109.504 76.5678 109.759 76.6209 109.994 76.7246C110.23 76.8282 110.441 76.9802 110.614 77.1706C110.788 77.361 110.919 77.5857 111 77.83L112.58 82.37C112.641 82.5682 112.753 82.7472 112.904 82.8895C113.054 83.0318 113.24 83.1325 113.441 83.1819C113.643 83.2312 113.853 83.2275 114.053 83.1711C114.253 83.1147 114.434 83.0075 114.58 82.86L120.69 77.27C121.065 76.9429 121.353 76.5275 121.527 76.0614C121.702 75.5953 121.758 75.0931 121.69 74.6L120.82 68.49C120.663 67.4442 120.894 66.3771 121.47 65.49L124.27 61.16C124.625 60.6102 125.112 60.1582 125.687 59.8455C126.262 59.5327 126.906 59.3693 127.56 59.37H131.28C131.707 59.3551 132.12 59.2181 132.471 58.9752C132.822 58.7324 133.096 58.3939 133.26 58L136.63 48.9C136.72 48.659 136.758 48.402 136.743 48.1453C136.727 47.8886 136.659 47.638 136.541 47.4093C136.423 47.1807 136.259 46.979 136.059 46.8173C135.86 46.6556 135.628 46.5373 135.38 46.47L132.31 45.64C131.89 45.5253 131.522 45.2681 131.27 44.9124C131.019 44.5567 130.898 44.1246 130.93 43.69L131.26 39.06C131.346 37.7377 131.907 36.491 132.84 35.55ZM111.59 64.29C104.88 69.04 98.82 66.29 98.06 58.07C97.3 49.85 102.12 39.39 108.83 34.64C115.54 29.89 121.6 32.64 122.36 40.86C123.12 49.08 118.29 59.54 111.59 64.29Z" fill="white"/>
<path d="M251 327.18L219 345.38C216.907 346.575 214.573 347.289 212.17 347.47C208.866 347.728 205.562 346.982 202.69 345.33L182.2 333.49L179.86 332.14C177.428 330.736 175.409 328.717 174.005 326.286C172.601 323.855 171.861 321.097 171.86 318.29V259.29L219.86 231.98V292.23C219.852 294.66 220.486 297.05 221.698 299.157C222.909 301.264 224.655 303.014 226.76 304.23L251.02 318.23C251.804 318.686 252.454 319.34 252.905 320.126C253.356 320.913 253.593 321.804 253.591 322.711C253.589 323.617 253.348 324.508 252.894 325.292C252.439 326.077 251.786 326.728 251 327.18Z" fill="#263238"/>
<path d="M212.18 347.47C214.584 347.289 216.917 346.575 219.01 345.38L251.01 327.18C251.807 326.729 252.469 326.075 252.93 325.285C253.392 324.494 253.635 323.595 253.635 322.68C253.635 321.765 253.392 320.866 252.93 320.075C252.469 319.285 251.807 318.631 251.01 318.18L234.45 308.61H212.18V347.47Z" fill="#37474F"/>
<path d="M250.42 314.25L251.3 314.96C252.014 315.531 252.591 316.255 252.988 317.079C253.384 317.903 253.59 318.806 253.59 319.72V322.72H250.39L250.42 314.25Z" fill="#37484F"/>
<path d="M223.54 236.55V290.76C223.539 293.107 224.156 295.412 225.329 297.445C226.501 299.478 228.188 301.166 230.22 302.34L250.42 314.26C251.185 314.698 251.82 315.329 252.262 316.091C252.704 316.854 252.937 317.719 252.937 318.6C252.937 319.481 252.704 320.346 252.262 321.109C251.82 321.871 251.185 322.503 250.42 322.94L248.12 324.25L219.46 340.56C217.053 341.931 214.328 342.647 211.558 342.638C208.788 342.629 206.069 341.896 203.67 340.51L183.8 328.78C181.768 327.606 180.081 325.918 178.909 323.885C177.736 321.852 177.119 319.547 177.12 317.2V263L223.54 236.55Z" fill="#455A64"/>
<path d="M223.54 290.76V236.55L177.09 263V317.21C177.089 319.557 177.706 321.862 178.879 323.895C180.051 325.928 181.738 327.616 183.77 328.79L229.53 301.93C227.685 300.709 226.173 299.049 225.127 297.1C224.082 295.151 223.536 292.972 223.54 290.76Z" fill="#263238"/>
<path d="M311.07 11.87C311.074 10.0563 310.606 8.2727 309.712 6.6947C308.817 5.11669 307.528 3.79859 305.97 2.87003L305.55 2.62003C302.637 0.897718 299.314 -0.00737849 295.93 2.51975e-05C294.846 -0.014159 293.778 0.265762 292.84 0.810025L65.3399 131.64C62.5427 133.256 60.22 135.58 58.6051 138.378C56.9902 141.176 56.1401 144.349 56.1399 147.58V358.92C56.1357 359.975 56.4099 361.013 56.9348 361.928C57.4597 362.844 58.2168 363.605 59.1296 364.134C60.0424 364.664 61.0787 364.943 62.134 364.944C63.1892 364.945 64.2261 364.668 65.1399 364.14L292.64 233.32C295.437 231.704 297.76 229.38 299.375 226.582C300.99 223.784 301.84 220.611 301.84 217.38V11.87H311.07Z" fill="#455A64"/>
<path d="M84.2099 155.49V353.15L76.5699 357.56L71.2899 360.61V370.26C67.8995 370.262 64.5718 369.346 61.6599 367.61L61.2499 367.36C60.0414 366.639 58.9914 365.681 58.163 364.543C57.3347 363.405 56.7451 362.112 56.4299 360.74C56.243 360.151 56.1452 359.538 56.1399 358.92V147.58C56.1558 144.709 56.8406 141.881 58.1399 139.32L84.2099 155.49Z" fill="#263238"/>
<path d="M76.5599 357.56L71.2799 360.61V370.26C67.8895 370.262 64.5618 369.346 61.6499 367.61L61.2399 367.36C60.0314 366.639 58.9814 365.681 58.153 364.543C57.3247 363.405 56.7351 362.112 56.4199 360.74C56.2329 360.151 56.1352 359.538 56.1299 358.92V345.77L76.5599 357.56Z" fill="#37474F"/>
<path d="M301.87 238.63L74.3699 369.45C73.4561 369.978 72.4192 370.255 71.3639 370.254C70.3087 370.253 69.2724 369.974 68.3596 369.444C67.4467 368.915 66.6897 368.154 66.1648 367.238C65.6399 366.323 65.3657 365.285 65.3699 364.23V152.89C65.37 149.66 66.2202 146.486 67.8351 143.688C69.45 140.89 71.7727 138.566 74.5699 136.95L302 6.13005C302.914 5.60241 303.951 5.32513 305.006 5.32617C306.061 5.32722 307.097 5.60655 308.01 6.13598C308.923 6.66542 309.68 7.42624 310.205 8.34168C310.73 9.25712 311.004 10.2948 311 11.35V222.69C311.007 225.914 310.167 229.083 308.565 231.88C306.963 234.677 304.654 237.005 301.87 238.63Z" fill="#37474F"/>
<path d="M65.3299 351.08V364.23C65.3257 365.285 65.5999 366.323 66.1248 367.238C66.6497 368.154 67.4067 368.915 68.3195 369.444C69.2323 369.974 70.2687 370.253 71.3239 370.254C72.3792 370.255 73.416 369.978 74.3299 369.45L301.83 238.63C304.627 237.014 306.95 234.69 308.565 231.892C310.18 229.094 311.03 225.921 311.03 222.69V209.2L65.3299 351.08Z" fill="#455A64"/>
<path d="M297.89 20.4701C296.849 20.4596 295.821 20.6961 294.89 21.1601L80.9999 144.09C78.5277 145.516 76.4746 147.568 75.0474 150.04C73.6202 152.512 72.8692 155.316 72.8699 158.17V327C72.8663 327.729 73.0127 328.45 73.2999 329.12C73.5995 329.808 74.0409 330.425 74.5954 330.931C75.1499 331.437 75.805 331.82 76.5177 332.055C77.2304 332.29 77.9847 332.372 78.7313 332.295C79.4779 332.218 80.1998 331.985 80.8499 331.61L294.71 208.72C297.182 207.294 299.235 205.242 300.662 202.77C302.09 200.298 302.841 197.494 302.84 194.64V25.7701C302.838 24.4244 302.326 23.1294 301.408 22.1459C300.489 21.1625 299.232 20.5636 297.89 20.4701Z" fill="#0B3F8D"/>
<path opacity="0.4" d="M297.89 20.4701C296.849 20.4596 295.821 20.6961 294.89 21.1601L80.9999 144.09C78.5277 145.516 76.4746 147.568 75.0474 150.04C73.6202 152.512 72.8692 155.316 72.8699 158.17V327C72.8663 327.729 73.0127 328.45 73.2999 329.12C73.5995 329.808 74.0409 330.425 74.5954 330.931C75.1499 331.437 75.805 331.82 76.5177 332.055C77.2304 332.29 77.9847 332.372 78.7313 332.295C79.4779 332.218 80.1998 331.985 80.8499 331.61L294.71 208.72C297.182 207.294 299.235 205.242 300.662 202.77C302.09 200.298 302.841 197.494 302.84 194.64V25.7701C302.838 24.4244 302.326 23.1294 301.408 22.1459C300.489 21.1625 299.232 20.5636 297.89 20.4701Z" fill="black"/>
<path d="M93.6299 339.28V180.06L87.1599 176.32V333.69C87.1599 334.501 87.3347 335.303 87.6722 336.041C88.0098 336.778 88.5022 337.435 89.1161 337.965C89.73 338.496 90.4509 338.888 91.2297 339.114C92.0086 339.341 92.8272 339.398 93.6299 339.28Z" fill="#E0E0E0"/>
<path d="M90.0598 338.62L96.7198 342.39V330.65L90.0598 338.62Z" fill="#DFDFDF"/>
<path d="M323.92 37V205C323.929 208.039 323.136 211.026 321.621 213.66C320.105 216.294 317.922 218.481 315.29 220L101.93 342.72C101.071 343.217 100.097 343.479 99.1043 343.48C98.1121 343.481 97.1371 343.22 96.2775 342.724C95.4179 342.229 94.7041 341.515 94.2077 340.656C93.7113 339.797 93.45 338.822 93.45 337.83V169.83C93.4495 166.799 94.2479 163.821 95.7647 161.196C97.2816 158.572 99.4632 156.393 102.09 154.88L315.44 32.14C316.297 31.6443 317.268 31.3822 318.258 31.3801C319.248 31.3781 320.221 31.636 321.079 32.1281C321.938 32.6202 322.653 33.3293 323.151 34.1843C323.65 35.0393 323.915 36.0103 323.92 37Z" fill="#FAFAFA"/>
<path d="M318.45 31.91C319.685 31.9127 320.869 32.4045 321.742 33.2778C322.615 34.1512 323.107 35.3349 323.11 36.57V204.57C323.115 207.428 322.368 210.237 320.944 212.715C319.521 215.194 317.471 217.254 315 218.69L101.61 341.38C100.906 341.792 100.105 342.009 99.2899 342.01C98.0548 342.007 96.8711 341.516 95.9977 340.642C95.1244 339.769 94.6326 338.585 94.6299 337.35V169.35C94.6342 166.497 95.3874 163.695 96.8141 161.224C98.2408 158.753 100.291 156.7 102.76 155.27L316.13 32.54C316.833 32.1268 317.634 31.9092 318.45 31.91ZM318.45 30.91C317.458 30.912 316.485 31.1778 315.63 31.68L102.27 154.37C99.6432 155.883 97.4615 158.062 95.9447 160.686C94.4279 163.311 93.6295 166.289 93.6299 169.32V337.32C93.6269 338.313 93.8863 339.29 94.3819 340.151C94.8776 341.012 95.5918 341.727 96.4524 342.223C97.3131 342.719 98.2895 342.98 99.2829 342.977C100.276 342.975 101.252 342.71 102.11 342.21L315.47 219.56C318.096 218.046 320.277 215.868 321.794 213.243C323.311 210.619 324.109 207.641 324.11 204.61V36.61C324.11 35.8668 323.964 35.1307 323.679 34.444C323.395 33.7573 322.978 33.1334 322.452 32.6078C321.927 32.0822 321.303 31.6653 320.616 31.3809C319.929 31.0964 319.193 30.95 318.45 30.95V30.91Z" fill="#E0E0E0"/>
<path d="M315 28.12C314.133 27.57 313.132 27.2688 312.105 27.2494C311.079 27.23 310.067 27.4931 309.18 28.01L95.7899 150.7C93.1657 152.215 90.9866 154.394 89.4717 157.019C87.9568 159.643 87.1595 162.62 87.1599 165.65V176.33L93.6299 180.07L317.63 50.75V35.5L321.39 31.74L315 28.11V28.12Z" fill="#0B3F8D"/>
<path opacity="0.4" d="M315 28.12C314.133 27.57 313.132 27.2688 312.105 27.2494C311.079 27.23 310.067 27.4931 309.18 28.01L95.7899 150.7C93.1657 152.215 90.9866 154.394 89.4717 157.019C87.9568 159.643 87.1595 162.62 87.1599 165.65V176.33L93.6299 180.07L317.63 50.75V35.5L321.39 31.74L315 28.11V28.12Z" fill="white"/>
<path d="M324.11 36.57V47L93.6299 180.06V169.31C93.6295 166.279 94.4279 163.301 95.9447 160.676C97.4615 158.052 99.6431 155.873 102.27 154.36L315.63 31.67C316.489 31.1726 317.465 30.9105 318.458 30.9102C319.451 30.9098 320.427 31.1713 321.287 31.6681C322.147 32.165 322.86 32.8797 323.356 33.7403C323.852 34.6009 324.112 35.5769 324.11 36.57Z" fill="#0B3F8D"/>
<path opacity="0.6" d="M324.11 36.57V47L93.6299 180.06V169.31C93.6295 166.279 94.4279 163.301 95.9447 160.676C97.4615 158.052 99.6431 155.873 102.27 154.36L315.63 31.67C316.489 31.1726 317.465 30.9105 318.458 30.9102C319.451 30.9098 320.427 31.1713 321.287 31.6681C322.147 32.165 322.86 32.8797 323.356 33.7403C323.852 34.6009 324.112 35.5769 324.11 36.57Z" fill="white"/>
<path d="M89.3899 157.18C87.935 159.762 87.1704 162.676 87.1699 165.64V176.32L93.6399 180.06V169.31C93.6407 166.361 94.3982 163.462 95.8399 160.89L89.3899 157.18Z" fill="#0B3F8D"/>
<path d="M171.83 264.44C171.251 264.446 170.682 264.297 170.18 264.01C168.82 263.23 168.05 261.46 168.05 259.17C168.05 255.01 170.61 250.17 173.75 248.33L257.5 200C258.089 199.593 258.776 199.351 259.49 199.3C260.204 199.249 260.919 199.391 261.56 199.71C262.92 200.49 263.69 202.26 263.69 204.55C263.69 208.71 261.13 213.55 257.99 215.39L257.74 214.96L257.99 215.39L174.23 263.75C173.503 264.184 172.676 264.422 171.83 264.44ZM259.92 200.25C259.244 200.274 258.585 200.474 258.01 200.83L174.24 249.2C171.37 250.85 169.04 255.33 169.04 259.2C169.04 261.13 169.64 262.57 170.67 263.2C171.159 263.432 171.701 263.528 172.24 263.477C172.778 263.426 173.293 263.23 173.73 262.91L257.5 214.5C260.37 212.85 262.7 208.37 262.7 204.5C262.7 202.57 262.1 201.13 261.07 200.5C260.711 200.319 260.311 200.236 259.91 200.26L259.92 200.25Z" fill="#0B3F8D"/>
<path opacity="0.5" d="M171.83 264.44C171.251 264.446 170.682 264.297 170.18 264.01C168.82 263.23 168.05 261.46 168.05 259.17C168.05 255.01 170.61 250.17 173.75 248.33L257.5 200C258.089 199.593 258.776 199.351 259.49 199.3C260.204 199.249 260.919 199.391 261.56 199.71C262.92 200.49 263.69 202.26 263.69 204.55C263.69 208.71 261.13 213.55 257.99 215.39L257.74 214.96L257.99 215.39L174.23 263.75C173.503 264.184 172.676 264.422 171.83 264.44ZM259.92 200.25C259.244 200.274 258.585 200.474 258.01 200.83L174.24 249.2C171.37 250.85 169.04 255.33 169.04 259.2C169.04 261.13 169.64 262.57 170.67 263.2C171.159 263.432 171.701 263.528 172.24 263.477C172.778 263.426 173.293 263.23 173.73 262.91L257.5 214.5C260.37 212.85 262.7 208.37 262.7 204.5C262.7 202.57 262.1 201.13 261.07 200.5C260.711 200.319 260.311 200.236 259.91 200.26L259.92 200.25Z" fill="black"/>
<path d="M175.57 251.05C174.654 251.645 173.917 252.478 173.44 253.46C172.886 254.488 172.585 255.633 172.56 256.8C172.56 259.02 173.91 260.04 175.56 259.08L226.12 230V222L175.57 251.05Z" fill="#0B3F8D"/>
<path opacity="0.3" d="M175.57 251.05C174.654 251.645 173.917 252.478 173.44 253.46C172.886 254.488 172.585 255.633 172.56 256.8C172.56 259.02 173.91 260.04 175.56 259.08L226.12 230V222L175.57 251.05Z" fill="black"/>
<path d="M256.18 204.62L226.12 221.93V229.93L256.18 212.62C257.096 212.025 257.832 211.192 258.31 210.21C258.862 209.182 259.164 208.037 259.19 206.87C259.19 204.68 257.84 203.66 256.18 204.62Z" fill="#0B3F8D"/>
<path d="M219.62 141.5C219.54 142.967 219.116 144.394 218.381 145.666C217.646 146.938 216.621 148.019 215.39 148.82C213.06 150.17 211.16 149.08 211.16 146.38C211.24 144.913 211.664 143.486 212.399 142.214C213.134 140.942 214.159 139.862 215.39 139.06C217.73 137.72 219.62 138.81 219.62 141.5Z" fill="#0B3F8D"/>
<path d="M234.46 137.42C234.386 138.765 233.996 140.073 233.322 141.239C232.648 142.405 231.708 143.395 230.58 144.13C228.44 145.37 226.7 144.36 226.7 141.89C226.774 140.545 227.164 139.237 227.838 138.071C228.512 136.906 229.452 135.915 230.58 135.18C232.72 133.94 234.46 134.94 234.46 137.42Z" fill="#0B3F8D"/>
<path d="M244.14 143.73C244.071 145.014 243.699 146.264 243.056 147.377C242.414 148.491 241.517 149.438 240.44 150.14C238.44 151.32 236.74 150.36 236.74 148C236.809 146.716 237.181 145.466 237.824 144.353C238.466 143.239 239.363 142.292 240.44 141.59C242.49 140.41 244.14 141.37 244.14 143.73Z" fill="#0B3F8D"/>
<path opacity="0.5" d="M219.62 141.5C219.54 142.967 219.116 144.394 218.381 145.666C217.646 146.938 216.621 148.019 215.39 148.82C213.06 150.17 211.16 149.08 211.16 146.38C211.24 144.913 211.664 143.486 212.399 142.214C213.134 140.942 214.159 139.862 215.39 139.06C217.73 137.72 219.62 138.81 219.62 141.5Z" fill="black"/>
<path opacity="0.5" d="M234.46 137.42C234.386 138.765 233.996 140.073 233.322 141.239C232.648 142.405 231.708 143.395 230.58 144.13C228.44 145.37 226.7 144.36 226.7 141.89C226.774 140.545 227.164 139.237 227.838 138.071C228.512 136.906 229.452 135.915 230.58 135.18C232.72 133.94 234.46 134.94 234.46 137.42Z" fill="black"/>
<path opacity="0.5" d="M244.14 143.73C244.071 145.014 243.699 146.264 243.056 147.377C242.414 148.491 241.517 149.438 240.44 150.14C238.44 151.32 236.74 150.36 236.74 148C236.809 146.716 237.181 145.466 237.824 144.353C238.466 143.239 239.363 142.292 240.44 141.59C242.49 140.41 244.14 141.37 244.14 143.73Z" fill="black"/>
<path d="M245.64 157.85C245.573 159.072 245.22 160.261 244.609 161.32C243.997 162.38 243.144 163.281 242.12 163.95C240.17 165.07 238.6 164.16 238.6 161.95C238.666 160.728 239.02 159.539 239.631 158.479C240.243 157.42 241.095 156.519 242.12 155.85C244.06 154.69 245.64 155.6 245.64 157.85Z" fill="#0B3F8D"/>
<path d="M241.28 175.69C241.217 176.852 240.881 177.983 240.299 178.991C239.717 179.998 238.905 180.855 237.93 181.49C236.08 182.56 234.58 181.69 234.58 179.56C234.643 178.398 234.979 177.267 235.561 176.259C236.143 175.252 236.955 174.395 237.93 173.76C239.79 172.69 241.28 173.55 241.28 175.69Z" fill="#0B3F8D"/>
<path d="M232.17 191.33C232.111 192.43 231.793 193.501 231.242 194.454C230.691 195.408 229.923 196.219 229 196.82C227.25 197.82 225.83 197.01 225.83 194.99C225.889 193.89 226.207 192.82 226.758 191.866C227.309 190.912 228.077 190.101 229 189.5C230.75 188.48 232.17 189.3 232.17 191.33Z" fill="#0B3F8D"/>
<path opacity="0.3" d="M245.64 157.85C245.573 159.072 245.22 160.261 244.609 161.32C243.997 162.38 243.144 163.281 242.12 163.95C240.17 165.07 238.6 164.16 238.6 161.95C238.666 160.728 239.02 159.539 239.631 158.479C240.243 157.42 241.095 156.519 242.12 155.85C244.06 154.69 245.64 155.6 245.64 157.85Z" fill="black"/>
<path opacity="0.3" d="M241.28 175.69C241.217 176.852 240.881 177.983 240.299 178.991C239.717 179.998 238.905 180.855 237.93 181.49C236.08 182.56 234.58 181.69 234.58 179.56C234.643 178.398 234.979 177.267 235.561 176.259C236.143 175.252 236.955 174.395 237.93 173.76C239.79 172.69 241.28 173.55 241.28 175.69Z" fill="black"/>
<path opacity="0.3" d="M232.17 191.33C232.111 192.43 231.793 193.501 231.242 194.454C230.691 195.408 229.923 196.219 229 196.82C227.25 197.82 225.83 197.01 225.83 194.99C225.889 193.89 226.207 192.82 226.758 191.866C227.309 190.912 228.077 190.101 229 189.5C230.75 188.48 232.17 189.3 232.17 191.33Z" fill="black"/>
<path d="M218.39 204.16C218.333 205.2 218.032 206.212 217.511 207.114C216.99 208.016 216.263 208.782 215.39 209.35C213.74 210.35 212.39 209.53 212.39 207.62C212.446 206.58 212.747 205.568 213.269 204.666C213.79 203.764 214.517 202.998 215.39 202.43C217.05 201.47 218.39 202.25 218.39 204.16Z" fill="#0B3F8D"/>
<path d="M203.33 208C203.277 208.978 202.993 209.929 202.503 210.777C202.013 211.625 201.33 212.345 200.51 212.88C198.95 213.78 197.69 213.05 197.69 211.25C197.743 210.272 198.027 209.321 198.517 208.473C199.006 207.625 199.689 206.905 200.51 206.37C202.06 205.45 203.33 206.18 203.33 208Z" fill="#0B3F8D"/>
<path d="M194.41 201.09C194.361 202.007 194.096 202.9 193.638 203.696C193.179 204.492 192.539 205.168 191.77 205.67C190.31 206.51 189.13 205.83 189.13 204.14C189.179 203.223 189.443 202.33 189.902 201.534C190.361 200.738 191.001 200.062 191.77 199.56C193.23 198.72 194.41 199.4 194.41 201.09Z" fill="#0B3F8D"/>
<path opacity="0.2" d="M218.39 204.16C218.333 205.2 218.032 206.212 217.511 207.114C216.99 208.016 216.263 208.782 215.39 209.35C213.74 210.35 212.39 209.53 212.39 207.62C212.446 206.58 212.747 205.568 213.269 204.666C213.79 203.764 214.517 202.998 215.39 202.43C217.05 201.47 218.39 202.25 218.39 204.16Z" fill="black"/>
<path opacity="0.2" d="M203.33 208C203.277 208.978 202.993 209.929 202.503 210.777C202.013 211.625 201.33 212.345 200.51 212.88C198.95 213.78 197.69 213.05 197.69 211.25C197.743 210.272 198.027 209.321 198.517 208.473C199.006 207.625 199.689 206.905 200.51 206.37C202.06 205.45 203.33 206.18 203.33 208Z" fill="black"/>
<path opacity="0.2" d="M194.41 201.09C194.361 202.007 194.096 202.9 193.638 203.696C193.179 204.492 192.539 205.168 191.77 205.67C190.31 206.51 189.13 205.83 189.13 204.14C189.179 203.223 189.443 202.33 189.902 201.534C190.361 200.738 191.001 200.062 191.77 199.56C193.23 198.72 194.41 199.4 194.41 201.09Z" fill="black"/>
<path d="M191 189C190.953 189.856 190.705 190.689 190.276 191.43C189.846 192.172 189.248 192.803 188.53 193.27C187.17 194.06 186.06 193.42 186.06 191.85C186.107 190.994 186.355 190.161 186.784 189.42C187.213 188.678 187.811 188.047 188.53 187.58C189.94 186.77 191 187.41 191 189Z" fill="#0B3F8D"/>
<path d="M195.1 170.41C195.062 171.211 194.835 171.991 194.437 172.686C194.039 173.381 193.481 173.972 192.81 174.41C191.55 175.14 190.52 174.55 190.52 173.09C190.557 172.29 190.785 171.51 191.183 170.814C191.581 170.119 192.139 169.528 192.81 169.09C194.08 168.36 195.1 169 195.1 170.41Z" fill="#0B3F8D"/>
<path d="M203.33 155.39C203.291 156.123 203.079 156.836 202.712 157.472C202.346 158.108 201.834 158.649 201.22 159.05C200.05 159.72 199.11 159.18 199.11 157.83C199.149 157.097 199.361 156.384 199.727 155.748C200.094 155.112 200.605 154.571 201.22 154.17C202.38 153.49 203.33 154 203.33 155.39Z" fill="#0B3F8D"/>
<path d="M227.93 168.39L215.94 155.58L202.32 183.17L209.25 179.18V193.8L221.01 187.01V172.39L227.93 168.39Z" fill="#0B3F8D"/>
<path d="M271.22 138.71C271.22 136.223 271.874 133.781 273.117 131.627C274.36 129.473 276.147 127.684 278.3 126.44L368.37 74.44C368.971 74.0935 369.641 73.8859 370.332 73.8326C371.024 73.7793 371.718 73.8816 372.365 74.132C373.011 74.3823 373.594 74.7744 374.069 75.2794C374.544 75.7844 374.9 76.3894 375.11 77.05C374.87 75.9929 374.417 74.9957 373.779 74.119C373.141 73.2423 372.332 72.5043 371.4 71.95L371.08 71.76C368.835 70.4389 366.275 69.748 363.67 69.76C362.834 69.7498 362.011 69.9676 361.29 70.39L271.22 122.39C269.067 123.634 267.28 125.423 266.037 127.577C264.794 129.731 264.14 132.173 264.14 134.66V329.46C264.139 330.279 264.355 331.083 264.766 331.792C265.176 332.5 265.767 333.087 266.478 333.494C267.189 333.9 267.995 334.111 268.814 334.105C269.632 334.099 270.435 333.876 271.14 333.46L271.26 333.39L271.22 138.71Z" fill="#37484F"/>
<path d="M368.25 285.52L278.18 337.52C277.475 337.937 276.672 338.159 275.853 338.165C275.035 338.171 274.229 337.96 273.518 337.554C272.807 337.147 272.216 336.56 271.806 335.852C271.395 335.143 271.179 334.339 271.18 333.52V138.71C271.18 136.223 271.834 133.781 273.077 131.627C274.319 129.473 276.107 127.684 278.26 126.44L368.33 74.4401C369.035 74.0236 369.838 73.8011 370.656 73.7952C371.475 73.7893 372.281 74.0001 372.992 74.4064C373.703 74.8127 374.294 75.3998 374.704 76.1083C375.115 76.8167 375.331 77.6212 375.33 78.4401V273.24C375.332 275.728 374.679 278.173 373.436 280.329C372.193 282.485 370.404 284.275 368.25 285.52Z" fill="#455A64"/>
<path d="M271.22 333.51V138.71C271.221 136.588 271.699 134.492 272.62 132.58L265.62 128.27C264.627 130.243 264.11 132.421 264.11 134.63V331C264.11 331.773 264.312 332.532 264.694 333.203C265.076 333.874 265.626 334.435 266.29 334.83L269.88 336.97C271.122 337.711 272.543 338.102 273.99 338.1H275.76C274.555 338.074 273.408 337.581 272.561 336.724C271.713 335.867 271.233 334.715 271.22 333.51Z" fill="#253239"/>
<path d="M365.15 93.16V256.89C365.15 259.085 364.572 261.241 363.475 263.142C362.378 265.043 360.8 266.622 358.9 267.72L279.36 313.64C278.752 313.993 278.063 314.183 277.36 314.19C277.59 314.72 277.929 315.196 278.356 315.585C278.782 315.975 279.286 316.27 279.835 316.451C280.383 316.633 280.964 316.696 281.539 316.637C282.114 316.578 282.669 316.399 283.17 316.11L362.71 270.19C364.619 269.096 366.206 267.518 367.31 265.615C368.415 263.711 368.997 261.55 369 259.35V97.25C369.002 96.2056 368.604 95.2001 367.888 94.4396C367.172 93.6791 366.192 93.2213 365.15 93.16Z" fill="#37484F"/>
<path d="M277.38 314.19C278.083 314.183 278.772 313.993 279.38 313.64L358.92 267.72C360.82 266.622 362.398 265.043 363.495 263.142C364.592 261.241 365.17 259.085 365.17 256.89V93.16C364.37 93.1662 363.58 93.3507 362.86 93.7L283.32 139.62C281.42 140.718 279.842 142.297 278.745 144.198C277.648 146.099 277.07 148.255 277.07 150.45V312.56C277.068 313.128 277.183 313.69 277.41 314.21L277.38 314.19Z" fill="#0B3F8D"/>
<g opacity="0.7">
<path opacity="0.7" d="M277.38 314.19C278.083 314.183 278.772 313.993 279.38 313.64L358.92 267.72C360.82 266.622 362.398 265.043 363.495 263.142C364.592 261.241 365.17 259.085 365.17 256.89V93.16C364.37 93.1662 363.58 93.3507 362.86 93.7L283.32 139.62C281.42 140.718 279.842 142.297 278.745 144.198C277.648 146.099 277.07 148.255 277.07 150.45V312.56C277.068 313.128 277.183 313.69 277.41 314.21L277.38 314.19Z" fill="white"/>
</g>
<path d="M310.67 115.63C310.643 116.127 310.499 116.61 310.251 117.041C310.003 117.471 309.656 117.838 309.24 118.11C308.45 118.57 307.81 118.2 307.81 117.28C307.837 116.783 307.981 116.3 308.229 115.869C308.478 115.439 308.824 115.072 309.24 114.8C310 114.34 310.67 114.71 310.67 115.63Z" fill="#253239"/>
<path d="M316 112.55C315.973 113.047 315.829 113.53 315.581 113.961C315.333 114.391 314.986 114.758 314.57 115.03C313.78 115.49 313.14 115.12 313.14 114.2C313.167 113.703 313.311 113.22 313.559 112.789C313.808 112.359 314.154 111.992 314.57 111.72C315.36 111.27 316 111.64 316 112.55Z" fill="#253239"/>
<path d="M337.51 101.79L320.19 111.79C319.5 112.19 318.95 111.79 318.95 110.85C318.959 110.386 319.076 109.93 319.291 109.519C319.506 109.108 319.814 108.752 320.19 108.48L337.51 98.48C338.2 98.08 338.75 98.48 338.75 99.42C338.741 99.8841 338.624 100.34 338.409 100.751C338.194 101.162 337.886 101.518 337.51 101.79Z" fill="#253239"/>
<path d="M334.58 291.66C335.58 291.66 336.28 292.76 336.28 294.46C336.28 297.13 334.61 300.35 332.63 301.46L324.34 306.24C323.971 306.475 323.547 306.609 323.11 306.63C322.11 306.63 321.41 305.53 321.41 303.83C321.41 301.16 323.08 297.94 325.06 296.83L333.35 292.05C333.719 291.815 334.143 291.681 334.58 291.66ZM334.58 290.95C334.017 290.968 333.469 291.133 332.99 291.43L324.7 296.21C322.49 297.49 320.7 300.91 320.7 303.85C320.7 306.04 321.7 307.35 323.11 307.35C323.673 307.332 324.221 307.167 324.7 306.87L333 302.1C335.21 300.82 337 297.4 337 294.46C337 292.27 336 290.96 334.59 290.96L334.58 290.95Z" fill="#253239"/>
<path d="M287.06 259.93C286.611 259.933 286.169 259.815 285.78 259.59C284.78 258.98 284.13 257.59 284.13 255.85C284.13 252.63 286.13 248.85 288.54 247.46L353.32 210.06C353.775 209.744 354.307 209.557 354.86 209.519C355.412 209.48 355.965 209.591 356.46 209.84C357.46 210.45 358.11 211.84 358.11 213.58C358.11 216.8 356.11 220.58 353.7 221.97L353.51 221.63L353.7 221.97L288.92 259.37C288.359 259.716 287.718 259.909 287.06 259.93ZM355.19 210.28C354.666 210.298 354.155 210.453 353.71 210.73L288.93 248.13C286.71 249.41 284.93 252.87 284.93 255.85C284.86 256.427 284.939 257.012 285.16 257.549C285.38 258.087 285.735 258.559 286.19 258.92C286.569 259.098 286.988 259.171 287.405 259.132C287.821 259.093 288.22 258.944 288.56 258.7L353.34 221.3C355.56 220.02 357.34 216.56 357.34 213.58C357.41 213.003 357.33 212.418 357.11 211.881C356.889 211.343 356.535 210.871 356.08 210.51C355.809 210.356 355.502 210.276 355.19 210.28Z" fill="#0B3F8D"/>
<path opacity="0.5" d="M287.06 259.93C286.611 259.933 286.169 259.815 285.78 259.59C284.78 258.98 284.13 257.59 284.13 255.85C284.13 252.63 286.13 248.85 288.54 247.46L353.32 210.06C353.775 209.744 354.307 209.557 354.86 209.519C355.412 209.48 355.965 209.591 356.46 209.84C357.46 210.45 358.11 211.84 358.11 213.58C358.11 216.8 356.11 220.58 353.7 221.97L353.51 221.63L353.7 221.97L288.92 259.37C288.359 259.716 287.718 259.909 287.06 259.93ZM355.19 210.28C354.666 210.298 354.155 210.453 353.71 210.73L288.93 248.13C286.71 249.41 284.93 252.87 284.93 255.85C284.86 256.427 284.939 257.012 285.16 257.549C285.38 258.087 285.735 258.559 286.19 258.92C286.569 259.098 286.988 259.171 287.405 259.132C287.821 259.093 288.22 258.944 288.56 258.7L353.34 221.3C355.56 220.02 357.34 216.56 357.34 213.58C357.41 213.003 357.33 212.418 357.11 211.881C356.889 211.343 356.535 210.871 356.08 210.51C355.809 210.356 355.502 210.276 355.19 210.28Z" fill="black"/>
<path d="M290 249.57C289.294 250.029 288.727 250.672 288.36 251.43C287.933 252.224 287.7 253.108 287.68 254.01C287.68 255.73 288.68 256.51 290.01 255.77L329.11 233.24V227L290 249.57Z" fill="#0B3F8D"/>
<path opacity="0.3" d="M290 249.57C289.294 250.029 288.727 250.672 288.36 251.43C287.933 252.224 287.7 253.108 287.68 254.01C287.68 255.73 288.68 256.51 290.01 255.77L329.11 233.24V227L290 249.57Z" fill="black"/>
<path d="M352.31 213.66L329.06 227V233.21L352.31 219.82C353.016 219.361 353.583 218.718 353.95 217.96C354.377 217.165 354.61 216.282 354.63 215.38C354.63 213.7 353.59 212.91 352.31 213.66Z" fill="#0B3F8D"/>
<path d="M324 164.84C323.938 165.974 323.609 167.077 323.041 168.061C322.473 169.044 321.681 169.88 320.73 170.5C318.92 171.5 317.46 170.7 317.46 168.61C317.522 167.476 317.851 166.373 318.419 165.389C318.987 164.406 319.779 163.57 320.73 162.95C322.57 161.91 324 162.75 324 164.84Z" fill="#0B3F8D"/>
<path d="M335.5 161.68C335.443 162.72 335.141 163.732 334.62 164.633C334.099 165.535 333.373 166.301 332.5 166.87C330.84 167.87 329.5 167.05 329.5 165.14C329.557 164.1 329.859 163.088 330.38 162.187C330.901 161.285 331.627 160.519 332.5 159.95C334.16 159 335.5 159.77 335.5 161.68Z" fill="#0B3F8D"/>
<path d="M343 166.56C342.954 167.56 342.67 168.535 342.173 169.405C341.676 170.274 340.979 171.013 340.14 171.56C338.56 172.47 337.28 171.73 337.28 169.91C337.326 168.91 337.61 167.935 338.107 167.065C338.605 166.196 339.301 165.457 340.14 164.91C341.72 164 343 164.73 343 166.56Z" fill="#0B3F8D"/>
<path opacity="0.5" d="M324 164.84C323.938 165.974 323.609 167.077 323.041 168.061C322.473 169.044 321.681 169.88 320.73 170.5C318.92 171.5 317.46 170.7 317.46 168.61C317.522 167.476 317.851 166.373 318.419 165.389C318.987 164.406 319.779 163.57 320.73 162.95C322.57 161.91 324 162.75 324 164.84Z" fill="black"/>
<path opacity="0.5" d="M335.5 161.68C335.443 162.72 335.141 163.732 334.62 164.633C334.099 165.535 333.373 166.301 332.5 166.87C330.84 167.87 329.5 167.05 329.5 165.14C329.557 164.1 329.859 163.088 330.38 162.187C330.901 161.285 331.627 160.519 332.5 159.95C334.16 159 335.5 159.77 335.5 161.68Z" fill="black"/>
<path opacity="0.5" d="M343 166.56C342.954 167.56 342.67 168.535 342.173 169.405C341.676 170.274 340.979 171.013 340.14 171.56C338.56 172.47 337.28 171.73 337.28 169.91C337.326 168.91 337.61 167.935 338.107 167.065C338.605 166.196 339.301 165.457 340.14 164.91C341.72 164 343 164.73 343 166.56Z" fill="black"/>
<path d="M344.15 177.48C344.1 178.426 343.827 179.348 343.352 180.168C342.878 180.988 342.215 181.685 341.42 182.2C339.92 183.07 338.69 182.36 338.69 180.63C338.74 179.684 339.013 178.762 339.488 177.942C339.962 177.122 340.624 176.425 341.42 175.91C342.93 175 344.15 175.74 344.15 177.48Z" fill="#0B3F8D"/>
<path d="M340.78 191.28C340.731 192.178 340.471 193.051 340.021 193.83C339.571 194.608 338.944 195.269 338.19 195.76C336.76 196.59 335.6 195.92 335.6 194.27C335.649 193.372 335.909 192.499 336.359 191.72C336.809 190.942 337.437 190.281 338.19 189.79C339.63 189 340.78 189.63 340.78 191.28Z" fill="#0B3F8D"/>
<path d="M333.73 203.38C333.685 204.231 333.439 205.06 333.013 205.798C332.588 206.537 331.994 207.164 331.28 207.63C329.93 208.41 328.83 207.78 328.83 206.21C328.876 205.359 329.121 204.53 329.547 203.792C329.972 203.054 330.566 202.426 331.28 201.96C332.63 201.18 333.73 201.81 333.73 203.38Z" fill="#0B3F8D"/>
<path opacity="0.3" d="M344.15 177.48C344.1 178.426 343.827 179.348 343.352 180.168C342.878 180.988 342.215 181.685 341.42 182.2C339.92 183.07 338.69 182.36 338.69 180.63C338.74 179.684 339.013 178.762 339.488 177.942C339.962 177.122 340.624 176.425 341.42 175.91C342.93 175 344.15 175.74 344.15 177.48Z" fill="black"/>
<path opacity="0.3" d="M340.78 191.28C340.731 192.178 340.471 193.051 340.021 193.83C339.571 194.608 338.944 195.269 338.19 195.76C336.76 196.59 335.6 195.92 335.6 194.27C335.649 193.372 335.909 192.499 336.359 191.72C336.809 190.942 337.437 190.281 338.19 189.79C339.63 189 340.78 189.63 340.78 191.28Z" fill="black"/>
<path opacity="0.3" d="M333.73 203.38C333.685 204.231 333.439 205.06 333.013 205.798C332.588 206.537 331.994 207.164 331.28 207.63C329.93 208.41 328.83 207.78 328.83 206.21C328.876 205.359 329.121 204.53 329.547 203.792C329.972 203.054 330.566 202.426 331.28 201.96C332.63 201.18 333.73 201.81 333.73 203.38Z" fill="black"/>
<path d="M323.08 213.3C323.034 214.102 322.8 214.882 322.397 215.577C321.994 216.272 321.433 216.862 320.76 217.3C319.48 218.04 318.44 217.44 318.44 215.96C318.486 215.158 318.72 214.378 319.123 213.683C319.526 212.988 320.087 212.398 320.76 211.96C322 211.22 323.08 211.82 323.08 213.3Z" fill="#0B3F8D"/>
<path d="M311.43 216.25C311.39 217.007 311.171 217.744 310.792 218.401C310.414 219.058 309.885 219.616 309.25 220.03C308.05 220.73 307.07 220.16 307.07 218.77C307.111 218.013 307.329 217.276 307.708 216.619C308.087 215.962 308.615 215.404 309.25 214.99C310.45 214.3 311.43 214.86 311.43 216.25Z" fill="#0B3F8D"/>
<path d="M304.53 210.93C304.496 211.635 304.298 212.323 303.951 212.938C303.603 213.552 303.117 214.077 302.53 214.47C301.4 215.12 300.53 214.59 300.53 213.29C300.564 212.585 300.762 211.897 301.11 211.282C301.457 210.668 301.943 210.143 302.53 209.75C303.62 209.1 304.53 209.62 304.53 210.93Z" fill="#0B3F8D"/>
<path opacity="0.2" d="M323.08 213.3C323.034 214.102 322.8 214.882 322.397 215.577C321.994 216.272 321.433 216.862 320.76 217.3C319.48 218.04 318.44 217.44 318.44 215.96C318.486 215.158 318.72 214.378 319.123 213.683C319.526 212.988 320.087 212.398 320.76 211.96C322 211.22 323.08 211.82 323.08 213.3Z" fill="black"/>
<path opacity="0.2" d="M311.43 216.25C311.39 217.007 311.171 217.744 310.792 218.401C310.414 219.058 309.885 219.616 309.25 220.03C308.05 220.73 307.07 220.16 307.07 218.77C307.111 218.013 307.329 217.276 307.708 216.619C308.087 215.962 308.615 215.404 309.25 214.99C310.45 214.3 311.43 214.86 311.43 216.25Z" fill="black"/>
<path opacity="0.2" d="M304.53 210.93C304.496 211.635 304.298 212.323 303.951 212.938C303.603 213.552 303.117 214.077 302.53 214.47C301.4 215.12 300.53 214.59 300.53 213.29C300.564 212.585 300.762 211.897 301.11 211.282C301.457 210.668 301.943 210.143 302.53 209.75C303.62 209.1 304.53 209.62 304.53 210.93Z" fill="black"/>
<path d="M301.92 201.56C301.883 202.221 301.691 202.865 301.359 203.438C301.027 204.011 300.565 204.498 300.01 204.86C298.96 205.47 298.1 204.98 298.1 203.76C298.137 203.099 298.329 202.455 298.661 201.882C298.993 201.309 299.455 200.822 300.01 200.46C301.07 199.85 301.92 200.34 301.92 201.56Z" fill="#0B3F8D"/>
<path d="M305.07 187.2C305.037 187.815 304.859 188.413 304.552 188.946C304.244 189.48 303.815 189.933 303.3 190.27C302.3 190.83 301.53 190.38 301.53 189.27C301.563 188.655 301.741 188.057 302.048 187.524C302.356 186.99 302.785 186.537 303.3 186.2C304.27 185.61 305.07 186.07 305.07 187.2Z" fill="#0B3F8D"/>
<path d="M311.43 175.58C311.4 176.147 311.236 176.698 310.953 177.19C310.67 177.682 310.275 178.1 309.8 178.41C308.9 178.93 308.17 178.51 308.17 177.47C308.2 176.903 308.363 176.352 308.647 175.86C308.93 175.368 309.325 174.95 309.8 174.64C310.69 174.11 311.43 174.54 311.43 175.58Z" fill="#0B3F8D"/>
<path d="M330.45 185.63L321.19 175.73L310.65 197.07L316.01 193.98V205.29L325.1 200.04V188.73L330.45 185.63Z" fill="#0B3F8D"/>
<path d="M177 245.13L182.61 251.83L169.52 273L174.23 278.48L192.71 256.68C193.774 255.424 194.389 253.85 194.458 252.205C194.527 250.561 194.045 248.94 193.09 247.6L185.85 237.47L177 245.13Z" fill="#945959"/>
<path d="M161.17 220.68L166.33 220.21C168.321 220.028 170.325 220.35 172.159 221.147C173.992 221.944 175.595 223.19 176.82 224.77L188.17 239.37C188.17 239.37 186.67 244.92 177.38 247.91L164 229L161.17 220.68Z" fill="#0B3F8D"/>
<path opacity="0.2" d="M161.17 220.68L166.33 220.21C168.321 220.028 170.325 220.35 172.159 221.147C173.992 221.944 175.595 223.19 176.82 224.77L188.17 239.37C188.17 239.37 186.67 244.92 177.38 247.91L164 229L161.17 220.68Z" fill="black"/>
<path d="M164.15 381.34C163.274 383.664 162.932 386.156 163.15 388.63C163.23 389.75 166.91 390.71 167.96 390.95C170.053 391.851 172.041 392.978 173.89 394.31C176.95 396.676 180.702 397.972 184.57 398C190.1 398 192.66 396.08 192.66 394.16C192.66 392.24 189.06 390.08 186.33 389.68C184.57 389.42 175.76 384.23 174.16 380.23L164.15 381.34Z" fill="#263238"/>
<path d="M164.15 380C163.274 382.324 162.932 384.816 163.15 387.29C163.23 388.41 166.91 389.37 167.96 389.61C170.053 390.511 172.041 391.638 173.89 392.97C176.943 395.326 180.684 396.618 184.54 396.65C190.07 396.65 192.63 394.73 192.63 392.81C192.63 390.89 189.03 388.73 186.3 388.33C184.54 388.07 175.73 382.88 174.13 378.88L164.15 380Z" fill="#455A64"/>
<path d="M180.09 393.26C180.01 394.26 180.09 395.89 180.09 396C181.551 396.411 183.062 396.619 184.58 396.62C190.11 396.62 192.67 394.7 192.67 392.78C192.67 390.86 189.07 388.7 186.34 388.3C186.34 388.3 180.5 388 180.09 393.26Z" fill="#FAFAFA"/>
<path d="M177.13 388.31C177.03 388.311 176.932 388.285 176.845 388.236C176.758 388.186 176.686 388.115 176.635 388.029C176.584 387.943 176.557 387.845 176.556 387.745C176.556 387.645 176.581 387.547 176.63 387.46C177.88 385.22 180.79 384.95 180.92 384.94C181.061 384.941 181.197 384.996 181.301 385.092C181.405 385.188 181.469 385.319 181.482 385.46C181.494 385.601 181.454 385.741 181.368 385.854C181.283 385.967 181.159 386.044 181.02 386.07C181.02 386.07 178.59 386.31 177.63 388.02C177.58 388.108 177.507 388.182 177.419 388.233C177.331 388.284 177.232 388.311 177.13 388.31Z" fill="#FAFAFA"/>
<path d="M174.49 386.47C174.39 386.471 174.292 386.445 174.205 386.396C174.118 386.346 174.046 386.275 173.995 386.189C173.945 386.103 173.917 386.005 173.917 385.905C173.916 385.805 173.941 385.707 173.99 385.62C175.24 383.38 178.15 383.11 178.28 383.1C178.421 383.101 178.557 383.156 178.661 383.252C178.765 383.348 178.829 383.479 178.842 383.62C178.854 383.761 178.814 383.901 178.728 384.014C178.643 384.127 178.519 384.204 178.38 384.23C178.38 384.23 175.95 384.47 174.99 386.18C174.94 386.268 174.867 386.342 174.78 386.393C174.692 386.444 174.592 386.471 174.49 386.47Z" fill="#FAFAFA"/>
<path d="M172.09 384.23C171.99 384.231 171.892 384.205 171.805 384.156C171.718 384.106 171.646 384.035 171.595 383.949C171.544 383.863 171.517 383.765 171.516 383.665C171.515 383.565 171.541 383.467 171.59 383.38C172.84 381.14 175.75 380.87 175.88 380.86C176.031 380.844 176.182 380.889 176.3 380.985C176.419 381.08 176.494 381.219 176.51 381.37C176.526 381.521 176.481 381.672 176.385 381.791C176.29 381.909 176.151 381.984 176 382C176 382 173.57 382.24 172.61 383.95C172.557 384.04 172.481 384.113 172.389 384.163C172.297 384.212 172.194 384.235 172.09 384.23Z" fill="#FAFAFA"/>
<path d="M154.66 273.1L159.66 329.28C159.66 329.28 158.98 336.01 160.37 351.7C161.76 367.39 163.37 380.85 163.37 380.85C163.37 380.85 170.95 383.73 175.44 379.57C175.44 379.57 176.71 341.25 176.72 328.47C176.72 314.76 175.44 273.64 175.44 273.64L154.66 273.1Z" fill="#37474F"/>
<path d="M158.15 312.52L160.61 293.3C160.61 293.3 168.88 292.17 170.32 288.11C172.11 283.06 171.12 276.58 171.12 276.58L154.91 275.98L158.15 312.52Z" fill="#263238"/>
<path d="M136.09 388.3C136.09 388.3 134.37 398.06 134.37 401.42C134.37 404.78 136.37 409.13 142.08 409.13C147.79 409.13 147.49 402.57 147.16 399.87C146.83 397.17 145.44 388.31 145.44 388.31L136.09 388.3Z" fill="#263238"/>
<path d="M136.2 387.26C136.2 387.26 134.52 396.79 134.52 400.07C134.52 403.35 136.52 407.6 142.05 407.6C147.58 407.6 147.34 401.19 147.05 398.6C146.76 396.01 145.37 387.31 145.37 387.31L136.2 387.26Z" fill="#455A64"/>
<path d="M141.38 398.95H140.6C139.546 398.951 138.509 399.218 137.585 399.724C136.66 400.231 135.878 400.962 135.31 401.85L134.89 402.51C135.321 404.039 136.26 405.377 137.552 406.302C138.845 407.227 140.413 407.685 142 407.6C145.49 407.6 146.67 405.05 147 402.51C146.49 401.451 145.692 400.555 144.699 399.926C143.706 399.297 142.556 398.959 141.38 398.95Z" fill="#FAFAFA"/>
<path d="M138.12 272.14L135.56 327.45C133.479 338.426 132.76 349.618 133.42 360.77C134.7 377.64 134.92 389.17 134.92 389.17C134.92 389.17 142.29 393.01 146.03 388.53L153.61 325.85L158.84 291.57C158.84 291.57 169 291 171 285.71C172.298 281.99 173.088 278.111 173.35 274.18L138.12 272.14Z" fill="#37474F"/>
<path d="M138.55 396.21C138.424 396.209 138.301 396.166 138.202 396.089C138.103 396.011 138.032 395.902 138.001 395.779C137.97 395.657 137.981 395.528 138.031 395.412C138.082 395.296 138.169 395.201 138.28 395.14C138.4 395.07 141.36 393.5 143.93 395.14C143.996 395.181 144.053 395.234 144.098 395.297C144.143 395.359 144.175 395.43 144.193 395.506C144.21 395.581 144.213 395.659 144.201 395.735C144.188 395.811 144.161 395.884 144.12 395.95C144.079 396.016 144.026 396.073 143.963 396.118C143.901 396.163 143.83 396.195 143.754 396.213C143.679 396.23 143.601 396.233 143.525 396.221C143.449 396.208 143.376 396.181 143.31 396.14C141.31 394.84 138.84 396.14 138.82 396.14C138.737 396.185 138.644 396.209 138.55 396.21Z" fill="#FAFAFA"/>
<path d="M138.55 393.74C138.424 393.739 138.301 393.696 138.202 393.619C138.103 393.541 138.032 393.432 138.001 393.309C137.97 393.187 137.981 393.058 138.031 392.942C138.082 392.826 138.169 392.731 138.28 392.67C138.4 392.6 141.36 391.03 143.93 392.67C143.996 392.711 144.053 392.764 144.098 392.827C144.143 392.889 144.175 392.96 144.193 393.036C144.21 393.111 144.213 393.189 144.201 393.265C144.188 393.341 144.161 393.414 144.12 393.48C144.079 393.546 144.026 393.603 143.963 393.648C143.901 393.693 143.83 393.725 143.754 393.743C143.679 393.76 143.601 393.763 143.525 393.751C143.449 393.738 143.376 393.711 143.31 393.67C141.31 392.37 138.84 393.67 138.82 393.67C138.737 393.715 138.644 393.739 138.55 393.74Z" fill="#FAFAFA"/>
<path d="M138.55 391.28C138.424 391.279 138.301 391.236 138.202 391.159C138.103 391.081 138.032 390.972 138.001 390.849C137.97 390.727 137.981 390.598 138.031 390.482C138.082 390.366 138.169 390.271 138.28 390.21C138.4 390.14 141.36 388.57 143.93 390.21C143.996 390.251 144.053 390.304 144.098 390.367C144.143 390.429 144.175 390.5 144.193 390.576C144.21 390.651 144.213 390.729 144.201 390.805C144.188 390.881 144.161 390.954 144.12 391.02C144.079 391.086 144.026 391.143 143.963 391.188C143.901 391.233 143.83 391.265 143.754 391.283C143.679 391.3 143.601 391.303 143.525 391.291C143.449 391.278 143.376 391.251 143.31 391.21C141.31 389.91 138.84 391.21 138.82 391.21C138.737 391.255 138.644 391.279 138.55 391.28Z" fill="#FAFAFA"/>
<path d="M174.76 232.56L176.24 277.27C176.24 277.27 161.11 288.27 137.02 279.93V229.72C137.018 227.913 137.687 226.17 138.897 224.829C140.108 223.488 141.773 222.643 143.57 222.46L161.2 220.67C162.883 220.504 164.581 220.684 166.191 221.201C167.801 221.718 169.287 222.559 170.559 223.674C171.83 224.789 172.859 226.153 173.581 227.681C174.304 229.21 174.705 230.87 174.76 232.56Z" fill="#0B3F8D"/>
<path d="M125.15 243.26L120.67 255.75L89.28 261.84V269.84L125.03 267.84C126.275 267.771 127.477 267.361 128.505 266.656C129.533 265.951 130.348 264.977 130.86 263.84L137 250.15L125.15 243.26Z" fill="#945959"/>
<path d="M143.54 222.47V228.36C143.539 233.091 142.622 237.777 140.84 242.16L135.73 254.73C135.73 254.73 124.32 252.29 122.3 246.73L129.62 229.66C130.492 227.649 131.914 225.926 133.722 224.688C135.53 223.449 137.65 222.746 139.84 222.66L143.54 222.47Z" fill="#0B3F8D"/>
<path opacity="0.2" d="M143.54 222.47V228.36C143.539 233.091 142.622 237.777 140.84 242.16L135.73 254.73C135.73 254.73 124.32 252.29 122.3 246.73L129.62 229.66C130.492 227.649 131.914 225.926 133.722 224.688C135.53 223.449 137.65 222.746 139.84 222.66L143.54 222.47Z" fill="black"/>
<path d="M171.15 188.1C171.15 188.1 177.66 193.81 172 206.55L165.38 189.33L171.15 188.1Z" fill="#263238"/>
<path d="M149.68 221.85L160.66 230.06V203.93H149.68V221.85Z" fill="#945959"/>
<path d="M160.66 218.92C156.61 217.36 151.46 214.76 151.46 212.28L150.13 203.93H160.66V218.92Z" fill="#703838"/>
<path d="M158.39 184.57C162.39 184.57 170.88 186.8 171.86 197.25C172.84 207.7 171.31 216.59 166.5 216.59C157.05 216.59 147.98 215.39 147.91 199.93C147.84 186.29 154.49 184.57 158.39 184.57Z" fill="#945959"/>
<path d="M149.68 209.08L151.22 204.36C151.335 204.46 151.476 204.525 151.626 204.547C151.777 204.569 151.931 204.547 152.069 204.484C152.207 204.42 152.325 204.318 152.406 204.19C152.488 204.061 152.531 203.912 152.53 203.76V195.34C152.53 195.34 156.46 194.23 156.04 190.92C156.04 190.92 158.04 192.72 165.76 192.72C173.48 192.72 175.34 186.19 174.57 182.55C174.57 182.55 173.14 184.02 169.06 184.02C164.98 184.02 148.06 178.9 147.59 189.15C147.59 189.15 146.16 187.05 143.85 189.15L146.85 190.92C146.85 190.92 143.33 190.81 143.85 195.98C144.28 200.06 145.98 207.79 146.69 210.9C146.884 211.758 147.399 212.51 148.13 213L149.7 214.05L149.68 209.08Z" fill="#263238"/>
<path d="M164.39 200.38V206.55L168 205.44L164.39 200.38Z" fill="#703838"/>
<path d="M159.24 202.71C159.936 202.71 160.5 202.146 160.5 201.45C160.5 200.754 159.936 200.19 159.24 200.19C158.544 200.19 157.98 200.754 157.98 201.45C157.98 202.146 158.544 202.71 159.24 202.71Z" fill="#263238"/>
<path d="M168.64 201.83C169.336 201.83 169.9 201.266 169.9 200.57C169.9 199.874 169.336 199.31 168.64 199.31C167.944 199.31 167.38 199.874 167.38 200.57C167.38 201.266 167.944 201.83 168.64 201.83Z" fill="#263238"/>
<path d="M170.17 198L167.71 196.54C167.71 196.54 168.65 195.54 169.59 196.15C169.863 196.363 170.064 196.654 170.167 196.985C170.271 197.315 170.272 197.669 170.17 198Z" fill="#263238"/>
<path d="M156.69 198.87L159.15 197.41C159.15 197.41 158.21 196.41 157.27 197.02C156.998 197.233 156.796 197.524 156.693 197.855C156.589 198.185 156.588 198.539 156.69 198.87Z" fill="#263238"/>
<path d="M166.09 209C164.893 209.083 163.703 208.763 162.71 208.09C162.71 208.09 162.48 209.87 163.97 210.21C164.409 210.283 164.859 210.203 165.246 209.983C165.632 209.762 165.93 209.415 166.09 209Z" fill="#703838"/>
<path d="M150.6 202.6C152.02 205.06 151.66 208.06 149.67 209.08C148.39 209.74 144.67 208.32 143.21 205.85C141.75 203.38 142.59 201.27 144.52 200.15C146.45 199.03 149.18 200.14 150.6 202.6Z" fill="#945959"/>
<path d="M151.32 204.44L146.98 199.72L150.1 197.85L151.32 204.44Z" fill="#253239"/>
<path d="M132.16 167.45L126.16 161.98L109.73 190.83L96.16 195.72L93.88 191L113.48 162.93L107.48 157.46C106.85 157.65 106.23 157.87 105.59 158.12C90.59 163.97 76.42 181.61 73.97 197.55C72.83 204.92 74.41 210.65 77.97 214.07L78.57 214.6L83.33 218.89L84.93 220.4L63.52 359.72C53.71 367.92 45.93 380.23 44.18 391.66C43.26 397.66 44.18 402.57 46.38 406.03V406.08L52.38 411.55L53.89 392.92L62.83 377.22L65.44 376.29L76.44 372.34L81.44 382.66L71.71 399.31L65.09 410.63L71.09 416.11L78.84 402.85C88.84 394.65 96.84 382.15 98.61 370.55C99.2962 366.813 99.0629 362.966 97.93 359.34H100.45L94.84 354.22C92.7388 352.121 89.9757 350.813 87.02 350.52L108.82 208.52C118.75 200.32 126.66 187.88 128.44 176.34C128.59 175.34 128.67 174.47 128.73 173.57L132.16 167.45Z" fill="#0B3F8D"/>
<path d="M92.9399 355.95L114.74 213.95C124.67 205.74 132.59 193.31 134.36 181.77C135.28 175.77 134.36 170.87 132.16 167.4L115.73 196.3L102.17 201.19L97.1699 190.86L113.52 162.86C112.9 163.06 112.28 163.27 111.64 163.52C96.5799 169.4 82.4199 187.05 79.9999 203C78.2499 214.43 82.9999 221.86 91.3599 223L69.4899 365.19C59.6899 373.4 51.9099 385.71 50.1499 397.14C49.2299 403.14 50.1499 408.04 52.3499 411.51L68.7799 382.65L82.3399 377.76L87.3399 388.09L70.9999 416.06C71.6199 415.86 72.2399 415.65 72.8799 415.4C87.8799 409.55 102.06 391.9 104.51 375.97C106.32 364.43 101.46 357 92.9399 355.95Z" fill="#0B3F8D"/>
<path d="M100.38 359.28L94.7699 354.16C94.3427 353.74 93.8848 353.352 93.3999 353L92.9399 356C95.7079 356.266 98.3168 357.416 100.38 359.28Z" fill="#0B3F8D"/>
<path opacity="0.4" d="M100.38 359.28L94.7699 354.16C94.3427 353.74 93.8848 353.352 93.3999 353L92.9399 356C95.7079 356.266 98.3168 357.416 100.38 359.28Z" fill="black"/>
<path d="M78.7901 402.8L87.3901 388.1L82.3501 377.77L79.5401 378.78L81.4101 382.62L71.6801 399.26L65.0601 410.58L71.0401 416.06L78.7901 402.8Z" fill="#0B3F8D"/>
<path opacity="0.2" d="M78.56 214.57L83.32 218.86L83.41 218.94C80.27 215.47 78.9 209.94 79.98 202.94C82.43 187.01 96.59 169.36 111.61 163.51C112.25 163.26 112.87 163.05 113.49 162.85L107.49 157.38C106.86 157.57 106.24 157.79 105.6 158.04C90.6 163.89 76.43 181.53 73.98 197.47C72.84 204.84 74.42 210.57 77.98 213.99L78.56 214.57Z" fill="black"/>
<path opacity="0.2" d="M126.19 161.97L109.76 190.82L115.73 196.3L132.16 167.44L126.19 161.97Z" fill="black"/>
<path opacity="0.4" d="M109.76 190.82L115.73 196.3L102.17 201.19L99 194.7L109.76 190.82Z" fill="black"/>
<path opacity="0.3" d="M91.33 223C88.9539 222.713 86.7021 221.779 84.82 220.3L84.91 220.38L63.52 359.72L69.52 365.19L91.33 223Z" fill="black"/>
<path opacity="0.2" d="M44.18 391.66C43.26 397.66 44.18 402.57 46.38 406.03V406.08L52.38 411.55C50.13 408.09 49.26 403.19 50.18 397.18C51.93 385.75 59.72 373.44 69.52 365.23L63.52 359.76C53.71 367.93 45.93 380.24 44.18 391.66Z" fill="black"/>
<path opacity="0.4" d="M81.41 382.62L87.39 388.1L82.35 377.77L79.54 378.78L81.41 382.62Z" fill="black"/>
<path opacity="0.2" d="M65.0601 410.58L71.0401 416.06L87.3901 388.1L81.4101 382.62L65.0601 410.58Z" fill="black"/>
<path d="M326 331.2L305.15 319.2C303.99 318.35 302.39 318.33 300.63 319.34L262.85 341.15C260.37 342.58 258.22 345.68 257.14 349.04C257.05 349.32 256.97 349.6 256.9 349.88V350.02C256.84 350.27 256.78 350.52 256.73 350.77C256.73 350.86 256.73 350.95 256.73 351.04C256.73 351.13 256.65 351.46 256.62 351.66C256.59 351.86 256.62 351.95 256.62 352.1C256.62 352.25 256.62 352.4 256.62 352.55C256.62 352.7 256.62 353.14 256.62 353.43V386.14C256.593 387.282 256.808 388.417 257.25 389.47C257.33 389.648 257.42 389.822 257.52 389.99C257.666 390.237 257.837 390.468 258.03 390.68L258.09 390.76C258.344 391.019 258.637 391.235 258.96 391.4L279.82 403.4C280.024 403.552 280.246 403.68 280.48 403.78C281.123 404.018 281.814 404.098 282.495 404.013C283.176 403.928 283.826 403.68 284.39 403.29L322 381.54C325.56 379.48 328.45 373.97 328.45 369.22V336.52C328.43 333.79 327.47 331.91 326 331.2Z" fill="#0B3F8D"/>
<path opacity="0.2" d="M305.13 319.2C303.97 318.35 302.37 318.33 300.61 319.34L262.83 341.15C261.091 342.256 259.66 343.783 258.67 345.59L280.19 357.59C281.162 355.891 282.536 354.456 284.19 353.41L322 331.64C322.576 331.238 323.244 330.986 323.943 330.907C324.641 330.829 325.348 330.926 326 331.19L305.13 319.2Z" fill="black"/>
<path opacity="0.4" d="M258.68 345.6C258.04 346.69 257.52 347.847 257.13 349.05C257.04 349.33 256.96 349.61 256.89 349.89V350.03C256.83 350.28 256.77 350.53 256.72 350.78C256.72 350.87 256.72 350.96 256.72 351.05C256.72 351.14 256.64 351.47 256.61 351.67C256.58 351.87 256.61 351.96 256.61 352.11C256.61 352.26 256.61 352.41 256.61 352.56C256.61 352.71 256.61 353.15 256.61 353.44V386.15C256.583 387.292 256.798 388.427 257.24 389.48C257.32 389.658 257.41 389.832 257.51 390C257.656 390.247 257.827 390.478 258.02 390.69L258.08 390.77C258.334 391.029 258.628 391.245 258.95 391.41L279.81 403.41C278.65 402.53 277.93 400.8 277.93 398.41V365.78C278.006 362.898 278.849 360.089 280.37 357.64L258.68 345.6Z" fill="black"/>
<path d="M277.79 345.49C276.875 345.49 275.998 345.126 275.351 344.479C274.704 343.832 274.34 342.955 274.34 342.04V319.32C274.34 309.32 281.15 297.48 289.85 292.46C294.64 289.69 299.33 289.35 303.05 291.46C306.77 293.57 308.81 297.84 308.81 303.37V326.1C308.81 327.015 308.447 327.892 307.8 328.539C307.153 329.186 306.275 329.55 305.36 329.55C304.445 329.55 303.568 329.186 302.921 328.539C302.274 327.892 301.91 327.015 301.91 326.1V303.4C301.91 300.48 301.07 298.31 299.6 297.46C298.13 296.61 295.83 296.96 293.3 298.46C286.76 302.23 281.24 311.8 281.24 319.35V342C281.245 342.456 281.16 342.909 280.989 343.333C280.818 343.756 280.565 344.141 280.244 344.465C279.923 344.79 279.541 345.048 279.12 345.224C278.698 345.399 278.247 345.49 277.79 345.49Z" fill="#37474F"/>
<path d="M307.39 365.28L311 375.75L298.2 383.14L301.4 370.21L301.85 368.38C299.69 368.44 298.19 366.77 298.19 363.83C298.206 362.642 298.408 361.465 298.79 360.34C299.788 357.213 301.837 354.528 304.59 352.74C308.12 350.74 310.99 352.35 310.99 356.43C310.816 359.691 309.524 362.792 307.33 365.21L307.39 365.28Z" fill="#455A64"/>
<path d="M301.43 370.21L301.88 368.38C299.72 368.44 298.22 366.77 298.22 363.83C298.236 362.642 298.438 361.465 298.82 360.34L307.38 365.28L311 375.75L301.43 370.21Z" fill="#37474F"/>
</g>
<defs>
<clipPath id="clip0">
<rect width="380.86" height="420.27" fill="white"/>
</clipPath>
</defs>
</svg>
