<svg width="388" height="363" viewBox="0 0 388 363" fill="none" xmlns="http://www.w3.org/2000/svg">
<g clip-path="url(#clip0)">
<path d="M193.89 362.47C300.972 362.47 387.78 357.402 387.78 351.15C387.78 344.898 300.972 339.83 193.89 339.83C86.8075 339.83 0 344.898 0 351.15C0 357.402 86.8075 362.47 193.89 362.47Z" fill="#F5F5F5"/>
<path d="M230.77 321.5L240.64 334.18L244.19 333.65L233.77 321.5H230.77Z" fill="#263238"/>
<path opacity="0.3" d="M230.77 321.5L240.64 334.18L244.19 333.65L233.77 321.5H230.77Z" fill="black"/>
<path d="M233.77 309.5L243.64 322.18L247.19 321.65L236.77 309.5H233.77Z" fill="#263238"/>
<path opacity="0.3" d="M233.77 309.5L243.64 322.18L247.19 321.65L236.77 309.5H233.77Z" fill="black"/>
<path d="M262.17 302.99H304.84L294.83 329.43H252.16L262.17 302.99Z" fill="#263238"/>
<path opacity="0.3" d="M262.17 302.99H304.84L294.83 329.43H252.16L262.17 302.99Z" fill="black"/>
<path d="M229.04 322.83H296.83V319.42H229.04V322.83Z" fill="#263238"/>
<path opacity="0.2" d="M270.81 322.83H296.83V319.42H270.81V322.83Z" fill="black"/>
<path d="M233.05 312.83H300.84V309.42H233.05V312.83Z" fill="#263238"/>
<path opacity="0.2" d="M274.82 312.83H300.84V309.42H274.82V312.83Z" fill="black"/>
<path d="M304.77 303.18L307.14 305.92L298.14 329.5H294.62L304.77 303.18Z" fill="#263238"/>
<path d="M212 317L207.42 318.14C207.596 316.9 208.122 315.736 208.937 314.785C209.752 313.833 210.822 313.134 212.02 312.77C213.452 312.442 214.955 312.641 216.253 313.329C217.551 314.018 218.558 315.15 219.09 316.52C219.482 317.469 219.59 318.511 219.4 319.52L247 336.13C250.24 333.41 254.07 335.45 255.65 337.67L251 338.78C250.728 338.828 250.469 338.931 250.239 339.084C250.009 339.237 249.814 339.436 249.664 339.668C249.515 339.9 249.416 340.16 249.372 340.433C249.328 340.705 249.341 340.984 249.41 341.251C249.48 341.518 249.603 341.768 249.774 341.985C249.945 342.202 250.158 342.382 250.401 342.512C250.645 342.643 250.912 342.721 251.187 342.743C251.462 342.765 251.739 342.73 252 342.64L256.58 341.5C256.404 342.74 255.877 343.904 255.063 344.855C254.248 345.807 253.178 346.505 251.98 346.87C250.553 347.23 249.044 347.066 247.728 346.407C246.412 345.748 245.376 344.638 244.81 343.28C244.388 342.4 244.245 341.413 244.4 340.45L216.79 323.83C214.07 325.69 209.79 324.35 208.24 322.13L212.85 320.94C213.109 320.878 213.353 320.765 213.567 320.608C213.782 320.451 213.963 320.252 214.1 320.024C214.237 319.796 214.327 319.542 214.364 319.279C214.402 319.016 214.387 318.747 214.32 318.49C214.198 317.991 213.89 317.559 213.458 317.281C213.026 317.004 212.504 316.903 212 317Z" fill="#263238"/>
<path opacity="0.6" d="M212 317L207.42 318.14C207.596 316.9 208.122 315.736 208.937 314.785C209.752 313.833 210.822 313.134 212.02 312.77C213.452 312.442 214.955 312.641 216.253 313.329C217.551 314.018 218.558 315.15 219.09 316.52C219.482 317.469 219.59 318.511 219.4 319.52L247 336.13C250.24 333.41 254.07 335.45 255.65 337.67L251 338.78C250.728 338.828 250.469 338.931 250.239 339.084C250.009 339.237 249.814 339.436 249.664 339.668C249.515 339.9 249.416 340.16 249.372 340.433C249.328 340.705 249.341 340.984 249.41 341.251C249.48 341.518 249.603 341.768 249.774 341.985C249.945 342.202 250.158 342.382 250.401 342.512C250.645 342.643 250.912 342.721 251.187 342.743C251.462 342.765 251.739 342.73 252 342.64L256.58 341.5C256.404 342.74 255.877 343.904 255.063 344.855C254.248 345.807 253.178 346.505 251.98 346.87C250.553 347.23 249.044 347.066 247.728 346.407C246.412 345.748 245.376 344.638 244.81 343.28C244.388 342.4 244.245 341.413 244.4 340.45L216.79 323.83C214.07 325.69 209.79 324.35 208.24 322.13L212.85 320.94C213.109 320.878 213.353 320.765 213.567 320.608C213.782 320.451 213.963 320.252 214.1 320.024C214.237 319.796 214.327 319.542 214.364 319.279C214.402 319.016 214.387 318.747 214.32 318.49C214.198 317.991 213.89 317.559 213.458 317.281C213.026 317.004 212.504 316.903 212 317Z" fill="white"/>
<path d="M221.03 350.97H294.83V329.42H221.03V350.97Z" fill="#263238"/>
<path opacity="0.2" d="M265.81 350.97H294.83V329.42H265.81V350.97Z" fill="black"/>
<path d="M320.75 345.52L324.08 342.18C324.576 343.336 324.73 344.609 324.524 345.85C324.319 347.09 323.762 348.246 322.92 349.18C321.862 350.203 320.471 350.81 319.002 350.891C317.533 350.972 316.084 350.521 314.92 349.62C314.098 349.012 313.469 348.178 313.11 347.22H280.88C279.51 351.22 275.18 351.45 272.68 350.37L276.01 347.06C276.225 346.882 276.4 346.66 276.523 346.41C276.647 346.16 276.718 345.887 276.73 345.609C276.742 345.33 276.696 345.052 276.594 344.792C276.492 344.532 276.337 344.296 276.138 344.1C275.94 343.904 275.703 343.751 275.442 343.652C275.181 343.553 274.902 343.51 274.624 343.525C274.345 343.54 274.073 343.613 273.824 343.74C273.575 343.866 273.356 344.044 273.18 344.26L269.85 347.61C269.356 346.453 269.203 345.179 269.41 343.939C269.618 342.698 270.176 341.543 271.02 340.61C272.056 339.563 273.434 338.923 274.903 338.807C276.371 338.692 277.833 339.108 279.02 339.98C279.834 340.516 280.465 341.286 280.83 342.19H313.06C314.43 339.19 318.76 338.19 321.26 339.19L317.93 342.59C317.74 342.776 317.588 342.999 317.485 343.244C317.381 343.49 317.328 343.754 317.328 344.02C317.328 344.286 317.381 344.55 317.485 344.796C317.588 345.041 317.74 345.264 317.93 345.45C318.295 345.832 318.797 346.054 319.326 346.067C319.854 346.08 320.366 345.883 320.75 345.52Z" fill="#263238"/>
<path opacity="0.6" d="M320.75 345.52L324.08 342.18C324.576 343.336 324.73 344.609 324.524 345.85C324.319 347.09 323.762 348.246 322.92 349.18C321.862 350.203 320.471 350.81 319.002 350.891C317.533 350.972 316.084 350.521 314.92 349.62C314.098 349.012 313.469 348.178 313.11 347.22H280.88C279.51 351.22 275.18 351.45 272.68 350.37L276.01 347.06C276.225 346.882 276.4 346.66 276.523 346.41C276.647 346.16 276.718 345.887 276.73 345.609C276.742 345.33 276.696 345.052 276.594 344.792C276.492 344.532 276.337 344.296 276.138 344.1C275.94 343.904 275.703 343.751 275.442 343.652C275.181 343.553 274.902 343.51 274.624 343.525C274.345 343.54 274.073 343.613 273.824 343.74C273.575 343.866 273.356 344.044 273.18 344.26L269.85 347.61C269.356 346.453 269.203 345.179 269.41 343.939C269.618 342.698 270.176 341.543 271.02 340.61C272.056 339.563 273.434 338.923 274.903 338.807C276.371 338.692 277.833 339.108 279.02 339.98C279.834 340.516 280.465 341.286 280.83 342.19H313.06C314.43 339.19 318.76 338.19 321.26 339.19L317.93 342.59C317.74 342.776 317.588 342.999 317.485 343.244C317.381 343.49 317.328 343.754 317.328 344.02C317.328 344.286 317.381 344.55 317.485 344.796C317.588 345.041 317.74 345.264 317.93 345.45C318.295 345.832 318.797 346.054 319.326 346.067C319.854 346.08 320.366 345.883 320.75 345.52Z" fill="white"/>
<path d="M80.6699 275.56L86.8899 268C87.3955 267.378 88.0326 266.877 88.7554 266.531C89.4782 266.185 90.2687 266.004 91.0699 266H96.8199C97.1511 266 97.4759 266.091 97.7589 266.263C98.0419 266.435 98.2722 266.682 98.4249 266.976C98.5775 267.27 98.6466 267.6 98.6245 267.93C98.6025 268.261 98.4902 268.579 98.2999 268.85L94.2999 274.5L80.6699 275.56Z" fill="#0B3F8D"/>
<path opacity="0.3" d="M80.6699 275.56L86.8899 268C87.3955 267.378 88.0326 266.877 88.7554 266.531C89.4782 266.185 90.2687 266.004 91.0699 266H96.8199C97.1511 266 97.4759 266.091 97.7589 266.263C98.0419 266.435 98.2722 266.682 98.4249 266.976C98.5775 267.27 98.6466 267.6 98.6245 267.93C98.6025 268.261 98.4902 268.579 98.2999 268.85L94.2999 274.5L80.6699 275.56Z" fill="black"/>
<path d="M15 274.54L8 251.56H74.86L80.67 275.56L15 274.54Z" fill="#0B3F8D"/>
<path d="M8 251.56L10.45 248.39C11.0819 247.572 11.8926 246.91 12.8199 246.454C13.7473 245.999 14.7667 245.761 15.8 245.76H72.94C73.3116 245.761 73.6784 245.844 74.0144 246.002C74.3504 246.161 74.6473 246.392 74.884 246.678C75.1208 246.964 75.2915 247.299 75.3842 247.659C75.4768 248.019 75.489 248.395 75.42 248.76L74.86 251.52L8 251.56Z" fill="#0B3F8D"/>
<path opacity="0.3" d="M15 274.54L8 251.56H74.86L80.67 275.56L15 274.54Z" fill="black"/>
<path opacity="0.2" d="M8 251.56L10.45 248.39C11.0819 247.572 11.8926 246.91 12.8199 246.454C13.7473 245.999 14.7667 245.761 15.8 245.76H72.94C73.3116 245.761 73.6784 245.844 74.0144 246.002C74.3504 246.161 74.6473 246.392 74.884 246.678C75.1208 246.964 75.2915 247.299 75.3842 247.659C75.4768 248.019 75.489 248.395 75.42 248.76L74.86 251.52L8 251.56Z" fill="black"/>
<path d="M43.1365 216.284L45.8525 216.877C46.0235 216.914 46.1727 217.018 46.2672 217.165C46.3617 217.313 46.3938 217.492 46.3565 217.663L45.6246 221.014L41.6288 220.141L42.3606 216.79C42.3976 216.621 42.4997 216.473 42.6449 216.378C42.79 216.283 42.9666 216.249 43.1365 216.284Z" fill="#0B3F8D"/>
<path d="M50.8013 217.962L53.5173 218.555C53.6883 218.592 53.8375 218.696 53.932 218.843C54.0265 218.991 54.0586 219.17 54.0213 219.341L53.2894 222.692L49.2838 221.817L50.0157 218.466C50.053 218.295 50.1568 218.146 50.3041 218.051C50.4514 217.957 50.6303 217.924 50.8013 217.962Z" fill="#0B3F8D"/>
<path d="M58.4882 219.632L61.2042 220.225C61.3752 220.262 61.5244 220.366 61.6189 220.514C61.7134 220.661 61.7455 220.84 61.7082 221.011L60.9699 224.391L56.9546 223.514L57.6864 220.163C57.7016 220.074 57.7348 219.99 57.784 219.914C57.8332 219.839 57.8974 219.774 57.9725 219.724C58.0476 219.674 58.1321 219.641 58.2208 219.625C58.3095 219.609 58.4005 219.611 58.4882 219.632Z" fill="#0B3F8D"/>
<path d="M67.0892 221.757L69.8136 222.341C69.9851 222.378 70.135 222.481 70.2303 222.629C70.3257 222.776 70.3585 222.955 70.3218 223.127L69.6015 226.488L65.5835 225.627L66.3038 222.266C66.3405 222.094 66.4439 221.944 66.5912 221.849C66.7385 221.754 66.9176 221.721 67.0892 221.757Z" fill="#0B3F8D"/>
<path d="M73.8084 222.986L76.5244 223.579C76.6954 223.616 76.8445 223.72 76.939 223.867C77.0336 224.015 77.0657 224.193 77.0283 224.364L76.2965 227.715L72.3007 226.843L73.0325 223.492C73.0695 223.322 73.1716 223.174 73.3167 223.08C73.4619 222.985 73.6385 222.951 73.8084 222.986Z" fill="#0B3F8D"/>
<path d="M81.4854 224.654L84.2014 225.247C84.3724 225.284 84.5215 225.388 84.6161 225.535C84.7106 225.683 84.7427 225.861 84.7053 226.033L83.9735 229.384L79.9777 228.511L80.7095 225.16C80.7465 224.99 80.8486 224.842 80.9937 224.748C81.1389 224.653 81.3155 224.619 81.4854 224.654Z" fill="#0B3F8D"/>
<path d="M71.9826 281.032L69.2666 280.439C69.0956 280.401 68.9465 280.298 68.8519 280.15C68.7574 280.003 68.7253 279.824 68.7627 279.653L69.4945 276.302L73.5294 277.183L72.7976 280.534C72.7602 280.705 72.6565 280.855 72.5091 280.949C72.3618 281.044 72.1829 281.076 72.0119 281.038L71.9826 281.032Z" fill="#0B3F8D"/>
<path d="M64.364 279.374L61.6286 278.776C61.4576 278.738 61.3084 278.635 61.214 278.487C61.1195 278.34 61.0874 278.161 61.1248 277.99L61.8572 274.639L65.8626 275.515L65.1302 278.865C65.0936 279.033 64.9932 279.18 64.8501 279.275C64.7071 279.37 64.5327 279.405 64.364 279.374Z" fill="#0B3F8D"/>
<path d="M56.6345 277.678L53.9185 277.085C53.7475 277.047 53.5983 276.944 53.5038 276.796C53.4093 276.649 53.3772 276.47 53.4145 276.299L54.1464 272.948L58.152 273.823L57.4201 277.174C57.3828 277.345 57.279 277.494 57.1317 277.589C56.9843 277.683 56.8055 277.715 56.6345 277.678Z" fill="#0B3F8D"/>
<path d="M48.9695 276.006L46.2535 275.413C46.1689 275.394 46.0887 275.359 46.0175 275.31C45.9463 275.26 45.8856 275.197 45.8388 275.124C45.792 275.051 45.7601 274.97 45.7448 274.885C45.7294 274.799 45.7311 274.712 45.7496 274.627L46.4814 271.276L50.5065 272.155L49.7747 275.506C49.7559 275.592 49.7199 275.674 49.6689 275.746C49.6179 275.819 49.5529 275.88 49.4778 275.926C49.4028 275.973 49.3191 276.004 49.2317 276.018C49.1444 276.031 49.0552 276.027 48.9695 276.006Z" fill="#0B3F8D"/>
<path d="M41.3083 274.316L38.5923 273.723C38.4213 273.686 38.2722 273.582 38.1776 273.435C38.0831 273.287 38.051 273.108 38.0884 272.937L38.8202 269.586L42.816 270.459L42.0842 273.81C42.0472 273.979 41.9451 274.127 41.8 274.222C41.6548 274.317 41.4782 274.351 41.3083 274.316Z" fill="#0B3F8D"/>
<path d="M33.6214 272.652L30.9054 272.059C30.8207 272.04 30.7405 272.005 30.6694 271.956C30.5982 271.906 30.5375 271.843 30.4907 271.77C30.4439 271.697 30.4119 271.616 30.3966 271.53C30.3813 271.445 30.3829 271.358 30.4014 271.273L31.1333 267.922L35.1389 268.797L34.4134 272.118C34.3983 272.206 34.3656 272.29 34.3171 272.365C34.2687 272.44 34.2055 272.505 34.1315 272.555C34.0575 272.604 33.9741 272.639 33.8864 272.655C33.7987 272.672 33.7086 272.671 33.6214 272.652Z" fill="#0B3F8D"/>
<g opacity="0.4">
<path opacity="0.4" d="M43.1365 216.284L45.8525 216.877C46.0235 216.914 46.1727 217.018 46.2672 217.165C46.3617 217.313 46.3938 217.492 46.3565 217.663L45.6246 221.014L41.6288 220.141L42.3606 216.79C42.3976 216.621 42.4997 216.473 42.6449 216.378C42.79 216.283 42.9666 216.249 43.1365 216.284Z" fill="white"/>
<path opacity="0.4" d="M50.8015 217.962L53.5175 218.555C53.6885 218.592 53.8377 218.696 53.9322 218.843C54.0267 218.991 54.0588 219.17 54.0215 219.341L53.2896 222.692L49.284 221.817L50.0159 218.466C50.0533 218.295 50.157 218.146 50.3044 218.051C50.4517 217.957 50.6305 217.924 50.8015 217.962Z" fill="white"/>
<path opacity="0.4" d="M58.4882 219.632L61.2042 220.225C61.3752 220.262 61.5244 220.366 61.6189 220.514C61.7134 220.661 61.7455 220.84 61.7082 221.011L60.9699 224.391L56.9546 223.514L57.6864 220.163C57.7016 220.074 57.7348 219.99 57.784 219.914C57.8332 219.839 57.8974 219.774 57.9725 219.724C58.0476 219.674 58.1321 219.641 58.2208 219.625C58.3095 219.609 58.4005 219.611 58.4882 219.632Z" fill="white"/>
<path opacity="0.4" d="M67.0894 221.757L69.8138 222.341C69.9854 222.378 70.1353 222.481 70.2306 222.629C70.3259 222.776 70.3588 222.955 70.322 223.127L69.6017 226.488L65.5837 225.627L66.304 222.266C66.3408 222.094 66.4442 221.944 66.5915 221.849C66.7388 221.754 66.9179 221.721 67.0894 221.757Z" fill="white"/>
<path opacity="0.4" d="M73.8084 222.986L76.5244 223.579C76.6954 223.616 76.8445 223.72 76.939 223.867C77.0336 224.015 77.0657 224.193 77.0283 224.364L76.2965 227.715L72.3007 226.843L73.0325 223.492C73.0695 223.322 73.1716 223.174 73.3167 223.08C73.4619 222.985 73.6385 222.951 73.8084 222.986Z" fill="white"/>
<path opacity="0.4" d="M81.4854 224.654L84.2014 225.247C84.3724 225.284 84.5215 225.388 84.6161 225.535C84.7106 225.683 84.7427 225.861 84.7053 226.033L83.9735 229.384L79.9777 228.511L80.7095 225.16C80.7465 224.99 80.8486 224.842 80.9937 224.748C81.1389 224.653 81.3155 224.619 81.4854 224.654Z" fill="white"/>
<path opacity="0.4" d="M71.9826 281.032L69.2666 280.439C69.0956 280.401 68.9465 280.298 68.8519 280.15C68.7574 280.003 68.7253 279.824 68.7627 279.653L69.4945 276.302L73.5294 277.183L72.7976 280.534C72.7602 280.705 72.6565 280.855 72.5091 280.949C72.3618 281.044 72.1829 281.076 72.0119 281.038L71.9826 281.032Z" fill="white"/>
<path opacity="0.4" d="M64.3643 279.374L61.6288 278.776C61.4578 278.738 61.3087 278.635 61.2142 278.487C61.1197 278.34 61.0876 278.161 61.125 277.99L61.8575 274.639L65.8629 275.515L65.1304 278.865C65.0939 279.033 64.9934 279.18 64.8504 279.275C64.7073 279.37 64.533 279.405 64.3643 279.374Z" fill="white"/>
<path opacity="0.4" d="M56.6347 277.678L53.9188 277.085C53.7477 277.047 53.5986 276.944 53.5041 276.796C53.4095 276.649 53.3774 276.47 53.4148 276.299L54.1466 272.948L58.1522 273.823L57.4204 277.174C57.383 277.345 57.2793 277.494 57.1319 277.589C56.9846 277.683 56.8058 277.715 56.6347 277.678Z" fill="white"/>
<path opacity="0.4" d="M48.9695 276.006L46.2535 275.413C46.1689 275.394 46.0887 275.359 46.0175 275.31C45.9463 275.26 45.8856 275.197 45.8388 275.124C45.792 275.051 45.7601 274.97 45.7448 274.885C45.7294 274.799 45.7311 274.712 45.7496 274.627L46.4814 271.276L50.5065 272.155L49.7747 275.506C49.7559 275.592 49.7199 275.674 49.6689 275.746C49.6179 275.819 49.5529 275.88 49.4778 275.926C49.4028 275.973 49.3191 276.004 49.2317 276.018C49.1444 276.031 49.0552 276.027 48.9695 276.006Z" fill="white"/>
<path opacity="0.4" d="M41.3086 274.316L38.5926 273.723C38.4216 273.686 38.2724 273.582 38.1779 273.435C38.0834 273.287 38.0513 273.108 38.0886 272.937L38.8205 269.586L42.8163 270.459L42.0844 273.81C42.0475 273.979 41.9454 274.127 41.8002 274.222C41.655 274.317 41.4784 274.351 41.3086 274.316Z" fill="white"/>
<path opacity="0.4" d="M33.6216 272.652L30.9056 272.059C30.821 272.04 30.7408 272.005 30.6696 271.956C30.5985 271.906 30.5377 271.843 30.4909 271.77C30.4441 271.697 30.4122 271.616 30.3969 271.53C30.3815 271.445 30.3832 271.358 30.4017 271.273L31.1335 267.922L35.1391 268.797L34.4137 272.118C34.3986 272.206 34.3658 272.29 34.3174 272.365C34.2689 272.44 34.2058 272.505 34.1317 272.555C34.0577 272.604 33.9743 272.639 33.8866 272.655C33.799 272.672 33.7088 272.671 33.6216 272.652Z" fill="white"/>
</g>
<path d="M89.4786 229.172L38.979 218.142C37.0581 217.723 35.1609 218.94 34.7414 220.861L25.2314 264.404C24.8119 266.325 26.029 268.223 27.9498 268.642L78.4495 279.671C80.3703 280.091 82.2676 278.874 82.6871 276.953L92.197 233.409C92.6166 231.488 91.3995 229.591 89.4786 229.172Z" fill="#263238"/>
<path opacity="0.4" d="M32.8201 269.71L27.9401 268.64C27.4823 268.542 27.0485 268.354 26.6637 268.087C26.2788 267.82 25.9505 267.48 25.6977 267.086C25.4449 266.692 25.2726 266.252 25.1906 265.791C25.1086 265.33 25.1186 264.857 25.2201 264.4L34.7301 220.86C34.8294 220.4 35.0191 219.964 35.2881 219.577C35.5571 219.191 35.9001 218.862 36.2973 218.609C36.6944 218.356 37.1378 218.184 37.6017 218.103C38.0657 218.023 38.541 218.035 39.0001 218.14L43.8801 219.21C43.4231 219.11 42.9508 219.101 42.4903 219.183C42.0298 219.266 41.5901 219.438 41.1963 219.691C40.8025 219.944 40.4624 220.271 40.1954 220.656C39.9283 221.04 39.7396 221.473 39.6401 221.93L30.1001 265.47C30 265.927 29.991 266.399 30.0735 266.86C30.1561 267.32 30.3286 267.76 30.5812 268.154C30.8339 268.548 31.1616 268.888 31.5458 269.155C31.9299 269.422 32.3629 269.61 32.8201 269.71Z" fill="black"/>
<path d="M60.6399 239.57L53.4799 257.57L49.7 256.74L50.7 237.43L53.58 238.06L52.5099 253.17L57.82 239L60.6399 239.57Z" fill="#0B3F8D"/>
<path d="M60.39 251.63L58.8 251.28L59.01 250.28C59.4007 250.376 59.8091 250.374 60.1985 250.272C60.5879 250.171 60.9459 249.974 61.2401 249.7L62.2401 249.91L60.2401 259.18L58.84 258.87L60.39 251.63Z" fill="#0B3F8D"/>
<path d="M62.1101 258.17L63.5101 258.48L63.2101 259.87L61.8101 259.56L62.1101 258.17Z" fill="#0B3F8D"/>
<path d="M65.1201 258.06L65.1801 257.78L66.5601 257.94L66.4901 258.24C66.3301 258.98 66.5801 259.34 67.1001 259.45C67.2139 259.48 67.333 259.484 67.4486 259.462C67.5643 259.441 67.6738 259.394 67.7693 259.325C67.8648 259.256 67.944 259.167 68.0012 259.064C68.0583 258.962 68.0921 258.847 68.1001 258.73L68.5701 256.58C68.6143 256.478 68.6344 256.368 68.6288 256.257C68.6233 256.146 68.5922 256.038 68.538 255.941C68.4837 255.844 68.4079 255.761 68.3163 255.699C68.2247 255.636 68.1199 255.595 68.0101 255.58C67.8921 255.549 67.7688 255.544 67.6486 255.564C67.5283 255.585 67.4138 255.63 67.3126 255.699C67.2114 255.767 67.1259 255.856 67.0616 255.959C66.9974 256.063 66.956 256.179 66.9401 256.3V256.46L65.5901 256.17L66.7501 250.88L70.7501 251.76L70.4601 253.08L67.8001 252.5L67.3001 254.8C67.494 254.616 67.7317 254.484 67.9907 254.418C68.2497 254.351 68.5214 254.352 68.7801 254.42C69.0202 254.473 69.2461 254.576 69.4421 254.725C69.6382 254.873 69.7998 255.062 69.9158 255.279C70.0317 255.495 70.0993 255.735 70.1139 255.98C70.1284 256.225 70.0896 256.471 70.0001 256.7L69.5401 259C69.4744 259.29 69.3522 259.565 69.1805 259.808C69.0088 260.051 68.7909 260.257 68.5392 260.416C68.2876 260.575 68.0071 260.683 67.7139 260.733C67.4206 260.784 67.1203 260.776 66.8301 260.71C66.5398 260.644 66.2654 260.522 66.0224 260.35C65.7794 260.179 65.5726 259.961 65.4138 259.709C65.255 259.458 65.1473 259.177 65.0969 258.884C65.0465 258.591 65.0544 258.29 65.1201 258V258.06Z" fill="#0B3F8D"/>
<path d="M23.7223 262.753L24.3134 260.047C24.3318 259.962 24.3668 259.882 24.4163 259.811C24.4658 259.74 24.5288 259.679 24.6018 259.632C24.6747 259.585 24.7562 259.553 24.8415 259.538C24.9268 259.523 25.0143 259.524 25.099 259.543L28.45 260.275L27.5837 264.241L24.2327 263.509C24.0666 263.473 23.9208 263.375 23.8258 263.234C23.7307 263.093 23.6936 262.921 23.7223 262.753Z" fill="#0B3F8D"/>
<path d="M25.3902 255.129L25.9839 252.413C26.0212 252.242 26.125 252.093 26.2724 251.999C26.4197 251.904 26.5986 251.872 26.7696 251.909L30.1205 252.642L29.2449 256.647L25.894 255.915C25.8094 255.896 25.7292 255.861 25.658 255.812C25.5869 255.762 25.5262 255.699 25.4794 255.626C25.4326 255.553 25.4007 255.472 25.3854 255.387C25.3701 255.301 25.3717 255.214 25.3902 255.129Z" fill="#0B3F8D"/>
<path d="M27.0703 247.43L27.664 244.715C27.7013 244.544 27.8051 244.394 27.9525 244.3C28.0998 244.205 28.2787 244.173 28.4497 244.211L31.8005 244.943L30.9208 248.968L27.5699 248.236C27.4835 248.217 27.4018 248.181 27.3297 248.13C27.2575 248.079 27.1963 248.014 27.1497 247.939C27.1031 247.864 27.072 247.78 27.0584 247.693C27.0448 247.605 27.0488 247.516 27.0703 247.43Z" fill="#0B3F8D"/>
<path d="M28.7394 239.791L29.333 237.075C29.3704 236.904 29.4742 236.755 29.6215 236.66C29.7689 236.566 29.9477 236.534 30.1188 236.571L33.4696 237.303L32.5962 241.299L29.2454 240.567C29.076 240.53 28.928 240.427 28.8334 240.282C28.7387 240.137 28.7049 239.961 28.7394 239.791Z" fill="#0B3F8D"/>
<path d="M30.4284 232.081L31.0216 229.365C31.0589 229.194 31.1627 229.045 31.31 228.951C31.4574 228.856 31.6362 228.824 31.8072 228.861L35.1582 229.593L34.2834 233.599L30.9324 232.867C30.7614 232.83 30.6122 232.726 30.5177 232.578C30.4232 232.431 30.3911 232.252 30.4284 232.081Z" fill="#0B3F8D"/>
<path d="M32.1013 224.413L32.6945 221.697C32.7319 221.526 32.8356 221.377 32.9829 221.283C33.1303 221.188 33.3091 221.156 33.4801 221.193L36.8311 221.925L35.9585 225.921L32.6074 225.189C32.4364 225.152 32.2873 225.048 32.1927 224.901C32.0982 224.753 32.0661 224.574 32.1035 224.403L32.1013 224.413Z" fill="#0B3F8D"/>
<g opacity="0.4">
<path opacity="0.4" d="M23.7223 262.753L24.3134 260.047C24.3318 259.962 24.3668 259.882 24.4163 259.811C24.4658 259.74 24.5288 259.679 24.6018 259.632C24.6747 259.585 24.7562 259.553 24.8415 259.538C24.9268 259.523 25.0143 259.524 25.099 259.543L28.45 260.275L27.5837 264.241L24.2327 263.509C24.0666 263.473 23.9208 263.375 23.8258 263.234C23.7307 263.093 23.6936 262.921 23.7223 262.753Z" fill="white"/>
<path opacity="0.4" d="M25.3904 255.129L25.9841 252.413C26.0215 252.242 26.1253 252.093 26.2726 251.999C26.42 251.904 26.5988 251.872 26.7698 251.909L30.1207 252.642L29.2452 256.647L25.8943 255.915C25.8096 255.896 25.7294 255.861 25.6583 255.812C25.5871 255.762 25.5264 255.699 25.4796 255.626C25.4329 255.553 25.4009 255.472 25.3856 255.387C25.3703 255.301 25.3719 255.214 25.3904 255.129Z" fill="white"/>
<path opacity="0.4" d="M27.0703 247.43L27.664 244.714C27.7013 244.543 27.8051 244.394 27.9525 244.3C28.0998 244.205 28.2787 244.173 28.4497 244.211L31.8005 244.943L30.9208 248.968L27.5699 248.236C27.4835 248.217 27.4018 248.181 27.3297 248.13C27.2575 248.079 27.1963 248.014 27.1497 247.939C27.1031 247.864 27.072 247.78 27.0584 247.693C27.0448 247.605 27.0488 247.516 27.0703 247.43Z" fill="white"/>
<path opacity="0.4" d="M28.7396 239.791L29.3333 237.075C29.3707 236.904 29.4744 236.755 29.6218 236.66C29.7691 236.566 29.948 236.534 30.119 236.571L33.4699 237.303L32.5965 241.299L29.2456 240.567C29.0763 240.53 28.9283 240.427 28.8336 240.282C28.7389 240.137 28.7052 239.961 28.7396 239.791Z" fill="white"/>
<path opacity="0.4" d="M30.4284 232.081L31.0216 229.365C31.0589 229.194 31.1627 229.045 31.31 228.951C31.4574 228.856 31.6362 228.824 31.8072 228.861L35.1582 229.593L34.2834 233.599L30.9324 232.867C30.7614 232.83 30.6122 232.726 30.5177 232.578C30.4232 232.431 30.3911 232.252 30.4284 232.081Z" fill="white"/>
<path opacity="0.4" d="M32.1013 224.413L32.6945 221.697C32.7319 221.526 32.8356 221.377 32.9829 221.283C33.1303 221.188 33.3091 221.156 33.4801 221.193L36.8311 221.925L35.9585 225.921L32.6074 225.189C32.4364 225.152 32.2873 225.048 32.1927 224.901C32.0982 224.753 32.0661 224.574 32.1035 224.403L32.1013 224.413Z" fill="white"/>
</g>
<path d="M94.32 274.54H15V350.97H94.32V274.54Z" fill="#0B3F8D"/>
<path opacity="0.2" d="M28.31 274.54H15V350.97H28.31V274.54Z" fill="black"/>
<path d="M28.3101 274.54L21.0001 265.64C20.4697 264.99 19.8016 264.467 19.0441 264.107C18.2866 263.747 17.4586 263.561 16.6201 263.56H10.7901C10.3716 263.56 9.96176 263.679 9.60773 263.902C9.25369 264.125 8.96989 264.443 8.78906 264.821C8.60823 265.198 8.53772 265.619 8.58567 266.034C8.63362 266.45 8.79807 266.844 9.06006 267.17L15.0001 274.54H28.3101Z" fill="#0B3F8D"/>
<path d="M217.62 135.72C212.41 138.3 201.53 142.87 191.31 142.14C188.805 141.986 186.34 141.447 184 140.54C180.65 139.21 178.52 135.83 177.25 131.35C172.62 115.16 179.1 84.6 179.1 84.6C188.52 86.14 197.62 122.87 201.18 124.88C204.74 126.89 219.89 126.19 219.89 126.19L220.39 130.68C220.503 131.703 220.298 132.736 219.802 133.638C219.306 134.54 218.544 135.267 217.62 135.72Z" fill="#0B3F8D"/>
<path opacity="0.3" d="M191.31 142.14C188.805 141.986 186.34 141.447 184 140.54C180.65 139.21 178.52 135.83 177.25 131.35C177.61 128.93 178.04 127.22 178.04 127.22L195.36 122.22C195.36 122.22 196.08 134.75 191.31 142.14Z" fill="black"/>
<path d="M177.73 343.29L186.1 344.17L187.67 326.13L179.31 325.24L177.73 343.29Z" fill="#B97964"/>
<path d="M135.98 342.68H144.09L144.76 323.9H136.64L135.98 342.68Z" fill="#B97964"/>
<path d="M145.21 341.74H135.36C135.198 341.741 135.042 341.797 134.916 341.899C134.791 342.001 134.704 342.142 134.67 342.3L133.07 349.52C133.005 349.83 133.065 350.154 133.237 350.42C133.409 350.686 133.68 350.873 133.99 350.94H134.25C137.44 350.89 139.76 350.69 143.76 350.69C146.23 350.69 153.66 350.95 157.07 350.95C160.48 350.95 160.92 347.59 159.52 347.28C153.27 345.92 148.52 344.03 146.52 342.28C146.164 341.946 145.698 341.754 145.21 341.74Z" fill="#263238"/>
<path d="M145.77 342.86C145.732 342.848 145.699 342.826 145.674 342.796C145.65 342.766 145.634 342.729 145.63 342.69C145.623 342.653 145.628 342.615 145.644 342.58C145.66 342.546 145.687 342.518 145.72 342.5C146.01 342.31 148.63 340.71 149.53 341.17C149.631 341.218 149.716 341.295 149.775 341.391C149.834 341.487 149.863 341.598 149.86 341.71C149.882 341.897 149.857 342.086 149.787 342.261C149.717 342.435 149.605 342.59 149.46 342.71C149.002 343.021 148.451 343.166 147.9 343.12C147.182 343.112 146.468 343.025 145.77 342.86ZM146.33 342.59C147.276 342.912 148.309 342.861 149.22 342.45C149.316 342.365 149.39 342.257 149.435 342.137C149.481 342.017 149.496 341.887 149.48 341.76C149.48 341.61 149.41 341.53 149.36 341.53C149.283 341.489 149.196 341.472 149.11 341.48C148.12 341.672 147.176 342.052 146.33 342.6V342.59Z" fill="#0B3F8D"/>
<path d="M145.72 342.91C145.691 342.89 145.668 342.863 145.652 342.831C145.636 342.8 145.629 342.765 145.63 342.73C145.63 342.62 145.84 340.29 146.77 339.52C146.878 339.421 147.007 339.348 147.147 339.305C147.287 339.262 147.435 339.25 147.58 339.27C147.726 339.27 147.868 339.32 147.982 339.413C148.095 339.506 148.172 339.636 148.2 339.78C148.37 340.64 146.75 342.42 145.91 342.87H145.82C145.791 342.893 145.756 342.907 145.72 342.91ZM147.02 339.75C146.434 340.474 146.085 341.361 146.02 342.29C146.86 341.66 147.89 340.29 147.78 339.78C147.78 339.73 147.78 339.58 147.5 339.58H147.41C147.258 339.588 147.113 339.648 147 339.75H147.02Z" fill="#0B3F8D"/>
<path d="M187 341.48H177.15C176.988 341.481 176.832 341.537 176.707 341.639C176.581 341.74 176.494 341.882 176.46 342.04L174.86 349.26C174.795 349.57 174.855 349.894 175.027 350.16C175.2 350.426 175.47 350.613 175.78 350.68H176.04C179.23 350.63 181.55 350.43 185.55 350.43C188.02 350.43 195.45 350.69 198.86 350.69C202.27 350.69 202.71 347.33 201.31 347.02C195.06 345.66 190.31 343.77 188.31 342.02C187.954 341.686 187.488 341.494 187 341.48Z" fill="#263238"/>
<path d="M187.54 342.61C187.503 342.598 187.469 342.576 187.444 342.546C187.42 342.516 187.404 342.479 187.4 342.44C187.393 342.403 187.398 342.365 187.414 342.33C187.43 342.296 187.457 342.268 187.49 342.25C187.78 342.06 190.4 340.46 191.3 340.92C191.401 340.968 191.486 341.045 191.545 341.141C191.604 341.237 191.633 341.348 191.63 341.46C191.652 341.647 191.627 341.836 191.557 342.011C191.487 342.185 191.375 342.34 191.23 342.46C190.772 342.771 190.222 342.916 189.67 342.87C188.952 342.862 188.238 342.775 187.54 342.61ZM188.1 342.34C189.046 342.662 190.079 342.611 190.99 342.2C191.086 342.115 191.16 342.007 191.205 341.887C191.251 341.767 191.266 341.637 191.25 341.51C191.25 341.36 191.18 341.28 191.13 341.28C191.053 341.239 190.966 341.222 190.88 341.23C189.891 341.419 188.947 341.796 188.1 342.34Z" fill="#0B3F8D"/>
<path d="M187.49 342.65C187.461 342.63 187.438 342.603 187.422 342.572C187.406 342.54 187.399 342.505 187.4 342.47C187.4 342.36 187.61 340.03 188.54 339.26C188.648 339.162 188.777 339.088 188.917 339.045C189.057 339.002 189.205 338.99 189.35 339.01C189.496 339.01 189.638 339.06 189.752 339.153C189.865 339.247 189.942 339.376 189.97 339.52C190.13 340.38 188.52 342.16 187.68 342.61H187.59C187.561 342.633 187.526 342.647 187.49 342.65ZM188.79 339.49C188.204 340.214 187.855 341.101 187.79 342.03C188.63 341.4 189.66 340.03 189.55 339.52C189.55 339.47 189.55 339.32 189.27 339.32H189.18C189.035 339.332 188.897 339.392 188.79 339.49Z" fill="#0B3F8D"/>
<path opacity="0.2" d="M179.31 325.24L187.67 326.13L186.85 335.43L178.49 334.55L179.31 325.24Z" fill="black"/>
<path opacity="0.2" d="M136.64 323.91H144.76L144.41 333.59H136.29L136.64 323.91Z" fill="black"/>
<path d="M140 159.15H183C187.09 181.49 199.9 260.56 190.71 331.02L176.14 329.21C176.14 329.21 177.49 235.68 164.63 201.11C163.15 219.61 161.39 239.3 159.87 249.78C156.13 275.57 148.11 331.92 148.11 331.92H133.3C133.3 331.92 136.3 277.98 137.74 252.64C139.27 225.12 139.93 164.8 140 159.15Z" fill="#263238"/>
<path opacity="0.2" d="M164.66 201.11C166.779 207.172 168.388 213.4 169.47 219.73C170.67 203.26 165.86 185.8 165.86 185.8L164.66 201.11Z" fill="black"/>
<path d="M192.4 334.41L174.37 331.73L174.92 326.73L193.68 329.19L192.4 334.41Z" fill="#0B3F8D"/>
<path opacity="0.6" d="M192.4 334.41L174.37 331.73L174.92 326.73L193.68 329.19L192.4 334.41Z" fill="white"/>
<path d="M149.92 332.04H132.42V326.81L150.58 326.46L149.92 332.04Z" fill="#0B3F8D"/>
<path opacity="0.6" d="M149.92 332.04H132.42V326.81L150.58 326.46L149.92 332.04Z" fill="white"/>
<path d="M139.08 175.25V179.9L186.75 177.58V173.38L139.08 175.25Z" fill="#0B3F8D"/>
<path d="M215.69 128.9C215.69 128.9 215.41 131.12 218.97 133.06H223.52C224.433 133.612 225.458 133.953 226.52 134.06C227.71 134.01 233.4 129.8 234.43 128.89C235.46 127.98 232.65 117.8 232.65 117.8L215.69 128.9Z" fill="#B97964"/>
<path d="M179.1 84.61C179.1 84.61 151.72 83.28 131.33 88.43C131.33 88.43 137.92 147.43 137.96 174.6C137.961 174.88 138.019 175.158 138.129 175.416C138.24 175.673 138.401 175.906 138.604 176.1C138.806 176.294 139.046 176.446 139.308 176.545C139.57 176.645 139.85 176.691 140.13 176.68L186.13 175.08C186.681 175.057 187.2 174.816 187.575 174.412C187.949 174.007 188.149 173.471 188.13 172.92C187.71 161.69 185.44 108.35 179.1 84.61Z" fill="#0B3F8D"/>
<path opacity="0.2" d="M188.12 172.9C188.131 173.173 188.087 173.446 187.993 173.702C187.898 173.959 187.753 174.194 187.568 174.395C187.382 174.595 187.158 174.757 186.91 174.871C186.662 174.986 186.393 175.05 186.12 175.06L140.12 176.66C139.84 176.672 139.56 176.627 139.298 176.528C139.035 176.429 138.796 176.277 138.594 176.083C138.392 175.888 138.232 175.655 138.123 175.397C138.014 175.138 137.958 174.86 137.96 174.58C137.96 169.06 137.67 162.21 137.23 154.81C137.02 151.47 136.79 148.02 136.53 144.52C136.24 140.42 135.91 136.26 135.53 132.16C134.75 122.8 133.9 113.73 133.16 106.3C132.1 95.69 131.29 88.42 131.29 88.42C151.68 83.27 179.06 84.6 179.06 84.6C185.44 108.35 187.71 161.69 188.12 172.9Z" fill="black"/>
<path d="M146.9 85.66C150.9 89.25 160.53 87.9199 160.53 87.9199C160.53 87.9199 166.53 86.2699 165.3 84.3799C161.74 83.7899 160.02 82.1299 159.3 80.0099C158.912 78.6939 158.789 77.3138 158.94 75.9499C158.999 75.1885 159.1 74.4307 159.24 73.6799L147.24 64.8199C148.84 70.6599 150.76 81.42 146.9 85.66Z" fill="#B97964"/>
<path opacity="0.2" d="M150 70.45C150.47 77.63 156.37 79.61 159.26 80.01C158.872 78.6939 158.749 77.3138 158.9 75.95L150 70.45Z" fill="black"/>
<path d="M170.69 47.76C170.69 47.76 172.39 58.93 166.46 63.23C160.53 67.53 160.53 46.73 160.53 46.73L170.69 47.76Z" fill="#263238"/>
<path d="M149.24 72.11C150.488 73.9415 152.302 75.3135 154.405 76.016C156.507 76.7185 158.781 76.7129 160.88 76C163.62 75.1345 165.926 73.257 167.33 70.75C167.528 70.403 167.709 70.0459 167.87 69.68C170.79 62.85 171.72 50.91 164.5 46.43C162.91 45.4341 161.092 44.8614 159.218 44.7662C157.345 44.6711 155.478 45.0567 153.795 45.8865C152.113 46.7163 150.67 47.9626 149.605 49.5069C148.54 51.0513 147.888 52.8424 147.71 54.71C146.81 62.73 145.92 67.38 149.24 72.11Z" fill="#B97964"/>
<path d="M159.34 59C159.19 59.63 159.48 60.22 159.91 60.29C160.34 60.36 160.76 59.89 160.91 59.29C161.06 58.69 160.72 58 160.3 58C159.88 58 159.45 58.36 159.34 59Z" fill="#263238"/>
<path d="M166.63 60.26C166.48 60.89 166.78 61.48 167.2 61.55C167.62 61.62 168.05 61.15 168.2 60.55C168.35 59.95 168.05 59.33 167.63 59.26C167.21 59.19 166.73 59.65 166.63 60.26Z" fill="#263238"/>
<path d="M164.26 60.1799C164.695 62.2685 165.415 64.2874 166.4 66.1799C165.899 66.4133 165.353 66.5342 164.8 66.5342C164.247 66.5342 163.701 66.4133 163.2 66.1799L164.26 60.1799Z" fill="#A24E3F"/>
<path d="M157.48 56.2699C157.546 56.2918 157.617 56.2959 157.686 56.2819C157.754 56.2679 157.818 56.2362 157.87 56.1899C158.213 55.8524 158.631 55.5997 159.089 55.4521C159.548 55.3045 160.034 55.2661 160.51 55.3399C160.608 55.3638 160.712 55.3477 160.798 55.2952C160.884 55.2427 160.946 55.1581 160.97 55.0599C160.994 54.9618 160.978 54.8582 160.925 54.772C160.873 54.6857 160.788 54.6238 160.69 54.5999C160.094 54.4888 159.48 54.5216 158.899 54.6955C158.318 54.8694 157.787 55.1795 157.35 55.5999C157.314 55.6353 157.286 55.6773 157.267 55.7237C157.247 55.77 157.237 55.8197 157.237 55.8699C157.237 55.9202 157.247 55.9699 157.267 56.0162C157.286 56.0626 157.314 56.1046 157.35 56.1399C157.386 56.1897 157.43 56.2335 157.48 56.2699Z" fill="#263238"/>
<path d="M161.58 69.43C160.633 69.4129 159.704 69.1676 158.872 68.715C158.04 68.2624 157.329 67.6158 156.8 66.83C156.774 66.7832 156.766 66.7281 156.779 66.676C156.792 66.624 156.825 66.5788 156.87 66.55C156.914 66.5233 156.967 66.5146 157.017 66.5258C157.067 66.5369 157.111 66.5671 157.14 66.61C157.646 67.3282 158.313 67.9182 159.087 68.3332C159.861 68.7481 160.722 68.9765 161.6 69C161.651 68.9999 161.701 69.0196 161.738 69.055C161.775 69.0903 161.797 69.1387 161.8 69.19C161.8 69.2413 161.78 69.2907 161.745 69.328C161.71 69.3652 161.661 69.3874 161.61 69.39L161.58 69.43Z" fill="#263238"/>
<path d="M170.19 58.28C170.256 58.3191 170.333 58.3366 170.41 58.33C170.459 58.3172 170.504 58.2949 170.544 58.2643C170.585 58.2336 170.618 58.1953 170.643 58.1516C170.668 58.1078 170.685 58.0595 170.691 58.0094C170.697 57.9594 170.693 57.9086 170.68 57.86C170.522 57.2709 170.226 56.7283 169.815 56.2776C169.405 55.8269 168.892 55.4813 168.32 55.27C168.272 55.2545 168.221 55.2487 168.171 55.2529C168.121 55.2571 168.072 55.2713 168.027 55.2946C167.983 55.3178 167.943 55.3497 167.911 55.3884C167.879 55.4271 167.855 55.4718 167.84 55.52C167.812 55.6181 167.823 55.7233 167.872 55.813C167.92 55.9028 168.002 55.9699 168.1 56C168.547 56.1791 168.947 56.4604 169.267 56.8216C169.586 57.1828 169.817 57.6137 169.94 58.08C169.965 58.1291 170 58.1723 170.043 58.2068C170.086 58.2413 170.136 58.2662 170.19 58.28Z" fill="#263238"/>
<path d="M155.19 45.86V49.43C154.561 49.6415 154.035 50.082 153.716 50.6638C153.398 51.2457 153.31 51.9262 153.47 52.57C154.24 55.66 152.01 60.04 149.47 61.57C149.47 61.57 149.56 60.28 148.47 60.45C147.38 60.62 146.84 67.33 148.56 70.76C148.56 70.76 145.72 67.49 144.78 60.27C143.91 53.59 144.36 48.17 145.99 45.83L155.19 45.86Z" fill="#263238"/>
<path d="M143.13 60.65C143.702 62.5932 145.022 64.2298 146.8 65.2C149.16 66.47 150.92 64.49 150.8 61.96C150.64 59.71 149.24 56.26 146.62 56.07C144 55.88 142.46 58.26 143.13 60.65Z" fill="#B97964"/>
<path d="M155.19 49.43C155.19 49.43 157.51 51.73 159.76 50.05C159.76 50.05 162.31 52.17 164.38 50.67C164.709 51.2122 165.144 51.6823 165.66 52.0518C166.175 52.4213 166.761 52.6826 167.38 52.82C167.618 52.8558 167.862 52.8382 168.092 52.7686C168.323 52.6989 168.536 52.579 168.715 52.4173C168.893 52.2557 169.034 52.0564 169.127 51.8338C169.219 51.6112 169.261 51.3708 169.25 51.13C169.25 51.13 172.19 52.82 173.25 52.03C174.31 51.24 172.66 48.03 172.66 48.03C172.66 48.03 174.04 47.28 173.15 44.74C172.26 42.2 168.15 42.74 168.15 42.74C168.15 42.74 168.31 40.37 165.44 37.89C165.138 37.5488 164.757 37.2866 164.331 37.1265C163.904 36.9663 163.445 36.913 162.993 36.9712C162.542 37.0294 162.111 37.1973 161.739 37.4603C161.367 37.7233 161.065 38.0734 160.86 38.48C160.86 38.48 158.08 34.72 154.64 35.22C151.2 35.72 151.64 38.09 151.64 38.09C151.64 38.09 147.64 35.62 145.9 38.09C144.16 40.56 145.9 41.75 145.9 41.75C145.9 41.75 141.9 43.08 142.14 45.75C142.38 48.42 144.37 48.05 144.37 48.05C144.37 48.05 143.23 49.34 145.8 50.42C148.37 51.5 150.8 48.84 150.8 48.84C150.663 49.0592 150.576 49.3058 150.545 49.5624C150.515 49.8189 150.541 50.0791 150.622 50.3244C150.703 50.5697 150.837 50.7941 151.015 50.9817C151.193 51.1694 151.409 51.3156 151.65 51.41C153.48 52.57 155.19 49.43 155.19 49.43Z" fill="#263238"/>
<path d="M160.52 87.9199C160.52 87.9199 146.52 78.4399 142.12 77.9199C137.72 77.3999 138.47 82.9199 138.47 82.9199C138.47 82.9199 135.04 82.9199 136.36 87.1399C137.68 91.3599 156.64 93.6899 163.64 91.5999C170.64 89.5099 174.81 85.5999 173.64 81.8799C172.47 78.1599 169.24 81.3499 169.24 81.3499C169.24 81.3499 167.36 77.8599 164.64 78.6799C161.92 79.4999 160.52 87.9199 160.52 87.9199Z" fill="#0B3F8D"/>
<path d="M158.46 91.59C162.52 98.59 156.3 106.59 159.46 113.8" stroke="white" stroke-linecap="round" stroke-linejoin="round"/>
<path d="M164.79 90.1699C167.379 92.6248 169.19 95.7854 170 99.2599C171.67 105.47 169.16 111.73 169.16 111.73" stroke="white" stroke-linecap="round" stroke-linejoin="round"/>
<path d="M185.424 81.3653L188.137 80.7574C188.307 80.7192 188.486 80.7503 188.634 80.844C188.782 80.9377 188.887 81.0864 188.925 81.2572L189.675 84.6042L185.684 85.4985L184.936 82.1612C184.916 82.0769 184.912 81.9895 184.926 81.9039C184.94 81.8182 184.97 81.7361 185.015 81.6622C185.06 81.5883 185.12 81.5241 185.19 81.4731C185.26 81.4222 185.34 81.3855 185.424 81.3653Z" fill="#0B3F8D"/>
<path d="M193.087 79.6616L195.8 79.0537C195.97 79.0155 196.149 79.0466 196.297 79.1403C196.445 79.234 196.55 79.3826 196.588 79.5534L197.338 82.9004L193.347 83.7947L192.606 80.4868C192.567 80.316 192.599 80.1369 192.692 79.9891C192.786 79.8413 192.935 79.7367 193.105 79.6984L193.087 79.6616Z" fill="#0B3F8D"/>
<path d="M200.746 77.9482L203.458 77.3403C203.629 77.3021 203.808 77.3332 203.956 77.4269C204.104 77.5206 204.208 77.6693 204.247 77.8401L204.997 81.1871L201.006 82.0814L200.256 78.7344C200.217 78.5636 200.249 78.3845 200.342 78.2367C200.436 78.0888 200.585 77.9843 200.755 77.946L200.746 77.9482Z" fill="#0B3F8D"/>
<path d="M208.404 76.2249L211.117 75.6171C211.288 75.5788 211.467 75.6099 211.614 75.7037C211.762 75.7974 211.867 75.946 211.905 76.1168L212.666 79.5126L208.675 80.4069L207.914 77.0111C207.876 76.842 207.906 76.6647 207.998 76.5176C208.09 76.3705 208.236 76.2654 208.404 76.2249Z" fill="#0B3F8D"/>
<path d="M216.072 74.5095L218.785 73.9016C218.956 73.8634 219.135 73.8945 219.283 73.9882C219.431 74.0819 219.535 74.2305 219.573 74.4013L220.323 77.7484L216.332 78.6426L215.582 75.2956C215.544 75.1265 215.575 74.9493 215.666 74.8022C215.758 74.6551 215.904 74.5499 216.072 74.5095Z" fill="#0B3F8D"/>
<path d="M223.733 72.796L226.446 72.1881C226.617 72.1499 226.796 72.181 226.944 72.2747C227.091 72.3684 227.196 72.517 227.234 72.6878L227.984 76.0348L223.993 76.9291L223.241 73.5724C223.206 73.4044 223.238 73.2294 223.33 73.0844C223.422 72.9395 223.566 72.836 223.733 72.796Z" fill="#0B3F8D"/>
<path d="M238.94 127.869L236.228 128.477C236.057 128.516 235.878 128.484 235.73 128.391C235.582 128.297 235.478 128.148 235.439 127.978L234.689 124.631L238.68 123.736L239.43 127.083C239.468 127.252 239.438 127.43 239.347 127.577C239.255 127.724 239.109 127.829 238.94 127.869Z" fill="#0B3F8D"/>
<path d="M231.269 129.586L228.556 130.194C228.386 130.232 228.207 130.201 228.059 130.107C227.911 130.014 227.806 129.865 227.768 129.694L227.007 126.298L230.998 125.404L231.748 128.751C231.775 128.837 231.783 128.928 231.773 129.018C231.763 129.108 231.734 129.194 231.689 129.272C231.645 129.351 231.584 129.419 231.512 129.473C231.439 129.527 231.357 129.565 231.269 129.586Z" fill="#0B3F8D"/>
<path d="M223.608 131.303L220.895 131.911C220.724 131.949 220.545 131.918 220.397 131.824C220.249 131.73 220.145 131.582 220.107 131.411L219.357 128.064L223.348 127.17L224.098 130.517C224.136 130.686 224.105 130.863 224.014 131.01C223.922 131.157 223.776 131.262 223.608 131.303Z" fill="#0B3F8D"/>
<path d="M215.946 133.02L213.233 133.627C213.063 133.666 212.884 133.635 212.736 133.541C212.588 133.447 212.483 133.299 212.445 133.128L211.695 129.781L215.696 128.884L216.437 132.192C216.462 132.279 216.469 132.37 216.458 132.459C216.446 132.548 216.417 132.635 216.371 132.712C216.325 132.79 216.263 132.857 216.19 132.91C216.117 132.963 216.034 133 215.946 133.02Z" fill="#0B3F8D"/>
<path d="M208.299 134.754L205.586 135.362C205.415 135.4 205.236 135.369 205.088 135.275C204.941 135.181 204.836 135.033 204.798 134.862L204.048 131.515L208.039 130.621L208.789 133.968C208.827 134.138 208.796 134.317 208.702 134.465C208.608 134.613 208.46 134.718 208.289 134.756L208.299 134.754Z" fill="#0B3F8D"/>
<path d="M200.625 136.451L197.913 137.058C197.742 137.097 197.563 137.066 197.415 136.972C197.267 136.878 197.162 136.73 197.124 136.559L196.374 133.212L200.365 132.317L201.115 135.664C201.153 135.835 201.122 136.014 201.029 136.162C200.935 136.31 200.786 136.415 200.615 136.453L200.625 136.451Z" fill="#0B3F8D"/>
<g opacity="0.4">
<path opacity="0.4" d="M185.424 81.3653L188.137 80.7574C188.307 80.7192 188.486 80.7503 188.634 80.844C188.782 80.9377 188.887 81.0864 188.925 81.2572L189.675 84.6042L185.684 85.4985L184.936 82.1612C184.916 82.0769 184.912 81.9895 184.926 81.9039C184.94 81.8182 184.97 81.7361 185.015 81.6622C185.06 81.5883 185.12 81.5241 185.19 81.4731C185.26 81.4222 185.34 81.3855 185.424 81.3653Z" fill="black"/>
<path opacity="0.4" d="M193.087 79.6615L195.8 79.0536C195.97 79.0153 196.149 79.0465 196.297 79.1402C196.445 79.2339 196.55 79.3825 196.588 79.5533L197.338 82.9003L193.347 83.7946L192.606 80.4866C192.567 80.3158 192.599 80.1368 192.692 79.989C192.786 79.8411 192.935 79.7366 193.105 79.6983L193.087 79.6615Z" fill="black"/>
<path opacity="0.4" d="M200.745 77.9482L203.458 77.3403C203.629 77.3021 203.808 77.3332 203.956 77.4269C204.104 77.5206 204.208 77.6693 204.246 77.8401L204.996 81.1871L201.005 82.0814L200.255 78.7344C200.217 78.5636 200.248 78.3845 200.342 78.2367C200.436 78.0888 200.584 77.9843 200.755 77.946L200.745 77.9482Z" fill="black"/>
<path opacity="0.4" d="M208.404 76.2249L211.117 75.6171C211.288 75.5788 211.467 75.6099 211.614 75.7037C211.762 75.7974 211.867 75.946 211.905 76.1168L212.666 79.5126L208.675 80.4069L207.914 77.0111C207.876 76.842 207.906 76.6647 207.998 76.5176C208.09 76.3705 208.236 76.2654 208.404 76.2249Z" fill="black"/>
<path opacity="0.4" d="M216.072 74.5095L218.785 73.9016C218.956 73.8634 219.135 73.8945 219.283 73.9882C219.431 74.0819 219.535 74.2305 219.573 74.4013L220.323 77.7484L216.332 78.6426L215.582 75.2956C215.544 75.1265 215.575 74.9493 215.666 74.8022C215.758 74.6551 215.904 74.5499 216.072 74.5095Z" fill="black"/>
<path opacity="0.4" d="M223.733 72.796L226.446 72.1881C226.616 72.1499 226.795 72.181 226.943 72.2747C227.091 72.3684 227.196 72.517 227.234 72.6878L227.984 76.0348L223.993 76.9291L223.241 73.5724C223.206 73.4044 223.238 73.2294 223.329 73.0844C223.421 72.9395 223.566 72.836 223.733 72.796Z" fill="black"/>
<path opacity="0.4" d="M238.94 127.869L236.228 128.477C236.057 128.516 235.878 128.484 235.73 128.391C235.582 128.297 235.478 128.148 235.439 127.978L234.689 124.631L238.68 123.736L239.43 127.083C239.468 127.252 239.438 127.43 239.347 127.577C239.255 127.724 239.109 127.829 238.94 127.869Z" fill="black"/>
<path opacity="0.4" d="M231.269 129.586L228.556 130.194C228.385 130.232 228.206 130.201 228.059 130.107C227.911 130.014 227.806 129.865 227.768 129.694L227.007 126.298L230.998 125.404L231.748 128.751C231.774 128.837 231.783 128.928 231.773 129.018C231.762 129.108 231.734 129.194 231.689 129.272C231.644 129.351 231.584 129.419 231.512 129.473C231.439 129.527 231.357 129.565 231.269 129.586Z" fill="black"/>
<path opacity="0.4" d="M223.607 131.303L220.895 131.911C220.724 131.949 220.545 131.918 220.397 131.824C220.249 131.73 220.145 131.582 220.106 131.411L219.356 128.064L223.347 127.17L224.097 130.517C224.135 130.686 224.105 130.863 224.013 131.01C223.922 131.157 223.776 131.262 223.607 131.303Z" fill="black"/>
<path opacity="0.4" d="M215.946 133.02L213.233 133.627C213.063 133.666 212.884 133.635 212.736 133.541C212.588 133.447 212.483 133.299 212.445 133.128L211.695 129.781L215.696 128.884L216.437 132.192C216.462 132.279 216.469 132.37 216.458 132.459C216.446 132.548 216.417 132.635 216.371 132.712C216.325 132.79 216.263 132.857 216.19 132.91C216.117 132.963 216.034 133 215.946 133.02Z" fill="black"/>
<path opacity="0.4" d="M208.299 134.754L205.586 135.362C205.415 135.4 205.236 135.369 205.088 135.275C204.941 135.181 204.836 135.033 204.798 134.862L204.048 131.515L208.039 130.621L208.789 133.968C208.827 134.138 208.796 134.317 208.702 134.465C208.608 134.613 208.46 134.718 208.289 134.756L208.299 134.754Z" fill="black"/>
<path opacity="0.4" d="M200.625 136.451L197.913 137.058C197.742 137.097 197.563 137.066 197.415 136.972C197.267 136.878 197.162 136.73 197.124 136.559L196.374 133.212L200.365 132.317L201.115 135.664C201.153 135.835 201.122 136.014 201.029 136.162C200.935 136.31 200.786 136.415 200.615 136.453L200.625 136.451Z" fill="black"/>
</g>
<path d="M232.882 73.5066L182.442 84.8089C180.524 85.2388 179.317 87.1426 179.747 89.0611L189.492 132.553C189.922 134.471 191.826 135.678 193.745 135.248L244.184 123.946C246.102 123.516 247.309 121.612 246.879 119.694L237.134 76.2021C236.704 74.2835 234.8 73.0767 232.882 73.5066Z" fill="#263238"/>
<path opacity="0.4" d="M198.63 134.15L193.75 135.24C193.294 135.343 192.821 135.355 192.36 135.275C191.899 135.195 191.458 135.025 191.063 134.774C190.669 134.523 190.327 134.196 190.059 133.813C189.79 133.43 189.601 132.997 189.5 132.54L179.75 89.05C179.648 88.5936 179.637 88.1217 179.718 87.6611C179.798 87.2005 179.969 86.7604 180.22 86.3657C180.47 85.971 180.796 85.6296 181.179 85.361C181.562 85.0923 181.994 84.9017 182.45 84.8L187.33 83.71C186.874 83.8117 186.442 84.0023 186.059 84.271C185.676 84.5396 185.35 84.881 185.1 85.2757C184.849 85.6703 184.678 86.1105 184.598 86.5711C184.517 87.0317 184.528 87.5036 184.63 87.96L194.38 131.45C194.482 131.906 194.672 132.338 194.941 132.721C195.21 133.104 195.551 133.43 195.946 133.68C196.34 133.931 196.781 134.102 197.241 134.182C197.702 134.263 198.174 134.252 198.63 134.15Z" fill="black"/>
<path d="M211.13 95.08L212.22 114.39L208.44 115.24L201.18 97.32L204.05 96.68L209.46 110.83L208.31 95.73L211.13 95.08Z" fill="white"/>
<path d="M217.53 112L220.31 111.38L220.61 112.7L216.17 113.7L215.9 112.48L217.22 108.75C217.639 107.884 217.786 106.911 217.64 105.96C217.49 105.31 217.11 105.02 216.57 105.14C216.03 105.26 215.8 105.69 215.95 106.33L216.07 106.87L214.72 107.17L214.62 106.73C214.508 106.429 214.463 106.108 214.489 105.788C214.514 105.468 214.61 105.158 214.768 104.878C214.926 104.599 215.143 104.358 215.404 104.172C215.666 103.986 215.965 103.859 216.28 103.8C216.579 103.709 216.895 103.684 217.204 103.728C217.514 103.771 217.811 103.882 218.073 104.053C218.335 104.224 218.557 104.45 218.722 104.715C218.887 104.981 218.992 105.279 219.03 105.59C219.24 106.813 219.065 108.071 218.53 109.19L217.53 112Z" fill="white"/>
<path d="M221.59 111L222.99 110.69L223.3 112.08L221.9 112.39L221.59 111Z" fill="white"/>
<path d="M224.31 109.68L223.18 104.63C223.047 104.033 223.157 103.408 223.485 102.893C223.814 102.377 224.333 102.013 224.93 101.88C225.527 101.747 226.152 101.857 226.667 102.185C227.183 102.514 227.547 103.033 227.68 103.63L228.81 108.68C228.876 108.975 228.882 109.281 228.83 109.579C228.778 109.877 228.667 110.162 228.504 110.417C228.342 110.673 228.131 110.894 227.883 111.067C227.635 111.241 227.355 111.364 227.06 111.43C226.764 111.496 226.459 111.502 226.161 111.45C225.863 111.398 225.578 111.287 225.322 111.125C225.067 110.962 224.846 110.751 224.673 110.503C224.499 110.255 224.376 109.975 224.31 109.68ZM227.4 108.99L226.27 103.94C226.255 103.82 226.214 103.704 226.152 103.6C226.089 103.497 226.006 103.407 225.906 103.337C225.807 103.268 225.694 103.22 225.576 103.196C225.457 103.173 225.334 103.174 225.216 103.201C225.098 103.227 224.986 103.278 224.889 103.351C224.792 103.423 224.71 103.514 224.65 103.62C224.591 103.725 224.553 103.842 224.541 103.962C224.529 104.083 224.542 104.205 224.58 104.32L225.71 109.37C225.725 109.49 225.765 109.606 225.828 109.71C225.891 109.813 225.974 109.903 226.073 109.973C226.173 110.042 226.285 110.09 226.404 110.114C226.523 110.137 226.646 110.136 226.764 110.109C226.882 110.082 226.993 110.032 227.091 109.959C227.188 109.887 227.269 109.796 227.329 109.69C227.389 109.585 227.426 109.468 227.439 109.348C227.451 109.227 227.438 109.105 227.4 108.99Z" fill="white"/>
<path d="M187.481 131.716L186.874 129.003C186.835 128.833 186.866 128.654 186.96 128.506C187.054 128.358 187.202 128.253 187.373 128.215L190.72 127.465L191.617 131.466L188.27 132.216C188.099 132.254 187.92 132.223 187.772 132.129C187.624 132.036 187.52 131.887 187.481 131.716Z" fill="#0B3F8D"/>
<path d="M185.772 124.089L185.164 121.376C185.126 121.205 185.157 121.026 185.25 120.878C185.344 120.73 185.493 120.626 185.664 120.587L189.011 119.837L189.905 123.828L186.558 124.578C186.389 124.616 186.211 124.586 186.064 124.495C185.917 124.403 185.812 124.257 185.772 124.089Z" fill="#0B3F8D"/>
<path d="M184.032 116.385L183.425 113.672C183.386 113.502 183.417 113.323 183.511 113.175C183.605 113.027 183.753 112.922 183.924 112.884L187.271 112.134L188.166 116.125L184.819 116.875C184.649 116.913 184.472 116.883 184.325 116.791C184.178 116.7 184.073 116.554 184.032 116.385Z" fill="#0B3F8D"/>
<path d="M182.314 108.728L181.706 106.016C181.668 105.845 181.699 105.666 181.793 105.518C181.886 105.37 182.035 105.266 182.206 105.227L185.592 104.469L186.477 108.421L183.13 109.171C182.963 109.219 182.784 109.2 182.631 109.117C182.478 109.035 182.364 108.895 182.314 108.728Z" fill="#0B3F8D"/>
<path d="M180.605 101.062L179.997 98.3489C179.959 98.1781 179.99 97.9991 180.084 97.8513C180.178 97.7034 180.326 97.5989 180.497 97.5606L183.844 96.8106L184.738 100.802L181.391 101.552C181.222 101.59 181.045 101.559 180.898 101.468C180.751 101.376 180.646 101.23 180.605 101.062Z" fill="#0B3F8D"/>
<path d="M178.887 93.405L178.268 90.6435C178.23 90.4727 178.261 90.2937 178.354 90.1458C178.448 89.998 178.597 89.8934 178.768 89.8551L182.115 89.1052L183.009 93.0962L179.662 93.8462C179.491 93.8844 179.312 93.8533 179.164 93.7596C179.016 93.6659 178.912 93.5173 178.874 93.3465L178.887 93.405Z" fill="#0B3F8D"/>
<g opacity="0.4">
<path opacity="0.4" d="M187.481 131.716L186.874 129.003C186.835 128.833 186.866 128.654 186.96 128.506C187.054 128.358 187.202 128.253 187.373 128.215L190.72 127.465L191.617 131.466L188.27 132.216C188.099 132.254 187.92 132.223 187.772 132.129C187.624 132.036 187.52 131.887 187.481 131.716Z" fill="black"/>
<path opacity="0.4" d="M185.772 124.089L185.164 121.376C185.126 121.205 185.157 121.026 185.25 120.878C185.344 120.73 185.493 120.626 185.664 120.587L189.011 119.837L189.905 123.828L186.558 124.578C186.389 124.616 186.211 124.586 186.064 124.495C185.917 124.403 185.812 124.257 185.772 124.089Z" fill="black"/>
<path opacity="0.4" d="M184.032 116.385L183.425 113.672C183.386 113.502 183.417 113.323 183.511 113.175C183.605 113.027 183.753 112.922 183.924 112.884L187.271 112.134L188.166 116.125L184.819 116.875C184.649 116.913 184.472 116.883 184.325 116.791C184.178 116.7 184.073 116.554 184.032 116.385Z" fill="black"/>
<path opacity="0.4" d="M182.314 108.728L181.706 106.016C181.668 105.845 181.699 105.666 181.793 105.518C181.886 105.37 182.035 105.266 182.206 105.227L185.592 104.469L186.477 108.421L183.13 109.171C182.963 109.219 182.784 109.2 182.631 109.117C182.478 109.035 182.364 108.895 182.314 108.728Z" fill="black"/>
<path opacity="0.4" d="M180.605 101.062L179.997 98.3489C179.959 98.1781 179.99 97.9991 180.084 97.8513C180.178 97.7034 180.326 97.5989 180.497 97.5606L183.844 96.8106L184.738 100.802L181.391 101.552C181.222 101.59 181.045 101.559 180.898 101.468C180.751 101.376 180.646 101.23 180.605 101.062Z" fill="black"/>
<path opacity="0.4" d="M178.887 93.405L178.268 90.6435C178.23 90.4727 178.261 90.2937 178.354 90.1458C178.448 89.998 178.597 89.8934 178.768 89.8551L182.115 89.1052L183.009 93.0962L179.662 93.8462C179.491 93.8844 179.312 93.8533 179.164 93.7596C179.016 93.6659 178.912 93.5173 178.874 93.3465L178.887 93.405Z" fill="black"/>
</g>
<path d="M155.19 147.18L157.19 148.25C157.19 148.25 155.07 163.68 150 167L148 164.67C148 164.67 155.09 155.4 155.19 147.18Z" fill="#0B3F8D"/>
<path d="M180.56 145.88L178.04 147.18C178.04 147.18 182.7 162.1 185.71 165.46L187.43 163.09C187.43 163.09 181.7 153.6 180.56 145.88Z" fill="#0B3F8D"/>
<path opacity="0.2" d="M154.95 138C154.95 138 148.5 151.08 137.23 154.78C137.02 151.44 136.79 147.99 136.53 144.49C136.24 140.39 135.91 136.23 135.53 132.13L154.95 138Z" fill="black"/>
<path d="M163.64 127.91L176.64 123.53C176.64 123.53 188.31 113.13 190.88 113.19C193.45 113.25 195.63 119.77 196.81 122.24C197.99 124.71 185.81 129.74 183.98 130.79C182.15 131.84 179.65 130.79 179.65 130.79L166.38 136.59L163.64 127.91Z" fill="#B97964"/>
<path d="M131.33 88.4299C119.21 90.0399 125.49 135.67 133.33 144.63C139.85 152.12 163.64 141.12 171.33 137.29C171.998 136.955 172.523 136.391 172.808 135.7C173.092 135.009 173.118 134.238 172.88 133.53L170.64 126.82C170.387 126.08 169.865 125.463 169.177 125.092C168.489 124.722 167.687 124.624 166.93 124.82C160.48 126.46 144.93 130.15 143.03 127.94C140.64 125.15 137.47 111.44 138.03 102.73C138.59 94.0199 131.33 88.4299 131.33 88.4299Z" fill="#0B3F8D"/>
<path d="M168.69 124.89L172.86 135.33L176.59 133.06L172.98 123.87L168.69 124.89Z" fill="#0B3F8D"/>
<path opacity="0.3" d="M168.69 124.89L172.86 135.33L176.59 133.06L172.98 123.87L168.69 124.89Z" fill="black"/>
<path d="M370.31 3.88V291.88C370.298 292.434 370.178 292.98 369.954 293.487C369.731 293.994 369.41 294.452 369.01 294.834C368.61 295.217 368.138 295.517 367.621 295.717C367.105 295.917 366.554 296.013 366 296H232C231.505 296.008 231.013 295.918 230.553 295.734C230.093 295.55 229.674 295.277 229.32 294.93C228.952 294.566 228.662 294.131 228.466 293.651C228.27 293.172 228.173 292.658 228.18 292.14V3.53C228.163 3.08098 228.234 2.63298 228.391 2.21189C228.548 1.7908 228.787 1.40497 229.094 1.07672C229.401 0.748463 229.77 0.484293 230.179 0.299481C230.589 0.114669 231.031 0.0128805 231.48 0L269.54 0C270.074 0.00764923 270.593 0.174494 271.031 0.479152C271.47 0.78381 271.807 1.2124 272 1.71L273.58 5.59C273.772 6.07954 274.104 6.50174 274.534 6.80403C274.965 7.10631 275.474 7.27532 276 7.29H322.57C323.095 7.28362 323.606 7.12149 324.039 6.82417C324.471 6.52685 324.806 6.10774 325 5.62L326.58 1.72C326.774 1.21817 327.114 0.786041 327.556 0.47943C327.998 0.172819 328.522 0.00581701 329.06 0L366.57 0C367.578 0.0261995 368.535 0.447797 369.235 1.17375C369.935 1.8997 370.321 2.87176 370.31 3.88Z" fill="#0B3F8D"/>
<path d="M376.31 3.88V291.88C376.298 292.434 376.178 292.98 375.954 293.487C375.731 293.994 375.41 294.452 375.01 294.834C374.61 295.217 374.138 295.517 373.621 295.717C373.105 295.917 372.554 296.013 372 296H238C237.505 296.008 237.013 295.918 236.553 295.734C236.093 295.55 235.674 295.277 235.32 294.93C234.952 294.566 234.662 294.131 234.466 293.651C234.27 293.172 234.173 292.658 234.18 292.14V3.53C234.163 3.08098 234.234 2.63298 234.391 2.21189C234.548 1.7908 234.787 1.40497 235.094 1.07672C235.401 0.748463 235.77 0.484293 236.179 0.299481C236.589 0.114669 237.031 0.0128805 237.48 0L275.54 0C276.074 0.00764923 276.593 0.174494 277.031 0.479152C277.47 0.78381 277.807 1.2124 278 1.71L279.58 5.59C279.772 6.07954 280.104 6.50174 280.534 6.80403C280.965 7.10631 281.474 7.27532 282 7.29H328.57C329.095 7.28362 329.606 7.12149 330.039 6.82417C330.471 6.52685 330.806 6.10774 331 5.62L332.58 1.72C332.774 1.21817 333.114 0.786041 333.556 0.47943C333.998 0.172819 334.522 0.00581701 335.06 0L372.57 0C373.578 0.0261995 374.535 0.447797 375.235 1.17375C375.935 1.8997 376.321 2.87176 376.31 3.88Z" fill="#0B3F8D"/>
<path opacity="0.4" d="M376.31 3.88V291.88C376.298 292.434 376.178 292.98 375.954 293.487C375.731 293.994 375.41 294.452 375.01 294.834C374.61 295.217 374.138 295.517 373.621 295.717C373.105 295.917 372.554 296.013 372 296H238C237.505 296.008 237.013 295.918 236.553 295.734C236.093 295.55 235.674 295.277 235.32 294.93C234.952 294.566 234.662 294.131 234.466 293.651C234.27 293.172 234.173 292.658 234.18 292.14V3.53C234.163 3.08098 234.234 2.63298 234.391 2.21189C234.548 1.7908 234.787 1.40497 235.094 1.07672C235.401 0.748463 235.77 0.484293 236.179 0.299481C236.589 0.114669 237.031 0.0128805 237.48 0L275.54 0C276.074 0.00764923 276.593 0.174494 277.031 0.479152C277.47 0.78381 277.807 1.2124 278 1.71L279.58 5.59C279.772 6.07954 280.104 6.50174 280.534 6.80403C280.965 7.10631 281.474 7.27532 282 7.29H328.57C329.095 7.28362 329.606 7.12149 330.039 6.82417C330.471 6.52685 330.806 6.10774 331 5.62L332.58 1.72C332.774 1.21817 333.114 0.786041 333.556 0.47943C333.998 0.172819 334.522 0.00581701 335.06 0L372.57 0C373.578 0.0261995 374.535 0.447797 375.235 1.17375C375.935 1.8997 376.321 2.87176 376.31 3.88Z" fill="white"/>
<path opacity="0.6" d="M251.88 11.6H253.86V8.95998H251.88V11.6Z" fill="white"/>
<path opacity="0.6" d="M248.65 11.6H250.63V8.07998H248.65V11.6Z" fill="white"/>
<path opacity="0.6" d="M245.42 11.6H247.4V7.19998H245.42V11.6Z" fill="white"/>
<path opacity="0.6" d="M242.2 11.6H244.18V6.31998H242.2V11.6Z" fill="white"/>
<path opacity="0.6" d="M358.16 8H356.99V10.64H358.16V8Z" fill="white"/>
<path opacity="0.6" d="M358.97 11.6L368.32 11.6V7.02998L358.97 7.02998V11.6Z" fill="white"/>
<path d="M260.19 219.56H350.32C351.67 219.56 352.965 220.096 353.919 221.051C354.874 222.005 355.41 223.3 355.41 224.65C355.41 226 354.874 227.295 353.919 228.249C352.965 229.204 351.67 229.74 350.32 229.74H260.19C258.84 229.74 257.545 229.204 256.591 228.249C255.636 227.295 255.1 226 255.1 224.65C255.1 223.3 255.636 222.005 256.591 221.051C257.545 220.096 258.84 219.56 260.19 219.56Z" fill="#0B3F8D"/>
<path opacity="0.3" d="M260.19 219.56H350.32C351.67 219.56 352.965 220.096 353.919 221.051C354.874 222.005 355.41 223.3 355.41 224.65C355.41 226 354.874 227.295 353.919 228.249C352.965 229.204 351.67 229.74 350.32 229.74H260.19C258.84 229.74 257.545 229.204 256.591 228.249C255.636 227.295 255.1 226 255.1 224.65C255.1 223.3 255.636 222.005 256.591 221.051C257.545 220.096 258.84 219.56 260.19 219.56Z" fill="black"/>
<path d="M289.33 220.47C290.402 220.522 291.413 220.985 292.153 221.762C292.893 222.54 293.306 223.572 293.306 224.645C293.306 225.718 292.893 226.75 292.153 227.528C291.413 228.305 290.402 228.767 289.33 228.82H260.19C259.625 228.848 259.059 228.76 258.529 228.563C257.998 228.366 257.513 228.062 257.103 227.672C256.693 227.282 256.367 226.812 256.144 226.292C255.921 225.771 255.806 225.211 255.806 224.645C255.806 224.079 255.921 223.519 256.144 222.998C256.367 222.478 256.693 222.008 257.103 221.618C257.513 221.227 257.998 220.924 258.529 220.727C259.059 220.53 259.625 220.442 260.19 220.47H289.33Z" fill="#0B3F8D"/>
<path d="M281.23 68.13C280.819 68.1313 280.411 68.0512 280.031 67.8944C279.65 67.7376 279.305 67.5071 279.014 67.2162C278.723 66.9252 278.493 66.5797 278.336 66.1993C278.179 65.819 278.099 65.4114 278.1 65V54.84H280V65C279.998 65.1496 280.028 65.298 280.086 65.4357C280.145 65.5734 280.231 65.6975 280.34 65.8C280.446 65.907 280.572 65.9914 280.711 66.0481C280.85 66.1048 281 66.1327 281.15 66.13C281.301 66.134 281.451 66.1077 281.592 66.0527C281.732 65.9977 281.86 65.9151 281.969 65.8098C282.077 65.7045 282.163 65.5785 282.221 65.4394C282.28 65.3004 282.31 65.1509 282.31 65V54.84H284.38V65C284.388 65.4134 284.31 65.8241 284.152 66.2061C283.994 66.5881 283.758 66.9333 283.46 67.22C283.169 67.5141 282.821 67.7464 282.438 67.9028C282.055 68.0592 281.644 68.1364 281.23 68.13Z" fill="#0B3F8D"/>
<path d="M289.26 54.84C289.688 54.818 290.115 54.8879 290.514 55.0448C290.912 55.2018 291.272 55.4422 291.57 55.75C292.113 56.3595 292.399 57.1546 292.37 57.97V59.88C292.376 60.2923 292.298 60.7014 292.142 61.0829C291.985 61.4644 291.754 61.8104 291.46 62.1C291.176 62.3956 290.834 62.6298 290.455 62.788C290.077 62.9462 289.67 63.0252 289.26 63.02H288.12V68H286.12V54.84H289.26ZM290.45 58C290.457 57.8479 290.433 57.696 290.38 57.5534C290.327 57.4107 290.245 57.2803 290.14 57.17C290.032 57.0649 289.903 56.9831 289.762 56.9298C289.621 56.8765 289.471 56.8527 289.32 56.86H288.12V61.07H289.32C289.47 61.0719 289.618 61.0426 289.756 60.9841C289.894 60.9255 290.018 60.839 290.12 60.73C290.227 60.6244 290.312 60.4981 290.368 60.3589C290.425 60.2197 290.453 60.0703 290.45 59.92V58Z" fill="#0B3F8D"/>
<path d="M296.88 68.15C296.466 68.1513 296.056 68.0707 295.673 67.9129C295.29 67.755 294.942 67.523 294.65 67.2303C294.357 66.9375 294.125 66.5897 293.967 66.207C293.809 65.8242 293.729 65.414 293.73 65V57.84C293.73 57.0072 294.061 56.2085 294.65 55.6196C295.239 55.0308 296.037 54.7 296.87 54.7C297.703 54.7 298.501 55.0308 299.09 55.6196C299.679 56.2085 300.01 57.0072 300.01 57.84V59.34H298V57.7999C297.997 57.4984 297.876 57.21 297.663 56.9967C297.45 56.7835 297.162 56.6626 296.86 56.66C296.71 56.6581 296.562 56.6874 296.424 56.7459C296.287 56.8044 296.163 56.8909 296.06 57C295.953 57.1056 295.869 57.2318 295.812 57.3711C295.755 57.5103 295.727 57.6596 295.73 57.81V65C295.73 65.2996 295.849 65.5871 296.061 65.799C296.273 66.0109 296.56 66.1299 296.86 66.1299C297.01 66.1327 297.16 66.1048 297.299 66.0481C297.438 65.9914 297.564 65.9069 297.67 65.8C297.777 65.6966 297.862 65.5721 297.919 65.4345C297.975 65.2968 298.003 65.1488 298 65V62.4199H296.9V60.4199H300V65C300.001 65.4127 299.921 65.8216 299.764 66.2031C299.606 66.5847 299.375 66.9314 299.083 67.2232C298.791 67.515 298.445 67.7463 298.063 67.9036C297.682 68.061 297.273 68.1413 296.86 68.1399L296.88 68.15Z" fill="#0B3F8D"/>
<path d="M304.86 54.84C305.307 54.8001 305.758 54.8612 306.178 55.0187C306.599 55.1762 306.979 55.4261 307.29 55.75C307.795 56.3873 308.048 57.1882 308 58V59.91C308.006 60.3568 307.914 60.7995 307.731 61.2071C307.548 61.6147 307.278 61.9774 306.94 62.27L308.38 68H306.24L305 63H303.68V68H301.68V54.84H304.86ZM306 58C306.023 57.8458 306.01 57.6882 305.962 57.5399C305.914 57.3916 305.831 57.2567 305.721 57.146C305.612 57.0352 305.477 56.9516 305.33 56.902C305.182 56.8523 305.024 56.8379 304.87 56.86H303.67V61.07H304.87C305.02 61.0718 305.168 61.0425 305.306 60.984C305.443 60.9255 305.567 60.839 305.67 60.73C305.777 60.6243 305.861 60.4981 305.918 60.3588C305.975 60.2196 306.003 60.0703 306 59.92V58Z" fill="#0B3F8D"/>
<path d="M312.52 65L312 68H310L312.23 54.86H314.96L317.14 68H315.06L314.6 65H312.52ZM313.52 57.89L312.83 63H314.3L313.52 57.89Z" fill="#0B3F8D"/>
<path d="M325 64.84C325.009 65.2527 324.933 65.6629 324.777 66.0449C324.62 66.4269 324.386 66.7725 324.09 67.06C323.806 67.3556 323.464 67.5897 323.085 67.7479C322.707 67.9062 322.3 67.9852 321.89 67.98H318.78V54.83H321.89C322.302 54.8234 322.711 54.9017 323.091 55.06C323.471 55.2183 323.815 55.4531 324.1 55.75C324.398 56.0418 324.632 56.3926 324.787 56.7801C324.942 57.1675 325.015 57.583 325 58V64.84ZM320.79 66H322C322.15 66.0031 322.299 65.9744 322.436 65.9157C322.574 65.8571 322.698 65.77 322.8 65.66C322.905 65.5552 322.989 65.4305 323.045 65.2931C323.102 65.1558 323.131 65.0085 323.13 64.86V58C323.133 57.8496 323.105 57.7003 323.048 57.5611C322.991 57.4219 322.907 57.2956 322.8 57.19C322.699 57.0817 322.577 56.9956 322.441 56.9371C322.305 56.8786 322.158 56.8489 322.01 56.85H320.81L320.79 66Z" fill="#0B3F8D"/>
<path d="M326.78 68V54.83H332.42V56.83H328.76V60.42H331.43V62.42H328.76V66H332.42V68H326.78Z" fill="#0B3F8D"/>
<g opacity="0.1">
<path opacity="0.1" d="M298.13 7.29L257.23 160.52L256.77 162.24L256 165L255.54 166.72L234.18 246.72V149.92L274.23 0H275.53C276.065 0.00566577 276.587 0.171589 277.027 0.476375C277.467 0.781161 277.806 1.21084 278 1.71L279.58 5.59C279.772 6.07954 280.104 6.50174 280.534 6.80403C280.965 7.10631 281.474 7.27532 282 7.29H298.13Z" fill="white"/>
<path opacity="0.1" d="M376.31 85.54V182.38L350.79 277.95L350.17 280.27L345.96 296.04H320.11L324.32 280.28L325 277.75L328.38 265.09L329.05 262.56L330.41 257.49L331.08 254.96L332.43 249.9L333.1 247.36L354.37 167.71V167.69L355.36 164.02V164.01L376.31 85.54Z" fill="white"/>
<path opacity="0.1" d="M312.14 7.29004L271.49 159.56L271.24 160.47L269 168.82L268.75 169.73L235.35 295C234.982 294.636 234.691 294.201 234.495 293.721C234.3 293.242 234.202 292.728 234.21 292.21V277.45L263 169.73L263.25 168.82L265.47 160.48L265.72 159.57L306.33 7.29004H312.14Z" fill="white"/>
</g>
<path d="M349.14 141.23C349.148 151.314 345.684 161.094 339.33 168.925C332.976 176.756 324.12 182.16 314.25 184.23C308.313 185.459 302.187 185.459 296.25 184.23C288.131 182.533 280.66 178.57 274.701 172.801C268.742 167.031 264.54 159.692 262.581 151.632C260.623 143.572 260.988 135.123 263.635 127.262C266.282 119.401 271.102 112.452 277.537 107.218C283.971 101.985 291.757 98.6819 299.992 97.6921C308.227 96.7023 316.574 98.0661 324.066 101.626C331.557 105.185 337.887 110.795 342.321 117.804C346.755 124.813 349.113 132.936 349.12 141.23H349.14Z" fill="#0B3F8D"/>
<path opacity="0.6" d="M327.79 137.58H315.9C315.462 137.58 315.043 137.754 314.733 138.063C314.424 138.373 314.25 138.792 314.25 139.23V184.23C308.313 185.459 302.187 185.459 296.25 184.23V139.23C296.25 139.012 296.207 138.797 296.123 138.596C296.04 138.395 295.918 138.213 295.763 138.06C295.609 137.906 295.426 137.785 295.225 137.703C295.023 137.62 294.808 137.579 294.59 137.58H282.72C282.393 137.578 282.073 137.48 281.802 137.298C281.53 137.115 281.319 136.857 281.194 136.554C281.069 136.252 281.036 135.919 281.099 135.598C281.163 135.277 281.319 134.982 281.55 134.75L304.09 112.22C304.243 112.066 304.426 111.943 304.626 111.86C304.827 111.776 305.043 111.733 305.26 111.733C305.478 111.733 305.693 111.776 305.894 111.86C306.094 111.943 306.277 112.066 306.43 112.22L329 134.75C329.233 134.984 329.391 135.283 329.453 135.608C329.515 135.933 329.479 136.269 329.349 136.573C329.219 136.877 329.001 137.135 328.724 137.315C328.446 137.494 328.121 137.586 327.79 137.58Z" fill="white"/>
</g>
<defs>
<clipPath id="clip0">
<rect width="387.78" height="362.48" fill="white"/>
</clipPath>
</defs>
</svg>
