<svg width="460" height="410" viewBox="0 0 460 410" fill="none" xmlns="http://www.w3.org/2000/svg">
<path d="M216.756 378.437C227.693 383.665 245.477 383.665 256.436 378.437C267.395 373.209 267.373 364.744 256.436 359.527C245.499 354.31 227.715 354.31 216.756 359.527C205.796 364.744 205.807 373.231 216.756 378.437Z" fill="#E0E0E0"/>
<path d="M103.598 251.554L52.9365 222.307L2.2749 251.554L52.9365 280.8L103.598 251.554Z" fill="#F0F0F0"/>
<path d="M52.9365 319.803L103.598 290.556V251.554L52.9365 280.8V319.803Z" fill="#EBEBEB"/>
<path d="M60.4942 310.757C60.3944 310.757 60.2963 310.731 60.2099 310.681C60.1082 310.613 60.0263 310.52 59.9724 310.411C59.9186 310.301 59.8949 310.179 59.9036 310.057V309.347C59.9036 309.312 59.9104 309.278 59.9236 309.246C59.9368 309.214 59.9561 309.185 59.9805 309.161C60.0049 309.137 60.0338 309.117 60.0657 309.104C60.0975 309.091 60.1316 309.084 60.1661 309.084C60.2006 309.084 60.2347 309.091 60.2666 309.104C60.2984 309.117 60.3274 309.137 60.3517 309.161C60.3761 309.185 60.3954 309.214 60.4086 309.246C60.4218 309.278 60.4286 309.312 60.4286 309.347V310.057C60.4286 310.167 60.4286 310.222 60.4286 310.232C60.4286 310.243 60.5052 310.232 60.6036 310.232C60.7632 310.083 60.8887 309.902 60.9718 309.7C61.0548 309.498 61.0934 309.28 61.0849 309.062V304.392C61.0849 304.322 61.1125 304.256 61.1617 304.206C61.211 304.157 61.2777 304.129 61.3473 304.129C61.417 304.129 61.4837 304.157 61.533 304.206C61.5822 304.256 61.6098 304.322 61.6098 304.392V309.007C61.621 309.317 61.5595 309.624 61.4303 309.905C61.3012 310.186 61.1079 310.433 60.8661 310.626C60.7549 310.7 60.6271 310.745 60.4942 310.757Z" fill="#E0E0E0"/>
<path d="M57.7598 306.722V306.251C57.8192 305.103 58.147 303.984 58.7168 302.985C59.2866 301.986 60.0826 301.134 61.041 300.498C61.3844 300.198 61.8132 300.012 62.2675 299.967C62.7217 299.922 63.1785 300.021 63.574 300.249C63.9695 300.477 64.2838 300.823 64.4729 301.238C64.6619 301.653 64.7163 302.118 64.6284 302.565V302.719L57.7598 306.722ZM62.6378 300.564C62.1799 300.585 61.7353 300.725 61.3472 300.969C60.522 301.51 59.8232 302.223 59.2985 303.06C58.7738 303.896 58.4355 304.835 58.3066 305.814L64.1472 302.445C64.1695 302.118 64.1079 301.79 63.9682 301.494C63.8284 301.197 63.6152 300.941 63.3487 300.75C63.1325 300.626 62.8871 300.561 62.6378 300.564Z" fill="#E0E0E0"/>
<path d="M69.8235 305.431C69.7891 305.431 69.7549 305.424 69.7231 305.411C69.6912 305.398 69.6623 305.378 69.6379 305.354C69.6135 305.33 69.5942 305.301 69.581 305.269C69.5678 305.237 69.561 305.203 69.561 305.168V297.72C69.561 297.651 69.5887 297.584 69.6379 297.535C69.6871 297.485 69.7539 297.458 69.8235 297.458C69.8932 297.458 69.9599 297.485 70.0091 297.535C70.0584 297.584 70.086 297.651 70.086 297.72V305.158C70.0875 305.193 70.0818 305.228 70.0693 305.261C70.0567 305.294 70.0376 305.325 70.0131 305.35C69.9886 305.376 69.9592 305.396 69.9266 305.41C69.894 305.424 69.8589 305.431 69.8235 305.431Z" fill="#E0E0E0"/>
<path d="M69.0691 299.689H68.9706C68.9092 299.66 68.8613 299.609 68.8368 299.546C68.8123 299.483 68.8133 299.412 68.8394 299.35L69.769 297.162L70.7972 298.355C70.8255 298.379 70.8483 298.41 70.8638 298.444C70.8794 298.478 70.8873 298.516 70.8872 298.553C70.8871 298.591 70.8789 298.628 70.8632 298.662C70.8475 298.696 70.8246 298.727 70.796 298.751C70.7675 298.776 70.734 298.794 70.6979 298.805C70.6617 298.815 70.6238 298.818 70.5865 298.812C70.5493 298.807 70.5137 298.793 70.4821 298.773C70.4505 298.752 70.4236 298.725 70.4034 298.694L69.9112 298.125L69.3097 299.503C69.2938 299.555 69.2621 299.601 69.219 299.634C69.1759 299.668 69.1235 299.687 69.0691 299.689Z" fill="#E0E0E0"/>
<path d="M72.1861 304.064C72.1165 304.064 72.0497 304.036 72.0005 303.987C71.9512 303.938 71.9236 303.871 71.9236 303.801V296.342C71.9236 296.272 71.9512 296.206 72.0005 296.156C72.0497 296.107 72.1165 296.08 72.1861 296.08C72.2557 296.08 72.3225 296.107 72.3717 296.156C72.4209 296.206 72.4486 296.272 72.4486 296.342V303.801C72.4486 303.871 72.4209 303.938 72.3717 303.987C72.3225 304.036 72.2557 304.064 72.1861 304.064Z" fill="#E0E0E0"/>
<path d="M71.4643 298.366H71.3659C71.3045 298.337 71.2565 298.286 71.2321 298.222C71.2076 298.159 71.2085 298.089 71.2346 298.026L72.1643 295.839L73.1924 297.031C73.2263 297.084 73.24 297.148 73.2308 297.21C73.2216 297.273 73.1902 297.33 73.1424 297.371C73.0945 297.412 73.0335 297.435 72.9703 297.435C72.9072 297.435 72.8463 297.412 72.7987 297.37L72.3065 296.801L71.7159 298.18C71.6994 298.233 71.6661 298.281 71.6208 298.314C71.5755 298.348 71.5206 298.366 71.4643 298.366Z" fill="#E0E0E0"/>
<path d="M52.9365 319.803L2.2749 290.556V251.554L52.9365 280.8V319.803Z" fill="#E0E0E0"/>
<path d="M25.7026 304.075L29.5198 306.273V267.282L25.7026 265.072V304.075Z" fill="#EBEBEB"/>
<path d="M81.8985 271.394L74.6361 275.627C73.9075 276.038 73.2843 276.612 72.8155 277.305C72.3467 277.998 72.0451 278.79 71.9346 279.619C71.9346 280.964 73.1486 281.358 74.6361 280.494L81.8985 276.305C82.627 275.894 83.2503 275.32 83.7191 274.627C84.1879 273.934 84.4894 273.142 84.6 272.313C84.6 270.924 83.3969 270.53 81.8985 271.394Z" fill="#E0E0E0"/>
<path d="M29.5198 267.282L80.1814 238.035L76.3642 235.826L25.7026 265.072L29.5198 267.282Z" fill="#FAFAFA"/>
<path d="M76.3642 267.282L25.7026 238.035L29.5198 235.826L80.1814 265.072L76.3642 267.282Z" fill="#FAFAFA"/>
<g style="mix-blend-mode:multiply" opacity="0.8">
<g style="mix-blend-mode:multiply" opacity="0.8">
<path d="M4.49512 250.274L53.0568 278.285L101.476 250.34L52.9365 222.307L4.49512 250.274Z" fill="#E0E0E0"/>
</g>
</g>
<path d="M76.364 271.197V267.282L80.1811 265.072V268.988L76.364 271.197Z" fill="#F0F0F0"/>
<path d="M101.323 207.684L50.6616 178.427L0 207.684L50.6616 236.931L101.323 207.684Z" fill="#F0F0F0"/>
<g style="mix-blend-mode:multiply" opacity="0.8">
<g style="mix-blend-mode:multiply" opacity="0.8">
<path d="M4.30933 208.133L52.4225 235.913L101.323 207.684L53.1991 179.904L4.30933 208.133Z" fill="#E0E0E0"/>
</g>
</g>
<path d="M50.6616 275.933L101.323 246.676V207.684L50.6616 236.931V275.933Z" fill="#EBEBEB"/>
<path d="M58.2193 266.877C58.1195 266.877 58.0214 266.85 57.935 266.8C57.8333 266.733 57.7514 266.64 57.6975 266.53C57.6437 266.421 57.62 266.299 57.6287 266.177V265.466C57.6287 265.396 57.6564 265.33 57.7056 265.28C57.7548 265.231 57.8216 265.204 57.8912 265.204C57.9608 265.204 58.0276 265.231 58.0768 265.28C58.1261 265.33 58.1537 265.396 58.1537 265.466V266.177C58.1537 266.286 58.1537 266.341 58.1537 266.352C58.1537 266.363 58.2303 266.352 58.3287 266.352C58.4883 266.203 58.6138 266.021 58.6969 265.819C58.7799 265.617 58.8185 265.4 58.81 265.182V260.566C58.81 260.497 58.8376 260.43 58.8868 260.381C58.9361 260.331 59.0028 260.304 59.0724 260.304C59.1421 260.304 59.2088 260.331 59.2581 260.381C59.3073 260.43 59.3349 260.497 59.3349 260.566V265.182C59.3461 265.491 59.2846 265.798 59.1554 266.079C59.0263 266.361 58.833 266.607 58.5912 266.8C58.4751 266.855 58.3476 266.881 58.2193 266.877Z" fill="#E0E0E0"/>
<path d="M55.4849 262.841V262.393C55.5443 261.244 55.8721 260.125 56.4419 259.126C57.0117 258.127 57.8077 257.276 58.7661 256.64C59.11 256.343 59.5376 256.161 59.9895 256.119C60.4415 256.077 60.8954 256.176 61.2885 256.403C61.6815 256.63 61.9941 256.974 62.183 257.387C62.3719 257.8 62.4276 258.261 62.3426 258.707V258.86L55.4849 262.841ZM60.3629 256.683C59.905 256.705 59.4604 256.844 59.0723 257.088C58.2471 257.63 57.5483 258.343 57.0236 259.179C56.4989 260.015 56.1606 260.955 56.0317 261.933L61.8723 258.565C61.8946 258.237 61.833 257.91 61.6932 257.613C61.5535 257.317 61.3403 257.061 61.0738 256.869C60.8576 256.745 60.6122 256.681 60.3629 256.683Z" fill="#E0E0E0"/>
<path d="M67.5486 261.562C67.479 261.562 67.4122 261.534 67.363 261.485C67.3138 261.435 67.2861 261.369 67.2861 261.299V253.84C67.2861 253.77 67.3138 253.703 67.363 253.654C67.4122 253.605 67.479 253.577 67.5486 253.577C67.6182 253.577 67.685 253.605 67.7342 253.654C67.7835 253.703 67.8111 253.77 67.8111 253.84V261.299C67.8111 261.369 67.7835 261.435 67.7342 261.485C67.685 261.534 67.6182 261.562 67.5486 261.562Z" fill="#E0E0E0"/>
<path d="M66.7832 255.863H66.6847C66.6233 255.835 66.5754 255.783 66.5509 255.72C66.5264 255.657 66.5274 255.587 66.5535 255.524L67.4832 253.337L68.5113 254.529C68.5452 254.582 68.5588 254.646 68.5496 254.708C68.5404 254.771 68.509 254.828 68.4612 254.869C68.4134 254.91 68.3523 254.933 68.2892 254.932C68.2261 254.932 68.1651 254.909 68.1175 254.868L67.6253 254.299L67.0238 255.677C67.0079 255.729 66.9763 255.775 66.9331 255.809C66.89 255.842 66.8376 255.861 66.7832 255.863Z" fill="#E0E0E0"/>
<path d="M69.9988 260.194C69.9292 260.194 69.8624 260.167 69.8132 260.117C69.764 260.068 69.7363 260.001 69.7363 259.932V252.473C69.7363 252.403 69.764 252.336 69.8132 252.287C69.8624 252.238 69.9292 252.21 69.9988 252.21C70.0684 252.21 70.1352 252.238 70.1844 252.287C70.2337 252.336 70.2613 252.403 70.2613 252.473V259.932C70.2613 260.001 70.2337 260.068 70.1844 260.117C70.1352 260.167 70.0684 260.194 69.9988 260.194Z" fill="#E0E0E0"/>
<path d="M69.1894 254.496H69.091C69.0296 254.467 68.9816 254.416 68.9572 254.353C68.9327 254.29 68.9336 254.219 68.9597 254.157L69.8894 251.969L70.9175 253.162C70.9459 253.186 70.9686 253.217 70.9842 253.251C70.9997 253.285 71.0077 253.323 71.0076 253.36C71.0075 253.398 70.9993 253.435 70.9836 253.469C70.9678 253.504 70.9449 253.534 70.9164 253.559C70.8879 253.583 70.8544 253.601 70.8182 253.612C70.7821 253.622 70.7441 253.625 70.7069 253.619C70.6696 253.614 70.634 253.6 70.6024 253.58C70.5708 253.559 70.544 253.532 70.5238 253.501L70.0316 252.932L69.43 254.31C69.4142 254.362 69.3825 254.408 69.3394 254.441C69.2963 254.475 69.2439 254.494 69.1894 254.496Z" fill="#E0E0E0"/>
<path d="M50.6616 275.933L0 246.676V207.684L50.6616 236.931V275.933Z" fill="#E0E0E0"/>
<path d="M23.4167 260.205L27.2448 262.404V223.412L23.4167 221.203V260.205Z" fill="#EBEBEB"/>
<path d="M79.6236 227.503L72.3612 231.692C71.6326 232.103 71.0094 232.677 70.5406 233.37C70.0718 234.062 69.7702 234.855 69.6597 235.684C69.6597 237.029 70.8737 237.423 72.3612 236.559L79.6236 232.37C80.3521 231.959 80.9754 231.384 81.4442 230.692C81.913 229.999 82.2145 229.207 82.3251 228.378C82.3251 227.054 81.111 226.66 79.6236 227.503Z" fill="#E0E0E0"/>
<path d="M27.2448 223.412L77.8955 194.155L74.0784 191.956L23.4167 221.203L27.2448 223.412Z" fill="#FAFAFA"/>
<path d="M74.0784 223.412L23.4167 194.155L27.2448 191.956L77.8955 221.203L74.0784 223.412Z" fill="#FAFAFA"/>
<path d="M74.0784 227.328V223.412L77.8955 221.203V225.118L74.0784 227.328Z" fill="#F0F0F0"/>
<g style="mix-blend-mode:multiply" opacity="0.8">
<g style="mix-blend-mode:multiply" opacity="0.8">
<path d="M52.4224 235.913L56.9723 238.549L101.323 212.945V207.684L52.4224 235.913Z" fill="#E0E0E0"/>
</g>
</g>
<path d="M106.398 168.682L55.7363 139.435L5.07471 168.682L55.7363 197.928L106.398 168.682Z" fill="#F0F0F0"/>
<path d="M55.7366 236.931L106.398 207.684V168.682L55.7366 197.928V236.931Z" fill="#EBEBEB"/>
<path d="M63.2943 227.885C63.1944 227.885 63.0963 227.859 63.0099 227.809C62.9082 227.741 62.8263 227.648 62.7725 227.539C62.7187 227.429 62.6949 227.307 62.7037 227.185V226.475C62.7037 226.405 62.7313 226.338 62.7806 226.289C62.8298 226.24 62.8965 226.212 62.9662 226.212C63.0358 226.212 63.1025 226.24 63.1518 226.289C63.201 226.338 63.2287 226.405 63.2287 226.475V227.185C63.2287 227.295 63.2287 227.35 63.2287 227.36C63.2287 227.371 63.3052 227.36 63.4037 227.36C63.5632 227.211 63.6888 227.03 63.7718 226.828C63.8549 226.626 63.8934 226.408 63.8849 226.19V221.575C63.8849 221.505 63.9126 221.438 63.9618 221.389C64.011 221.34 64.0778 221.312 64.1474 221.312C64.217 221.312 64.2838 221.34 64.333 221.389C64.3822 221.438 64.4099 221.505 64.4099 221.575V226.19C64.421 226.499 64.3595 226.807 64.2304 227.088C64.1012 227.369 63.908 227.616 63.6662 227.809C63.55 227.864 63.4226 227.89 63.2943 227.885Z" fill="#E0E0E0"/>
<path d="M60.5598 223.85V223.401C60.6184 222.252 60.9458 221.133 61.5157 220.134C62.0856 219.135 62.882 218.283 63.841 217.648C64.1844 217.348 64.6133 217.162 65.0675 217.117C65.5217 217.072 65.9786 217.171 66.3741 217.399C66.7695 217.627 67.0838 217.972 67.2729 218.388C67.462 218.803 67.5164 219.267 67.4284 219.715V219.847L60.5598 223.85ZM65.4379 217.659C64.9799 217.68 64.5351 217.819 64.1473 218.064C63.322 218.605 62.6233 219.319 62.0986 220.155C61.5739 220.991 61.2356 221.93 61.1067 222.909L66.9472 219.54C66.9695 219.213 66.9079 218.886 66.7682 218.589C66.6285 218.292 66.4153 218.036 66.1488 217.845C65.9328 217.72 65.6872 217.656 65.4379 217.659Z" fill="#E0E0E0"/>
<path d="M72.6236 222.57C72.554 222.57 72.4872 222.542 72.438 222.493C72.3887 222.444 72.3611 222.377 72.3611 222.307V214.848C72.3611 214.779 72.3887 214.712 72.438 214.663C72.4872 214.613 72.554 214.586 72.6236 214.586C72.6932 214.586 72.76 214.613 72.8092 214.663C72.8584 214.712 72.8861 214.779 72.8861 214.848V222.307C72.8861 222.342 72.8793 222.376 72.8661 222.408C72.8529 222.44 72.8336 222.469 72.8092 222.493C72.7848 222.517 72.7559 222.537 72.724 222.55C72.6922 222.563 72.658 222.57 72.6236 222.57Z" fill="#E0E0E0"/>
<path d="M71.8691 216.861H71.7707C71.7093 216.832 71.6613 216.781 71.6368 216.718C71.6124 216.654 71.6133 216.584 71.6394 216.522L72.5691 214.334L73.5972 215.526C73.6256 215.551 73.6483 215.582 73.6639 215.616C73.6794 215.65 73.6874 215.687 73.6873 215.725C73.6872 215.763 73.679 215.8 73.6632 215.834C73.6475 215.868 73.6246 215.899 73.5961 215.923C73.5676 215.948 73.5341 215.966 73.4979 215.976C73.4618 215.987 73.4238 215.989 73.3866 215.984C73.3493 215.978 73.3137 215.965 73.2821 215.945C73.2505 215.924 73.2237 215.897 73.2035 215.865L72.7113 215.297L72.1097 216.675C72.0939 216.727 72.0622 216.773 72.0191 216.806C71.976 216.839 71.9235 216.858 71.8691 216.861Z" fill="#E0E0E0"/>
<path d="M75.0298 221.192C74.9602 221.192 74.8934 221.164 74.8442 221.115C74.795 221.066 74.7673 220.999 74.7673 220.929V213.47C74.7673 213.4 74.795 213.334 74.8442 213.284C74.8934 213.235 74.9602 213.208 75.0298 213.208C75.0994 213.208 75.1662 213.235 75.2154 213.284C75.2647 213.334 75.2923 213.4 75.2923 213.47V220.94C75.2895 221.008 75.2606 221.072 75.2117 221.119C75.1628 221.166 75.0976 221.192 75.0298 221.192Z" fill="#E0E0E0"/>
<path d="M74.2644 215.472H74.1659C74.1045 215.443 74.0566 215.392 74.0321 215.329C74.0076 215.265 74.0086 215.195 74.0347 215.133L74.9644 212.945L75.9925 214.137C76.0264 214.191 76.04 214.254 76.0308 214.317C76.0216 214.379 75.9902 214.436 75.9424 214.477C75.8946 214.519 75.8335 214.541 75.7704 214.541C75.7073 214.541 75.6463 214.518 75.5987 214.476L75.1065 213.908L74.505 215.286C74.4891 215.338 74.4575 215.384 74.4143 215.417C74.3712 215.45 74.3188 215.469 74.2644 215.472Z" fill="#E0E0E0"/>
<path d="M55.7363 236.931L5.07471 207.684V168.682L55.7363 197.928V236.931Z" fill="#E0E0E0"/>
<path d="M28.5024 221.203L32.3196 223.412V184.41L28.5024 182.211V221.203Z" fill="#EBEBEB"/>
<path d="M84.6983 188.522L77.4359 192.711C76.7073 193.122 76.0841 193.696 75.6153 194.389C75.1465 195.082 74.8449 195.874 74.7344 196.703C74.7344 198.048 75.9484 198.442 77.4359 197.578L84.6983 193.389C85.4269 192.978 86.0501 192.404 86.5189 191.711C86.9877 191.018 87.2892 190.226 87.3998 189.397C87.3998 188.052 86.1967 187.658 84.6983 188.522Z" fill="#E0E0E0"/>
<path d="M32.3196 184.41L82.9812 155.163L79.1641 152.954L28.5024 182.211L32.3196 184.41Z" fill="#FAFAFA"/>
<path d="M79.1641 184.41L28.5024 155.163L32.3196 152.954L82.9812 182.211L79.1641 184.41Z" fill="#FAFAFA"/>
<path d="M79.1641 188.325V184.41L82.9812 182.211V186.116L79.1641 188.325Z" fill="#F0F0F0"/>
<path d="M126.873 312.354V295.248C126.058 288.96 123.393 283.056 119.217 278.285C112.457 270.968 106.398 273.45 104.429 276.928C102.461 280.406 106.945 286.991 109.81 290.709C113.256 295.172 126.851 315.865 126.851 325.206L126.873 312.354Z" fill="#37474F"/>
<path d="M126.873 309.653C126.773 309.654 126.676 309.619 126.6 309.555C126.523 309.491 126.473 309.401 126.457 309.303C123.373 290.655 109.176 277.858 109.034 277.727C108.951 277.653 108.901 277.549 108.895 277.438C108.889 277.328 108.927 277.219 109.001 277.136C109.075 277.054 109.179 277.004 109.29 276.997C109.4 276.991 109.509 277.029 109.592 277.103C109.734 277.235 124.149 290.228 127.277 309.172C127.287 309.226 127.285 309.282 127.272 309.336C127.26 309.39 127.236 309.441 127.204 309.486C127.171 309.531 127.13 309.569 127.082 309.597C127.035 309.626 126.982 309.645 126.927 309.653H126.873Z" fill="#FAFAFA"/>
<path d="M126.873 312.354C126.873 312.354 127.551 310.298 124.521 309.773C121.491 309.248 120.332 306.733 120.048 302.511C119.763 298.289 118.495 295.259 114.699 294.636C110.904 294.012 107.853 295.927 105.381 294.023C102.909 292.12 96.5435 287.538 91.2389 289.648C85.9343 291.759 87.6733 296.266 90.4295 299.208C93.1857 302.15 93.9951 303.134 91.8733 307.958C89.7514 312.781 91.3592 317.189 96.2482 318.282C101.137 319.376 103.904 318.829 103.904 324.188C103.904 329.548 104.725 331.932 107.393 334.032C110.062 336.132 118.484 335.181 121.984 336.001C123.035 336.272 124.016 336.763 124.862 337.442C125.709 338.12 126.402 338.971 126.895 339.938L126.873 312.354Z" fill="#455A64"/>
<path d="M126.873 334.415C126.785 334.415 126.7 334.387 126.63 334.336C126.559 334.285 126.506 334.213 126.479 334.13C117.587 307.739 97.473 297.086 97.2762 296.944C97.1775 296.893 97.1031 296.805 97.0693 296.699C97.0354 296.594 97.0449 296.479 97.0957 296.38C97.1464 296.282 97.2343 296.207 97.3399 296.173C97.4456 296.14 97.5603 296.149 97.659 296.2C97.8668 296.309 118.276 307.137 127.277 333.835C127.296 333.888 127.304 333.943 127.301 333.999C127.298 334.054 127.284 334.109 127.259 334.159C127.235 334.209 127.201 334.253 127.159 334.29C127.117 334.326 127.068 334.354 127.015 334.371L126.873 334.415Z" fill="#FAFAFA"/>
<path d="M114.174 311.414H114.076C108.268 310.09 98.9825 310.801 98.895 310.812C98.8405 310.816 98.7856 310.81 98.7335 310.793C98.6814 310.776 98.6332 310.749 98.5915 310.714C98.5499 310.678 98.5157 310.635 98.4908 310.586C98.4659 310.537 98.4509 310.484 98.4466 310.429C98.4423 310.375 98.4488 310.32 98.4657 310.268C98.4826 310.216 98.5096 310.167 98.5451 310.126C98.5807 310.084 98.6241 310.05 98.6729 310.025C98.7216 310 98.7748 309.985 98.8294 309.981C99.2122 309.981 108.334 309.248 114.262 310.604C114.317 310.611 114.369 310.628 114.417 310.655C114.465 310.682 114.507 310.718 114.541 310.761C114.575 310.804 114.601 310.853 114.616 310.906C114.63 310.959 114.635 311.015 114.628 311.069C114.622 311.124 114.605 311.176 114.578 311.224C114.551 311.272 114.515 311.315 114.472 311.349C114.429 311.383 114.379 311.408 114.326 311.423C114.273 311.438 114.218 311.442 114.164 311.436L114.174 311.414Z" fill="#FAFAFA"/>
<path d="M118.899 324.101C116.252 324.101 113.431 323.926 113.256 323.915C113.2 323.912 113.146 323.898 113.095 323.874C113.045 323.85 113.001 323.816 112.964 323.774C112.927 323.732 112.899 323.684 112.882 323.631C112.864 323.578 112.857 323.522 112.862 323.467C112.865 323.411 112.879 323.357 112.903 323.306C112.927 323.256 112.961 323.212 113.003 323.175C113.045 323.138 113.093 323.11 113.146 323.093C113.199 323.075 113.255 323.068 113.31 323.073C116.333 323.283 119.366 323.283 122.388 323.073C122.499 323.055 122.611 323.083 122.701 323.148C122.792 323.214 122.852 323.313 122.87 323.423C122.887 323.533 122.86 323.646 122.794 323.736C122.729 323.826 122.63 323.887 122.52 323.904C121.319 324.054 120.109 324.12 118.899 324.101Z" fill="#FAFAFA"/>
<path d="M111.451 308.318C111.396 308.316 111.343 308.302 111.294 308.279C111.244 308.255 111.2 308.222 111.163 308.181C111.127 308.141 111.099 308.093 111.08 308.042C111.062 307.99 111.054 307.936 111.057 307.881C111.259 304.862 111.889 301.886 112.928 299.044C112.968 298.941 113.048 298.858 113.15 298.814C113.251 298.77 113.366 298.768 113.469 298.808C113.572 298.849 113.655 298.929 113.699 299.03C113.743 299.132 113.745 299.247 113.704 299.35C112.705 302.11 112.094 304.996 111.888 307.925C111.886 307.979 111.872 308.033 111.849 308.082C111.825 308.132 111.792 308.176 111.751 308.212C111.711 308.249 111.663 308.277 111.612 308.295C111.56 308.314 111.506 308.321 111.451 308.318Z" fill="#FAFAFA"/>
<path d="M126.795 143.11V341.754C126.795 343.569 128.064 344.302 129.639 343.394L368.302 205.628C369.13 205.089 369.819 204.363 370.313 203.507C370.807 202.652 371.092 201.693 371.146 200.706V2.03007C371.146 0.214473 369.877 -0.518327 368.302 0.38947L129.628 138.2C128.804 138.739 128.118 139.464 127.626 140.317C127.134 141.17 126.849 142.127 126.795 143.11Z" fill="#0B3F8D"/>
<path d="M368.303 0.388905L129.629 138.199C128.801 138.738 128.112 139.464 127.618 140.32C127.124 141.175 126.839 142.135 126.785 143.121V155.535L371.146 14.148V2.0295C371.146 0.224845 369.878 -0.507954 368.303 0.388905Z" fill="#263238"/>
<path d="M337.82 22.45C337.001 22.9876 336.321 23.7122 335.836 24.5641C335.351 25.4159 335.075 26.3707 335.031 27.35C335.031 29.1327 336.289 29.8546 337.831 28.9687C338.651 28.4311 339.331 27.7065 339.816 26.8547C340.301 26.0028 340.577 25.048 340.62 24.0688C340.62 22.286 339.374 21.5641 337.82 22.45Z" fill="white"/>
<path d="M348.9 16.0407C348.086 16.5718 347.408 17.2871 346.921 18.1289C346.435 18.9707 346.154 19.9152 346.1 20.886C346.1 22.6687 347.358 23.3906 348.9 22.5047C349.714 21.9737 350.392 21.2583 350.879 20.4165C351.365 19.5747 351.647 18.6302 351.7 17.6595C351.733 15.8767 350.475 15.1548 348.9 16.0407Z" fill="white"/>
<path d="M360.045 46.8184C359.231 47.3494 358.553 48.0648 358.066 48.9065C357.58 49.7483 357.299 50.6928 357.245 51.6636C357.245 53.4464 358.503 54.1682 360.045 53.2823C360.859 52.7513 361.537 52.0359 362.024 51.1941C362.51 50.3524 362.792 49.4078 362.845 48.4371C362.834 46.6434 361.587 45.9434 360.045 46.8184Z" fill="white"/>
<path d="M203.434 137.882V196.944L152.313 226.475V167.348L203.434 137.817V137.882ZM204.528 135.925L151.219 166.702V228.268L204.528 197.545V135.99V135.925Z" fill="#FAFAFA"/>
<path d="M221.765 188.238V125.414L276.178 94.0019V156.826L221.765 188.238ZM222.859 126.048V186.346L275.084 156.202V95.894L222.859 126.048Z" fill="#FAFAFA"/>
<path d="M255.856 125.009L258.722 118.808C255.551 118.358 252.322 119.015 249.578 120.667V126.267C251.477 125.172 253.682 124.73 255.856 125.009Z" fill="#0B3F8D"/>
<path d="M260.713 129.198L265.339 124.823C264.893 123.505 264.151 122.307 263.171 121.319C262.191 120.332 260.999 119.581 259.684 119.125L256.83 125.304C257.72 125.634 258.528 126.153 259.199 126.825C259.869 127.497 260.386 128.307 260.713 129.198Z" fill="#0B3F8D"/>
<path d="M242.086 157.22L239.232 163.41C241.857 163.946 244.996 163.41 248.364 161.562V155.94C246.471 157.051 244.263 157.501 242.086 157.22Z" fill="#0B3F8D"/>
<path d="M256.841 147.89L259.695 150.777C262.237 147.038 264.147 142.908 265.35 138.55L260.724 139.49C259.875 142.475 258.565 145.309 256.841 147.89Z" fill="#0B3F8D"/>
<path d="M249.578 155.251V160.873C253.149 158.56 256.248 155.591 258.711 152.123L255.856 149.235C254.144 151.603 252.017 153.641 249.578 155.251Z" fill="#0B3F8D"/>
<path d="M265.711 125.906L261.084 130.281C261.395 131.436 261.55 132.628 261.544 133.825C261.529 135.193 261.375 136.556 261.084 137.893L265.711 136.964C266.148 135.014 266.375 133.023 266.389 131.025C266.404 129.295 266.176 127.572 265.711 125.906Z" fill="#0B3F8D"/>
<g opacity="0.2">
<path opacity="0.2" d="M255.856 125.009L258.722 118.808C255.551 118.358 252.322 119.015 249.578 120.667V126.267C251.477 125.172 253.682 124.73 255.856 125.009Z" fill="black"/>
<path opacity="0.2" d="M260.713 129.198L265.339 124.823C264.893 123.505 264.151 122.307 263.171 121.319C262.191 120.332 260.999 119.581 259.684 119.125L256.83 125.304C257.72 125.634 258.528 126.153 259.199 126.825C259.869 127.497 260.386 128.307 260.713 129.198Z" fill="black"/>
<path opacity="0.2" d="M242.086 157.22L239.232 163.41C241.857 163.946 244.996 163.41 248.364 161.562V155.94C246.471 157.051 244.263 157.501 242.086 157.22Z" fill="black"/>
<path opacity="0.2" d="M256.841 147.89L259.695 150.777C262.237 147.038 264.147 142.908 265.35 138.55L260.724 139.49C259.875 142.475 258.565 145.309 256.841 147.89Z" fill="black"/>
<path opacity="0.2" d="M249.578 155.251V160.873C253.149 158.56 256.248 155.591 258.711 152.123L255.856 149.235C254.144 151.603 252.017 153.641 249.578 155.251Z" fill="black"/>
<path opacity="0.2" d="M265.711 125.906L261.084 130.281C261.395 131.436 261.55 132.628 261.544 133.825C261.529 135.193 261.375 136.556 261.084 137.893L265.711 136.964C266.148 135.014 266.375 133.023 266.389 131.025C266.404 129.295 266.176 127.572 265.711 125.906Z" fill="black"/>
</g>
<path d="M248.364 126.989V121.411C244.794 123.723 241.695 126.692 239.232 130.161L242.086 133.048C243.795 130.665 245.922 128.612 248.364 126.989Z" fill="#FAFAFA"/>
<path d="M241.102 134.35L238.248 131.462C235.706 135.201 233.796 139.332 232.593 143.69L237.219 142.749C238.068 139.764 239.378 136.93 241.102 134.35Z" fill="#FAFAFA"/>
<path d="M236.399 148.371C236.414 147.003 236.568 145.64 236.859 144.303L232.232 145.243C231.795 147.193 231.568 149.184 231.554 151.182C231.536 152.923 231.764 154.657 232.232 156.334L236.859 151.959C236.544 150.789 236.389 149.582 236.399 148.371Z" fill="#FAFAFA"/>
<path d="M237.23 153.041L232.604 157.416C233.05 158.734 233.792 159.933 234.772 160.92C235.752 161.908 236.944 162.658 238.259 163.115L241.113 156.935C240.223 156.606 239.415 156.087 238.744 155.415C238.074 154.742 237.558 153.933 237.23 153.041Z" fill="#FAFAFA"/>
<path d="M238.576 147.124C238.576 140.496 243.235 132.425 248.977 129.111C254.719 125.797 259.378 128.487 259.378 135.115C259.378 141.743 254.719 149.848 248.977 153.129C243.235 156.41 238.576 153.752 238.576 147.124Z" fill="#0B3F8D"/>
<path opacity="0.2" d="M238.576 147.124C238.576 140.496 243.235 132.425 248.977 129.111C254.719 125.797 259.378 128.487 259.378 135.115C259.378 141.743 254.719 149.848 248.977 153.129C243.235 156.41 238.576 153.752 238.576 147.124Z" fill="black"/>
<path d="M247.938 137.696C247.967 138.122 247.967 138.55 247.938 138.976C247.92 139.327 247.865 139.675 247.774 140.015C247.676 140.368 247.533 140.706 247.348 141.021C247.15 141.356 246.911 141.665 246.637 141.94C246.34 142.235 246.005 142.489 245.641 142.695C245.336 142.884 244.999 143.013 244.646 143.078C244.407 143.12 244.161 143.081 243.946 142.968C243.754 142.846 243.605 142.666 243.519 142.454C243.415 142.189 243.356 141.908 243.344 141.623C243.344 141.415 243.344 141.207 243.344 141.01C243.344 140.814 243.344 140.595 243.344 140.343C243.364 139.991 243.423 139.643 243.519 139.304C243.621 138.953 243.764 138.615 243.946 138.298C244.138 137.962 244.373 137.653 244.646 137.379C244.942 137.084 245.277 136.83 245.641 136.625C245.946 136.432 246.283 136.299 246.637 136.231C246.876 136.189 247.122 136.227 247.337 136.34C247.529 136.463 247.678 136.643 247.763 136.854C247.868 137.123 247.928 137.408 247.938 137.696ZM251.591 133.595C251.649 133.468 251.719 133.348 251.799 133.234C251.886 133.126 251.994 133.036 252.116 132.971L253.319 132.282C253.355 132.256 253.396 132.237 253.439 132.227C253.483 132.218 253.527 132.218 253.571 132.228C253.636 132.228 253.669 132.315 253.669 132.414C253.673 132.446 253.673 132.479 253.669 132.512C253.673 132.556 253.673 132.6 253.669 132.643L246.451 147.792C246.393 147.918 246.323 148.039 246.243 148.152C246.156 148.261 246.048 148.35 245.926 148.415L244.723 149.104C244.687 149.131 244.646 149.15 244.603 149.159C244.559 149.169 244.514 149.168 244.471 149.159C244.405 149.159 244.373 149.071 244.373 148.973C244.37 148.944 244.37 148.914 244.373 148.885V148.754L251.591 133.595ZM245.029 140.562C245.027 140.762 245.08 140.959 245.182 141.131C245.269 141.229 245.412 141.218 245.63 141.131C245.829 141.024 245.987 140.855 246.079 140.649C246.171 140.412 246.223 140.16 246.232 139.906C246.26 139.542 246.26 139.176 246.232 138.812C246.234 138.612 246.181 138.415 246.079 138.243C245.991 138.145 245.849 138.156 245.63 138.243C245.431 138.349 245.273 138.518 245.182 138.725C245.09 138.962 245.038 139.214 245.029 139.468C244.99 139.831 244.979 140.197 244.996 140.562H245.029ZM254.708 139.687C254.737 140.113 254.737 140.541 254.708 140.967C254.69 141.318 254.635 141.666 254.544 142.006C254.446 142.358 254.303 142.696 254.118 143.012C253.921 143.351 253.683 143.663 253.407 143.942C253.111 144.237 252.776 144.491 252.412 144.696C252.107 144.885 251.769 145.015 251.416 145.079C251.177 145.121 250.931 145.083 250.716 144.97C250.524 144.847 250.375 144.667 250.29 144.456C250.186 144.19 250.126 143.909 250.115 143.624C250.115 143.406 250.115 143.209 250.115 143.012C250.115 142.815 250.115 142.596 250.115 142.345C250.135 141.993 250.194 141.645 250.29 141.306C250.39 140.954 250.533 140.616 250.716 140.3C250.908 139.964 251.143 139.655 251.416 139.381C251.712 139.085 252.047 138.832 252.412 138.626C252.716 138.433 253.053 138.3 253.407 138.232C253.646 138.19 253.892 138.229 254.107 138.342C254.299 138.464 254.448 138.644 254.533 138.856C254.645 139.12 254.711 139.401 254.73 139.687H254.708ZM251.81 142.564C251.808 142.764 251.861 142.96 251.963 143.132C252.051 143.231 252.193 143.22 252.412 143.132C252.611 143.027 252.769 142.857 252.86 142.651C252.952 142.413 253.004 142.162 253.013 141.907C253.042 141.543 253.042 141.178 253.013 140.814C253.015 140.614 252.962 140.417 252.86 140.245C252.78 140.143 252.63 140.143 252.412 140.245C252.212 140.35 252.054 140.52 251.963 140.726C251.871 140.964 251.819 141.215 251.81 141.47C251.788 141.834 251.796 142.2 251.832 142.564H251.81Z" fill="#FAFAFA"/>
<path d="M292.846 147.19V84.3661L347.26 52.9542V115.778L292.846 147.19ZM293.94 85.0005V145.298L346.166 115.155V54.8573L293.94 85.0005Z" fill="#FAFAFA"/>
<path d="M319.446 85.941V80.3302C315.875 82.6422 312.776 85.6114 310.313 89.08L313.168 91.88C314.888 89.5401 317.014 87.5284 319.446 85.941Z" fill="#FAFAFA"/>
<path d="M312.195 93.3128L309.34 90.4254C306.799 94.1644 304.888 98.2953 303.686 102.653L308.312 101.713C309.161 98.7276 310.471 95.8935 312.195 93.3128Z" fill="#FAFAFA"/>
<path d="M326.938 83.9724L329.804 77.7709C326.633 77.3215 323.404 77.9781 320.66 79.6303V85.2301C322.559 84.1355 324.764 83.6936 326.938 83.9724Z" fill="#0B3F8D"/>
<path d="M331.794 88.1503L336.421 83.7754C335.974 82.4576 335.233 81.2592 334.253 80.2716C333.273 79.2841 332.08 78.5334 330.766 78.0771L327.922 84.2239C328.814 84.5582 329.622 85.0827 330.291 85.7607C330.959 86.4387 331.472 87.2541 331.794 88.1503Z" fill="#0B3F8D"/>
<path d="M313.168 116.183L310.313 122.373C312.938 122.909 316.077 122.373 319.446 120.525V114.903C317.553 116.013 315.345 116.463 313.168 116.183Z" fill="#0B3F8D"/>
<path d="M336.803 84.8583L332.177 89.2332C332.488 90.3886 332.642 91.5804 332.636 92.7769C332.622 94.1452 332.468 95.5085 332.177 96.8456L336.803 95.9159C337.24 93.966 337.468 91.9751 337.482 89.9769C337.496 88.2474 337.268 86.5243 336.803 84.8583Z" fill="#0B3F8D"/>
<path d="M327.922 106.842L330.777 109.73C333.318 105.991 335.229 101.86 336.432 97.5018L331.805 98.4424C330.956 101.427 329.646 104.262 327.922 106.842Z" fill="#0B3F8D"/>
<path d="M307.481 107.334C307.495 105.966 307.649 104.603 307.94 103.266L303.314 104.206C302.877 106.156 302.649 108.147 302.635 110.145C302.618 111.886 302.846 113.62 303.314 115.297L307.94 110.922C307.625 109.752 307.471 108.546 307.481 107.334Z" fill="#0B3F8D"/>
<path d="M308.312 111.994L303.686 116.369C304.132 117.686 304.873 118.885 305.853 119.872C306.833 120.86 308.026 121.611 309.34 122.067L312.195 115.887C311.304 115.558 310.496 115.039 309.826 114.367C309.156 113.695 308.639 112.885 308.312 111.994Z" fill="#0B3F8D"/>
<path d="M320.66 114.214V119.836C324.231 117.524 327.33 114.554 329.793 111.086L326.938 108.286C325.217 110.622 323.091 112.63 320.66 114.214Z" fill="#0B3F8D"/>
<g opacity="0.2">
<path opacity="0.2" d="M326.938 83.9724L329.804 77.7709C326.633 77.3215 323.404 77.9781 320.66 79.6303V85.2301C322.559 84.1355 324.764 83.6936 326.938 83.9724Z" fill="black"/>
<path opacity="0.2" d="M331.794 88.1503L336.421 83.7754C335.974 82.4576 335.233 81.2592 334.253 80.2716C333.273 79.2841 332.08 78.5334 330.766 78.0771L327.922 84.2239C328.814 84.5582 329.622 85.0827 330.291 85.7607C330.959 86.4387 331.472 87.2541 331.794 88.1503Z" fill="black"/>
<path opacity="0.2" d="M313.168 116.183L310.313 122.373C312.938 122.909 316.077 122.373 319.446 120.525V114.903C317.553 116.013 315.345 116.463 313.168 116.183Z" fill="black"/>
<path opacity="0.2" d="M336.803 84.8583L332.177 89.2332C332.488 90.3886 332.642 91.5804 332.636 92.7769C332.622 94.1452 332.468 95.5085 332.177 96.8456L336.803 95.9159C337.24 93.966 337.468 91.9751 337.482 89.9769C337.496 88.2474 337.268 86.5243 336.803 84.8583Z" fill="black"/>
<path opacity="0.2" d="M327.922 106.842L330.777 109.73C333.318 105.991 335.229 101.86 336.432 97.5018L331.805 98.4424C330.956 101.427 329.646 104.262 327.922 106.842Z" fill="black"/>
<path opacity="0.2" d="M307.481 107.334C307.495 105.966 307.649 104.603 307.94 103.266L303.314 104.206C302.877 106.156 302.649 108.147 302.635 110.145C302.618 111.886 302.846 113.62 303.314 115.297L307.94 110.922C307.625 109.752 307.471 108.546 307.481 107.334Z" fill="black"/>
<path opacity="0.2" d="M308.312 111.994L303.686 116.369C304.132 117.686 304.873 118.885 305.853 119.872C306.833 120.86 308.026 121.611 309.34 122.067L312.195 115.887C311.304 115.558 310.496 115.039 309.826 114.367C309.156 113.695 308.639 112.885 308.312 111.994Z" fill="black"/>
<path opacity="0.2" d="M320.66 114.214V119.836C324.231 117.524 327.33 114.554 329.793 111.086L326.938 108.286C325.217 110.622 323.091 112.63 320.66 114.214Z" fill="black"/>
</g>
<path d="M309.657 106.099C309.657 99.4705 314.317 91.3988 320.059 88.0848C325.801 84.7708 330.46 87.4614 330.46 94.0894C330.46 100.717 325.801 108.789 320.059 112.103C314.317 115.417 309.657 112.661 309.657 106.099Z" fill="#0B3F8D"/>
<path opacity="0.2" d="M309.657 106.099C309.657 99.4705 314.317 91.3988 320.059 88.0848C325.801 84.7708 330.46 87.4614 330.46 94.0894C330.46 100.717 325.801 108.789 320.059 112.103C314.317 115.417 309.657 112.661 309.657 106.099Z" fill="black"/>
<path d="M319.03 96.6596C319.058 97.0857 319.058 97.5132 319.03 97.9393C319.011 98.2903 318.956 98.6384 318.866 98.9783C318.768 99.3308 318.625 99.669 318.44 99.9846C318.242 100.32 318.004 100.628 317.729 100.903C317.432 101.198 317.098 101.452 316.734 101.658C316.429 101.847 316.091 101.977 315.738 102.041C315.511 102.086 315.276 102.047 315.075 101.933C314.874 101.818 314.722 101.635 314.644 101.417C314.539 101.152 314.48 100.871 314.469 100.586C314.469 100.378 314.469 100.17 314.469 99.9736C314.469 99.7767 314.469 99.558 314.469 99.3064C314.489 98.9546 314.547 98.6061 314.644 98.2674C314.745 97.9157 314.888 97.5777 315.071 97.2612C315.263 96.9253 315.498 96.6164 315.771 96.3424C316.067 96.0471 316.402 95.7933 316.766 95.5878C317.071 95.3956 317.408 95.2621 317.762 95.194C317.988 95.1493 318.224 95.1876 318.425 95.3021C318.625 95.4166 318.778 95.5995 318.855 95.8174C318.961 96.0863 319.02 96.3711 319.03 96.6596ZM322.651 92.5581C322.708 92.4315 322.778 92.3106 322.858 92.1972C322.945 92.0885 323.053 91.9991 323.176 91.9347L324.379 91.2456C324.414 91.2188 324.455 91.2 324.498 91.1906C324.542 91.1811 324.587 91.1813 324.63 91.191C324.696 91.191 324.729 91.2785 324.729 91.3769C324.731 91.406 324.731 91.4353 324.729 91.4644V91.5956L317.51 106.744C317.452 106.87 317.382 106.991 317.302 107.105C317.216 107.213 317.108 107.303 316.985 107.367L315.782 108.056C315.747 108.083 315.706 108.102 315.662 108.111C315.619 108.121 315.574 108.121 315.53 108.111C315.465 108.111 315.432 108.023 315.432 107.925C315.429 107.896 315.429 107.867 315.432 107.838V107.706L322.651 92.5581ZM316.088 99.5361C316.086 99.7361 316.139 99.9328 316.241 100.105C316.329 100.203 316.471 100.192 316.69 100.105C316.92 99.9851 317.097 99.7816 317.182 99.5361C317.274 99.2985 317.326 99.0471 317.335 98.7924C317.362 98.4283 317.362 98.0627 317.335 97.6987C317.337 97.4986 317.284 97.3019 317.182 97.1299C317.094 97.0315 316.952 97.0424 316.734 97.1299C316.535 97.2362 316.377 97.4055 316.285 97.6112C316.169 97.8738 316.102 98.1556 316.088 98.4424C316.061 98.8065 316.061 99.172 316.088 99.5361ZM325.768 98.6611C325.798 99.0872 325.798 99.5148 325.768 99.9408C325.75 100.292 325.695 100.64 325.604 100.98C325.505 101.332 325.362 101.67 325.177 101.986C324.767 102.688 324.178 103.269 323.471 103.67C323.166 103.859 322.828 103.989 322.476 104.053C322.237 104.095 321.99 104.057 321.776 103.944C321.583 103.821 321.434 103.641 321.349 103.43C321.246 103.164 321.187 102.883 321.174 102.599C321.174 102.38 321.174 102.183 321.174 101.986C321.174 101.789 321.174 101.57 321.174 101.319C321.195 100.967 321.254 100.619 321.349 100.28C321.45 99.9286 321.594 99.5907 321.776 99.2736C321.968 98.9382 322.203 98.6294 322.476 98.3549C322.772 98.06 323.107 97.8062 323.471 97.6002C323.775 97.4076 324.113 97.274 324.466 97.2065C324.693 97.1617 324.928 97.2001 325.129 97.3146C325.33 97.429 325.483 97.612 325.56 97.8299C325.69 98.0869 325.775 98.3644 325.812 98.6502L325.768 98.6611ZM322.869 101.538C322.867 101.738 322.92 101.934 323.022 102.106C323.11 102.205 323.252 102.194 323.471 102.106C323.67 102.001 323.828 101.831 323.919 101.625C324.012 101.388 324.063 101.136 324.072 100.881C324.101 100.517 324.101 100.152 324.072 99.7877C324.074 99.5877 324.021 99.3909 323.919 99.2189C323.843 99.1205 323.69 99.1314 323.471 99.2189C323.272 99.3246 323.114 99.4941 323.022 99.7002C322.93 99.9378 322.878 100.189 322.869 100.444C322.856 100.802 322.871 101.16 322.913 101.516L322.869 101.538Z" fill="#FAFAFA"/>
<path d="M151.229 243.745V305.3L204.538 274.522V212.967L151.229 243.745Z" fill="#0B3F8D"/>
<path opacity="0.7" d="M151.229 243.745V305.3L204.538 274.522V212.967L151.229 243.745Z" fill="#FAFAFA"/>
<path d="M151.23 260.019C153.035 260.719 155.354 260.424 157.891 258.926C163.633 255.644 168.292 247.54 168.292 240.912C168.432 238.756 167.713 236.632 166.291 235.006L151.23 243.755V260.019Z" fill="#0B3F8D"/>
<path d="M174.713 261.54C175.238 259.8 176.277 259.735 177.031 261.386L184.545 277.792L195.778 235.345C196.237 233.595 197.014 233.584 197.506 235.345L204.528 260.391V274.533L163.546 298.19L174.713 261.54Z" fill="#0B3F8D"/>
<g opacity="0.2">
<path opacity="0.2" d="M151.23 260.019C153.035 260.719 155.354 260.424 157.891 258.926C163.633 255.644 168.292 247.54 168.292 240.912C168.432 238.756 167.713 236.632 166.291 235.006L151.23 243.755V260.019Z" fill="black"/>
<path opacity="0.2" d="M174.713 261.54C175.238 259.8 176.277 259.735 177.031 261.386L184.545 277.792L195.778 235.345C196.237 233.595 197.014 233.584 197.506 235.345L204.528 260.391V274.533L163.546 298.19L174.713 261.54Z" fill="black"/>
</g>
<path d="M203.434 214.859V273.921L152.313 303.451V244.39L203.434 214.859ZM204.528 212.967L151.219 243.745V305.311L204.528 274.533V212.967Z" fill="#0B3F8D"/>
<path opacity="0.7" d="M203.434 214.859V273.921L152.313 303.451V244.39L203.434 214.859ZM204.528 212.967L151.219 243.745V305.311L204.528 274.533V212.967Z" fill="#FAFAFA"/>
<path d="M222.312 202.708V264.263L275.631 233.485V171.919L222.312 202.708Z" fill="#0B3F8D"/>
<path opacity="0.7" d="M222.312 202.708V264.263L275.631 233.485V171.919L222.312 202.708Z" fill="#FAFAFA"/>
<path d="M222.312 218.982C224.116 219.682 226.435 219.387 228.973 217.889C234.715 214.608 239.374 206.503 239.374 199.875C239.514 197.719 238.794 195.595 237.372 193.969L222.312 202.719V218.982Z" fill="#0B3F8D"/>
<path d="M245.794 220.503C246.319 218.764 247.358 218.698 248.113 220.35L255.627 236.756L266.87 194.308C267.33 192.558 268.106 192.547 268.599 194.308L275.62 219.343V233.485L234.649 257.143L245.794 220.503Z" fill="#0B3F8D"/>
<g opacity="0.2">
<path opacity="0.2" d="M222.312 218.982C224.116 219.682 226.435 219.387 228.973 217.889C234.715 214.608 239.374 206.503 239.374 199.875C239.514 197.719 238.794 195.595 237.372 193.969L222.312 202.719V218.982Z" fill="black"/>
<path opacity="0.2" d="M245.794 220.503C246.319 218.764 247.358 218.698 248.113 220.35L255.627 236.756L266.87 194.308C267.33 192.558 268.106 192.547 268.599 194.308L275.62 219.343V233.485L234.649 257.143L245.794 220.503Z" fill="black"/>
</g>
<path d="M274.527 173.822V232.884L223.406 262.414V203.353L274.527 173.822ZM275.62 171.93L222.312 202.708V264.274L275.62 233.485V171.919V171.93Z" fill="#0B3F8D"/>
<path opacity="0.7" d="M274.527 173.822V232.884L223.406 262.414V203.353L274.527 173.822ZM275.62 171.93L222.312 202.708V264.274L275.62 233.485V171.919V171.93Z" fill="#FAFAFA"/>
<path d="M293.393 161.66V223.226L346.713 192.449V130.882L293.393 161.66Z" fill="#0B3F8D"/>
<path opacity="0.7" d="M293.393 161.66V223.226L346.713 192.449V130.882L293.393 161.66Z" fill="#FAFAFA"/>
<path d="M293.393 177.946C295.198 178.646 297.517 178.35 300.054 176.852C305.796 173.571 310.456 165.466 310.456 158.838C310.595 156.682 309.876 154.559 308.454 152.932L293.393 161.682V177.946Z" fill="#0B3F8D"/>
<path d="M316.876 179.455C317.401 177.716 318.44 177.65 319.195 179.302L326.708 195.708L337.963 153.26C338.422 151.51 339.199 151.499 339.691 153.26L346.713 178.285V192.427L305.731 216.084L316.876 179.455Z" fill="#0B3F8D"/>
<g opacity="0.2">
<path opacity="0.2" d="M293.393 177.946C295.198 178.646 297.517 178.35 300.054 176.852C305.796 173.571 310.456 165.466 310.456 158.838C310.595 156.682 309.876 154.559 308.454 152.932L293.393 161.682V177.946Z" fill="black"/>
<path opacity="0.2" d="M316.876 179.455C317.401 177.716 318.44 177.65 319.195 179.302L326.708 195.708L337.963 153.26C338.422 151.51 339.199 151.499 339.691 153.26L346.713 178.285V192.427L305.731 216.084L316.876 179.455Z" fill="black"/>
</g>
<path d="M345.619 132.775V191.836L294.498 221.367V162.305L345.619 132.775ZM346.713 130.882L293.393 161.66V223.226L346.713 192.449V130.882Z" fill="#0B3F8D"/>
<path opacity="0.7" d="M345.619 132.775V191.836L294.498 221.367V162.305L345.619 132.775ZM346.713 130.882L293.393 161.66V223.226L346.713 192.449V130.882Z" fill="#FAFAFA"/>
<path d="M340.052 151.948L355.758 156.137L350.464 159.123L360.067 166.155L358.82 168.08L348.933 161.004L347.609 166.779L340.052 151.948Z" fill="#263238"/>
<path d="M421.622 113.252L387.323 133.059C386.495 133.598 385.806 134.324 385.312 135.18C384.818 136.035 384.533 136.995 384.479 137.981V165.652L375.729 174.686C374.472 175.988 374.909 176.874 376.714 176.666L384.446 175.758V187.844C384.446 189.66 385.715 190.392 387.29 189.485L421.589 169.677C422.417 169.138 423.106 168.412 423.6 167.556C424.094 166.701 424.38 165.742 424.433 164.755V114.848C424.466 113.087 423.186 112.355 421.622 113.252Z" fill="#37474F"/>
<path d="M395.93 143.515L394.487 143.395C392.584 143.242 390.309 142.487 390.309 139.775C390.362 138.771 390.651 137.795 391.153 136.924C391.655 136.054 392.355 135.314 393.196 134.765C394.443 134.043 395.504 134.339 395.909 135.378C396.321 133.839 397.287 132.507 398.621 131.637C400.218 130.718 401.508 131.462 401.508 133.311C401.508 135.979 399.255 139.359 397.363 141.721L395.93 143.515Z" fill="#FAFAFA"/>
<path d="M409.536 127.897L417.192 123.522C418.756 122.614 420.036 123.029 420.036 124.451C419.921 125.326 419.604 126.161 419.111 126.892C418.617 127.623 417.96 128.229 417.192 128.662L409.536 133.037C407.972 133.945 406.693 133.529 406.693 132.107C406.808 131.233 407.125 130.398 407.618 129.667C408.112 128.936 408.768 128.33 409.536 127.897Z" fill="#FAFAFA"/>
<path d="M393.13 152.418L400.786 148.043C402.35 147.135 403.63 147.551 403.63 148.973C403.515 149.847 403.198 150.683 402.705 151.413C402.211 152.144 401.554 152.75 400.786 153.184L393.13 157.559C391.566 158.466 390.287 158.051 390.287 156.629C390.402 155.755 390.719 154.919 391.212 154.188C391.706 153.457 392.362 152.851 393.13 152.418Z" fill="#FAFAFA"/>
<path d="M393.13 163.115L417.192 149.235C418.756 148.327 420.036 148.743 420.036 150.165C419.921 151.039 419.604 151.875 419.111 152.606C418.617 153.336 417.96 153.942 417.192 154.376L393.13 168.255C391.566 169.163 390.287 168.747 390.287 167.326C390.402 166.451 390.719 165.616 391.212 164.885C391.706 164.154 392.362 163.548 393.13 163.115Z" fill="#FAFAFA"/>
<path d="M393.13 173.1L417.192 159.221C418.756 158.313 420.036 158.729 420.036 160.151C419.921 161.025 419.604 161.861 419.111 162.591C418.617 163.322 417.96 163.928 417.192 164.362L393.13 178.241C391.566 179.149 390.287 178.733 390.287 177.311C390.402 176.437 390.719 175.601 391.212 174.871C391.706 174.14 392.362 173.534 393.13 173.1Z" fill="#FAFAFA"/>
<path d="M33.5002 373.253L86.8087 404.031L140.128 373.253L86.8087 342.465L33.5002 373.253Z" fill="#0B3F8D"/>
<path opacity="0.7" d="M33.5002 373.253L86.8087 404.031L140.128 373.253L86.8087 342.465L33.5002 373.253Z" fill="#FAFAFA"/>
<path d="M47.5884 381.391C50.7629 381.285 53.87 380.447 56.6664 378.941C62.4085 375.659 62.4085 370.246 56.6664 366.91C54.1609 365.55 51.3941 364.741 48.5509 364.536L33.4902 373.286L47.5884 381.391Z" fill="#0B3F8D"/>
<path d="M84.1298 375.364C83.4189 374.347 84.9173 374.008 87.4766 374.62L112.961 380.625L93.0328 356.191C92.2125 355.185 93.3609 354.955 95.614 355.688L127.89 366.177L140.129 373.242L99.1358 396.911L84.1298 375.364Z" fill="#0B3F8D"/>
<g opacity="0.2">
<g opacity="0.2">
<path opacity="0.2" d="M47.5884 381.391C50.7629 381.285 53.87 380.447 56.6664 378.941C62.4085 375.659 62.4085 370.246 56.6664 366.91C54.1609 365.55 51.3941 364.741 48.5509 364.536L33.4902 373.286L47.5884 381.391Z" fill="black"/>
</g>
<g opacity="0.2">
<path opacity="0.2" d="M84.1298 375.364C83.4189 374.347 84.9173 374.008 87.4766 374.62L112.961 380.625L93.0328 356.191C92.2125 355.185 93.3609 354.955 95.614 355.688L127.89 366.177L140.129 373.242L99.1358 396.911L84.1298 375.364Z" fill="black"/>
</g>
</g>
<path d="M86.8087 343.733L137.93 373.264L86.8087 402.795L35.6877 373.264L86.8196 343.733H86.8087ZM86.8196 342.476L33.5002 373.253L86.8087 404.031L140.117 373.253L86.8087 342.465L86.8196 342.476Z" fill="#0B3F8D"/>
<path opacity="0.7" d="M86.8087 343.733L137.93 373.264L86.8087 402.795L35.6877 373.264L86.8196 343.733H86.8087ZM86.8196 342.476L33.5002 373.253L86.8087 404.031L140.117 373.253L86.8087 342.465L86.8196 342.476Z" fill="#FAFAFA"/>
<path d="M33.5012 373.253V378.383L86.8097 409.16V404.031L33.5012 373.253Z" fill="#0B3F8D"/>
<path opacity="0.6" d="M33.5012 373.253V378.383L86.8097 409.16V404.031L33.5012 373.253Z" fill="#FAFAFA"/>
<path d="M140.129 373.253L86.8096 404.031V409.16L140.129 378.383V373.253Z" fill="#0B3F8D"/>
<path opacity="0.1" d="M140.129 373.253L86.8096 404.031V409.16L140.129 378.383V373.253Z" fill="#FAFAFA"/>
<path d="M446.68 257.908L393.36 227.131L340.052 257.908L393.36 288.686L446.68 257.908Z" fill="#263238"/>
<path d="M393.36 227.131L340.052 257.908V298.945L393.36 329.734V227.131Z" fill="#263238"/>
<path d="M353.385 306.645L344.503 245.09L397.812 214.312L406.693 275.867L353.385 306.645Z" fill="#0B3F8D"/>
<path opacity="0.7" d="M353.385 306.645L344.503 245.09L397.812 214.312L406.693 275.867L353.385 306.645Z" fill="#FAFAFA"/>
<path d="M344.503 245.09L339.363 243.974L347.96 303.517L353.384 306.645L344.503 245.09Z" fill="#0B3F8D"/>
<path opacity="0.1" d="M344.503 245.09L339.363 243.974L347.96 303.517L353.384 306.645L344.503 245.09Z" fill="#FAFAFA"/>
<path d="M392.671 213.197L397.812 214.312L344.503 245.09L339.363 243.974L392.671 213.197Z" fill="#0B3F8D"/>
<path opacity="0.6" d="M392.671 213.197L397.812 214.312L344.503 245.09L339.363 243.974L392.671 213.197Z" fill="#FAFAFA"/>
<path d="M360.395 244.631C360.12 243.344 359.564 242.135 358.768 241.088C357.973 240.04 356.956 239.181 355.791 238.571L344.492 245.134L346.177 256.793C347.248 257.336 348.416 257.661 349.614 257.749C350.812 257.837 352.015 257.687 353.155 257.307C355.711 256.456 357.863 254.693 359.199 252.353C360.536 250.014 360.961 247.264 360.395 244.631Z" fill="#0B3F8D"/>
<path opacity="0.2" d="M360.395 244.631C360.12 243.344 359.564 242.135 358.768 241.088C357.973 240.04 356.956 239.181 355.791 238.571L344.492 245.134L346.177 256.793C347.248 257.336 348.416 257.661 349.614 257.749C350.812 257.837 352.015 257.687 353.155 257.307C355.711 256.456 357.863 254.693 359.199 252.353C360.536 250.014 360.961 247.264 360.395 244.631Z" fill="black"/>
<path d="M372.47 247.19C372.809 245.407 373.728 245.287 374.526 246.916L382.379 263.038L388.362 228.596C388.668 226.814 389.62 226.661 390.473 228.257L403.28 252.21L406.693 275.889L362.265 301.537C362.189 301.034 370.162 259.221 372.47 247.19Z" fill="#0B3F8D"/>
<path opacity="0.2" d="M372.47 247.19C372.809 245.407 373.728 245.287 374.526 246.916L382.379 263.038L388.362 228.596C388.668 226.814 389.62 226.661 390.473 228.257L403.28 252.21L406.693 275.889L362.265 301.537C362.189 301.034 370.162 259.221 372.47 247.19Z" fill="black"/>
<path d="M396.959 216.062L405.512 275.288L354.237 304.895L345.684 245.67L396.959 216.062ZM397.812 214.312L344.525 245.09L353.406 306.656L406.715 275.878L397.834 214.312H397.812Z" fill="#0B3F8D"/>
<path opacity="0.7" d="M396.959 216.062L405.512 275.288L354.237 304.895L345.684 245.67L396.959 216.062ZM397.812 214.312L344.525 245.09L353.406 306.656L406.715 275.878L397.834 214.312H397.812Z" fill="#FAFAFA"/>
<path d="M371.157 316.904L362.265 255.349L415.574 224.561L424.466 286.127L371.157 316.904Z" fill="#0B3F8D"/>
<path opacity="0.7" d="M371.157 316.904L362.265 255.349L415.574 224.561L424.466 286.127L371.157 316.904Z" fill="#FAFAFA"/>
<path d="M362.266 255.349L357.125 254.233L365.722 313.776L371.158 316.904L362.266 255.349Z" fill="#0B3F8D"/>
<path opacity="0.1" d="M362.266 255.349L357.125 254.233L365.722 313.776L371.158 316.904L362.266 255.349Z" fill="#FAFAFA"/>
<path d="M410.444 223.445L415.574 224.56L362.266 255.349L357.125 254.233L410.444 223.445Z" fill="#0B3F8D"/>
<path opacity="0.6" d="M410.444 223.445L415.574 224.56L362.266 255.349L357.125 254.233L410.444 223.445Z" fill="#FAFAFA"/>
<path d="M378.168 254.846C377.893 253.56 377.337 252.35 376.541 251.303C375.746 250.256 374.729 249.397 373.564 248.787L362.265 255.349L363.95 267.008C365.021 267.551 366.189 267.876 367.387 267.964C368.585 268.053 369.788 267.902 370.928 267.522C373.484 266.672 375.636 264.908 376.972 262.569C378.308 260.23 378.734 257.48 378.168 254.846Z" fill="#0B3F8D"/>
<path opacity="0.2" d="M378.168 254.846C377.893 253.56 377.337 252.35 376.541 251.303C375.746 250.256 374.729 249.397 373.564 248.787L362.265 255.349L363.95 267.008C365.021 267.551 366.189 267.876 367.387 267.964C368.585 268.053 369.788 267.902 370.928 267.522C373.484 266.672 375.636 264.908 376.972 262.569C378.308 260.23 378.734 257.48 378.168 254.846Z" fill="black"/>
<path d="M390.232 257.449C390.571 255.666 391.49 255.546 392.288 257.176L400.141 273.297L406.124 238.834C406.43 237.051 407.382 236.898 408.235 238.495L421.086 262.502L424.499 286.181L380.071 311.829C379.951 311.293 387.935 269.513 390.232 257.449Z" fill="#0B3F8D"/>
<path opacity="0.2" d="M390.232 257.449C390.571 255.666 391.49 255.546 392.288 257.176L400.141 273.297L406.124 238.834C406.43 237.051 407.382 236.898 408.235 238.495L421.086 262.502L424.499 286.181L380.071 311.829C379.951 311.293 387.935 269.513 390.232 257.449Z" fill="black"/>
<path d="M414.732 226.321L423.274 285.547L372 315.154L363.458 255.94L414.732 226.332V226.321ZM415.585 224.582L362.276 255.36L371.157 316.926L424.466 286.149L415.618 224.561L415.585 224.582Z" fill="#0B3F8D"/>
<path opacity="0.7" d="M414.732 226.321L423.274 285.547L372 315.154L363.458 255.94L414.732 226.332V226.321ZM415.585 224.582L362.276 255.36L371.157 316.926L424.466 286.149L415.618 224.561L415.585 224.582Z" fill="#FAFAFA"/>
<path d="M393.36 329.734L446.68 298.945V257.908L393.36 288.686V329.734Z" fill="#37474F"/>
<path d="M393.36 288.686L340.052 257.908V298.945L393.36 329.723V288.686ZM370.523 285.766L362.867 281.391C362.099 280.957 361.443 280.351 360.949 279.621C360.455 278.89 360.139 278.054 360.024 277.18C360.024 275.758 361.292 275.353 362.867 276.25L370.523 280.625C371.291 281.059 371.948 281.665 372.442 282.395C372.935 283.126 373.252 283.962 373.367 284.836C373.367 286.258 372.098 286.673 370.523 285.766Z" fill="#455A64"/>
<path d="M446.673 257.911L393.355 288.694L406.682 311.777L460 280.994L446.673 257.911Z" fill="#455A64"/>
<path d="M340.052 268.168L335.611 270.738L340.052 257.908V268.168Z" fill="#263238"/>
<path d="M149.447 67.3367L146.002 68.6602V61.0806C146.002 55.0651 141.212 53.6323 136.005 56.6291C130.799 59.6369 126.577 66.943 126.577 72.9585V74.0522C125.845 73.8258 125.07 73.7692 124.312 73.8867C123.554 74.0042 122.832 74.2927 122.203 74.7304C120.229 76.0178 118.586 77.7523 117.408 79.7932C116.23 81.8341 115.549 84.1239 115.421 86.477V86.9801L110.62 89.7473C109.319 90.5933 108.237 91.7348 107.462 93.0786C106.686 94.4225 106.239 95.9306 106.157 97.48C106.157 100.324 108.159 101.483 110.62 100.061L149.447 77.6616C150.748 76.8155 151.83 75.6741 152.606 74.3302C153.381 72.9864 153.828 71.4783 153.91 69.9289C153.91 67.0742 151.919 65.9149 149.447 67.3367Z" fill="#F0F0F0"/>
<path d="M225.866 360.293L225.659 353.73L231.127 352.779L231.444 358.422C231.707 359.735 232.637 360.172 232.866 360.905C233.096 361.638 229.137 369.217 226.895 370.891C224.652 372.564 221.032 370.42 220.682 369.611C220.332 368.802 223.668 369.403 224.215 368.255C224.97 366.658 225.866 360.293 225.866 360.293Z" fill="#FFA8A7"/>
<path d="M231.948 359.472C231.226 360.074 230.679 361.594 229.684 363.661C228.688 365.728 227.277 369.13 225.735 369.589C223.941 370.147 220.42 369.119 222.662 368.955C223.154 368.955 224.007 368.725 224.237 368.211C224.326 368.025 224.4 367.831 224.456 367.632C223.676 367.845 222.865 367.919 222.06 367.85C221.467 367.756 220.858 367.833 220.307 368.071C219.755 368.309 219.282 368.699 218.943 369.196C218.571 369.753 219.173 370.694 219.173 370.694C219.851 371.536 221.142 372.378 224.095 372.608C227.048 372.838 228.798 372.4 229.859 370.421C231.22 368.204 232.714 366.071 234.332 364.033C235.448 362.349 233.665 359.921 231.948 359.472Z" fill="#263238"/>
<path d="M224.423 367.763C224.248 368.222 222.946 368.353 222.29 368.441C221.634 368.528 221.338 369.13 222.388 369.469C224.215 369.688 225.09 367.73 224.423 367.763Z" fill="#FFA8A7"/>
<path d="M277.709 338.899L273.17 334.087L276.648 329.712L280.629 333.726C281.723 334.535 282.686 334.24 283.342 334.645C283.998 335.049 286.065 343.394 285.529 346.074C284.993 348.754 280.837 349.607 280.061 349.246C279.284 348.885 282.161 347.058 281.8 345.888C281.264 344.248 277.709 338.899 277.709 338.899Z" fill="#FFA8A7"/>
<path d="M281.723 334.251C281.581 335.18 282.172 336.679 282.817 338.888C283.462 341.098 284.622 344.565 283.79 345.943C282.817 347.551 279.503 349.126 281.078 347.507C281.417 347.157 281.942 346.413 281.767 345.899C281.71 345.704 281.637 345.513 281.548 345.33C281.108 346.005 280.553 346.598 279.908 347.08C279.401 347.403 278.996 347.863 278.74 348.408C278.484 348.952 278.389 349.557 278.464 350.154C278.562 350.821 279.623 351.127 279.623 351.127C280.717 351.313 282.215 351.127 284.578 349.29C286.94 347.452 287.958 346.008 287.422 343.821C286.971 341.256 286.675 338.667 286.536 336.066C286.24 334.076 283.276 333.441 281.723 334.251Z" fill="#263238"/>
<path d="M281.581 345.44C281.745 345.899 280.87 346.861 280.487 347.354C280.104 347.846 280.225 348.502 281.242 348.054C282.675 347.004 282.062 344.969 281.581 345.44Z" fill="#FFA8A7"/>
<path d="M240.862 237.565C242.316 232.512 241.397 229.439 240.282 225.064C238.226 217.047 236.279 209.019 236.279 209.019C236.279 209.019 234.824 178.525 234.759 175.747C234.682 172.466 234.048 170.64 233.774 167.851C233.621 166.276 232.484 166.122 232.593 166.177V172.346C231.586 171.443 230.633 170.483 229.738 169.469C228.71 168.222 227.671 168.376 227.332 168.999C226.993 169.622 228.71 170.836 229.52 172.444C230.445 174.046 231.472 175.588 232.593 177.06V193.728L228.218 196.266L227.343 212.19L234.157 236.963L240.862 237.565Z" fill="#FFA8A7"/>
<path d="M220.999 227.098L221.94 235.389L230.121 236.329L228.94 225.326L220.999 227.098Z" fill="#FFA8A7"/>
<path d="M179.284 162.951V224.506L232.593 193.728V132.162L179.284 162.951Z" fill="#0B3F8D"/>
<path opacity="0.7" d="M179.284 162.951V224.506L232.593 193.728V132.162L179.284 162.951Z" fill="#FAFAFA"/>
<path d="M179.284 179.225C181.089 179.925 183.408 179.63 185.945 178.132C191.687 174.85 196.346 166.746 196.346 160.118C196.486 157.962 195.767 155.838 194.345 154.212L179.284 162.962V179.225Z" fill="#0B3F8D"/>
<path opacity="0.2" d="M179.284 179.225C181.089 179.925 183.408 179.63 185.945 178.132C191.687 174.85 196.346 166.746 196.346 160.118C196.486 157.962 195.767 155.838 194.345 154.212L179.284 162.962V179.225Z" fill="black"/>
<path d="M202.767 180.746C203.292 179.007 204.331 178.941 205.085 180.593L212.599 196.999L223.821 154.551C224.28 152.801 225.057 152.79 225.549 154.551L232.593 179.608V193.739L191.611 217.397L202.767 180.746Z" fill="#0B3F8D"/>
<path opacity="0.2" d="M202.767 180.746C203.292 179.007 204.331 178.941 205.085 180.593L212.599 196.999L223.821 154.551C224.28 152.801 225.057 152.79 225.549 154.551L232.593 179.608V193.739L191.611 217.397L202.767 180.746Z" fill="black"/>
<path d="M231.499 134.065V193.127L180.378 222.657V163.596L231.499 134.065ZM232.593 132.173L179.284 162.973V224.539L232.593 193.761V132.162V132.173Z" fill="#0B3F8D"/>
<path opacity="0.7" d="M231.499 134.065V193.127L180.378 222.657V163.596L231.499 134.065ZM232.593 132.173L179.284 162.973V224.539L232.593 193.761V132.162V132.173Z" fill="#FAFAFA"/>
<path d="M179.284 224.506L174.844 221.947V160.38L179.284 162.951V224.506Z" fill="#0B3F8D"/>
<path opacity="0.1" d="M179.284 224.506L174.844 221.947V160.38L179.284 162.951V224.506Z" fill="#FAFAFA"/>
<path d="M174.844 160.38L228.152 129.603L232.593 132.162L179.284 162.951L174.844 160.38Z" fill="#0B3F8D"/>
<path opacity="0.6" d="M174.844 160.38L228.152 129.603L232.593 132.162L179.284 162.951L174.844 160.38Z" fill="#FAFAFA"/>
<path d="M240.861 237.565C240.719 238.276 240.391 239.676 239.768 242.038C238.564 246.413 236.749 252.615 235.972 254.682C235.972 254.769 235.907 254.846 235.874 254.912L239.155 260.162C239.155 260.162 236.968 262.841 230.558 264.711C224.149 266.582 216.34 262.786 216.34 262.786C216.34 262.786 214.688 254.124 214.382 251.696C214.382 251.554 214.327 251.335 214.295 251.084C214.229 250.569 214.163 250.11 214.065 249.684C214.065 249.684 214.065 249.607 214.065 249.563C213.945 249.038 213.857 248.338 213.704 247.562C213.538 246.237 213.065 244.97 212.323 243.861C211.58 242.752 210.589 241.832 209.427 241.174C208.52 240.682 189.675 233.223 186.7 231.407C185.939 231.015 185.274 230.459 184.753 229.781C184.231 229.102 183.865 228.317 183.681 227.481C183.265 226.332 177.534 207.411 176.856 205.53C176.239 203.945 175.221 202.547 173.903 201.472C172.416 199.875 171.891 199.514 171.431 198.081C170.972 196.649 171.552 196.299 171.781 195.588C172.098 194.603 171.781 193.914 171.956 193.17C172.23 192.241 172.798 192 172.941 191.585C173.011 190.847 173.139 190.115 173.323 189.397C173.622 188.706 174.157 188.143 174.833 187.811V189.999C175.653 193.356 179.339 195.008 179.809 194.767C180.279 194.527 180.969 192.58 181.997 191.771C183.025 190.961 184.447 191.038 183.922 192.055C183.626 192.645 182.948 194.844 182.598 195.817C182.248 196.791 181.209 198.836 181.439 200.4C181.734 202.489 191.446 224.025 191.446 224.025C191.446 224.025 202.001 227.481 210.379 230.084C215.574 231.703 219.851 232.698 219.851 232.698L222.443 232.239L223.416 232.064L236.049 229.69L236.508 229.603C236.922 229.548 237.341 229.548 237.755 229.603C238.335 229.774 238.872 230.064 239.331 230.456C239.791 230.848 240.163 231.333 240.424 231.878C241.239 233.662 241.394 235.677 240.861 237.565Z" fill="#FFA8A7"/>
<path d="M222.574 267.194C222.574 267.194 238.433 305.978 239.888 309.533C240.801 312.121 242.593 314.308 244.952 315.712L274.734 336.22C278.967 334.459 279.109 331.702 279.109 331.702C279.109 331.702 264.825 313.492 261.85 310.922C258.875 308.351 253.253 306.962 253.253 306.962L246.21 277.431C245.28 272.903 245.849 267.894 239.111 260.172L222.574 267.194Z" fill="#37474F"/>
<path d="M227.496 265.029C230.777 269.579 233.774 273.582 234.627 278.831C236.432 289.9 232.079 303.429 231.554 311.698C233.13 314.193 234.09 317.027 234.353 319.967C234.507 323.368 231.51 354.682 231.51 354.682C229.658 355.705 227.521 356.089 225.429 355.775C225.429 355.775 218.746 310.528 217.477 295.817C216.208 281.106 216.154 262.841 216.154 262.841L227.496 265.029Z" fill="#37474F"/>
<path d="M215.738 214.772C215.312 213.604 215.189 212.348 215.38 211.12C215.571 209.892 216.071 208.732 216.832 207.75C219.949 203.539 225.877 201.745 232.144 203.922C235.261 205.016 239.068 208.559 238.969 216.248C238.903 220.973 225.582 223.511 225.647 226.748L215.738 214.772Z" fill="#263238"/>
<path d="M215.334 216.565C215.334 216.565 213.354 219.289 213.584 219.595C214.007 219.902 214.481 220.131 214.984 220.273L215.334 216.565Z" fill="#F28F8F"/>
<path d="M221.404 207.881C219.556 208.734 216.362 210.32 215.257 216.937C214.164 223.729 215.257 225.971 216.121 226.901C216.723 227.535 220.114 227.689 221.82 227.24C224.007 226.671 228.82 225.053 231.127 221.597C233.84 217.561 234.605 212.059 231.784 209.762C230.352 208.599 228.65 207.817 226.836 207.488C225.021 207.159 223.152 207.294 221.404 207.881Z" fill="#FFA8A7"/>
<path d="M216.209 262.797L239.057 260.161C240.676 262.797 244.525 267.304 243.705 271.635C242.71 276.885 239.888 280.571 231.248 283.141" fill="#37474F"/>
<path d="M238.783 245.396C237.624 249.694 236.672 252.724 235.94 254.682C235.94 254.769 235.874 254.846 235.841 254.912L239.122 260.161C239.122 260.161 236.935 262.841 230.526 264.711C224.116 266.582 216.307 262.786 216.307 262.786C216.307 262.786 214.655 254.124 214.349 251.696C214.349 251.554 214.295 251.335 214.262 251.084C214.229 250.832 214.12 250.187 214.032 249.684C214.032 249.684 214.032 249.607 214.032 249.563C213.89 248.699 213.737 247.857 213.671 247.562C221.798 243.909 219.84 232.643 219.84 232.643L222.432 232.184L223.405 232.009C227.179 231.342 229.869 230.828 233.249 230.16C233.468 230.139 240.675 238.44 238.783 245.396Z" fill="#FAFAFA"/>
<path d="M236.607 252.659C233.987 254.333 231.224 255.772 228.349 256.957C230.985 256.904 233.565 256.19 235.852 254.879L236.607 252.659Z" fill="#F0F0F0"/>
<path d="M220.857 208.144C220.857 208.144 219.008 214.301 220.715 218.326C220.715 218.326 221.929 215.942 223.996 216.729C226.063 217.517 225.757 220.317 223.996 221.684C223.555 222.073 223.014 222.331 222.434 222.428C221.853 222.525 221.258 222.456 220.715 222.231C220.802 224.23 221.531 226.147 222.793 227.7C224.957 228.438 227.287 228.55 229.513 228.022C231.738 227.494 233.769 226.347 235.371 224.714C240.664 219.54 240.435 209.828 233.096 207.028C225.757 204.228 220.857 208.144 220.857 208.144Z" fill="#263238"/>
<path d="M234.146 295.467L236.005 280.428C236.005 280.428 241.474 278.35 243.826 275.135C242.767 277.923 240.852 280.304 238.357 281.938C237.974 282.408 235.076 297.83 235.076 297.83L234.146 295.467Z" fill="#263238"/>
<path d="M242.426 214.312C239.899 215.406 237.974 213.404 236.596 210.178C235.218 206.951 234.901 203.747 237.427 202.653C239.954 201.559 243.005 203.616 244.383 206.831C245.762 210.047 244.996 213.284 242.426 214.312Z" fill="#263238"/>
<path d="M232.593 172.335C231.844 171.898 231.201 171.3 230.712 170.585C229.946 169.436 228.852 168.966 228.196 169.327C227.704 169.601 228.284 170.421 228.644 171.121C229.176 172.453 229.914 173.694 230.832 174.796C231.849 175.736 232.582 175.977 232.582 177.049C233.146 176.421 233.441 175.596 233.402 174.752C233.393 173.881 233.11 173.036 232.593 172.335Z" fill="#FFA8A7"/>
</svg>
